<svg width="176" height="209" viewBox="0 0 176 209" fill="none" xmlns="http://www.w3.org/2000/svg">
<path d="M12.7255 11.8784C12.0453 12.6999 11.2431 13.3288 10.319 13.7651C9.39494 14.1887 8.36175 14.4004 7.21947 14.4004C6.1927 14.4004 5.23652 14.2143 4.35094 13.8421C3.47818 13.4699 2.72094 12.963 2.07921 12.3212C1.43748 11.6795 0.930509 10.9223 0.558305 10.0495C0.186101 9.16392 0 8.21416 0 7.20022C0 6.18629 0.186101 5.24294 0.558305 4.37019C0.930509 3.4846 1.43748 2.72094 2.07921 2.07921C2.72094 1.43748 3.47818 0.93051 4.35094 0.558307C5.23652 0.186102 6.1927 0 7.21947 0C8.32325 0 9.29226 0.192519 10.1265 0.577558C10.9736 0.962597 11.7244 1.5209 12.379 2.25248L10.5501 4.02365C10.1393 3.54877 9.66447 3.17015 9.12541 2.88779C8.59919 2.60543 7.9703 2.46425 7.23872 2.46425C6.59699 2.46425 5.99376 2.57976 5.42904 2.81078C4.86432 3.02897 4.37019 3.34342 3.94664 3.75413C3.53594 4.16483 3.20865 4.66538 2.9648 5.25578C2.72094 5.83333 2.59901 6.48148 2.59901 7.20022C2.59901 7.91896 2.72094 8.57352 2.9648 9.16392C3.20865 9.74148 3.53594 10.2356 3.94664 10.6463C4.37019 11.057 4.86432 11.3779 5.42904 11.6089C5.99376 11.8271 6.59699 11.9362 7.23872 11.9362C8.0088 11.9362 8.68904 11.7822 9.27943 11.4741C9.88266 11.1533 10.4153 10.7041 10.8773 10.1265L12.7255 11.8784Z" fill="black"/>
<path d="M21.1503 14.4004C20.1236 14.4004 19.1674 14.2143 18.2818 13.8421C17.4091 13.4699 16.6518 12.963 16.0101 12.3212C15.3684 11.6667 14.8614 10.903 14.4892 10.0303C14.1298 9.14467 13.9501 8.20132 13.9501 7.20022C13.9501 6.19912 14.1298 5.26219 14.4892 4.38944C14.8614 3.50385 15.3684 2.74019 16.0101 2.09846C16.6518 1.4439 17.4091 0.93051 18.2818 0.558307C19.1674 0.186102 20.1236 0 21.1503 0C22.1771 0 23.1269 0.186102 23.9996 0.558307C24.8852 0.93051 25.6489 1.4439 26.2906 2.09846C26.9323 2.74019 27.4329 3.50385 27.7923 4.38944C28.1645 5.26219 28.3506 6.19912 28.3506 7.20022C28.3506 8.20132 28.1645 9.14467 27.7923 10.0303C27.4329 10.903 26.9323 11.6667 26.2906 12.3212C25.6489 12.963 24.8852 13.4699 23.9996 13.8421C23.1269 14.2143 22.1771 14.4004 21.1503 14.4004ZM21.1503 11.9362C21.7921 11.9362 22.3889 11.8207 22.9408 11.5897C23.5055 11.3586 23.9932 11.0378 24.4039 10.6271C24.8275 10.2164 25.1547 9.72222 25.3858 9.14467C25.6296 8.55427 25.7516 7.90613 25.7516 7.20022C25.7516 6.49432 25.6296 5.85259 25.3858 5.27503C25.1547 4.68464 24.8275 4.18409 24.4039 3.77338C23.9932 3.36267 23.5055 3.0418 22.9408 2.81078C22.3889 2.57976 21.7921 2.46425 21.1503 2.46425C20.5086 2.46425 19.9054 2.57976 19.3407 2.81078C18.7888 3.0418 18.3011 3.36267 17.8775 3.77338C17.4668 4.18409 17.1395 4.68464 16.8957 5.27503C16.6646 5.85259 16.5491 6.49432 16.5491 7.20022C16.5491 7.90613 16.6646 8.55427 16.8957 9.14467C17.1395 9.72222 17.4668 10.2164 17.8775 10.6271C18.3011 11.0378 18.7888 11.3586 19.3407 11.5897C19.9054 11.8207 20.5086 11.9362 21.1503 11.9362Z" fill="black"/>
<path d="M35.4981 14.4004C34.6896 14.4004 33.9516 14.2721 33.2842 14.0154C32.6296 13.7459 32.0713 13.3608 31.6093 12.8603C31.1472 12.3597 30.7878 11.7565 30.5311 11.0506C30.2745 10.3319 30.1461 9.51687 30.1461 8.60561V0.308031H32.7451V8.75963C32.7451 9.22167 32.8029 9.64522 32.9184 10.0303C33.0339 10.4153 33.2072 10.749 33.4382 11.0314C33.6692 11.3137 33.958 11.5383 34.3045 11.7052C34.6511 11.8592 35.0489 11.9362 35.4981 11.9362C35.9602 11.9362 36.3645 11.8592 36.711 11.7052C37.0576 11.5383 37.3463 11.3137 37.5774 11.0314C37.8084 10.749 37.9816 10.4153 38.0972 10.0303C38.2127 9.64522 38.2704 9.22167 38.2704 8.75963V0.308031H40.8694V8.60561C40.8694 9.46553 40.7411 10.2549 40.4844 10.9736C40.2405 11.6795 39.8812 12.2891 39.4063 12.8025C38.9442 13.3031 38.3795 13.6945 37.7121 13.9769C37.0576 14.2593 36.3196 14.4004 35.4981 14.4004Z" fill="black"/>
<path d="M49.8783 6.5264H56.6357C56.6742 6.68042 56.7063 6.86652 56.732 7.08471C56.7576 7.3029 56.7705 7.52109 56.7705 7.73928C56.7705 8.62486 56.6357 9.45912 56.3662 10.242C56.0967 11.0249 55.6731 11.7244 55.0956 12.3405C54.4795 12.9951 53.7415 13.502 52.8816 13.8614C52.0217 14.2208 51.0398 14.4004 49.936 14.4004C48.9349 14.4004 47.9916 14.2208 47.106 13.8614C46.2204 13.502 45.4503 13.0015 44.7958 12.3597C44.1412 11.718 43.6214 10.9608 43.2364 10.088C42.8513 9.20242 42.6588 8.23983 42.6588 7.20022C42.6588 6.16062 42.8513 5.20444 43.2364 4.33168C43.6214 3.4461 44.1412 2.68244 44.7958 2.0407C45.4503 1.39897 46.2204 0.898423 47.106 0.539054C47.9916 0.179685 48.9349 0 49.936 0C51.0526 0 52.0473 0.192519 52.9201 0.577558C53.8057 0.962597 54.5629 1.49523 55.1918 2.17547L53.4014 3.92739C52.9522 3.45251 52.4516 3.09314 51.8997 2.84929C51.3478 2.59259 50.6869 2.46425 49.9168 2.46425C49.2879 2.46425 48.6911 2.57976 48.1264 2.81078C47.5616 3.02897 47.0675 3.34342 46.644 3.75413C46.2204 4.16483 45.8803 4.66538 45.6236 5.25578C45.3797 5.83333 45.2578 6.48148 45.2578 7.20022C45.2578 7.91896 45.3797 8.57352 45.6236 9.16392C45.8803 9.74148 46.2204 10.2356 46.644 10.6463C47.0803 11.057 47.5809 11.3779 48.1456 11.6089C48.7103 11.8271 49.3136 11.9362 49.9553 11.9362C50.6869 11.9362 51.3029 11.8335 51.8035 11.6282C52.3169 11.41 52.7532 11.134 53.1126 10.8003C53.3693 10.5693 53.5875 10.2805 53.7672 9.934C53.9597 9.57463 54.1073 9.17675 54.21 8.74038H49.8783V6.5264Z" fill="black"/>
<path d="M58.9184 0.308031H61.5174V5.81408H67.3123V0.308031H69.9113V14.0924H67.3123V8.27833H61.5174V14.0924H58.9184V0.308031Z" fill="black"/>
<path d="M83.0611 14.4004C82.0343 14.4004 81.0781 14.2143 80.1925 13.8421C79.3198 13.4699 78.5625 12.963 77.9208 12.3212C77.2791 11.6667 76.7721 10.903 76.3999 10.0303C76.0405 9.14467 75.8609 8.20132 75.8609 7.20022C75.8609 6.19912 76.0405 5.26219 76.3999 4.38944C76.7721 3.50385 77.2791 2.74019 77.9208 2.09846C78.5625 1.4439 79.3198 0.93051 80.1925 0.558307C81.0781 0.186102 82.0343 0 83.0611 0C84.0879 0 85.0376 0.186102 85.9104 0.558307C86.796 0.93051 87.5596 1.4439 88.2013 2.09846C88.8431 2.74019 89.3436 3.50385 89.703 4.38944C90.0752 5.26219 90.2613 6.19912 90.2613 7.20022C90.2613 8.20132 90.0752 9.14467 89.703 10.0303C89.3436 10.903 88.8431 11.6667 88.2013 12.3212C87.5596 12.963 86.796 13.4699 85.9104 13.8421C85.0376 14.2143 84.0879 14.4004 83.0611 14.4004ZM83.0611 11.9362C83.7028 11.9362 84.2996 11.8207 84.8515 11.5897C85.4162 11.3586 85.9039 11.0378 86.3147 10.6271C86.7382 10.2164 87.0655 9.72222 87.2965 9.14467C87.5404 8.55427 87.6623 7.90613 87.6623 7.20022C87.6623 6.49432 87.5404 5.85259 87.2965 5.27503C87.0655 4.68464 86.7382 4.18409 86.3147 3.77338C85.9039 3.36267 85.4162 3.0418 84.8515 2.81078C84.2996 2.57976 83.7028 2.46425 83.0611 2.46425C82.4194 2.46425 81.8161 2.57976 81.2514 2.81078C80.6995 3.0418 80.2118 3.36267 79.7883 3.77338C79.3775 4.18409 79.0503 4.68464 78.8064 5.27503C78.5754 5.85259 78.4599 6.49432 78.4599 7.20022C78.4599 7.90613 78.5754 8.55427 78.8064 9.14467C79.0503 9.72222 79.3775 10.2164 79.7883 10.6271C80.2118 11.0378 80.6995 11.3586 81.2514 11.5897C81.8161 11.8207 82.4194 11.9362 83.0611 11.9362Z" fill="black"/>
<path d="M92.3649 0.308031H97.3896C98.0827 0.308031 98.7116 0.417125 99.2763 0.635313C99.841 0.853502 100.322 1.15512 100.72 1.54015C101.131 1.92519 101.445 2.38724 101.664 2.92629C101.882 3.45251 101.991 4.03007 101.991 4.65897C101.991 5.12101 101.914 5.55739 101.76 5.9681C101.606 6.36597 101.394 6.73176 101.124 7.06546C100.855 7.38632 100.541 7.6751 100.181 7.93179C99.8218 8.17565 99.4432 8.36817 99.0453 8.50935L99.026 8.64412L102.722 13.9384V14.0924H99.7384L96.1768 8.91364H94.9639V14.0924H92.3649V0.308031ZM97.3704 6.5264C97.9608 6.5264 98.4421 6.34672 98.8143 5.98735C99.1993 5.62798 99.3918 5.17235 99.3918 4.62046C99.3918 4.37661 99.3469 4.13916 99.2571 3.90814C99.1801 3.67712 99.0581 3.47176 98.8913 3.29208C98.7244 3.1124 98.5127 2.97121 98.256 2.86854C98.0121 2.75303 97.7298 2.69527 97.4089 2.69527H94.9639V6.5264H97.3704Z" fill="black"/>
<path d="M112.167 14.4004C111.576 14.4004 111.012 14.317 110.473 14.1502C109.934 13.9833 109.439 13.733 108.99 13.3993C108.541 13.0656 108.15 12.6614 107.816 12.1865C107.482 11.6988 107.219 11.134 107.027 10.4923L109.472 9.52971C109.651 10.2228 109.966 10.8003 110.415 11.2624C110.864 11.7116 111.455 11.9362 112.186 11.9362C112.456 11.9362 112.712 11.9041 112.956 11.8399C113.213 11.7629 113.437 11.6603 113.63 11.5319C113.835 11.3907 113.996 11.2175 114.111 11.0121C114.227 10.8067 114.285 10.5693 114.285 10.2998C114.285 10.0431 114.24 9.81207 114.15 9.60671C114.06 9.40136 113.906 9.20884 113.688 9.02915C113.482 8.84947 113.206 8.6762 112.86 8.50935C112.526 8.3425 112.109 8.16924 111.609 7.98955L110.761 7.68152C110.389 7.55317 110.011 7.37991 109.626 7.16172C109.253 6.94353 108.913 6.68042 108.605 6.37239C108.297 6.06436 108.041 5.70499 107.835 5.29428C107.643 4.87074 107.546 4.39586 107.546 3.86964C107.546 3.33058 107.649 2.83003 107.854 2.36799C108.073 1.89311 108.374 1.4824 108.759 1.13586C109.157 0.776495 109.626 0.500551 110.165 0.308031C110.717 0.102677 111.326 0 111.994 0C112.687 0 113.283 0.0962599 113.784 0.28878C114.297 0.468464 114.727 0.705905 115.074 1.0011C115.433 1.28346 115.722 1.59791 115.94 1.94444C116.158 2.29098 116.319 2.61826 116.422 2.92629L114.131 3.88889C114.002 3.50385 113.765 3.15732 113.418 2.84929C113.085 2.54126 112.622 2.38724 112.032 2.38724C111.467 2.38724 110.999 2.522 110.627 2.79153C110.254 3.04822 110.068 3.38834 110.068 3.81188C110.068 4.22259 110.248 4.57554 110.607 4.87074C110.967 5.1531 111.538 5.42904 112.321 5.69857L113.187 5.98735C113.739 6.17987 114.24 6.40448 114.689 6.66117C115.151 6.90503 115.542 7.20022 115.863 7.54676C116.197 7.89329 116.447 8.29116 116.614 8.74038C116.794 9.17675 116.884 9.68372 116.884 10.2613C116.884 10.98 116.736 11.6025 116.441 12.1287C116.158 12.6421 115.793 13.0656 115.343 13.3993C114.894 13.733 114.387 13.9833 113.823 14.1502C113.258 14.317 112.706 14.4004 112.167 14.4004Z" fill="black"/>
<path d="M119.024 0.308031H122.047L127.591 9.54896H127.745L127.591 6.89219V0.308031H130.171V14.0924H127.437L121.585 4.33168H121.431L121.585 6.98845V14.0924H119.024V0.308031Z" fill="black"/>
<path d="M135.536 2.77228V5.9681H141.061V8.43235H135.536V11.6282H141.677V14.0924H132.937V0.308031H141.677V2.77228H135.536Z" fill="black"/>
<path d="M146.666 2.77228V5.9681H152.191V8.43235H146.666V11.6282H152.807V14.0924H144.067V0.308031H152.807V2.77228H146.666Z" fill="black"/>
<path d="M154.427 11.4741L161.415 2.77228H154.735V0.308031H164.438V2.92629L157.526 11.6282H164.515V14.0924H154.427V11.4741Z" fill="black"/>
<path d="M169.264 2.77228V5.9681H174.79V8.43235H169.264V11.6282H175.406V14.0924H166.665V0.308031H175.406V2.77228H169.264Z" fill="black"/>
<path d="M2.67609 24.3729H5.2751V38.1573H2.67609V24.3729Z" fill="black"/>
<path d="M8.0531 24.3729H11.0756L16.6202 33.6139H16.7742L16.6202 30.9571V24.3729H19.2V38.1573H16.4662L10.6136 28.3966H10.4596L10.6136 31.0534V38.1573H8.0531V24.3729Z" fill="black"/>
<path d="M24.8919 38.1573V26.8372H21.0415V24.3729H31.3413V26.8372H27.4909V38.1573H24.8919Z" fill="black"/>
<path d="M39.1332 38.4654C38.1065 38.4654 37.1503 38.2793 36.2647 37.907C35.3919 37.5348 34.6347 37.0279 33.993 36.3861C33.3512 35.7316 32.8443 34.9679 32.4721 34.0952C32.1127 33.2096 31.933 32.2662 31.933 31.2651C31.933 30.264 32.1127 29.3271 32.4721 28.4543C32.8443 27.5688 33.3512 26.8051 33.993 26.1634C34.6347 25.5088 35.3919 24.9954 36.2647 24.6232C37.1503 24.251 38.1065 24.0649 39.1332 24.0649C40.16 24.0649 41.1098 24.251 41.9825 24.6232C42.8681 24.9954 43.6318 25.5088 44.2735 26.1634C44.9152 26.8051 45.4158 27.5688 45.7751 28.4543C46.1473 29.3271 46.3334 30.264 46.3334 31.2651C46.3334 32.2662 46.1473 33.2096 45.7751 34.0952C45.4158 34.9679 44.9152 35.7316 44.2735 36.3861C43.6318 37.0279 42.8681 37.5348 41.9825 37.907C41.1098 38.2793 40.16 38.4654 39.1332 38.4654ZM39.1332 36.0011C39.775 36.0011 40.3718 35.8856 40.9237 35.6546C41.4884 35.4235 41.9761 35.1027 42.3868 34.692C42.8103 34.2813 43.1376 33.7871 43.3686 33.2096C43.6125 32.6192 43.7344 31.971 43.7344 31.2651C43.7344 30.5592 43.6125 29.9175 43.3686 29.3399C43.1376 28.7495 42.8103 28.249 42.3868 27.8383C41.9761 27.4276 41.4884 27.1067 40.9237 26.8757C40.3718 26.6447 39.775 26.5292 39.1332 26.5292C38.4915 26.5292 37.8883 26.6447 37.3235 26.8757C36.7717 27.1067 36.2839 27.4276 35.8604 27.8383C35.4497 28.249 35.1224 28.7495 34.8785 29.3399C34.6475 29.9175 34.532 30.5592 34.532 31.2651C34.532 31.971 34.6475 32.6192 34.8785 33.2096C35.1224 33.7871 35.4497 34.2813 35.8604 34.692C36.2839 35.1027 36.7717 35.4235 37.3235 35.6546C37.8883 35.8856 38.4915 36.0011 39.1332 36.0011Z" fill="black"/>
<path d="M55.3809 31.7464L50.7412 24.3729H53.8408L56.5938 28.9356H56.7478L59.4046 24.3729H62.5427L57.98 31.7464V38.1573H55.3809V31.7464Z" fill="black"/>
<path d="M69.91 38.4654C68.8832 38.4654 67.927 38.2793 67.0415 37.907C66.1687 37.5348 65.4115 37.0279 64.7697 36.3861C64.128 35.7316 63.621 34.9679 63.2488 34.0952C62.8894 33.2096 62.7098 32.2662 62.7098 31.2651C62.7098 30.264 62.8894 29.3271 63.2488 28.4543C63.621 27.5688 64.128 26.8051 64.7697 26.1634C65.4115 25.5088 66.1687 24.9954 67.0415 24.6232C67.927 24.251 68.8832 24.0649 69.91 24.0649C70.9368 24.0649 71.8865 24.251 72.7593 24.6232C73.6449 24.9954 74.4085 25.5088 75.0503 26.1634C75.692 26.8051 76.1925 27.5688 76.5519 28.4543C76.9241 29.3271 77.1102 30.264 77.1102 31.2651C77.1102 32.2662 76.9241 33.2096 76.5519 34.0952C76.1925 34.9679 75.692 35.7316 75.0503 36.3861C74.4085 37.0279 73.6449 37.5348 72.7593 37.907C71.8865 38.2793 70.9368 38.4654 69.91 38.4654ZM69.91 36.0011C70.5517 36.0011 71.1485 35.8856 71.7004 35.6546C72.2651 35.4235 72.7529 35.1027 73.1636 34.692C73.5871 34.2813 73.9144 33.7871 74.1454 33.2096C74.3893 32.6192 74.5112 31.971 74.5112 31.2651C74.5112 30.5592 74.3893 29.9175 74.1454 29.3399C73.9144 28.7495 73.5871 28.249 73.1636 27.8383C72.7529 27.4276 72.2651 27.1067 71.7004 26.8757C71.1485 26.6447 70.5517 26.5292 69.91 26.5292C69.2683 26.5292 68.665 26.6447 68.1003 26.8757C67.5484 27.1067 67.0607 27.4276 66.6372 27.8383C66.2264 28.249 65.8992 28.7495 65.6553 29.3399C65.4243 29.9175 65.3088 30.5592 65.3088 31.2651C65.3088 31.971 65.4243 32.6192 65.6553 33.2096C65.8992 33.7871 66.2264 34.2813 66.6372 34.692C67.0607 35.1027 67.5484 35.4235 68.1003 35.6546C68.665 35.8856 69.2683 36.0011 69.91 36.0011Z" fill="black"/>
<path d="M84.2578 38.4654C83.4492 38.4654 82.7112 38.337 82.0438 38.0803C81.3892 37.8108 80.8309 37.4257 80.3689 36.9252C79.9068 36.4246 79.5475 35.8214 79.2908 35.1155C79.0341 34.3968 78.9057 33.5818 78.9057 32.6705V24.3729H81.5048V32.8245C81.5048 33.2866 81.5625 33.7101 81.678 34.0952C81.7935 34.4802 81.9668 34.8139 82.1978 35.0963C82.4289 35.3786 82.7176 35.6032 83.0642 35.7701C83.4107 35.9241 83.8086 36.0011 84.2578 36.0011C84.7198 36.0011 85.1241 35.9241 85.4707 35.7701C85.8172 35.6032 86.106 35.3786 86.337 35.0963C86.568 34.8139 86.7413 34.4802 86.8568 34.0952C86.9723 33.7101 87.0301 33.2866 87.0301 32.8245V24.3729H89.6291V32.6705C89.6291 33.5304 89.5007 34.3198 89.244 35.0385C89.0002 35.7444 88.6408 36.3541 88.1659 36.8674C87.7039 37.368 87.1392 37.7594 86.4718 38.0418C85.8172 38.3242 85.0792 38.4654 84.2578 38.4654Z" fill="black"/>
<path d="M92.0923 24.3729H97.117C97.8101 24.3729 98.439 24.482 99.0037 24.7002C99.5684 24.9184 100.05 25.22 100.448 25.6051C100.858 25.9901 101.173 26.4521 101.391 26.9912C101.609 27.5174 101.718 28.095 101.718 28.7239C101.718 29.1859 101.641 29.6223 101.487 30.033C101.333 30.4309 101.121 30.7967 100.852 31.1304C100.582 31.4512 100.268 31.74 99.9085 31.9967C99.5492 32.2406 99.1706 32.4331 98.7727 32.5743L98.7534 32.709L102.45 38.0033V38.1573H99.4658L95.9041 32.9786H94.6913V38.1573H92.0923V24.3729ZM97.0978 30.5913C97.6882 30.5913 98.1695 30.4116 98.5417 30.0523C98.9267 29.6929 99.1192 29.2373 99.1192 28.6854C99.1192 28.4415 99.0743 28.2041 98.9845 27.9731C98.9075 27.742 98.7855 27.5367 98.6187 27.357C98.4518 27.1773 98.2401 27.0361 97.9834 26.9334C97.7395 26.8179 97.4571 26.7602 97.1363 26.7602H94.6913V30.5913H97.0978Z" fill="black"/>
<path d="M110.86 26.8372V30.033H116.385V32.4973H110.86V35.6931H117.001V38.1573H108.261V24.3729H117.001V26.8372H110.86Z" fill="black"/>
<path d="M119.391 24.3729H121.99V35.6931H127.823V38.1573H119.391V24.3729Z" fill="black"/>
<path d="M129.675 24.3729H135.065C135.656 24.3729 136.208 24.4692 136.721 24.6617C137.234 24.8414 137.677 25.0981 138.049 25.4318C138.435 25.7527 138.736 26.1313 138.954 26.5677C139.173 27.004 139.282 27.4725 139.282 27.9731C139.282 28.7046 139.102 29.3207 138.743 29.8212C138.396 30.309 137.96 30.6812 137.433 30.9378V31.0919C138.139 31.3486 138.704 31.7528 139.128 32.3047C139.564 32.8438 139.782 33.5176 139.782 34.3262C139.782 34.9166 139.66 35.4492 139.416 35.9241C139.185 36.3861 138.864 36.784 138.454 37.1177C138.043 37.4514 137.562 37.7081 137.01 37.8878C136.471 38.0675 135.887 38.1573 135.258 38.1573H129.675V24.3729ZM134.873 29.9945C135.476 29.9945 135.938 29.8341 136.259 29.5132C136.593 29.1795 136.76 28.788 136.76 28.3388C136.76 27.8896 136.599 27.5046 136.278 27.1837C135.957 26.8629 135.515 26.7024 134.95 26.7024H132.274V29.9945H134.873ZM135.162 35.7701C135.816 35.7701 136.317 35.6096 136.663 35.2888C137.01 34.9551 137.183 34.5315 137.183 34.0182C137.183 33.5048 137.003 33.0812 136.644 32.7475C136.298 32.401 135.778 32.2277 135.085 32.2277H132.274V35.7701H135.162Z" fill="black"/>
<path d="M148.309 38.4654C147.282 38.4654 146.326 38.2793 145.44 37.907C144.568 37.5348 143.81 37.0279 143.169 36.3861C142.527 35.7316 142.02 34.9679 141.648 34.0952C141.288 33.2096 141.109 32.2662 141.109 31.2651C141.109 30.264 141.288 29.3271 141.648 28.4543C142.02 27.5688 142.527 26.8051 143.169 26.1634C143.81 25.5088 144.568 24.9954 145.44 24.6232C146.326 24.251 147.282 24.0649 148.309 24.0649C149.336 24.0649 150.285 24.251 151.158 24.6232C152.044 24.9954 152.807 25.5088 153.449 26.1634C154.091 26.8051 154.591 27.5688 154.951 28.4543C155.323 29.3271 155.509 30.264 155.509 31.2651C155.509 32.2662 155.323 33.2096 154.951 34.0952C154.591 34.9679 154.091 35.7316 153.449 36.3861C152.807 37.0279 152.044 37.5348 151.158 37.907C150.285 38.2793 149.336 38.4654 148.309 38.4654ZM148.309 36.0011C148.951 36.0011 149.547 35.8856 150.099 35.6546C150.664 35.4235 151.152 35.1027 151.563 34.692C151.986 34.2813 152.313 33.7871 152.544 33.2096C152.788 32.6192 152.91 31.971 152.91 31.2651C152.91 30.5592 152.788 29.9175 152.544 29.3399C152.313 28.7495 151.986 28.249 151.563 27.8383C151.152 27.4276 150.664 27.1067 150.099 26.8757C149.547 26.6447 148.951 26.5292 148.309 26.5292C147.667 26.5292 147.064 26.6447 146.499 26.8757C145.947 27.1067 145.46 27.4276 145.036 27.8383C144.625 28.249 144.298 28.7495 144.054 29.3399C143.823 29.9175 143.708 30.5592 143.708 31.2651C143.708 31.971 143.823 32.6192 144.054 33.2096C144.298 33.7871 144.625 34.2813 145.036 34.692C145.46 35.1027 145.947 35.4235 146.499 35.6546C147.064 35.8856 147.667 36.0011 148.309 36.0011Z" fill="black"/>
<path d="M156.347 24.3729H159.1L161.237 32.4202L161.545 33.9026H161.699L162.103 32.4202L164.086 26.2211H166.512L168.514 32.4202L168.899 33.8834H169.053L169.342 32.4202L171.344 24.3729H174.097L170.439 38.1573H167.936L165.78 31.5154L165.376 29.9945H165.222L164.817 31.5154L162.661 38.1573H160.159L156.347 24.3729Z" fill="black"/>
<path fill-rule="evenodd" clip-rule="evenodd" d="M87.2327 65.9254C85.4901 66.347 81.8562 67.9291 79.5168 69.2841C78.9981 69.5848 77.4026 70.0068 75.9713 70.2221C70.273 71.0789 65.6206 74.7747 62.8805 80.6201C61.1851 84.2374 60.6505 86.9032 60.6626 91.6809C60.6743 96.3899 61.0383 97.7803 62.7613 99.6972C65.9428 103.237 71.661 107.851 75.9305 110.322C76.5485 110.681 76.473 110.889 75.0443 112.765C72.9588 115.504 71.1004 119.343 69.8667 123.46C69.0126 126.309 68.8243 127.773 68.6697 132.76C68.5685 136.015 68.4346 138.679 68.3724 138.679C68.3097 138.679 66.6166 137.735 64.6099 136.58C60.2159 134.053 56.8261 132.582 52.9671 131.528C49.7071 130.637 47.9057 130.67 47.3006 131.633C46.5524 132.823 47.5054 133.551 50.9646 134.432C55.5378 135.597 60.062 137.624 65.7466 141.053C72.1288 144.903 73.218 145.443 74.6093 145.443C78.3307 145.443 82.3007 141.465 79.8718 140.17C79.2301 139.828 78.7827 139.956 77.2925 140.908C74.9723 142.392 74.0438 142.384 73.1218 140.873C69.772 135.387 72.7219 120.114 78.3428 113.839L79.7054 112.317L83.1008 113.449C84.9683 114.072 87.6476 114.733 89.0548 114.918L91.6135 115.255L98.4865 109.647C110.426 99.9046 121.583 92.1014 127.807 89.1399C130.868 87.683 131.721 87.4376 133.654 87.4571C138.643 87.5067 141.743 90.18 142.851 95.388C143.084 96.4835 143.275 97.4515 143.275 97.5394C143.275 97.9284 140.947 98.8186 138.002 99.5555C135.937 100.072 134.074 100.838 132.748 101.716C129.285 104.005 123.923 109.519 116.167 118.762C103.707 133.613 100.154 136.862 95.8487 137.342C92.8784 137.673 88.0449 136.772 82.6028 134.874C80.1793 134.028 77.6022 133.312 76.8759 133.283C75.6102 133.232 75.5555 133.284 75.5555 134.534V135.839L79.3282 137.294C84.5295 139.3 90.2629 140.55 94.277 140.554C101.497 140.562 103.914 138.584 119.536 119.89C126.105 112.028 132.19 105.791 134.741 104.301C135.689 103.748 138.077 102.897 140.047 102.411C145.318 101.111 146.552 99.9377 146.393 96.376C146.191 91.8534 143.654 87.7273 139.824 85.6939C137.813 84.6259 136.939 84.396 134.391 84.2626C131.66 84.1198 131.058 84.2223 128.393 85.2854C125.128 86.5879 120.183 89.4014 115.554 92.5911C113.898 93.732 112.52 94.6335 112.491 94.5948C112.463 94.5557 112.331 93.9255 112.198 93.1935C111.961 91.8831 112 91.8331 114.775 89.911C118.141 87.5807 120.731 84.532 120.564 83.0984C120.47 82.2961 120.182 82.0661 118.941 81.8008C115.168 80.9947 114.21 80.2353 109.067 73.9717C103.992 67.7904 99.1358 65.3546 92.0424 65.4327C90.4443 65.4504 88.2799 65.6721 87.2327 65.9254ZM49.9282 68.2459C48.9311 69.2394 49.2325 69.8843 52.0401 72.7688C54.7316 75.5335 55.8283 76.0693 56.8054 75.096C57.7825 74.1228 57.2445 73.0303 54.469 70.3495C51.5731 67.5529 50.9257 67.2527 49.9282 68.2459ZM97.7282 69.5352C101.154 70.5892 103.725 72.6448 107.82 77.604C110.225 80.5164 112.059 82.3408 113.547 83.2998L115.736 84.7109L114.698 85.7913C111.951 88.6498 106.894 90.5675 101.398 90.835C94.5467 91.1687 89.1597 89.4533 86.1582 85.9814C84.1802 83.6936 83.3049 83.6523 82.0302 85.7871C80.9387 87.6149 75.9226 93.7079 75.3503 93.9011C75.1409 93.9717 74.3049 93.4317 73.493 92.7012C71.2305 90.6652 68.5165 90.4495 65.4904 92.065C63.8305 92.9511 63.652 92.6933 63.9025 89.7768C64.3511 84.5613 66.1307 80.286 69.1095 77.2688C71.5742 74.7725 74.0442 73.6181 77.4418 73.3753C79.4508 73.2314 80.3291 72.9819 81.1119 72.331C82.3991 71.2612 85.8092 69.6385 87.7027 69.1947C90.37 68.5694 95.1126 68.7306 97.7282 69.5352ZM125.103 72.8128C122.136 75.6886 121.448 77.0779 122.745 77.5736C124.044 78.07 124.724 77.6965 127.395 75.0186C129.747 72.6598 130.134 72.0935 129.936 71.3055C129.804 70.7854 129.34 70.2815 128.88 70.162C128.229 69.9921 127.447 70.5408 125.103 72.8128ZM38.4137 82.1897C37.546 82.7951 37.3988 83.9078 38.1119 84.4696C38.3714 84.674 40.2461 85.3873 42.2784 86.0554C46.7437 87.5225 47.9332 87.4207 47.7552 85.5864C47.6484 84.4865 47.4511 84.3159 45.5629 83.6869C39.5485 81.6832 39.2346 81.6174 38.4137 82.1897ZM85.6466 90.0354C89.8094 93.5245 98.1711 95.1423 105.2 93.8184C106.98 93.4832 108.55 93.2089 108.69 93.2089C109.001 93.2089 109.016 95.7206 108.712 96.8491C108.59 97.3012 107.277 98.5694 105.793 99.6675C104.31 100.766 100.331 103.905 96.9525 106.643C91.6286 110.958 90.6292 111.622 89.4627 111.622C87.8936 111.622 82.2573 109.811 79.5093 108.424C75.3205 106.31 69.7566 102.202 66.3385 98.7006C64.6718 96.9926 64.6691 96.9855 65.3946 96.1873C67.1855 94.216 70.1444 93.7282 71.4924 95.1817C71.9236 95.647 72.5385 96.6616 72.8592 97.4365C73.7967 99.7032 74.7674 99.3969 78.2186 95.7454C79.8299 94.0405 81.7514 91.8418 82.4882 90.8602C83.225 89.8787 83.9791 89.0752 84.1644 89.0752C84.3496 89.0752 85.0166 89.5074 85.6466 90.0354ZM51.9764 93.4685C47.9996 94.1314 44.3858 96.2332 41.1296 99.7761C35.9807 105.378 32.8362 113.431 31.4343 124.603C30.9 128.864 30.837 134.373 30.931 168.742L31.0381 208.011L32.2514 208.128C33.2576 208.225 33.4983 208.096 33.662 207.376C33.771 206.899 33.9204 188.837 33.9948 167.238C34.1366 125.97 34.1381 125.934 35.9369 117.92C38.6057 106.031 44.9841 97.8006 52.351 96.7409C53.2863 96.6063 54.2638 96.3275 54.5229 96.1216C55.1715 95.6068 55.1141 94.5091 54.4018 93.7992C53.8027 93.2025 53.6752 93.1852 51.9764 93.4685ZM124.804 119.684C123.927 120.736 124.573 121.558 127.364 122.937C128.879 123.685 130.694 124.854 131.399 125.534C135.048 129.058 137.778 138.675 139.953 155.674L140.804 162.336L139.346 163.823C135.729 167.512 129.333 169.459 118.847 170.062L114.225 170.328V168.259C114.225 162.249 115.808 152.782 117.528 148.502C118.632 145.756 118.416 144.879 116.636 144.879C115.704 144.879 115.419 145.143 114.672 146.703C112.721 150.771 111.444 158.152 110.834 168.877C110.424 176.098 110.303 206.623 110.682 207.605C110.956 208.317 112.913 208.409 113.354 207.729C113.522 207.471 113.744 199.654 113.848 190.359L114.037 173.459L117.621 173.353C125.652 173.117 132.653 171.816 136.548 169.837C137.383 169.412 138.138 169.137 138.226 169.224C138.314 169.312 138.385 177.691 138.385 187.845C138.385 198.691 138.533 206.698 138.745 207.253C139.138 208.283 140.51 208.548 141.313 207.748C141.654 207.408 141.766 202.231 141.766 186.756V166.214L142.898 164.796C144.336 162.993 144.336 162.415 142.893 152.48C139.798 131.168 136.665 123.58 129.587 120.244C127.004 119.027 125.498 118.851 124.804 119.684ZM117.872 177.635C116.748 178.754 119.424 207.061 120.731 207.888C121.553 208.408 122.916 208.225 123.172 207.561C123.307 207.21 122.963 203.194 122.407 198.636C121.852 194.078 121.221 187.644 121.005 184.337C120.789 181.03 120.539 178.113 120.449 177.854C120.279 177.365 118.311 177.198 117.872 177.635Z" fill="black"/>
</svg>
