<?xml version="1.0" encoding="utf-8"?>
<!-- Generator: Adobe Illustrator 23.0.0, SVG Export Plug-In . SVG Version: 6.00 Build 0)  -->
<svg version="1.1" id="Capa_1" xmlns="http://www.w3.org/2000/svg" xmlns:xlink="http://www.w3.org/1999/xlink" x="0px" y="0px"
	 viewBox="0 0 438.5 438.5" style="enable-background:new 0 0 438.5 438.5;" xml:space="preserve">
<style type="text/css">
	.st0{fill:#666666;}
</style>
<g>
	<path class="st0" d="M409.1,109.2c-19.6-33.6-46.2-60.2-79.8-79.8C295.7,9.8,259.1,0,219.3,0c-39.8,0-76.5,9.8-110.1,29.4
		C75.6,49,49,75.6,29.4,109.2C9.8,142.8,0,179.5,0,219.3c0,39.8,9.8,76.5,29.4,110.1c19.6,33.6,46.2,60.2,79.8,79.8
		c33.6,19.6,70.3,29.4,110.1,29.4s76.5-9.8,110.1-29.4c33.6-19.6,60.2-46.2,79.8-79.8c19.6-33.6,29.4-70.3,29.4-110.1
		C438.5,179.5,428.7,142.8,409.1,109.2z M322.6,270.9c3.6,3.6,5.4,7.9,5.4,12.9c0,5.1-1.8,9.5-5.4,13.1l-25.7,25.7
		c-3.6,3.6-8,5.4-13.1,5.4c-4.9,0-9.2-1.8-12.8-5.4l-51.7-51.7l-51.7,51.7c-3.6,3.6-7.9,5.4-12.8,5.4c-5.1,0-9.5-1.8-13.1-5.4
		l-25.7-25.7c-3.6-3.6-5.4-8-5.4-13.1c0-4.9,1.8-9.2,5.4-12.9l51.7-51.7l-51.7-51.7c-3.6-3.6-5.4-7.9-5.4-12.8
		c0-5.1,1.8-9.5,5.4-13.1l25.7-25.7c3.6-3.6,8-5.4,13.1-5.4c4.9,0,9.2,1.8,12.8,5.4l51.7,51.7l51.7-51.7c3.6-3.6,7.9-5.4,12.8-5.4
		c5.1,0,9.5,1.8,13.1,5.4l25.7,25.7c3.6,3.6,5.4,8,5.4,13.1c0,4.9-1.8,9.2-5.4,12.8l-51.7,51.7L322.6,270.9z"/>
</g>
</svg>
