<svg width="36" height="36" viewBox="0 0 36 36" fill="none" xmlns="http://www.w3.org/2000/svg">
<rect width="36" height="36" fill="white"/>
<path d="M11.9333 10.2222C12 11.2111 12.1667 12.1778 12.4333 13.1L11.1 14.4333C10.6444 13.1 10.3556 11.6889 10.2556 10.2222H11.9333ZM22.8889 23.5778C23.8333 23.8444 24.8 24.0111 25.7778 24.0778V25.7333C24.3111 25.6333 22.9 25.3444 21.5556 24.9L22.8889 23.5778ZM13 8H9.11111C8.5 8 8 8.5 8 9.11111C8 19.5444 16.4556 28 26.8889 28C27.5 28 28 27.5 28 26.8889V23.0111C28 22.4 27.5 21.9 26.8889 21.9C25.5111 21.9 24.1667 21.6778 22.9222 21.2667C22.8111 21.2222 22.6889 21.2111 22.5778 21.2111C22.2889 21.2111 22.0111 21.3222 21.7889 21.5333L19.3444 23.9778C16.2 22.3667 13.6222 19.8 12.0222 16.6556L14.4667 14.2111C14.7778 13.9 14.8667 13.4667 14.7444 13.0778C14.3333 11.8333 14.1111 10.5 14.1111 9.11111C14.1111 8.5 13.6111 8 13 8Z" fill="#7D7D7D"/>
</svg>
