<svg width="36" height="36" viewBox="0 0 36 36" fill="none" xmlns="http://www.w3.org/2000/svg">
<rect width="36" height="36" fill="white"/>
<path d="M26.6667 6H10.3333C9.03833 6 8 7.02857 8 8.28571V24.2857C8 25.5429 9.03833 26.5714 10.3333 26.5714H15L18.5 30L22 26.5714H26.6667C27.95 26.5714 29 25.5429 29 24.2857V8.28571C29 7.02857 27.95 6 26.6667 6ZM26.6667 24.2857H21.0317L20.3433 24.96L18.5 26.7657L16.645 24.9486L15.9683 24.2857H10.3333V8.28571H26.6667V24.2857ZM17.3333 20.8571H19.6667V23.1429H17.3333V20.8571ZM18.5 11.7143C19.7833 11.7143 20.8333 12.7429 20.8333 14C20.8333 16.2857 17.3333 16 17.3333 19.7143H19.6667C19.6667 17.1429 23.1667 16.8571 23.1667 14C23.1667 11.4743 21.0783 9.42857 18.5 9.42857C15.9217 9.42857 13.8333 11.4743 13.8333 14H16.1667C16.1667 12.7429 17.2167 11.7143 18.5 11.7143Z" fill="#7D7D7D"/>
</svg>
