<svg width="174" height="221" viewBox="0 0 174 221" fill="none" xmlns="http://www.w3.org/2000/svg">
<path d="M1.6568 0.439556H5.38459V8.87352H5.6055L12.8402 0.439556H17.3412V0.659334L10.1893 8.7911L18.0867 19.8899V20.1096H13.5305L7.64889 11.7306L5.38459 14.3405V20.1096H1.6568V0.439556Z" fill="black"/>
<path d="M23.8564 3.956V8.51638H31.7814V12.0328H23.8564V16.5932H32.665V20.1096H20.1286V0.439556H32.665V3.956H23.8564Z" fill="black"/>
<path d="M39.8203 3.956V8.51638H47.7453V12.0328H39.8203V16.5932H48.629V20.1096H36.0925V0.439556H48.629V3.956H39.8203Z" fill="black"/>
<path d="M52.0565 20.1096V0.439556H59.015C59.9539 0.439556 60.8283 0.595231 61.6383 0.906582C62.4667 1.19962 63.1846 1.62086 63.7921 2.1703C64.3996 2.71975 64.8782 3.37908 65.228 4.1483C65.5778 4.89921 65.7527 5.73253 65.7527 6.64827C65.7527 7.58233 65.5778 8.43396 65.228 9.20318C64.8782 9.95409 64.3996 10.6043 63.7921 11.1537C63.1846 11.7032 62.4667 12.1336 61.6383 12.4449C60.8283 12.7379 59.9539 12.8845 59.015 12.8845H55.7843V20.1096H52.0565ZM59.0702 9.36802C60.0459 9.36802 60.7823 9.0933 61.2793 8.54385C61.7763 7.99441 62.0249 7.36255 62.0249 6.64827C62.0249 6.30029 61.9604 5.96147 61.8316 5.6318C61.7211 5.30213 61.537 5.01825 61.2793 4.78016C61.04 4.52375 60.7362 4.32229 60.3681 4.17577C59.9999 4.02926 59.5673 3.956 59.0702 3.956H55.7843V9.36802H59.0702Z" fill="black"/>
<path d="M79.4005 0.439556H83.653L91.081 20.1096H86.9666L85.3374 15.4119H77.7161L76.0869 20.1096H71.9726L79.4005 0.439556ZM84.1224 12.0053L82.3552 7.08783L81.6372 4.69774H81.4163L80.6984 7.08783L78.9311 12.0053H84.1224Z" fill="black"/>
<path d="M104.674 20.5492C103.827 20.5492 103.017 20.4302 102.244 20.1921C101.471 19.954 100.762 19.5968 100.118 19.1206C99.4738 18.6445 98.9123 18.0675 98.4337 17.3899C97.955 16.6939 97.5777 15.8881 97.3015 14.9723L100.808 13.5987C101.066 14.5877 101.517 15.4119 102.161 16.0712C102.806 16.7123 103.653 17.0328 104.702 17.0328C105.088 17.0328 105.457 16.987 105.806 16.8954C106.175 16.7855 106.497 16.639 106.773 16.4558C107.067 16.2544 107.298 16.0071 107.463 15.7141C107.629 15.4211 107.712 15.0822 107.712 14.6976C107.712 14.3313 107.647 14.0017 107.518 13.7086C107.39 13.4156 107.169 13.1409 106.856 12.8845C106.561 12.6281 106.165 12.3808 105.668 12.1427C105.19 11.9046 104.591 11.6574 103.873 11.401L102.659 10.9614C102.125 10.7783 101.582 10.531 101.029 10.2197C100.495 9.9083 100.008 9.53285 99.5658 9.0933C99.124 8.65374 98.7558 8.14093 98.4613 7.55485C98.1851 6.95047 98.0471 6.27282 98.0471 5.52191C98.0471 4.75269 98.1943 4.03841 98.4889 3.37908C98.8018 2.70143 99.2344 2.11536 99.7867 1.62086C100.357 1.10805 101.029 0.714278 101.802 0.439556C102.594 0.146519 103.468 0 104.426 0C105.42 0 106.276 0.137361 106.994 0.412084C107.73 0.668491 108.347 1.00731 108.844 1.42855C109.359 1.83148 109.774 2.28019 110.086 2.77469C110.399 3.26919 110.63 3.73622 110.777 4.17577L107.491 5.54938C107.307 4.99994 106.966 4.50544 106.469 4.06588C105.991 3.62633 105.328 3.40655 104.481 3.40655C103.671 3.40655 102.999 3.59886 102.465 3.98347C101.931 4.34976 101.664 4.83511 101.664 5.43949C101.664 6.02557 101.922 6.52922 102.438 6.95046C102.953 7.35339 103.772 7.74716 104.895 8.13177L106.138 8.54385C106.929 8.81857 107.647 9.13908 108.292 9.50538C108.954 9.85336 109.516 10.2746 109.976 10.7691C110.455 11.2636 110.814 11.8314 111.053 12.4724C111.311 13.0951 111.44 13.8185 111.44 14.6427C111.44 15.6683 111.228 16.5566 110.804 17.3075C110.399 18.0401 109.875 18.6445 109.23 19.1206C108.586 19.5968 107.859 19.954 107.049 20.1921C106.239 20.4302 105.447 20.5492 104.674 20.5492Z" fill="black"/>
<path d="M120.012 0.439556H124.264L131.692 20.1096H127.578L125.948 15.4119H118.327L116.698 20.1096H112.584L120.012 0.439556ZM124.733 12.0053L122.966 7.08783L122.248 4.69774H122.027L121.309 7.08783L119.542 12.0053H124.733Z" fill="black"/>
<path d="M134.007 0.439556H146.543V3.956H137.734V8.73616H145.659V12.2526H137.734V20.1096H134.007V0.439556Z" fill="black"/>
<path d="M153.132 3.956V8.51638H161.057V12.0328H153.132V16.5932H161.941V20.1096H149.404V0.439556H161.941V3.956H153.132Z" fill="black"/>
<path d="M1.6568 29.2854H8.33922C9.90397 29.2854 11.3123 29.5234 12.5641 29.9996C13.8159 30.4758 14.8836 31.1535 15.7672 32.0326C16.6508 32.8934 17.3227 33.9282 17.783 35.1369C18.2616 36.3457 18.5009 37.6735 18.5009 39.1204C18.5009 40.5856 18.2616 41.9226 17.783 43.1313C17.3227 44.3401 16.6508 45.3749 15.7672 46.2357C14.8836 47.0965 13.8159 47.765 12.5641 48.2412C11.3123 48.7174 9.90397 48.9554 8.33922 48.9554H1.6568V29.2854ZM8.17354 45.439C9.25966 45.439 10.2169 45.2925 11.0453 44.9994C11.8737 44.6881 12.5641 44.2577 13.1163 43.7083C13.6686 43.1588 14.0828 42.4995 14.3589 41.7303C14.6351 40.9427 14.7731 40.0728 14.7731 39.1204C14.7731 38.168 14.6351 37.3072 14.3589 36.538C14.0828 35.7505 13.6686 35.082 13.1163 34.5325C12.5641 33.9831 11.8737 33.5619 11.0453 33.2688C10.2169 32.9575 9.25966 32.8018 8.17354 32.8018H5.38459V45.439H8.17354Z" fill="black"/>
<path d="M21.5039 29.2854H25.2317V48.9554H21.5039V29.2854Z" fill="black"/>
<path d="M35.2635 49.395C34.4167 49.395 33.6067 49.276 32.8335 49.0379C32.0603 48.7998 31.3516 48.4426 30.7073 47.9664C30.063 47.4903 29.5015 46.9133 29.0229 46.2357C28.5442 45.5397 28.1669 44.7339 27.8907 43.8181L31.3976 42.4445C31.6553 43.4335 32.1064 44.2577 32.7507 44.917C33.395 45.5581 34.2418 45.8786 35.2911 45.8786C35.6777 45.8786 36.0459 45.8328 36.3956 45.7412C36.7638 45.6313 37.086 45.4848 37.3621 45.3016C37.6566 45.1002 37.8867 44.8529 38.0524 44.5599C38.2181 44.2669 38.3009 43.928 38.3009 43.5434C38.3009 43.1771 38.2365 42.8475 38.1077 42.5544C37.9788 42.2614 37.7579 41.9867 37.4449 41.7303C37.1504 41.4738 36.7546 41.2266 36.2576 40.9885C35.7789 40.7504 35.1806 40.5032 34.4627 40.2468L33.2477 39.8072C32.7139 39.6241 32.1708 39.3768 31.6185 39.0655C31.0847 38.7541 30.5968 38.3787 30.155 37.9391C29.7132 37.4995 29.345 36.9867 29.0505 36.4007C28.7744 35.7963 28.6363 35.1186 28.6363 34.3677C28.6363 33.5985 28.7836 32.8842 29.0781 32.2249C29.3911 31.5472 29.8237 30.9612 30.3759 30.4667C30.9466 29.9538 31.6185 29.5601 32.3917 29.2854C33.1833 28.9923 34.0577 28.8458 35.015 28.8458C36.009 28.8458 36.8651 28.9832 37.583 29.2579C38.3194 29.5143 38.9361 29.8531 39.4331 30.2744C39.9485 30.6773 40.3627 31.126 40.6757 31.6205C40.9886 32.115 41.2188 32.582 41.366 33.0216L38.08 34.3952C37.896 33.8457 37.5554 33.3512 37.0583 32.9117C36.5797 32.4721 35.917 32.2524 35.0702 32.2524C34.2602 32.2524 33.5883 32.4447 33.0544 32.8293C32.5206 33.1956 32.2536 33.6809 32.2536 34.2853C32.2536 34.8714 32.5114 35.375 33.0268 35.7963C33.5423 36.1992 34.3614 36.593 35.4844 36.9776L36.727 37.3897C37.5186 37.6644 38.2365 37.9849 38.8808 38.3512C39.5435 38.6992 40.105 39.1204 40.5652 39.6149C41.0439 40.1094 41.4028 40.6772 41.6422 41.3182C41.8999 41.9409 42.0287 42.6643 42.0287 43.4885C42.0287 44.5141 41.817 45.4024 41.3936 46.1533C40.9886 46.8859 40.464 47.4903 39.8197 47.9664C39.1754 48.4426 38.4482 48.7998 37.6382 49.0379C36.8282 49.276 36.0367 49.395 35.2635 49.395Z" fill="black"/>
<path d="M49.0268 48.9554V32.8018H43.5041V29.2854H58.2772V32.8018H52.7546V48.9554H49.0268Z" fill="black"/>
<path d="M64.8928 29.2854H69.1452L76.5732 48.9554H72.4588L70.8296 44.2577H63.2084L61.5792 48.9554H57.4648L64.8928 29.2854ZM69.6146 40.8511L67.8474 35.9336L67.1295 33.5435H66.9085L66.1906 35.9336L64.4233 40.8511H69.6146Z" fill="black"/>
<path d="M78.8878 29.2854H83.223L91.1757 42.472H91.3966L91.1757 38.6808V29.2854H94.8759V48.9554H90.9548L82.5603 35.027H82.3394L82.5603 38.8182V48.9554H78.8878V29.2854Z" fill="black"/>
<path d="M115.859 45.7961C114.883 46.9683 113.733 47.8657 112.407 48.4884C111.082 49.0928 109.6 49.395 107.962 49.395C106.489 49.395 105.117 49.1294 103.847 48.5983C102.595 48.0672 101.509 47.3437 100.589 46.428C99.6684 45.5123 98.9412 44.4317 98.4073 43.1863C97.8735 41.9226 97.6066 40.5673 97.6066 39.1204C97.6066 37.6735 97.8735 36.3274 98.4073 35.082C98.9412 33.8183 99.6684 32.7285 100.589 31.8128C101.509 30.8971 102.595 30.1736 103.847 29.6425C105.117 29.1114 106.489 28.8458 107.962 28.8458C109.545 28.8458 110.935 29.1205 112.131 29.67C113.346 30.2194 114.423 31.0161 115.362 32.06L112.739 34.5875C112.15 33.9098 111.468 33.3696 110.695 32.9666C109.941 32.5637 109.038 32.3622 107.989 32.3622C107.069 32.3622 106.203 32.5271 105.394 32.8567C104.584 33.1681 103.875 33.6168 103.267 34.2029C102.678 34.789 102.209 35.5032 101.859 36.3457C101.509 37.1699 101.334 38.0948 101.334 39.1204C101.334 40.146 101.509 41.0801 101.859 41.9226C102.209 42.7467 102.678 43.4518 103.267 44.0379C103.875 44.624 104.584 45.0819 105.394 45.4115C106.203 45.7229 107.069 45.8786 107.989 45.8786C109.094 45.8786 110.069 45.6588 110.916 45.2192C111.781 44.7614 112.545 44.1203 113.208 43.2962L115.859 45.7961Z" fill="black"/>
<path d="M122.579 32.8018V37.3622H130.504V40.8786H122.579V45.439H131.388V48.9554H118.852V29.2854H131.388V32.8018H122.579Z" fill="black"/>
<path d="M11.0177 78.2408C9.545 78.2408 8.17354 77.9752 6.90333 77.4441C5.65152 76.913 4.5654 76.1895 3.64496 75.2738C2.72451 74.3397 1.99736 73.25 1.46351 72.0046C0.948057 70.7409 0.690333 69.3948 0.690333 67.9662C0.690333 66.5376 0.948057 65.2007 1.46351 63.9553C1.99736 62.6915 2.72451 61.6018 3.64496 60.6861C4.5654 59.752 5.65152 59.0194 6.90333 58.4883C8.17354 57.9572 9.545 57.6916 11.0177 57.6916C12.4904 57.6916 13.8527 57.9572 15.1045 58.4883C16.3747 59.0194 17.47 59.752 18.3905 60.6861C19.3109 61.6018 20.0289 62.6915 20.5443 63.9553C21.0782 65.2007 21.3451 66.5376 21.3451 67.9662C21.3451 69.3948 21.0782 70.7409 20.5443 72.0046C20.0289 73.25 19.3109 74.3397 18.3905 75.2738C17.47 76.1895 16.3747 76.913 15.1045 77.4441C13.8527 77.9752 12.4904 78.2408 11.0177 78.2408ZM11.0177 74.7244C11.9382 74.7244 12.7942 74.5595 13.5857 74.2299C14.3957 73.9002 15.0953 73.4423 15.6844 72.8563C16.2918 72.2702 16.7613 71.5651 17.0926 70.7409C17.4424 69.8984 17.6173 68.9735 17.6173 67.9662C17.6173 66.9589 17.4424 66.0431 17.0926 65.219C16.7613 64.3765 16.2918 63.6622 15.6844 63.0761C15.0953 62.4901 14.3957 62.0322 13.5857 61.7025C12.7942 61.3729 11.9382 61.208 11.0177 61.208C10.0973 61.208 9.23205 61.3729 8.42206 61.7025C7.63048 62.0322 6.93094 62.4901 6.32345 63.0761C5.73436 63.6622 5.26494 64.3765 4.91517 65.219C4.58381 66.0431 4.41813 66.9589 4.41813 67.9662C4.41813 68.9735 4.58381 69.8984 4.91517 70.7409C5.26494 71.5651 5.73436 72.2702 6.32345 72.8563C6.93094 73.4423 7.63048 73.9002 8.42206 74.2299C9.23205 74.5595 10.0973 74.7244 11.0177 74.7244Z" fill="black"/>
<path d="M24.3623 58.1312H36.8987V61.6476H28.0901V66.4278H36.0151V69.9442H28.0901V77.8012H24.3623V58.1312Z" fill="black"/>
<path d="M52.7306 65.7135C53.4486 65.7135 54.1481 65.8692 54.8292 66.1805C55.5104 66.4735 56.1179 66.8856 56.6517 67.4168C57.1856 67.9479 57.609 68.5889 57.9219 69.3398C58.2533 70.0907 58.419 70.9149 58.419 71.8123C58.419 72.7464 58.2349 73.6072 57.8667 74.3947C57.4985 75.1822 57.0015 75.8599 56.3756 76.4276C55.7681 76.9954 55.0593 77.4441 54.2494 77.7738C53.4578 78.0851 52.6202 78.2408 51.7365 78.2408C50.7056 78.2408 49.776 78.0668 48.9476 77.7188C48.1192 77.3525 47.4013 76.8763 46.7938 76.2903C46.2047 75.6859 45.7445 74.9899 45.4131 74.2024C45.1001 73.3965 44.9437 72.5541 44.9437 71.6749C44.9437 70.4112 45.1922 69.2574 45.6892 68.2134C46.2047 67.1512 46.849 66.0706 47.6222 64.9717L52.206 58.4608L54.9949 60.3839L51.129 65.8234L51.2671 65.9882C51.6905 65.8051 52.1784 65.7135 52.7306 65.7135ZM51.6813 74.9167C52.0863 74.9167 52.4821 74.8434 52.8687 74.6969C53.2553 74.5504 53.5958 74.3397 53.8904 74.065C54.1849 73.7903 54.415 73.4698 54.5807 73.1035C54.7648 72.7189 54.8568 72.2976 54.8568 71.8398C54.8568 71.3819 54.7648 70.9607 54.5807 70.5761C54.415 70.1914 54.1849 69.8618 53.8904 69.5871C53.5958 69.3123 53.2553 69.1017 52.8687 68.9552C52.4821 68.8087 52.0863 68.7354 51.6813 68.7354C51.2579 68.7354 50.8529 68.8087 50.4663 68.9552C50.0982 69.1017 49.7576 69.3123 49.4446 69.5871C49.1501 69.8618 48.9108 70.1914 48.7267 70.5761C48.561 70.9607 48.4782 71.3819 48.4782 71.8398C48.4782 72.2976 48.561 72.7189 48.7267 73.1035C48.9108 73.4698 49.1501 73.7903 49.4446 74.065C49.7576 74.3397 50.0982 74.5504 50.4663 74.6969C50.8529 74.8434 51.2579 74.9167 51.6813 74.9167Z" fill="black"/>
<path d="M67.5889 58.1312H80.1254V61.6476H71.3167V66.4278H79.2418V69.9442H71.3167V77.8012H67.5889V58.1312Z" fill="black"/>
<path d="M86.7144 61.6476V66.208H94.6394V69.7244H86.7144V74.2848H95.5231V77.8012H82.9866V58.1312H95.5231V61.6476H86.7144Z" fill="black"/>
<path d="M102.678 61.6476V66.208H110.603V69.7244H102.678V74.2848H111.487V77.8012H98.9506V58.1312H111.487V61.6476H102.678Z" fill="black"/>
<path d="M119.112 77.8012V61.6476H113.589V58.1312H128.362V61.6476H122.84V77.8012H119.112Z" fill="black"/>
<path d="M7.42798 86.977H11.6804L19.1084 106.647H14.994L13.3648 101.949H5.74357L4.11438 106.647H0L7.42798 86.977ZM12.1499 98.5427L10.3826 93.6252L9.66466 91.2351H9.44375L8.7258 93.6252L6.95855 98.5427H12.1499Z" fill="black"/>
<path d="M21.423 106.647V86.977H28.3815C29.3204 86.977 30.1948 87.1326 31.0048 87.444C31.8332 87.737 32.5511 88.1583 33.1586 88.7077C33.7661 89.2572 34.2447 89.9165 34.5945 90.6857C34.9443 91.4366 35.1192 92.2699 35.1192 93.1857C35.1192 94.1197 34.9443 94.9714 34.5945 95.7406C34.2447 96.4915 33.7661 97.1417 33.1586 97.6911C32.5511 98.2406 31.8332 98.6709 31.0048 98.9823C30.1948 99.2753 29.3204 99.4219 28.3815 99.4219H25.1508V106.647H21.423ZM28.4367 95.9054C29.4124 95.9054 30.1488 95.6307 30.6458 95.0813C31.1428 94.5318 31.3914 93.8999 31.3914 93.1857C31.3914 92.8377 31.3269 92.4989 31.1981 92.1692C31.0876 91.8395 30.9035 91.5556 30.6458 91.3176C30.4065 91.0611 30.1027 90.8597 29.7346 90.7132C29.3664 90.5667 28.9338 90.4934 28.4367 90.4934H25.1508V95.9054H28.4367Z" fill="black"/>
<path d="M41.5941 86.977H45.8465L53.2745 106.647H49.1601L47.5309 101.949H39.9096L38.2805 106.647H34.1661L41.5941 86.977ZM46.3159 98.5427L44.5487 93.6252L43.8307 91.2351H43.6098L42.8919 93.6252L41.1246 98.5427H46.3159Z" fill="black"/>
<path d="M55.589 86.977H62.7961C63.7902 86.977 64.6922 87.1326 65.5022 87.444C66.3122 87.7553 67.0025 88.1857 67.5732 88.7352C68.1623 89.2846 68.6133 89.944 68.9263 90.7132C69.2392 91.4641 69.3957 92.2882 69.3957 93.1857C69.3957 93.845 69.2852 94.4677 69.0643 95.0538C68.8434 95.6215 68.5397 96.1435 68.1531 96.6197C67.7665 97.0776 67.3155 97.4896 66.8 97.8559C66.2846 98.2039 65.7415 98.4786 65.1708 98.6801L65.1432 98.8724L70.445 106.427V106.647H66.1649L61.0565 99.257H59.3168V106.647H55.589V86.977ZM62.7685 95.8505C63.6153 95.8505 64.3056 95.5941 64.8395 95.0813C65.3918 94.5684 65.6679 93.9183 65.6679 93.1307C65.6679 92.7827 65.6035 92.4439 65.4746 92.1143C65.3641 91.7846 65.1893 91.4916 64.9499 91.2351C64.7106 90.9787 64.4069 90.7773 64.0387 90.6308C63.6889 90.4659 63.2839 90.3835 62.8237 90.3835H59.3168V95.8505H62.7685Z" fill="black"/>
<path d="M76.9097 106.647V90.4934H71.3871V86.977H86.1602V90.4934H80.6375V106.647H76.9097Z" fill="black"/>
<path d="M88.906 106.812C88.2433 106.812 87.6726 106.583 87.194 106.125C86.7337 105.649 86.5036 105.081 86.5036 104.422C86.5036 103.762 86.7337 103.204 87.194 102.746C87.6726 102.288 88.2433 102.059 88.906 102.059C89.5687 102.059 90.1302 102.288 90.5904 102.746C91.0506 103.204 91.2807 103.762 91.2807 104.422C91.2807 105.081 91.0506 105.649 90.5904 106.125C90.1302 106.583 89.5687 106.812 88.906 106.812Z" fill="black"/>
<path d="M77.0461 194.052C77.4785 194.052 77.8998 194.145 78.31 194.332C78.7202 194.508 79.086 194.755 79.4075 195.073C79.7291 195.392 79.984 195.776 80.1725 196.227C80.3721 196.677 80.4719 197.171 80.4719 197.709C80.4719 198.269 80.361 198.786 80.1393 199.258C79.9175 199.73 79.6182 200.137 79.2412 200.477C78.8754 200.818 78.4485 201.087 77.9607 201.284C77.484 201.471 76.9796 201.564 76.4474 201.564C75.8266 201.564 75.2667 201.46 74.7678 201.251C74.2689 201.032 73.8365 200.746 73.4707 200.395C73.1159 200.032 72.8387 199.615 72.6392 199.143C72.4507 198.659 72.3564 198.154 72.3564 197.627C72.3564 196.869 72.5061 196.177 72.8055 195.551C73.1159 194.914 73.5039 194.266 73.9695 193.607L76.7301 189.703L78.4097 190.856L76.0816 194.118L76.1647 194.217C76.4197 194.107 76.7135 194.052 77.0461 194.052ZM76.4142 199.571C76.6581 199.571 76.8964 199.527 77.1292 199.439C77.3621 199.351 77.5672 199.225 77.7445 199.06C77.9219 198.895 78.0605 198.703 78.1603 198.484C78.2712 198.253 78.3266 198 78.3266 197.726C78.3266 197.451 78.2712 197.199 78.1603 196.968C78.0605 196.737 77.9219 196.54 77.7445 196.375C77.5672 196.21 77.3621 196.084 77.1292 195.996C76.8964 195.908 76.6581 195.864 76.4142 195.864C76.1592 195.864 75.9153 195.908 75.6824 195.996C75.4607 196.084 75.2556 196.21 75.0671 196.375C74.8897 196.54 74.7456 196.737 74.6347 196.968C74.535 197.199 74.4851 197.451 74.4851 197.726C74.4851 198 74.535 198.253 74.6347 198.484C74.7456 198.703 74.8897 198.895 75.0671 199.06C75.2556 199.225 75.4607 199.351 75.6824 199.439C75.9153 199.527 76.1592 199.571 76.4142 199.571Z" fill="black"/>
<path d="M85.9944 189.505H93.5444V191.614H88.2395V194.48H93.0123V196.589H88.2395V201.301H85.9944V189.505Z" fill="black"/>
<path d="M97.7953 201.301V191.614H94.4693V189.505H103.366V191.614H100.04V201.301H97.7953Z" fill="black"/>
<path fill-rule="evenodd" clip-rule="evenodd" d="M69.4359 159.008C68.8148 159.274 67.1947 160.202 65.8356 161.071C64.4768 161.94 62.4477 163.219 61.3269 163.912C59.1747 165.245 58.5867 166.176 59.1934 167.291C59.5768 167.995 68.6121 173.81 69.9932 174.242C71.0128 174.559 72.5454 173.59 72.5454 172.627C72.5454 171.444 71.9806 170.761 70.2359 169.833C69.3279 169.35 68.5851 168.833 68.5851 168.683C68.5851 168.533 77.9819 168.41 89.4668 168.41C101.912 168.41 110.349 168.541 110.349 168.735C110.349 168.914 109.741 169.416 108.998 169.851C107.307 170.842 106.748 171.511 106.748 172.541C106.748 173.605 108.234 174.574 109.341 174.231C110.101 173.997 113.439 171.966 118.179 168.856C119.84 167.766 120.069 167.47 120.069 166.415C120.069 165.339 119.855 165.082 117.999 163.93C116.86 163.224 114.852 161.95 113.536 161.1C112.22 160.249 110.544 159.308 109.812 159.007C108.607 158.511 108.398 158.512 107.614 159.017C105.973 160.075 106.702 161.971 109.249 163.266C109.854 163.574 110.349 163.981 110.349 164.171C110.349 164.39 102.844 164.515 89.6468 164.515C76.4496 164.515 68.9451 164.39 68.9451 164.171C68.9451 163.981 69.4398 163.574 70.0443 163.266C72.5451 161.995 73.3011 160.12 71.7451 159.048C70.7968 158.395 70.8659 158.396 69.4359 159.008Z" fill="black"/>
<path fill-rule="evenodd" clip-rule="evenodd" d="M32.1671 127.61C32.1671 127.679 32.3374 127.735 32.5456 127.735C32.7538 127.735 32.9241 127.792 32.9241 127.86C32.9241 127.929 33.0944 127.985 33.3026 127.985C33.5107 127.985 33.6811 128.042 33.6811 128.11C33.6811 128.179 33.7946 128.235 33.9334 128.235C34.0722 128.235 34.1857 128.292 34.1857 128.36C34.1857 128.429 34.2993 128.485 34.438 128.485C34.5768 128.485 34.6904 128.542 34.6904 128.611C34.6904 128.679 34.7914 128.736 34.9148 128.736C35.0383 128.736 35.2211 128.848 35.3212 128.986C35.4212 129.123 35.5768 129.236 35.6667 129.236C35.8801 129.236 37.4659 130.807 37.4659 131.019C37.4659 131.108 37.5795 131.262 37.7183 131.361C37.857 131.461 37.9706 131.642 37.9706 131.764C37.9706 131.886 38.0274 131.987 38.0968 131.987C38.1661 131.987 38.2229 132.099 38.2229 132.237C38.2229 132.374 38.2797 132.487 38.3491 132.487C38.4185 132.487 38.4752 132.599 38.4752 132.737C38.4752 132.874 38.532 132.987 38.6014 132.987C38.6708 132.987 38.7276 133.156 38.7276 133.362C38.7276 133.568 38.7843 133.737 38.8537 133.737C38.9231 133.737 38.9799 133.906 38.9799 134.112C38.9799 134.319 39.0367 134.487 39.1061 134.487C39.1849 134.487 39.2322 135.238 39.2322 136.488C39.2322 137.738 39.1849 138.489 39.1061 138.489C39.0367 138.489 38.9799 138.657 38.9799 138.864C38.9799 139.07 38.9231 139.239 38.8537 139.239C38.7843 139.239 38.7276 139.408 38.7276 139.614C38.7276 139.82 38.6708 139.989 38.6014 139.989C38.532 139.989 38.4752 140.102 38.4752 140.239C38.4752 140.377 38.4185 140.489 38.3491 140.489C38.2797 140.489 38.2229 140.602 38.2229 140.739C38.2229 140.877 38.1661 140.989 38.0968 140.989C38.0274 140.989 37.9706 141.079 37.9706 141.189C37.9706 141.299 37.8003 141.547 37.5921 141.74C37.3839 141.932 37.2136 142.153 37.2136 142.231C37.2136 142.414 36.1276 143.49 35.9429 143.49C35.8648 143.49 35.6418 143.659 35.4473 143.865C35.2529 144.072 35.003 144.241 34.8921 144.241C34.7811 144.241 34.6904 144.297 34.6904 144.366C34.6904 144.434 34.5768 144.491 34.438 144.491C34.2993 144.491 34.1857 144.547 34.1857 144.616C34.1857 144.684 34.0722 144.741 33.9334 144.741C33.7946 144.741 33.6811 144.797 33.6811 144.866C33.6811 144.934 33.5107 144.991 33.3026 144.991C33.0944 144.991 32.9241 145.047 32.9241 145.116C32.9241 145.185 32.697 145.241 32.4194 145.241C32.1419 145.241 31.9148 145.297 31.9148 145.366C31.9148 145.443 31.242 145.491 30.1485 145.491C29.0551 145.491 28.3822 145.443 28.3822 145.366C28.3822 145.297 28.1551 145.241 27.8776 145.241C27.6 145.241 27.3729 145.185 27.3729 145.116C27.3729 145.047 27.2026 144.991 26.9944 144.991C26.7863 144.991 26.616 144.934 26.616 144.866C26.616 144.797 26.5024 144.741 26.3636 144.741C26.2249 144.741 26.1113 144.684 26.1113 144.616C26.1113 144.547 26.0103 144.491 25.8869 144.491C25.7634 144.491 25.5805 144.378 25.4805 144.241C25.3804 144.103 25.2203 143.99 25.1247 143.99C25.0292 143.99 24.7918 143.822 24.5974 143.615C24.4029 143.409 24.1789 143.24 24.0994 143.24C23.9122 143.24 23.3357 142.669 23.3357 142.483C23.3357 142.405 23.1654 142.182 22.9572 141.99C22.7491 141.797 22.5788 141.562 22.5788 141.467C22.5788 141.372 22.4652 141.214 22.3264 141.115C22.1876 141.015 22.0741 140.834 22.0741 140.712C22.0741 140.589 22.0173 140.489 21.9479 140.489C21.8786 140.489 21.8218 140.377 21.8218 140.239C21.8218 140.102 21.765 139.989 21.6956 139.989C21.6262 139.989 21.5695 139.764 21.5695 139.489C21.5695 139.214 21.5127 138.989 21.4433 138.989C21.3739 138.989 21.3171 138.82 21.3171 138.614C21.3171 138.407 21.2604 138.239 21.191 138.239C21.1129 138.239 21.0648 137.572 21.0648 136.488C21.0648 135.404 21.1129 134.737 21.191 134.737C21.2604 134.737 21.3171 134.512 21.3171 134.237C21.3171 133.962 21.3739 133.737 21.4433 133.737C21.5127 133.737 21.5695 133.568 21.5695 133.362C21.5695 133.156 21.6262 132.987 21.6956 132.987C21.765 132.987 21.8218 132.874 21.8218 132.737C21.8218 132.599 21.8786 132.487 21.9479 132.487C22.0173 132.487 22.0741 132.374 22.0741 132.237C22.0741 132.099 22.1309 131.987 22.2003 131.987C22.2697 131.987 22.3264 131.898 22.3264 131.789C22.3264 131.681 22.5535 131.376 22.8311 131.111C23.1086 130.847 23.3357 130.568 23.3357 130.492C23.3357 130.31 24.169 129.486 24.3532 129.486C24.4318 129.486 24.6553 129.317 24.8497 129.111C25.0441 128.904 25.294 128.736 25.4049 128.736C25.5159 128.736 25.6067 128.679 25.6067 128.611C25.6067 128.542 25.7202 128.485 25.859 128.485C25.9978 128.485 26.1113 128.429 26.1113 128.36C26.1113 128.292 26.2249 128.235 26.3636 128.235C26.5024 128.235 26.616 128.179 26.616 128.11C26.616 128.042 26.7863 127.985 26.9944 127.985C27.2026 127.985 27.3729 127.929 27.3729 127.86C27.3729 127.792 27.5433 127.735 27.7514 127.735C27.9596 127.735 28.1299 127.679 28.1299 127.61C28.1299 127.532 28.8869 127.485 30.1485 127.485C31.4101 127.485 32.1671 127.532 32.1671 127.61ZM37.9706 147.367C37.9706 147.435 38.2545 147.492 38.6014 147.492C38.9484 147.492 39.2322 147.548 39.2322 147.617C39.2322 147.685 39.39 147.742 39.5828 147.742C39.7887 147.742 40.0085 147.845 40.1154 147.992C40.2154 148.129 40.3725 148.242 40.4643 148.242C40.5563 148.242 40.7708 148.38 40.9411 148.549C41.1114 148.718 41.2508 148.93 41.2508 149.021C41.2508 149.112 41.3644 149.268 41.5031 149.367C41.6419 149.466 41.7555 149.647 41.7555 149.77C41.7555 149.892 41.8122 149.992 41.8816 149.992C41.951 149.992 42.0078 150.105 42.0078 150.242C42.0078 150.38 42.0646 150.493 42.134 150.493C42.2033 150.493 42.2601 150.661 42.2601 150.868C42.2601 151.074 42.3169 151.243 42.3863 151.243C42.4557 151.243 42.5124 151.355 42.5124 151.493C42.5124 151.63 42.5692 151.743 42.6386 151.743C42.708 151.743 42.7648 151.855 42.7648 151.993C42.7648 152.131 42.8215 152.243 42.8909 152.243C42.9603 152.243 43.0171 152.356 43.0171 152.493C43.0171 152.631 43.0739 152.743 43.1433 152.743C43.2126 152.743 43.2694 152.856 43.2694 152.993C43.2694 153.131 43.3262 153.243 43.3956 153.243C43.465 153.243 43.5217 153.412 43.5217 153.619C43.5217 153.825 43.5785 153.994 43.6479 153.994C43.7173 153.994 43.7741 154.106 43.7741 154.244C43.7741 154.381 43.8308 154.494 43.9002 154.494C43.9696 154.494 44.0264 154.606 44.0264 154.744C44.0264 154.881 44.0832 154.994 44.1526 154.994C44.2219 154.994 44.2787 155.106 44.2787 155.244C44.2787 155.382 44.3355 155.494 44.4049 155.494C44.4743 155.494 44.531 155.607 44.531 155.744C44.531 155.882 44.5878 155.994 44.6572 155.994C44.7266 155.994 44.7834 156.163 44.7834 156.369C44.7834 156.576 44.8401 156.745 44.9095 156.745C44.9789 156.745 45.0357 156.857 45.0357 156.995C45.0357 157.132 45.0925 157.245 45.1619 157.245C45.2313 157.245 45.288 157.357 45.288 157.495C45.288 157.632 45.3448 157.745 45.4142 157.745C45.4836 157.745 45.5403 157.857 45.5403 157.995C45.5403 158.132 45.5971 158.245 45.6665 158.245C45.7359 158.245 45.7927 158.358 45.7927 158.495C45.7927 158.633 45.8494 158.745 45.9188 158.745C45.9882 158.745 46.045 158.914 46.045 159.12C46.045 159.327 46.1018 159.495 46.1712 159.495C46.2406 159.495 46.2973 159.608 46.2973 159.745C46.2973 159.883 46.3541 159.996 46.4235 159.996C46.4929 159.996 46.5497 160.108 46.5497 160.246C46.5497 160.383 46.6064 160.496 46.6758 160.496C46.7452 160.496 46.802 160.608 46.802 160.746C46.802 160.883 46.8587 160.996 46.9281 160.996C46.9975 160.996 47.0543 161.108 47.0543 161.246C47.0543 161.383 47.1111 161.496 47.1805 161.496C47.2499 161.496 47.3066 161.665 47.3066 161.871C47.3066 162.077 47.3634 162.246 47.4328 162.246C47.5022 162.246 47.559 162.359 47.559 162.496C47.559 162.634 47.6157 162.746 47.6851 162.746C47.7545 162.746 47.8113 162.859 47.8113 162.997C47.8113 163.134 47.868 163.247 47.9374 163.247C48.0068 163.247 48.0636 163.359 48.0636 163.497C48.0636 163.634 48.1204 163.747 48.1898 163.747C48.2592 163.747 48.3159 163.859 48.3159 163.997C48.3159 164.134 48.3727 164.247 48.4421 164.247C48.5115 164.247 48.5683 164.359 48.5683 164.497C48.5683 164.635 48.625 164.747 48.6944 164.747C48.7638 164.747 48.8206 164.916 48.8206 165.122C48.8206 165.329 48.8774 165.497 48.9467 165.497C49.0161 165.497 49.0729 165.61 49.0729 165.747C49.0729 165.885 49.1297 165.997 49.1991 165.997C49.2685 165.997 49.3252 166.11 49.3252 166.248C49.3252 166.385 49.382 166.498 49.4514 166.498C49.5208 166.498 49.5776 166.61 49.5776 166.748C49.5776 166.885 49.6343 166.998 49.7037 166.998C49.7731 166.998 49.8299 167.11 49.8299 167.248C49.8299 167.385 49.8867 167.498 49.956 167.498C50.0254 167.498 50.0822 167.667 50.0822 167.873C50.0822 168.079 50.139 168.248 50.2084 168.248C50.2778 168.248 50.3345 168.361 50.3345 168.498C50.3345 168.636 50.3913 168.748 50.4607 168.748C50.5301 168.748 50.5869 168.861 50.5869 168.998C50.5869 169.136 50.6436 169.249 50.713 169.249C50.7824 169.249 50.8392 169.361 50.8392 169.499C50.8392 169.636 50.896 169.749 50.9653 169.749C51.0347 169.749 51.0915 169.861 51.0915 169.999C51.0915 170.136 51.1483 170.249 51.2177 170.249C51.2871 170.249 51.3438 170.418 51.3438 170.624C51.3438 170.83 51.4006 170.999 51.47 170.999C51.5394 170.999 51.5962 171.112 51.5962 171.249C51.5962 171.387 51.6529 171.499 51.7223 171.499C51.7917 171.499 51.8485 171.612 51.8485 171.749C51.8485 171.887 51.9053 171.999 51.9746 171.999C52.044 171.999 52.1008 172.112 52.1008 172.249C52.1008 172.387 52.1576 172.5 52.227 172.5C52.2964 172.5 52.3531 172.612 52.3531 172.75C52.3531 172.887 52.4099 173 52.4793 173C52.5487 173 52.6055 173.169 52.6055 173.375C52.6055 173.581 52.6622 173.75 52.7316 173.75C52.801 173.75 52.8578 173.862 52.8578 174C52.8578 174.138 52.9146 174.25 52.9839 174.25C53.0533 174.25 53.1101 174.363 53.1101 174.5C53.1101 174.638 53.1669 174.75 53.2363 174.75C53.3057 174.75 53.3624 174.863 53.3624 175C53.3624 175.138 53.4192 175.25 53.4886 175.25C53.558 175.25 53.6148 175.363 53.6148 175.5C53.6148 175.638 53.6715 175.751 53.7409 175.751C53.8103 175.751 53.8671 175.863 53.8671 176.001C53.8671 176.138 53.9239 176.251 53.9932 176.251C54.0626 176.251 54.1194 176.42 54.1194 176.626C54.1194 176.832 54.1762 177.001 54.2456 177.001C54.315 177.001 54.3717 177.114 54.3717 177.251C54.3717 177.389 54.4285 177.501 54.4979 177.501C54.5673 177.501 54.6241 177.614 54.6241 177.751C54.6241 177.889 54.6808 178.001 54.7502 178.001C54.8196 178.001 54.8764 178.17 54.8764 178.376C54.8764 178.583 54.9332 178.752 55.0025 178.752C55.0746 178.752 55.1287 179.127 55.1287 179.627C55.1287 180.127 55.0746 180.502 55.0025 180.502C54.9332 180.502 54.8764 180.671 54.8764 180.877C54.8764 181.084 54.8196 181.252 54.7502 181.252C54.6808 181.252 54.6241 181.338 54.6241 181.443C54.6241 181.69 53.2996 183.003 53.0498 183.003C52.9442 183.003 52.8578 183.059 52.8578 183.128C52.8578 183.197 52.7442 183.253 52.6055 183.253C52.4667 183.253 52.3531 183.309 52.3531 183.378C52.3531 183.452 51.8905 183.503 51.2177 183.503C50.5448 183.503 50.0822 183.452 50.0822 183.378C50.0822 183.309 49.9687 183.253 49.8299 183.253C49.6911 183.253 49.5776 183.197 49.5776 183.128C49.5776 183.059 49.464 183.003 49.3252 183.003C49.1864 183.003 49.0729 182.947 49.0729 182.878C49.0729 182.809 48.9852 182.753 48.878 182.753C48.6255 182.753 48.0636 182.196 48.0636 181.946C48.0636 181.839 48.0068 181.752 47.9374 181.752C47.868 181.752 47.8113 181.64 47.8113 181.502C47.8113 181.365 47.7545 181.252 47.6851 181.252C47.6157 181.252 47.559 181.14 47.559 181.002C47.559 180.865 47.5022 180.752 47.4328 180.752C47.3634 180.752 47.3066 180.64 47.3066 180.502C47.3066 180.365 47.2499 180.252 47.1805 180.252C47.1111 180.252 47.0543 180.139 47.0543 180.002C47.0543 179.864 46.9975 179.752 46.9281 179.752C46.8587 179.752 46.802 179.639 46.802 179.502C46.802 179.364 46.7452 179.252 46.6758 179.252C46.6064 179.252 46.5497 179.139 46.5497 179.002C46.5497 178.864 46.4929 178.752 46.4235 178.752C46.3541 178.752 46.2973 178.583 46.2973 178.376C46.2973 178.17 46.2406 178.001 46.1712 178.001C46.1018 178.001 46.045 177.889 46.045 177.751C46.045 177.614 45.9882 177.501 45.9188 177.501C45.8494 177.501 45.7927 177.389 45.7927 177.251C45.7927 177.114 45.7359 177.001 45.6665 177.001C45.5971 177.001 45.5403 176.888 45.5403 176.751C45.5403 176.613 45.4836 176.501 45.4142 176.501C45.3448 176.501 45.288 176.388 45.288 176.251C45.288 176.113 45.2313 176.001 45.1619 176.001C45.0925 176.001 45.0357 175.832 45.0357 175.626C45.0357 175.419 44.9789 175.25 44.9095 175.25C44.8401 175.25 44.7834 175.138 44.7834 175C44.7834 174.863 44.7266 174.75 44.6572 174.75C44.5878 174.75 44.531 174.638 44.531 174.5C44.531 174.363 44.4743 174.25 44.4049 174.25C44.3355 174.25 44.2787 174.138 44.2787 174C44.2787 173.862 44.2219 173.75 44.1526 173.75C44.0832 173.75 44.0264 173.637 44.0264 173.5C44.0264 173.362 43.9696 173.25 43.9002 173.25C43.8308 173.25 43.7741 173.137 43.7741 173C43.7741 172.862 43.7173 172.75 43.6479 172.75C43.5785 172.75 43.5217 172.581 43.5217 172.375C43.5217 172.168 43.465 171.999 43.3956 171.999C43.3262 171.999 43.2694 171.887 43.2694 171.749C43.2694 171.612 43.2126 171.499 43.1433 171.499C43.0739 171.499 43.0171 171.387 43.0171 171.249C43.0171 171.112 42.9603 170.999 42.8909 170.999C42.8215 170.999 42.7648 170.887 42.7648 170.749C42.7648 170.611 42.708 170.499 42.6386 170.499C42.5692 170.499 42.5124 170.386 42.5124 170.249C42.5124 170.111 42.4557 169.999 42.3863 169.999C42.3169 169.999 42.2601 169.83 42.2601 169.624C42.2601 169.417 42.2033 169.249 42.134 169.249C42.0646 169.249 42.0078 169.136 42.0078 168.998C42.0078 168.861 41.951 168.748 41.8816 168.748C41.8122 168.748 41.7555 168.636 41.7555 168.498C41.7555 168.361 41.6987 168.248 41.6293 168.248C41.5599 168.248 41.5031 168.136 41.5031 167.998C41.5031 167.861 41.4464 167.748 41.377 167.748C41.2933 167.748 41.2508 176.084 41.2508 192.506C41.2508 208.928 41.2083 217.264 41.1247 217.264C41.0553 217.264 40.9985 217.42 40.9985 217.611C40.9985 217.815 40.8943 218.033 40.7462 218.139C40.6074 218.238 40.4938 218.393 40.4938 218.482C40.4938 218.71 39.1534 220.015 38.9196 220.015C38.814 220.015 38.7276 220.071 38.7276 220.14C38.7276 220.209 38.5572 220.265 38.3491 220.265C38.1409 220.265 37.9706 220.321 37.9706 220.39C37.9706 220.466 37.4239 220.515 36.5828 220.515C35.7417 220.515 35.195 220.466 35.195 220.39C35.195 220.321 35.0372 220.265 34.8444 220.265C34.6385 220.265 34.4187 220.162 34.3119 220.015C34.2118 219.877 34.0559 219.765 33.9653 219.765C33.7356 219.765 32.6718 218.688 32.6718 218.455C32.6718 218.35 32.615 218.264 32.5456 218.264C32.4762 218.264 32.4194 218.152 32.4194 218.014C32.4194 217.877 32.3627 217.764 32.2933 217.764C32.2239 217.764 32.1671 217.595 32.1671 217.389C32.1671 217.183 32.1103 217.014 32.0409 217.014C31.9576 217.014 31.9148 212.137 31.9148 202.634V188.255H30.1485H28.3822V202.759C28.3822 212.346 28.3395 217.264 28.2561 217.264C28.1867 217.264 28.1299 217.433 28.1299 217.639C28.1299 217.845 28.0731 218.014 28.0037 218.014C27.9344 218.014 27.8776 218.099 27.8776 218.204C27.8776 218.451 26.3 220.015 26.0506 220.015C25.9451 220.015 25.859 220.071 25.859 220.14C25.859 220.209 25.6887 220.265 25.4805 220.265C25.2723 220.265 25.102 220.321 25.102 220.39C25.102 220.466 24.5553 220.515 23.7142 220.515C22.8731 220.515 22.3264 220.466 22.3264 220.39C22.3264 220.321 22.2129 220.265 22.0741 220.265C21.9353 220.265 21.8218 220.209 21.8218 220.14C21.8218 220.071 21.7082 220.015 21.5695 220.015C21.4307 220.015 21.3171 219.958 21.3171 219.89C21.3171 219.821 21.2305 219.765 21.1246 219.765C20.8742 219.765 19.8032 218.703 19.8032 218.455C19.8032 218.35 19.7464 218.264 19.677 218.264C19.6076 218.264 19.5508 218.152 19.5508 218.014C19.5508 217.877 19.4941 217.764 19.4247 217.764C19.3553 217.764 19.2985 217.595 19.2985 217.389C19.2985 217.183 19.2418 217.014 19.1724 217.014C19.0887 217.014 19.0462 208.719 19.0462 192.381C19.0462 176.042 19.0037 167.748 18.92 167.748C18.8506 167.748 18.7939 167.917 18.7939 168.123C18.7939 168.329 18.7371 168.498 18.6677 168.498C18.5983 168.498 18.5415 168.611 18.5415 168.748C18.5415 168.886 18.4848 168.998 18.4154 168.998C18.346 168.998 18.2892 169.111 18.2892 169.249C18.2892 169.386 18.2325 169.499 18.1631 169.499C18.0937 169.499 18.0369 169.611 18.0369 169.749C18.0369 169.886 17.9801 169.999 17.9107 169.999C17.8413 169.999 17.7846 170.111 17.7846 170.249C17.7846 170.386 17.7278 170.499 17.6584 170.499C17.589 170.499 17.5322 170.611 17.5322 170.749C17.5322 170.887 17.4755 170.999 17.4061 170.999C17.3367 170.999 17.2799 171.168 17.2799 171.374C17.2799 171.58 17.2232 171.749 17.1538 171.749C17.0844 171.749 17.0276 171.862 17.0276 171.999C17.0276 172.137 16.9708 172.249 16.9014 172.249C16.832 172.249 16.7753 172.362 16.7753 172.5C16.7753 172.637 16.7185 172.75 16.6491 172.75C16.5797 172.75 16.5229 172.862 16.5229 173C16.5229 173.137 16.4662 173.25 16.3968 173.25C16.3274 173.25 16.2706 173.362 16.2706 173.5C16.2706 173.637 16.2138 173.75 16.1445 173.75C16.0751 173.75 16.0183 173.919 16.0183 174.125C16.0183 174.331 15.9615 174.5 15.8921 174.5C15.8227 174.5 15.766 174.613 15.766 174.75C15.766 174.888 15.7092 175 15.6398 175C15.5704 175 15.5136 175.113 15.5136 175.25C15.5136 175.388 15.4569 175.5 15.3875 175.5C15.3181 175.5 15.2613 175.613 15.2613 175.751C15.2613 175.888 15.2045 176.001 15.1352 176.001C15.0658 176.001 15.009 176.113 15.009 176.251C15.009 176.388 14.9522 176.501 14.8828 176.501C14.8134 176.501 14.7567 176.67 14.7567 176.876C14.7567 177.082 14.6999 177.251 14.6305 177.251C14.5611 177.251 14.5043 177.364 14.5043 177.501C14.5043 177.639 14.4476 177.751 14.3782 177.751C14.3088 177.751 14.252 177.864 14.252 178.001C14.252 178.139 14.1952 178.251 14.1259 178.251C14.0565 178.251 13.9997 178.364 13.9997 178.501C13.9997 178.639 13.9429 178.752 13.8735 178.752C13.8041 178.752 13.7474 178.864 13.7474 179.002C13.7474 179.139 13.6906 179.252 13.6212 179.252C13.5518 179.252 13.495 179.42 13.495 179.627C13.495 179.833 13.4383 180.002 13.3689 180.002C13.2995 180.002 13.2427 180.114 13.2427 180.252C13.2427 180.39 13.1859 180.502 13.1166 180.502C13.0472 180.502 12.9904 180.615 12.9904 180.752C12.9904 180.89 12.9336 181.002 12.8642 181.002C12.7948 181.002 12.7381 181.102 12.7381 181.225C12.7381 181.347 12.6245 181.528 12.4857 181.627C12.347 181.727 12.2334 181.882 12.2334 181.973C12.2334 182.188 11.6635 182.753 11.4469 182.753C11.3551 182.753 11.198 182.865 11.098 183.003C10.9911 183.15 10.7713 183.253 10.5654 183.253C10.3726 183.253 10.2148 183.309 10.2148 183.378C10.2148 183.451 9.79432 183.503 9.20552 183.503C8.61671 183.503 8.19621 183.451 8.19621 183.378C8.19621 183.309 8.02589 183.253 7.81772 183.253C7.60956 183.253 7.43924 183.197 7.43924 183.128C7.43924 183.059 7.35282 183.003 7.24722 183.003C7.14162 183.003 6.74421 182.695 6.36408 182.318C5.98395 181.941 5.67296 181.547 5.67296 181.443C5.67296 181.338 5.61619 181.252 5.5468 181.252C5.47741 181.252 5.42064 181.027 5.42064 180.752C5.42064 180.477 5.36386 180.252 5.29447 180.252C5.22509 180.252 5.16831 180.027 5.16831 179.752C5.16831 179.477 5.22509 179.252 5.29447 179.252C5.36386 179.252 5.42064 179.027 5.42064 178.752C5.42064 178.476 5.47741 178.251 5.5468 178.251C5.61619 178.251 5.67296 178.083 5.67296 177.876C5.67296 177.67 5.72974 177.501 5.79912 177.501C5.86851 177.501 5.92529 177.389 5.92529 177.251C5.92529 177.114 5.98206 177.001 6.05145 177.001C6.12084 177.001 6.17761 176.888 6.17761 176.751C6.17761 176.613 6.23439 176.501 6.30377 176.501C6.37316 176.501 6.42994 176.388 6.42994 176.251C6.42994 176.113 6.48671 176.001 6.5561 176.001C6.62549 176.001 6.68226 175.888 6.68226 175.751C6.68226 175.613 6.73904 175.5 6.80842 175.5C6.87781 175.5 6.93459 175.332 6.93459 175.125C6.93459 174.919 6.99136 174.75 7.06075 174.75C7.13014 174.75 7.18691 174.638 7.18691 174.5C7.18691 174.363 7.24369 174.25 7.31307 174.25C7.38246 174.25 7.43924 174.138 7.43924 174C7.43924 173.862 7.49601 173.75 7.5654 173.75C7.63479 173.75 7.69156 173.637 7.69156 173.5C7.69156 173.362 7.74834 173.25 7.81772 173.25C7.88711 173.25 7.94389 173.137 7.94389 173C7.94389 172.862 8.00066 172.75 8.07005 172.75C8.13944 172.75 8.19621 172.581 8.19621 172.375C8.19621 172.168 8.25299 171.999 8.32237 171.999C8.39176 171.999 8.44854 171.887 8.44854 171.749C8.44854 171.612 8.50531 171.499 8.5747 171.499C8.64409 171.499 8.70086 171.387 8.70086 171.249C8.70086 171.112 8.75764 170.999 8.82703 170.999C8.89642 170.999 8.95319 170.887 8.95319 170.749C8.95319 170.611 9.00996 170.499 9.07935 170.499C9.14874 170.499 9.20552 170.386 9.20552 170.249C9.20552 170.111 9.26229 169.999 9.33168 169.999C9.40107 169.999 9.45784 169.886 9.45784 169.749C9.45784 169.611 9.51461 169.499 9.584 169.499C9.65339 169.499 9.71017 169.33 9.71017 169.123C9.71017 168.917 9.76694 168.748 9.83633 168.748C9.90572 168.748 9.96249 168.636 9.96249 168.498C9.96249 168.361 10.0193 168.248 10.0887 168.248C10.158 168.248 10.2148 168.136 10.2148 167.998C10.2148 167.861 10.2716 167.748 10.341 167.748C10.4104 167.748 10.4671 167.635 10.4671 167.498C10.4671 167.36 10.5239 167.248 10.5933 167.248C10.6627 167.248 10.7195 167.135 10.7195 166.998C10.7195 166.86 10.7762 166.748 10.8456 166.748C10.915 166.748 10.9718 166.579 10.9718 166.373C10.9718 166.166 11.0286 165.997 11.098 165.997C11.1673 165.997 11.2241 165.885 11.2241 165.747C11.2241 165.61 11.2809 165.497 11.3503 165.497C11.4197 165.497 11.4764 165.385 11.4764 165.247C11.4764 165.11 11.5332 164.997 11.6026 164.997C11.672 164.997 11.7288 164.885 11.7288 164.747C11.7288 164.61 11.7855 164.497 11.8549 164.497C11.9243 164.497 11.9811 164.384 11.9811 164.247C11.9811 164.109 12.0379 163.997 12.1073 163.997C12.1766 163.997 12.2334 163.828 12.2334 163.622C12.2334 163.415 12.2902 163.247 12.3596 163.247C12.429 163.247 12.4857 163.134 12.4857 162.997C12.4857 162.859 12.5425 162.746 12.6119 162.746C12.6813 162.746 12.7381 162.634 12.7381 162.496C12.7381 162.359 12.7948 162.246 12.8642 162.246C12.9336 162.246 12.9904 162.134 12.9904 161.996C12.9904 161.859 13.0472 161.746 13.1166 161.746C13.1859 161.746 13.2427 161.634 13.2427 161.496C13.2427 161.358 13.2995 161.246 13.3689 161.246C13.4383 161.246 13.495 161.077 13.495 160.871C13.495 160.665 13.5518 160.496 13.6212 160.496C13.6906 160.496 13.7474 160.383 13.7474 160.246C13.7474 160.108 13.8041 159.996 13.8735 159.996C13.9429 159.996 13.9997 159.883 13.9997 159.745C13.9997 159.608 14.0565 159.495 14.1259 159.495C14.1952 159.495 14.252 159.383 14.252 159.245C14.252 159.108 14.3088 158.995 14.3782 158.995C14.4476 158.995 14.5043 158.883 14.5043 158.745C14.5043 158.608 14.5611 158.495 14.6305 158.495C14.6999 158.495 14.7567 158.383 14.7567 158.245C14.7567 158.107 14.8134 157.995 14.8828 157.995C14.9522 157.995 15.009 157.826 15.009 157.62C15.009 157.413 15.0658 157.245 15.1352 157.245C15.2045 157.245 15.2613 157.132 15.2613 156.995C15.2613 156.857 15.3181 156.745 15.3875 156.745C15.4569 156.745 15.5136 156.632 15.5136 156.494C15.5136 156.357 15.5704 156.244 15.6398 156.244C15.7092 156.244 15.766 156.132 15.766 155.994C15.766 155.857 15.8227 155.744 15.8921 155.744C15.9615 155.744 16.0183 155.632 16.0183 155.494C16.0183 155.357 16.0751 155.244 16.1445 155.244C16.2138 155.244 16.2706 155.075 16.2706 154.869C16.2706 154.663 16.3274 154.494 16.3968 154.494C16.4662 154.494 16.5229 154.381 16.5229 154.244C16.5229 154.106 16.5797 153.994 16.6491 153.994C16.7185 153.994 16.7753 153.881 16.7753 153.744C16.7753 153.606 16.832 153.493 16.9014 153.493C16.9708 153.493 17.0276 153.381 17.0276 153.243C17.0276 153.106 17.0844 152.993 17.1538 152.993C17.2232 152.993 17.2799 152.881 17.2799 152.743C17.2799 152.606 17.3367 152.493 17.4061 152.493C17.4755 152.493 17.5322 152.324 17.5322 152.118C17.5322 151.912 17.589 151.743 17.6584 151.743C17.7278 151.743 17.7846 151.63 17.7846 151.493C17.7846 151.355 17.8413 151.243 17.9107 151.243C17.9801 151.243 18.0369 151.13 18.0369 150.993C18.0369 150.855 18.0937 150.743 18.1631 150.743C18.2325 150.743 18.2892 150.63 18.2892 150.493C18.2892 150.355 18.346 150.242 18.4154 150.242C18.4848 150.242 18.5415 150.13 18.5415 149.992C18.5415 149.855 18.5983 149.742 18.6677 149.742C18.7371 149.742 18.7939 149.642 18.7939 149.52C18.7939 149.397 18.9074 149.216 19.0462 149.117C19.185 149.018 19.2985 148.837 19.2985 148.714C19.2985 148.592 19.3892 148.492 19.5003 148.492C19.6112 148.492 19.8611 148.323 20.0555 148.117C20.2729 147.886 20.5353 147.742 20.7369 147.742C20.9173 147.742 21.0648 147.685 21.0648 147.617C21.0648 147.547 21.4013 147.492 21.8218 147.492C22.2423 147.492 22.5788 147.436 22.5788 147.367C22.5788 147.284 25.2282 147.241 30.2747 147.241C35.3212 147.241 37.9706 147.284 37.9706 147.367Z" fill="black"/>
<path fill-rule="evenodd" clip-rule="evenodd" d="M151.038 127.61C151.038 127.679 151.209 127.735 151.417 127.735C151.625 127.735 151.795 127.792 151.795 127.86C151.795 127.929 151.966 127.985 152.174 127.985C152.382 127.985 152.552 128.042 152.552 128.11C152.552 128.179 152.666 128.235 152.805 128.235C152.943 128.235 153.057 128.292 153.057 128.36C153.057 128.429 153.171 128.485 153.309 128.485C153.448 128.485 153.562 128.542 153.562 128.611C153.562 128.679 153.663 128.736 153.786 128.736C153.91 128.736 154.092 128.848 154.192 128.986C154.293 129.123 154.448 129.236 154.538 129.236C154.751 129.236 156.337 130.807 156.337 131.019C156.337 131.108 156.451 131.262 156.59 131.361C156.728 131.461 156.842 131.642 156.842 131.764C156.842 131.886 156.899 131.987 156.968 131.987C157.037 131.987 157.094 132.099 157.094 132.237C157.094 132.374 157.151 132.487 157.22 132.487C157.29 132.487 157.347 132.599 157.347 132.737C157.347 132.874 157.403 132.987 157.473 132.987C157.542 132.987 157.599 133.156 157.599 133.362C157.599 133.568 157.656 133.737 157.725 133.737C157.794 133.737 157.851 133.906 157.851 134.112C157.851 134.319 157.908 134.487 157.977 134.487C158.056 134.487 158.104 135.238 158.104 136.488C158.104 137.738 158.056 138.489 157.977 138.489C157.908 138.489 157.851 138.657 157.851 138.864C157.851 139.07 157.794 139.239 157.725 139.239C157.656 139.239 157.599 139.408 157.599 139.614C157.599 139.82 157.542 139.989 157.473 139.989C157.403 139.989 157.347 140.102 157.347 140.239C157.347 140.377 157.29 140.489 157.22 140.489C157.151 140.489 157.094 140.602 157.094 140.739C157.094 140.877 157.037 140.989 156.968 140.989C156.899 140.989 156.842 141.079 156.842 141.189C156.842 141.299 156.672 141.547 156.463 141.74C156.255 141.932 156.085 142.153 156.085 142.231C156.085 142.414 154.999 143.49 154.814 143.49C154.736 143.49 154.513 143.659 154.319 143.865C154.124 144.072 153.874 144.241 153.763 144.241C153.652 144.241 153.562 144.297 153.562 144.366C153.562 144.434 153.448 144.491 153.309 144.491C153.171 144.491 153.057 144.547 153.057 144.616C153.057 144.684 152.943 144.741 152.805 144.741C152.666 144.741 152.552 144.797 152.552 144.866C152.552 144.934 152.382 144.991 152.174 144.991C151.966 144.991 151.795 145.047 151.795 145.116C151.795 145.185 151.568 145.241 151.291 145.241C151.013 145.241 150.786 145.297 150.786 145.366C150.786 145.443 150.113 145.491 149.02 145.491C147.926 145.491 147.254 145.443 147.254 145.366C147.254 145.297 147.026 145.241 146.749 145.241C146.471 145.241 146.244 145.185 146.244 145.116C146.244 145.047 146.074 144.991 145.866 144.991C145.658 144.991 145.487 144.934 145.487 144.866C145.487 144.797 145.374 144.741 145.235 144.741C145.096 144.741 144.983 144.684 144.983 144.616C144.983 144.547 144.882 144.491 144.758 144.491C144.635 144.491 144.452 144.378 144.352 144.241C144.252 144.103 144.092 143.99 143.996 143.99C143.901 143.99 143.663 143.822 143.469 143.615C143.274 143.409 143.05 143.24 142.971 143.24C142.783 143.24 142.207 142.669 142.207 142.483C142.207 142.405 142.037 142.182 141.829 141.99C141.62 141.797 141.45 141.562 141.45 141.467C141.45 141.372 141.336 141.214 141.198 141.115C141.059 141.015 140.945 140.834 140.945 140.712C140.945 140.589 140.889 140.489 140.819 140.489C140.75 140.489 140.693 140.377 140.693 140.239C140.693 140.102 140.636 139.989 140.567 139.989C140.498 139.989 140.441 139.764 140.441 139.489C140.441 139.214 140.384 138.989 140.315 138.989C140.245 138.989 140.188 138.82 140.188 138.614C140.188 138.407 140.132 138.239 140.062 138.239C139.984 138.239 139.936 137.572 139.936 136.488C139.936 135.404 139.984 134.737 140.062 134.737C140.132 134.737 140.188 134.512 140.188 134.237C140.188 133.962 140.245 133.737 140.315 133.737C140.384 133.737 140.441 133.568 140.441 133.362C140.441 133.156 140.498 132.987 140.567 132.987C140.636 132.987 140.693 132.874 140.693 132.737C140.693 132.599 140.75 132.487 140.819 132.487C140.889 132.487 140.945 132.374 140.945 132.237C140.945 132.099 141.002 131.987 141.072 131.987C141.141 131.987 141.198 131.898 141.198 131.789C141.198 131.681 141.425 131.376 141.702 131.111C141.98 130.847 142.207 130.568 142.207 130.492C142.207 130.31 143.04 129.486 143.225 129.486C143.303 129.486 143.527 129.317 143.721 129.111C143.915 128.904 144.165 128.736 144.276 128.736C144.387 128.736 144.478 128.679 144.478 128.611C144.478 128.542 144.591 128.485 144.73 128.485C144.869 128.485 144.983 128.429 144.983 128.36C144.983 128.292 145.096 128.235 145.235 128.235C145.374 128.235 145.487 128.179 145.487 128.11C145.487 128.042 145.658 127.985 145.866 127.985C146.074 127.985 146.244 127.929 146.244 127.86C146.244 127.792 146.415 127.735 146.623 127.735C146.831 127.735 147.001 127.679 147.001 127.61C147.001 127.532 147.758 127.485 149.02 127.485C150.281 127.485 151.038 127.532 151.038 127.61ZM156.842 147.367C156.842 147.435 157.126 147.492 157.473 147.492C157.82 147.492 158.104 147.548 158.104 147.617C158.104 147.685 158.261 147.742 158.454 147.742C158.66 147.742 158.88 147.845 158.987 147.992C159.087 148.129 159.244 148.242 159.336 148.242C159.428 148.242 159.642 148.38 159.812 148.549C159.983 148.718 160.122 148.93 160.122 149.021C160.122 149.112 160.236 149.268 160.374 149.367C160.513 149.466 160.627 149.647 160.627 149.77C160.627 149.892 160.684 149.992 160.753 149.992C160.822 149.992 160.879 150.105 160.879 150.242C160.879 150.38 160.936 150.493 161.005 150.493C161.075 150.493 161.131 150.661 161.131 150.868C161.131 151.074 161.188 151.243 161.258 151.243C161.327 151.243 161.384 151.355 161.384 151.493C161.384 151.63 161.441 151.743 161.51 151.743C161.579 151.743 161.636 151.855 161.636 151.993C161.636 152.131 161.693 152.243 161.762 152.243C161.832 152.243 161.888 152.356 161.888 152.493C161.888 152.631 161.945 152.743 162.015 152.743C162.084 152.743 162.141 152.856 162.141 152.993C162.141 153.131 162.197 153.243 162.267 153.243C162.336 153.243 162.393 153.412 162.393 153.619C162.393 153.825 162.45 153.994 162.519 153.994C162.589 153.994 162.645 154.106 162.645 154.244C162.645 154.381 162.702 154.494 162.772 154.494C162.841 154.494 162.898 154.606 162.898 154.744C162.898 154.881 162.954 154.994 163.024 154.994C163.093 154.994 163.15 155.106 163.15 155.244C163.15 155.382 163.207 155.494 163.276 155.494C163.346 155.494 163.402 155.607 163.402 155.744C163.402 155.882 163.459 155.994 163.529 155.994C163.598 155.994 163.655 156.163 163.655 156.369C163.655 156.576 163.711 156.745 163.781 156.745C163.85 156.745 163.907 156.857 163.907 156.995C163.907 157.132 163.964 157.245 164.033 157.245C164.103 157.245 164.159 157.357 164.159 157.495C164.159 157.632 164.216 157.745 164.285 157.745C164.355 157.745 164.412 157.857 164.412 157.995C164.412 158.132 164.468 158.245 164.538 158.245C164.607 158.245 164.664 158.358 164.664 158.495C164.664 158.633 164.721 158.745 164.79 158.745C164.86 158.745 164.916 158.914 164.916 159.12C164.916 159.327 164.973 159.495 165.042 159.495C165.112 159.495 165.169 159.608 165.169 159.745C165.169 159.883 165.225 159.996 165.295 159.996C165.364 159.996 165.421 160.108 165.421 160.246C165.421 160.383 165.478 160.496 165.547 160.496C165.616 160.496 165.673 160.608 165.673 160.746C165.673 160.883 165.73 160.996 165.799 160.996C165.869 160.996 165.926 161.108 165.926 161.246C165.926 161.383 165.982 161.496 166.052 161.496C166.121 161.496 166.178 161.665 166.178 161.871C166.178 162.077 166.235 162.246 166.304 162.246C166.373 162.246 166.43 162.359 166.43 162.496C166.43 162.634 166.487 162.746 166.556 162.746C166.626 162.746 166.683 162.859 166.683 162.997C166.683 163.134 166.739 163.247 166.809 163.247C166.878 163.247 166.935 163.359 166.935 163.497C166.935 163.634 166.992 163.747 167.061 163.747C167.13 163.747 167.187 163.859 167.187 163.997C167.187 164.134 167.244 164.247 167.313 164.247C167.383 164.247 167.44 164.359 167.44 164.497C167.44 164.635 167.496 164.747 167.566 164.747C167.635 164.747 167.692 164.916 167.692 165.122C167.692 165.329 167.749 165.497 167.818 165.497C167.887 165.497 167.944 165.61 167.944 165.747C167.944 165.885 168.001 165.997 168.07 165.997C168.14 165.997 168.197 166.11 168.197 166.248C168.197 166.385 168.253 166.498 168.323 166.498C168.392 166.498 168.449 166.61 168.449 166.748C168.449 166.885 168.506 166.998 168.575 166.998C168.644 166.998 168.701 167.11 168.701 167.248C168.701 167.385 168.758 167.498 168.827 167.498C168.897 167.498 168.953 167.667 168.953 167.873C168.953 168.079 169.01 168.248 169.08 168.248C169.149 168.248 169.206 168.361 169.206 168.498C169.206 168.636 169.263 168.748 169.332 168.748C169.401 168.748 169.458 168.861 169.458 168.998C169.458 169.136 169.515 169.249 169.584 169.249C169.654 169.249 169.71 169.361 169.71 169.499C169.71 169.636 169.767 169.749 169.837 169.749C169.906 169.749 169.963 169.861 169.963 169.999C169.963 170.136 170.02 170.249 170.089 170.249C170.158 170.249 170.215 170.418 170.215 170.624C170.215 170.83 170.272 170.999 170.341 170.999C170.411 170.999 170.467 171.112 170.467 171.249C170.467 171.387 170.524 171.499 170.594 171.499C170.663 171.499 170.72 171.612 170.72 171.749C170.72 171.887 170.777 171.999 170.846 171.999C170.915 171.999 170.972 172.112 170.972 172.249C170.972 172.387 171.029 172.5 171.098 172.5C171.168 172.5 171.224 172.612 171.224 172.75C171.224 172.887 171.281 173 171.351 173C171.42 173 171.477 173.169 171.477 173.375C171.477 173.581 171.534 173.75 171.603 173.75C171.672 173.75 171.729 173.862 171.729 174C171.729 174.138 171.786 174.25 171.855 174.25C171.925 174.25 171.981 174.363 171.981 174.5C171.981 174.638 172.038 174.75 172.108 174.75C172.177 174.75 172.234 174.863 172.234 175C172.234 175.138 172.29 175.25 172.36 175.25C172.429 175.25 172.486 175.363 172.486 175.5C172.486 175.638 172.543 175.751 172.612 175.751C172.682 175.751 172.738 175.863 172.738 176.001C172.738 176.138 172.795 176.251 172.865 176.251C172.934 176.251 172.991 176.42 172.991 176.626C172.991 176.832 173.047 177.001 173.117 177.001C173.186 177.001 173.243 177.114 173.243 177.251C173.243 177.389 173.3 177.501 173.369 177.501C173.439 177.501 173.495 177.614 173.495 177.751C173.495 177.889 173.552 178.001 173.622 178.001C173.691 178.001 173.748 178.17 173.748 178.376C173.748 178.583 173.804 178.752 173.874 178.752C173.946 178.752 174 179.127 174 179.627C174 180.127 173.946 180.502 173.874 180.502C173.804 180.502 173.748 180.671 173.748 180.877C173.748 181.084 173.691 181.252 173.622 181.252C173.552 181.252 173.495 181.338 173.495 181.443C173.495 181.69 172.171 183.003 171.921 183.003C171.815 183.003 171.729 183.059 171.729 183.128C171.729 183.197 171.616 183.253 171.477 183.253C171.338 183.253 171.224 183.309 171.224 183.378C171.224 183.452 170.762 183.503 170.089 183.503C169.416 183.503 168.953 183.452 168.953 183.378C168.953 183.309 168.84 183.253 168.701 183.253C168.562 183.253 168.449 183.197 168.449 183.128C168.449 183.059 168.335 183.003 168.197 183.003C168.058 183.003 167.944 182.947 167.944 182.878C167.944 182.809 167.857 182.753 167.749 182.753C167.497 182.753 166.935 182.196 166.935 181.946C166.935 181.839 166.878 181.752 166.809 181.752C166.739 181.752 166.683 181.64 166.683 181.502C166.683 181.365 166.626 181.252 166.556 181.252C166.487 181.252 166.43 181.14 166.43 181.002C166.43 180.865 166.373 180.752 166.304 180.752C166.235 180.752 166.178 180.64 166.178 180.502C166.178 180.365 166.121 180.252 166.052 180.252C165.982 180.252 165.926 180.139 165.926 180.002C165.926 179.864 165.869 179.752 165.799 179.752C165.73 179.752 165.673 179.639 165.673 179.502C165.673 179.364 165.616 179.252 165.547 179.252C165.478 179.252 165.421 179.139 165.421 179.002C165.421 178.864 165.364 178.752 165.295 178.752C165.225 178.752 165.169 178.583 165.169 178.376C165.169 178.17 165.112 178.001 165.042 178.001C164.973 178.001 164.916 177.889 164.916 177.751C164.916 177.614 164.86 177.501 164.79 177.501C164.721 177.501 164.664 177.389 164.664 177.251C164.664 177.114 164.607 177.001 164.538 177.001C164.468 177.001 164.412 176.888 164.412 176.751C164.412 176.613 164.355 176.501 164.285 176.501C164.216 176.501 164.159 176.388 164.159 176.251C164.159 176.113 164.103 176.001 164.033 176.001C163.964 176.001 163.907 175.832 163.907 175.626C163.907 175.419 163.85 175.25 163.781 175.25C163.711 175.25 163.655 175.138 163.655 175C163.655 174.863 163.598 174.75 163.529 174.75C163.459 174.75 163.402 174.638 163.402 174.5C163.402 174.363 163.346 174.25 163.276 174.25C163.207 174.25 163.15 174.138 163.15 174C163.15 173.862 163.093 173.75 163.024 173.75C162.954 173.75 162.898 173.637 162.898 173.5C162.898 173.362 162.841 173.25 162.772 173.25C162.702 173.25 162.645 173.137 162.645 173C162.645 172.862 162.589 172.75 162.519 172.75C162.45 172.75 162.393 172.581 162.393 172.375C162.393 172.168 162.336 171.999 162.267 171.999C162.197 171.999 162.141 171.887 162.141 171.749C162.141 171.612 162.084 171.499 162.015 171.499C161.945 171.499 161.888 171.387 161.888 171.249C161.888 171.112 161.832 170.999 161.762 170.999C161.693 170.999 161.636 170.887 161.636 170.749C161.636 170.611 161.579 170.499 161.51 170.499C161.441 170.499 161.384 170.386 161.384 170.249C161.384 170.111 161.327 169.999 161.258 169.999C161.188 169.999 161.131 169.83 161.131 169.624C161.131 169.417 161.075 169.249 161.005 169.249C160.936 169.249 160.879 169.136 160.879 168.998C160.879 168.861 160.822 168.748 160.753 168.748C160.684 168.748 160.627 168.636 160.627 168.498C160.627 168.361 160.57 168.248 160.501 168.248C160.431 168.248 160.374 168.136 160.374 167.998C160.374 167.861 160.318 167.748 160.248 167.748C160.165 167.748 160.122 176.084 160.122 192.506C160.122 208.928 160.08 217.264 159.996 217.264C159.927 217.264 159.87 217.42 159.87 217.611C159.87 217.815 159.766 218.033 159.617 218.139C159.479 218.238 159.365 218.393 159.365 218.482C159.365 218.71 158.025 220.015 157.791 220.015C157.685 220.015 157.599 220.071 157.599 220.14C157.599 220.209 157.429 220.265 157.22 220.265C157.012 220.265 156.842 220.321 156.842 220.39C156.842 220.466 156.295 220.515 155.454 220.515C154.613 220.515 154.066 220.466 154.066 220.39C154.066 220.321 153.908 220.265 153.716 220.265C153.51 220.265 153.29 220.162 153.183 220.015C153.083 219.877 152.927 219.765 152.837 219.765C152.607 219.765 151.543 218.688 151.543 218.455C151.543 218.35 151.486 218.264 151.417 218.264C151.348 218.264 151.291 218.152 151.291 218.014C151.291 217.877 151.234 217.764 151.165 217.764C151.095 217.764 151.038 217.595 151.038 217.389C151.038 217.183 150.982 217.014 150.912 217.014C150.829 217.014 150.786 212.137 150.786 202.634V188.255H149.02H147.254V202.759C147.254 212.346 147.211 217.264 147.127 217.264C147.058 217.264 147.001 217.433 147.001 217.639C147.001 217.845 146.944 218.014 146.875 218.014C146.806 218.014 146.749 218.099 146.749 218.204C146.749 218.451 145.171 220.015 144.922 220.015C144.816 220.015 144.73 220.071 144.73 220.14C144.73 220.209 144.56 220.265 144.352 220.265C144.144 220.265 143.973 220.321 143.973 220.39C143.973 220.466 143.427 220.515 142.586 220.515C141.744 220.515 141.198 220.466 141.198 220.39C141.198 220.321 141.084 220.265 140.945 220.265C140.807 220.265 140.693 220.209 140.693 220.14C140.693 220.071 140.58 220.015 140.441 220.015C140.302 220.015 140.188 219.958 140.188 219.89C140.188 219.821 140.102 219.765 139.996 219.765C139.745 219.765 138.674 218.703 138.674 218.455C138.674 218.35 138.618 218.264 138.548 218.264C138.479 218.264 138.422 218.152 138.422 218.014C138.422 217.877 138.365 217.764 138.296 217.764C138.227 217.764 138.17 217.595 138.17 217.389C138.17 217.183 138.113 217.014 138.044 217.014C137.96 217.014 137.917 208.719 137.917 192.381C137.917 176.042 137.875 167.748 137.791 167.748C137.722 167.748 137.665 167.917 137.665 168.123C137.665 168.329 137.608 168.498 137.539 168.498C137.47 168.498 137.413 168.611 137.413 168.748C137.413 168.886 137.356 168.998 137.287 168.998C137.217 168.998 137.161 169.111 137.161 169.249C137.161 169.386 137.104 169.499 137.034 169.499C136.965 169.499 136.908 169.611 136.908 169.749C136.908 169.886 136.851 169.999 136.782 169.999C136.713 169.999 136.656 170.111 136.656 170.249C136.656 170.386 136.599 170.499 136.53 170.499C136.46 170.499 136.404 170.611 136.404 170.749C136.404 170.887 136.347 170.999 136.277 170.999C136.208 170.999 136.151 171.168 136.151 171.374C136.151 171.58 136.094 171.749 136.025 171.749C135.956 171.749 135.899 171.862 135.899 171.999C135.899 172.137 135.842 172.249 135.773 172.249C135.703 172.249 135.647 172.362 135.647 172.5C135.647 172.637 135.59 172.75 135.52 172.75C135.451 172.75 135.394 172.862 135.394 173C135.394 173.137 135.337 173.25 135.268 173.25C135.199 173.25 135.142 173.362 135.142 173.5C135.142 173.637 135.085 173.75 135.016 173.75C134.946 173.75 134.89 173.919 134.89 174.125C134.89 174.331 134.833 174.5 134.763 174.5C134.694 174.5 134.637 174.613 134.637 174.75C134.637 174.888 134.58 175 134.511 175C134.442 175 134.385 175.113 134.385 175.25C134.385 175.388 134.328 175.5 134.259 175.5C134.189 175.5 134.133 175.613 134.133 175.751C134.133 175.888 134.076 176.001 134.006 176.001C133.937 176.001 133.88 176.113 133.88 176.251C133.88 176.388 133.824 176.501 133.754 176.501C133.685 176.501 133.628 176.67 133.628 176.876C133.628 177.082 133.571 177.251 133.502 177.251C133.432 177.251 133.376 177.364 133.376 177.501C133.376 177.639 133.319 177.751 133.249 177.751C133.18 177.751 133.123 177.864 133.123 178.001C133.123 178.139 133.067 178.251 132.997 178.251C132.928 178.251 132.871 178.364 132.871 178.501C132.871 178.639 132.814 178.752 132.745 178.752C132.675 178.752 132.619 178.864 132.619 179.002C132.619 179.139 132.562 179.252 132.492 179.252C132.423 179.252 132.366 179.42 132.366 179.627C132.366 179.833 132.31 180.002 132.24 180.002C132.171 180.002 132.114 180.114 132.114 180.252C132.114 180.39 132.057 180.502 131.988 180.502C131.918 180.502 131.862 180.615 131.862 180.752C131.862 180.89 131.805 181.002 131.736 181.002C131.666 181.002 131.609 181.102 131.609 181.225C131.609 181.347 131.496 181.528 131.357 181.627C131.218 181.727 131.105 181.882 131.105 181.973C131.105 182.188 130.535 182.753 130.318 182.753C130.226 182.753 130.069 182.865 129.969 183.003C129.862 183.15 129.643 183.253 129.437 183.253C129.244 183.253 129.086 183.309 129.086 183.378C129.086 183.451 128.666 183.503 128.077 183.503C127.488 183.503 127.068 183.451 127.068 183.378C127.068 183.309 126.897 183.253 126.689 183.253C126.481 183.253 126.311 183.197 126.311 183.128C126.311 183.059 126.224 183.003 126.119 183.003C126.013 183.003 125.616 182.695 125.235 182.318C124.855 181.941 124.544 181.547 124.544 181.443C124.544 181.338 124.487 181.252 124.418 181.252C124.349 181.252 124.292 181.027 124.292 180.752C124.292 180.477 124.235 180.252 124.166 180.252C124.096 180.252 124.04 180.027 124.04 179.752C124.04 179.477 124.096 179.252 124.166 179.252C124.235 179.252 124.292 179.027 124.292 178.752C124.292 178.476 124.349 178.251 124.418 178.251C124.487 178.251 124.544 178.083 124.544 177.876C124.544 177.67 124.601 177.501 124.67 177.501C124.74 177.501 124.797 177.389 124.797 177.251C124.797 177.114 124.853 177.001 124.923 177.001C124.992 177.001 125.049 176.888 125.049 176.751C125.049 176.613 125.106 176.501 125.175 176.501C125.244 176.501 125.301 176.388 125.301 176.251C125.301 176.113 125.358 176.001 125.427 176.001C125.497 176.001 125.554 175.888 125.554 175.751C125.554 175.613 125.61 175.5 125.68 175.5C125.749 175.5 125.806 175.332 125.806 175.125C125.806 174.919 125.863 174.75 125.932 174.75C126.001 174.75 126.058 174.638 126.058 174.5C126.058 174.363 126.115 174.25 126.184 174.25C126.254 174.25 126.311 174.138 126.311 174C126.311 173.862 126.367 173.75 126.437 173.75C126.506 173.75 126.563 173.637 126.563 173.5C126.563 173.362 126.62 173.25 126.689 173.25C126.758 173.25 126.815 173.137 126.815 173C126.815 172.862 126.872 172.75 126.941 172.75C127.011 172.75 127.068 172.581 127.068 172.375C127.068 172.168 127.124 171.999 127.194 171.999C127.263 171.999 127.32 171.887 127.32 171.749C127.32 171.612 127.377 171.499 127.446 171.499C127.515 171.499 127.572 171.387 127.572 171.249C127.572 171.112 127.629 170.999 127.698 170.999C127.768 170.999 127.824 170.887 127.824 170.749C127.824 170.611 127.881 170.499 127.951 170.499C128.02 170.499 128.077 170.386 128.077 170.249C128.077 170.111 128.134 169.999 128.203 169.999C128.272 169.999 128.329 169.886 128.329 169.749C128.329 169.611 128.386 169.499 128.455 169.499C128.525 169.499 128.581 169.33 128.581 169.123C128.581 168.917 128.638 168.748 128.708 168.748C128.777 168.748 128.834 168.636 128.834 168.498C128.834 168.361 128.891 168.248 128.96 168.248C129.029 168.248 129.086 168.136 129.086 167.998C129.086 167.861 129.143 167.748 129.212 167.748C129.282 167.748 129.338 167.635 129.338 167.498C129.338 167.36 129.395 167.248 129.465 167.248C129.534 167.248 129.591 167.135 129.591 166.998C129.591 166.86 129.648 166.748 129.717 166.748C129.786 166.748 129.843 166.579 129.843 166.373C129.843 166.166 129.9 165.997 129.969 165.997C130.039 165.997 130.095 165.885 130.095 165.747C130.095 165.61 130.152 165.497 130.222 165.497C130.291 165.497 130.348 165.385 130.348 165.247C130.348 165.11 130.405 164.997 130.474 164.997C130.543 164.997 130.6 164.885 130.6 164.747C130.6 164.61 130.657 164.497 130.726 164.497C130.796 164.497 130.852 164.384 130.852 164.247C130.852 164.109 130.909 163.997 130.979 163.997C131.048 163.997 131.105 163.828 131.105 163.622C131.105 163.415 131.161 163.247 131.231 163.247C131.3 163.247 131.357 163.134 131.357 162.997C131.357 162.859 131.414 162.746 131.483 162.746C131.553 162.746 131.609 162.634 131.609 162.496C131.609 162.359 131.666 162.246 131.736 162.246C131.805 162.246 131.862 162.134 131.862 161.996C131.862 161.859 131.918 161.746 131.988 161.746C132.057 161.746 132.114 161.634 132.114 161.496C132.114 161.358 132.171 161.246 132.24 161.246C132.31 161.246 132.366 161.077 132.366 160.871C132.366 160.665 132.423 160.496 132.492 160.496C132.562 160.496 132.619 160.383 132.619 160.246C132.619 160.108 132.675 159.996 132.745 159.996C132.814 159.996 132.871 159.883 132.871 159.745C132.871 159.608 132.928 159.495 132.997 159.495C133.067 159.495 133.123 159.383 133.123 159.245C133.123 159.108 133.18 158.995 133.249 158.995C133.319 158.995 133.376 158.883 133.376 158.745C133.376 158.608 133.432 158.495 133.502 158.495C133.571 158.495 133.628 158.383 133.628 158.245C133.628 158.107 133.685 157.995 133.754 157.995C133.824 157.995 133.88 157.826 133.88 157.62C133.88 157.413 133.937 157.245 134.006 157.245C134.076 157.245 134.133 157.132 134.133 156.995C134.133 156.857 134.189 156.745 134.259 156.745C134.328 156.745 134.385 156.632 134.385 156.494C134.385 156.357 134.442 156.244 134.511 156.244C134.58 156.244 134.637 156.132 134.637 155.994C134.637 155.857 134.694 155.744 134.763 155.744C134.833 155.744 134.89 155.632 134.89 155.494C134.89 155.357 134.946 155.244 135.016 155.244C135.085 155.244 135.142 155.075 135.142 154.869C135.142 154.663 135.199 154.494 135.268 154.494C135.337 154.494 135.394 154.381 135.394 154.244C135.394 154.106 135.451 153.994 135.52 153.994C135.59 153.994 135.647 153.881 135.647 153.744C135.647 153.606 135.703 153.493 135.773 153.493C135.842 153.493 135.899 153.381 135.899 153.243C135.899 153.106 135.956 152.993 136.025 152.993C136.094 152.993 136.151 152.881 136.151 152.743C136.151 152.606 136.208 152.493 136.277 152.493C136.347 152.493 136.404 152.324 136.404 152.118C136.404 151.912 136.46 151.743 136.53 151.743C136.599 151.743 136.656 151.63 136.656 151.493C136.656 151.355 136.713 151.243 136.782 151.243C136.851 151.243 136.908 151.13 136.908 150.993C136.908 150.855 136.965 150.743 137.034 150.743C137.104 150.743 137.161 150.63 137.161 150.493C137.161 150.355 137.217 150.242 137.287 150.242C137.356 150.242 137.413 150.13 137.413 149.992C137.413 149.855 137.47 149.742 137.539 149.742C137.608 149.742 137.665 149.642 137.665 149.52C137.665 149.397 137.779 149.216 137.917 149.117C138.056 149.018 138.17 148.837 138.17 148.714C138.17 148.592 138.261 148.492 138.372 148.492C138.482 148.492 138.732 148.323 138.927 148.117C139.144 147.886 139.407 147.742 139.608 147.742C139.789 147.742 139.936 147.685 139.936 147.617C139.936 147.547 140.273 147.492 140.693 147.492C141.114 147.492 141.45 147.436 141.45 147.367C141.45 147.284 144.099 147.241 149.146 147.241C154.192 147.241 156.842 147.284 156.842 147.367Z" fill="black"/>
</svg>
