<svg width="208" height="198" viewBox="0 0 208 198" fill="none" xmlns="http://www.w3.org/2000/svg">
<path d="M0 0.339606H2.83817V12.8201H9.2083V15.5369H0V0.339606Z" fill="black"/>
<path d="M11.2303 0.339606H14.0685V15.5369H11.2303V0.339606Z" fill="black"/>
<path d="M17.1021 0.339606H19.8983L24.5024 8.384H24.6706L29.2747 0.339606H32.0919V15.5369H29.2747V8.0444L29.4429 5.49736H29.2747L25.4485 12.3107H23.7456L19.8983 5.49736H19.7301L19.8983 8.0444V15.5369H17.1021V0.339606Z" fill="black"/>
<path d="M35.1281 0.339606H37.9663V15.5369H35.1281V0.339606Z" fill="black"/>
<path d="M44.1955 15.5369V3.05645H39.9908V0.339606H51.2384V3.05645H47.0337V15.5369H44.1955Z" fill="black"/>
<path d="M56.095 3.05645V6.57985H62.1287V9.29669H56.095V12.8201H62.8015V15.5369H53.2568V0.339606H62.8015V3.05645H56.095Z" fill="black"/>
<path d="M65.411 0.339606H70.4987C71.6901 0.339606 72.7622 0.523558 73.7153 0.891463C74.6684 1.25937 75.4813 1.78293 76.154 2.46214C76.8268 3.1272 77.3384 3.92668 77.6888 4.8606C78.0532 5.79451 78.2354 6.8204 78.2354 7.93827C78.2354 9.07028 78.0532 10.1032 77.6888 11.0372C77.3384 11.9711 76.8268 12.7706 76.154 13.4356C75.4813 14.1007 74.6684 14.6172 73.7153 14.9851C72.7622 15.353 71.6901 15.5369 70.4987 15.5369H65.411V0.339606ZM70.3726 12.8201C71.1995 12.8201 71.9283 12.7069 72.559 12.4805C73.1897 12.2399 73.7153 11.9074 74.1358 11.4829C74.5563 11.0584 74.8716 10.549 75.0818 9.95467C75.2921 9.34621 75.3972 8.67408 75.3972 7.93827C75.3972 7.20246 75.2921 6.5374 75.0818 5.94309C74.8716 5.33463 74.5563 4.81815 74.1358 4.39364C73.7153 3.96913 73.1897 3.64368 72.559 3.41728C71.9283 3.17672 71.1995 3.05645 70.3726 3.05645H68.2492V12.8201H70.3726Z" fill="black"/>
<path d="M97.8912 13.096C97.1484 14.0016 96.2724 14.695 95.2633 15.1761C94.2541 15.6431 93.1259 15.8765 91.8785 15.8765C90.7572 15.8765 89.7131 15.6714 88.746 15.261C87.7929 14.8506 86.966 14.2917 86.2652 13.5842C85.5644 12.8767 85.0108 12.0418 84.6043 11.0796C84.1979 10.1032 83.9947 9.05613 83.9947 7.93827C83.9947 6.8204 84.1979 5.78036 84.6043 4.81815C85.0108 3.84178 85.5644 2.99985 86.2652 2.29234C86.966 1.58482 87.7929 1.02589 88.746 0.615535C89.7131 0.205178 90.7572 0 91.8785 0C93.0838 0 94.142 0.212253 95.053 0.63676C95.9781 1.06127 96.798 1.6768 97.5128 2.48336L95.5155 4.43609C95.067 3.91253 94.5485 3.4951 93.9598 3.1838C93.3852 2.87249 92.6984 2.71684 91.8995 2.71684C91.1987 2.71684 90.54 2.84419 89.9233 3.0989C89.3066 3.33945 88.767 3.68613 88.3045 4.13894C87.856 4.59174 87.4986 5.1436 87.2323 5.79451C86.966 6.43127 86.8328 7.14586 86.8328 7.93827C86.8328 8.73068 86.966 9.45234 87.2323 10.1033C87.4986 10.74 87.856 11.2848 88.3045 11.7376C88.767 12.1904 89.3066 12.5442 89.9233 12.7989C90.54 13.0394 91.1987 13.1597 91.8995 13.1597C92.7404 13.1597 93.4833 12.9899 94.128 12.6503C94.7867 12.2965 95.3684 11.8013 95.8729 11.1645L97.8912 13.096Z" fill="black"/>
<path d="M105.678 15.8765C104.795 15.8765 103.989 15.735 103.26 15.452C102.545 15.1549 101.936 14.7304 101.431 14.1785C100.926 13.6267 100.534 12.9616 100.254 12.1833C99.9734 11.3909 99.8332 10.4924 99.8332 9.48772V0.339606H102.671V9.65752C102.671 10.1669 102.734 10.6339 102.861 11.0584C102.987 11.4829 103.176 11.8508 103.428 12.1621C103.681 12.4734 103.996 12.721 104.374 12.905C104.753 13.0748 105.187 13.1597 105.678 13.1597C106.182 13.1597 106.624 13.0748 107.002 12.905C107.381 12.721 107.696 12.4734 107.948 12.1621C108.201 11.8508 108.39 11.4829 108.516 11.0584C108.642 10.6339 108.705 10.1669 108.705 9.65752V0.339606H111.543V9.48772C111.543 10.4358 111.403 11.306 111.123 12.0984C110.857 12.8767 110.464 13.5488 109.946 14.1148C109.441 14.6667 108.824 15.0983 108.095 15.4096C107.381 15.7209 106.575 15.8765 105.678 15.8765Z" fill="black"/>
<path d="M118.837 15.8765C118.193 15.8765 117.576 15.7846 116.987 15.6006C116.399 15.4167 115.859 15.1407 115.368 14.7728C114.878 14.4049 114.45 13.9592 114.086 13.4356C113.722 12.8979 113.434 12.2753 113.224 11.5678L115.894 10.5065C116.09 11.2706 116.434 11.9074 116.924 12.4168C117.415 12.9121 118.059 13.1597 118.858 13.1597C119.153 13.1597 119.433 13.1243 119.699 13.0536C119.98 12.9687 120.225 12.8555 120.435 12.714C120.659 12.5583 120.835 12.3673 120.961 12.1409C121.087 11.9145 121.15 11.6527 121.15 11.3555C121.15 11.0725 121.101 10.8178 121.003 10.5914C120.905 10.365 120.736 10.1528 120.498 9.95467C120.274 9.75657 119.973 9.56554 119.594 9.38159C119.23 9.19764 118.774 9.00661 118.228 8.80851L117.303 8.4689C116.896 8.3274 116.483 8.13637 116.062 7.89582C115.656 7.65526 115.284 7.36518 114.948 7.02558C114.612 6.68597 114.331 6.28977 114.107 5.83696C113.897 5.37001 113.792 4.84645 113.792 4.26629C113.792 3.67198 113.904 3.12012 114.128 2.61071C114.366 2.08716 114.696 1.63435 115.116 1.25229C115.551 0.856088 116.062 0.551859 116.651 0.339606C117.254 0.113202 117.919 0 118.648 0C119.405 0 120.057 0.106127 120.603 0.318381C121.164 0.516484 121.633 0.778262 122.012 1.10372C122.404 1.41502 122.72 1.7617 122.958 2.14376C123.196 2.52581 123.371 2.88664 123.484 3.22625L120.982 4.28751C120.842 3.86301 120.582 3.48095 120.204 3.14135C119.839 2.80174 119.335 2.63194 118.69 2.63194C118.073 2.63194 117.562 2.78052 117.155 3.07767C116.749 3.36068 116.546 3.73566 116.546 4.20261C116.546 4.65542 116.742 5.04455 117.134 5.37001C117.527 5.68131 118.151 5.98554 119.006 6.28269L119.952 6.60107C120.554 6.81333 121.101 7.06096 121.591 7.34396C122.096 7.61281 122.523 7.93827 122.874 8.32032C123.238 8.70238 123.512 9.14104 123.694 9.63629C123.89 10.1174 123.988 10.6763 123.988 11.3131C123.988 12.1055 123.827 12.7918 123.505 13.3719C123.196 13.938 122.797 14.4049 122.306 14.7728C121.816 15.1407 121.262 15.4167 120.645 15.6006C120.029 15.7846 119.426 15.8765 118.837 15.8765Z" fill="black"/>
<path d="M129.316 15.5369V3.05645H125.111V0.339606H136.359V3.05645H132.154V15.5369H129.316Z" fill="black"/>
<path d="M144.868 15.8765C143.747 15.8765 142.702 15.6714 141.735 15.261C140.782 14.8506 139.955 14.2917 139.255 13.5842C138.554 12.8625 138 12.0206 137.594 11.0584C137.201 10.082 137.005 9.04198 137.005 7.93827C137.005 6.83455 137.201 5.80159 137.594 4.83937C138 3.86301 138.554 3.02107 139.255 2.31356C139.955 1.5919 140.782 1.02589 141.735 0.615535C142.702 0.205178 143.747 0 144.868 0C145.989 0 147.026 0.205178 147.979 0.615535C148.946 1.02589 149.78 1.5919 150.481 2.31356C151.182 3.02107 151.729 3.86301 152.121 4.83937C152.527 5.80159 152.731 6.83455 152.731 7.93827C152.731 9.04198 152.527 10.082 152.121 11.0584C151.729 12.0206 151.182 12.8625 150.481 13.5842C149.78 14.2917 148.946 14.8506 147.979 15.261C147.026 15.6714 145.989 15.8765 144.868 15.8765ZM144.868 13.1597C145.569 13.1597 146.22 13.0323 146.823 12.7776C147.44 12.5229 147.972 12.1692 148.421 11.7164C148.883 11.2636 149.241 10.7188 149.493 10.082C149.759 9.43112 149.893 8.71653 149.893 7.93827C149.893 7.16001 149.759 6.4525 149.493 5.81574C149.241 5.16483 148.883 4.61297 148.421 4.16016C147.972 3.70736 147.44 3.3536 146.823 3.0989C146.22 2.84419 145.569 2.71684 144.868 2.71684C144.167 2.71684 143.508 2.84419 142.892 3.0989C142.289 3.3536 141.756 3.70736 141.294 4.16016C140.845 4.61297 140.488 5.16483 140.222 5.81574C139.969 6.4525 139.843 7.16001 139.843 7.93827C139.843 8.71653 139.969 9.43112 140.222 10.082C140.488 10.7188 140.845 11.2636 141.294 11.7164C141.756 12.1692 142.289 12.5229 142.892 12.7776C143.508 13.0323 144.167 13.1597 144.868 13.1597Z" fill="black"/>
<path d="M155.028 0.339606H157.824L162.428 8.384H162.596L167.2 0.339606H170.018V15.5369H167.2V8.0444L167.369 5.49736H167.2L163.374 12.3107H161.671L157.824 5.49736H157.656L157.824 8.0444V15.5369H155.028V0.339606Z" fill="black"/>
<path d="M175.892 3.05645V6.57985H181.926V9.29669H175.892V12.8201H182.599V15.5369H173.054V0.339606H182.599V3.05645H175.892Z" fill="black"/>
<path d="M185.208 0.339606H190.695C191.452 0.339606 192.139 0.459882 192.756 0.700435C193.372 0.940989 193.898 1.27352 194.332 1.69803C194.781 2.12253 195.124 2.63194 195.362 3.22625C195.601 3.80641 195.72 4.44317 195.72 5.13653C195.72 5.64593 195.636 6.12704 195.468 6.57985C195.299 7.0185 195.068 7.42179 194.774 7.78969C194.479 8.14345 194.136 8.46183 193.744 8.74483C193.351 9.01368 192.938 9.22594 192.503 9.38159L192.482 9.53017L196.519 15.3671V15.5369H193.26L189.371 9.82732H188.046V15.5369H185.208V0.339606ZM190.674 7.19538C191.319 7.19538 191.844 6.99728 192.251 6.60107C192.671 6.20487 192.882 5.70253 192.882 5.09408C192.882 4.82522 192.833 4.56344 192.734 4.30874C192.65 4.05403 192.517 3.82763 192.335 3.62953C192.153 3.43143 191.922 3.27577 191.641 3.16257C191.375 3.03522 191.067 2.97154 190.716 2.97154H188.046V7.19538H190.674Z" fill="black"/>
<path d="M202.849 15.8765C202.205 15.8765 201.588 15.7846 200.999 15.6006C200.411 15.4167 199.871 15.1407 199.38 14.7728C198.89 14.4049 198.462 13.9592 198.098 13.4356C197.734 12.8979 197.446 12.2753 197.236 11.5678L199.906 10.5065C200.102 11.2706 200.446 11.9074 200.936 12.4168C201.427 12.9121 202.071 13.1597 202.87 13.1597C203.165 13.1597 203.445 13.1243 203.711 13.0536C203.992 12.9687 204.237 12.8555 204.447 12.714C204.671 12.5583 204.846 12.3673 204.973 12.1409C205.099 11.9145 205.162 11.6527 205.162 11.3555C205.162 11.0725 205.113 10.8178 205.015 10.5914C204.917 10.365 204.748 10.1528 204.51 9.95467C204.286 9.75657 203.985 9.56554 203.606 9.38159C203.242 9.19764 202.786 9.00661 202.24 8.80851L201.315 8.4689C200.908 8.3274 200.495 8.13637 200.074 7.89582C199.668 7.65526 199.296 7.36518 198.96 7.02558C198.624 6.68597 198.343 6.28977 198.119 5.83696C197.909 5.37001 197.804 4.84645 197.804 4.26629C197.804 3.67198 197.916 3.12012 198.14 2.61071C198.378 2.08716 198.708 1.63435 199.128 1.25229C199.563 0.856088 200.074 0.551859 200.663 0.339606C201.265 0.113202 201.931 0 202.66 0C203.417 0 204.069 0.106127 204.615 0.318381C205.176 0.516484 205.645 0.778262 206.024 1.10372C206.416 1.41502 206.732 1.7617 206.97 2.14376C207.208 2.52581 207.383 2.88664 207.495 3.22625L204.994 4.28751C204.853 3.86301 204.594 3.48095 204.216 3.14135C203.851 2.80174 203.347 2.63194 202.702 2.63194C202.085 2.63194 201.574 2.78052 201.167 3.07767C200.761 3.36068 200.558 3.73566 200.558 4.20261C200.558 4.65542 200.754 5.04455 201.146 5.37001C201.539 5.68131 202.162 5.98554 203.017 6.28269L203.964 6.60107C204.566 6.81333 205.113 7.06096 205.603 7.34396C206.108 7.61281 206.535 7.93827 206.886 8.32032C207.25 8.70238 207.523 9.14104 207.706 9.63629C207.902 10.1174 208 10.6763 208 11.3131C208 12.1055 207.839 12.7918 207.516 13.3719C207.208 13.938 206.809 14.4049 206.318 14.7728C205.828 15.1407 205.274 15.4167 204.657 15.6006C204.041 15.7846 203.438 15.8765 202.849 15.8765Z" fill="black"/>
<path d="M56.1417 26.4631H59.3793L65.0347 41.6604H61.9022L60.6618 38.0309H54.8593L53.6189 41.6604H50.4864L56.1417 26.4631ZM59.7367 35.3989L58.3912 31.5996L57.8446 29.753H57.6764L57.1298 31.5996L55.7843 35.3989H59.7367Z" fill="black"/>
<path d="M66.7969 26.4631H69.635V38.9436H76.0051V41.6604H66.7969V26.4631Z" fill="black"/>
<path d="M78.0272 26.4631H80.8654V38.9436H87.2355V41.6604H78.0272V26.4631Z" fill="black"/>
<path d="M96.0765 42C94.9553 42 93.9111 41.7948 92.944 41.3845C91.991 40.9741 91.164 40.4152 90.4632 39.7077C89.7625 38.986 89.2088 38.1441 88.8024 37.1819C88.41 36.2055 88.2137 35.1654 88.2137 34.0617C88.2137 32.958 88.41 31.925 88.8024 30.9628C89.2088 29.9865 89.7625 29.1445 90.4632 28.437C91.164 27.7154 91.991 27.1494 92.944 26.739C93.9111 26.3286 94.9553 26.1235 96.0765 26.1235C97.1978 26.1235 98.2349 26.3286 99.188 26.739C100.155 27.1494 100.989 27.7154 101.69 28.437C102.391 29.1445 102.937 29.9865 103.33 30.9628C103.736 31.925 103.939 32.958 103.939 34.0617C103.939 35.1654 103.736 36.2055 103.33 37.1819C102.937 38.1441 102.391 38.986 101.69 39.7077C100.989 40.4152 100.155 40.9741 99.188 41.3845C98.2349 41.7948 97.1978 42 96.0765 42ZM96.0765 39.2832C96.7773 39.2832 97.429 39.1558 98.0317 38.9011C98.6484 38.6464 99.181 38.2926 99.6295 37.8398C100.092 37.387 100.449 36.8422 100.702 36.2055C100.968 35.5546 101.101 34.84 101.101 34.0617C101.101 33.2835 100.968 32.576 100.702 31.9392C100.449 31.2883 100.092 30.7364 99.6295 30.2836C99.181 29.8308 98.6484 29.4771 98.0317 29.2224C97.429 28.9677 96.7773 28.8403 96.0765 28.8403C95.3757 28.8403 94.717 28.9677 94.1003 29.2224C93.4976 29.4771 92.965 29.8308 92.5025 30.2836C92.054 30.7364 91.6966 31.2883 91.4303 31.9392C91.178 32.576 91.0519 33.2835 91.0519 34.0617C91.0519 34.84 91.178 35.5546 91.4303 36.2055C91.6966 36.8422 92.054 37.387 92.5025 37.8398C92.965 38.2926 93.4976 38.6464 94.1003 38.9011C94.717 39.1558 95.3757 39.2832 96.0765 39.2832Z" fill="black"/>
<path d="M104.854 26.4631H107.86L110.194 35.3353L110.53 36.9696H110.698L111.14 35.3353L113.305 28.5007H115.954L118.141 35.3353L118.561 36.9484H118.729L119.045 35.3353L121.231 26.4631H124.238L120.243 41.6604H117.51L115.155 34.3377L114.714 32.6609H114.546L114.104 34.3377L111.75 41.6604H109.016L104.854 26.4631Z" fill="black"/>
<path d="M128.928 29.1799V32.7033H134.962V35.4202H128.928V38.9436H135.634V41.6604H126.09V26.4631H135.634V29.1799H128.928Z" fill="black"/>
<path d="M138.244 26.4631H143.332C144.523 26.4631 145.595 26.647 146.548 27.0149C147.501 27.3828 148.314 27.9064 148.987 28.5856C149.66 29.2507 150.171 30.0501 150.522 30.9841C150.886 31.918 151.068 32.9439 151.068 34.0617C151.068 35.1937 150.886 36.2267 150.522 37.1606C150.171 38.0945 149.66 38.894 148.987 39.5591C148.314 40.2241 147.501 40.7406 146.548 41.1085C145.595 41.4764 144.523 41.6604 143.332 41.6604H138.244V26.4631ZM143.205 38.9436C144.032 38.9436 144.761 38.8304 145.392 38.604C146.023 38.3634 146.548 38.0309 146.969 37.6064C147.389 37.1819 147.705 36.6724 147.915 36.0781C148.125 35.4697 148.23 34.7975 148.23 34.0617C148.23 33.3259 148.125 32.6609 147.915 32.0666C147.705 31.4581 147.389 30.9416 146.969 30.5171C146.548 30.0926 146.023 29.7671 145.392 29.5407C144.761 29.3002 144.032 29.1799 143.205 29.1799H141.082V38.9436H143.205Z" fill="black"/>
<path fill-rule="evenodd" clip-rule="evenodd" d="M57.3682 85.411L38 104.801V132V159.199L57.4003 178.6L76.8005 198H104H131.199L150.6 178.6L170 159.199V132V104.801L150.6 85.4003L131.199 66L103.968 66.0107L76.7363 66.0214L57.3682 85.411ZM147.764 88.2362L165.875 106.347V132V157.653L147.764 175.764L129.653 193.875H104H78.3474L60.2362 175.764L42.125 157.653V132V106.347L60.2041 88.2469L78.2832 70.1464L103.968 70.1357L129.653 70.125L147.764 88.2362ZM63.1689 91.2117L46.25 108.152V132V155.848L63.201 172.799L80.1521 189.75H104H127.848L144.799 172.799L161.75 155.848V132V108.152L144.799 91.201L127.848 74.25L103.968 74.2607L80.0879 74.2714L63.1689 91.2117ZM106.32 86.7539C106.32 86.8248 106.494 86.8828 106.707 86.8828C106.92 86.8828 107.094 86.9408 107.094 87.0117C107.094 87.0826 107.197 87.1406 107.323 87.1406C107.449 87.1406 107.636 87.2566 107.738 87.3984C107.841 87.5402 108.027 87.6562 108.153 87.6562C108.287 87.6562 108.383 87.7516 108.383 87.8856C108.383 88.0118 108.499 88.1986 108.641 88.3008C108.782 88.403 108.898 88.5898 108.898 88.716C108.898 88.8421 108.956 88.9453 109.027 88.9453C109.098 88.9453 109.156 89.2354 109.156 89.5898C109.156 89.9443 109.214 90.2344 109.285 90.2344C109.37 90.2344 109.414 96.1445 109.414 107.707V125.18L109.731 125.496C110.042 125.808 110.703 125.935 110.703 125.684C110.703 125.613 110.819 125.555 110.961 125.555C111.133 125.555 111.219 125.469 111.219 125.297C111.219 125.155 111.277 125.039 111.348 125.039C111.433 125.039 111.477 119.969 111.477 110.086C111.477 100.203 111.52 95.1328 111.605 95.1328C111.676 95.1328 111.734 94.9588 111.734 94.7461C111.734 94.5334 111.792 94.3594 111.863 94.3594C111.934 94.3594 111.992 94.2561 111.992 94.13C111.992 94.0039 112.108 93.8171 112.25 93.7148C112.392 93.6126 112.508 93.4507 112.508 93.3549C112.508 93.1305 112.826 92.8125 113.05 92.8125C113.146 92.8125 113.308 92.6965 113.41 92.5547C113.512 92.4129 113.699 92.2969 113.825 92.2969C113.951 92.2969 114.055 92.2389 114.055 92.168C114.055 92.0971 114.229 92.0391 114.441 92.0391C114.654 92.0391 114.828 91.9811 114.828 91.9102C114.828 91.8328 115.344 91.7812 116.117 91.7812C116.891 91.7812 117.406 91.8328 117.406 91.9102C117.406 91.9811 117.58 92.0391 117.793 92.0391C118.006 92.0391 118.18 92.0971 118.18 92.168C118.18 92.2389 118.283 92.2969 118.409 92.2969C118.535 92.2969 118.722 92.4129 118.824 92.5547C118.926 92.6965 119.088 92.8125 119.184 92.8125C119.409 92.8125 119.727 93.1305 119.727 93.3549C119.727 93.4507 119.843 93.6126 119.984 93.7148C120.126 93.8171 120.242 94.0039 120.242 94.13C120.242 94.2561 120.3 94.3594 120.371 94.3594C120.442 94.3594 120.5 94.4754 120.5 94.6172C120.5 94.759 120.558 94.875 120.629 94.875C120.714 94.875 120.758 103.45 120.758 120.343C120.758 147.475 120.729 146.18 121.329 146.18C121.44 146.18 121.531 146.238 121.531 146.309C121.531 146.379 121.679 146.438 121.859 146.438C122.282 146.438 122.82 145.899 122.82 145.477C122.82 145.296 122.878 145.148 122.949 145.148C123.02 145.148 123.078 145.032 123.078 144.891C123.078 144.749 123.136 144.633 123.207 144.633C123.278 144.633 123.336 144.459 123.336 144.246C123.336 144.033 123.394 143.859 123.465 143.859C123.536 143.859 123.594 143.743 123.594 143.602C123.594 143.46 123.652 143.344 123.723 143.344C123.794 143.344 123.852 143.17 123.852 142.957C123.852 142.744 123.91 142.57 123.98 142.57C124.051 142.57 124.109 142.454 124.109 142.312C124.109 142.171 124.167 142.055 124.238 142.055C124.309 142.055 124.367 141.881 124.367 141.668C124.367 141.455 124.425 141.281 124.496 141.281C124.567 141.281 124.625 141.165 124.625 141.023C124.625 140.882 124.683 140.766 124.754 140.766C124.825 140.766 124.883 140.592 124.883 140.379C124.883 140.166 124.941 139.992 125.012 139.992C125.083 139.992 125.141 139.876 125.141 139.734C125.141 139.593 125.199 139.477 125.27 139.477C125.34 139.477 125.398 139.303 125.398 139.09C125.398 138.877 125.456 138.703 125.527 138.703C125.598 138.703 125.656 138.587 125.656 138.445C125.656 138.304 125.714 138.188 125.785 138.188C125.856 138.188 125.914 138.071 125.914 137.93C125.914 137.788 125.972 137.672 126.043 137.672C126.114 137.672 126.172 137.498 126.172 137.285C126.172 137.072 126.23 136.898 126.301 136.898C126.372 136.898 126.43 136.782 126.43 136.641C126.43 136.499 126.488 136.383 126.559 136.383C126.629 136.383 126.688 136.209 126.688 135.996C126.688 135.783 126.746 135.609 126.816 135.609C126.887 135.609 126.945 135.493 126.945 135.352C126.945 135.21 127.003 135.094 127.074 135.094C127.145 135.094 127.203 134.978 127.203 134.836C127.203 134.694 127.261 134.578 127.332 134.578C127.403 134.578 127.461 134.404 127.461 134.191C127.461 133.979 127.519 133.805 127.59 133.805C127.661 133.805 127.719 133.689 127.719 133.547C127.719 133.405 127.777 133.289 127.848 133.289C127.919 133.289 127.977 133.115 127.977 132.902C127.977 132.69 128.035 132.516 128.105 132.516C128.176 132.516 128.234 132.4 128.234 132.258C128.234 132.116 128.292 132 128.363 132C128.434 132 128.492 131.884 128.492 131.742C128.492 131.6 128.55 131.484 128.621 131.484C128.692 131.484 128.75 131.31 128.75 131.098C128.75 130.885 128.808 130.711 128.879 130.711C128.95 130.711 129.008 130.595 129.008 130.453C129.008 130.311 129.066 130.195 129.137 130.195C129.208 130.195 129.266 130.079 129.266 129.938C129.266 129.796 129.324 129.68 129.395 129.68C129.465 129.68 129.523 129.564 129.523 129.422C129.523 129.28 129.581 129.164 129.652 129.164C129.723 129.164 129.781 129.048 129.781 128.906C129.781 128.764 129.839 128.648 129.91 128.648C129.981 128.648 130.039 128.56 130.039 128.453C130.039 128.215 131.643 126.586 131.877 126.586C131.969 126.586 132.128 126.47 132.23 126.328C132.34 126.177 132.564 126.07 132.775 126.07C132.972 126.07 133.133 126.012 133.133 125.941C133.133 125.864 133.648 125.812 134.422 125.812C135.195 125.812 135.711 125.864 135.711 125.941C135.711 126.012 135.885 126.07 136.098 126.07C136.31 126.07 136.484 126.128 136.484 126.199C136.484 126.27 136.6 126.328 136.742 126.328C136.884 126.328 137 126.386 137 126.457C137 126.528 137.116 126.586 137.258 126.586C137.4 126.586 137.516 126.644 137.516 126.715C137.516 126.786 137.605 126.844 137.713 126.844C137.955 126.844 138.805 127.672 138.805 127.907C138.805 128 138.921 128.159 139.062 128.262C139.204 128.364 139.32 128.551 139.32 128.677C139.32 128.803 139.378 128.906 139.449 128.906C139.527 128.906 139.578 129.465 139.578 130.324C139.578 131.184 139.527 131.742 139.449 131.742C139.378 131.742 139.32 131.916 139.32 132.129C139.32 132.342 139.262 132.516 139.191 132.516C139.121 132.516 139.062 132.69 139.062 132.902C139.062 133.115 139.004 133.289 138.934 133.289C138.863 133.289 138.805 133.463 138.805 133.676C138.805 133.888 138.747 134.062 138.676 134.062C138.605 134.062 138.547 134.179 138.547 134.32C138.547 134.462 138.489 134.578 138.418 134.578C138.347 134.578 138.289 134.752 138.289 134.965C138.289 135.178 138.231 135.352 138.16 135.352C138.089 135.352 138.031 135.526 138.031 135.738C138.031 135.951 137.973 136.125 137.902 136.125C137.831 136.125 137.773 136.299 137.773 136.512C137.773 136.724 137.715 136.898 137.645 136.898C137.574 136.898 137.516 137.072 137.516 137.285C137.516 137.498 137.458 137.672 137.387 137.672C137.316 137.672 137.258 137.846 137.258 138.059C137.258 138.271 137.2 138.445 137.129 138.445C137.058 138.445 137 138.619 137 138.832C137 139.045 136.942 139.219 136.871 139.219C136.8 139.219 136.742 139.393 136.742 139.605C136.742 139.818 136.684 139.992 136.613 139.992C136.542 139.992 136.484 140.108 136.484 140.25C136.484 140.392 136.426 140.508 136.355 140.508C136.285 140.508 136.227 140.682 136.227 140.895C136.227 141.107 136.169 141.281 136.098 141.281C136.027 141.281 135.969 141.455 135.969 141.668C135.969 141.881 135.911 142.055 135.84 142.055C135.769 142.055 135.711 142.229 135.711 142.441C135.711 142.654 135.653 142.828 135.582 142.828C135.511 142.828 135.453 143.002 135.453 143.215C135.453 143.428 135.395 143.602 135.324 143.602C135.253 143.602 135.195 143.776 135.195 143.988C135.195 144.201 135.137 144.375 135.066 144.375C134.996 144.375 134.938 144.549 134.938 144.762C134.938 144.974 134.879 145.148 134.809 145.148C134.738 145.148 134.68 145.322 134.68 145.535C134.68 145.748 134.622 145.922 134.551 145.922C134.48 145.922 134.422 146.096 134.422 146.309C134.422 146.521 134.364 146.695 134.293 146.695C134.222 146.695 134.164 146.811 134.164 146.953C134.164 147.095 134.106 147.211 134.035 147.211C133.964 147.211 133.906 147.385 133.906 147.598C133.906 147.81 133.848 147.984 133.777 147.984C133.706 147.984 133.648 148.158 133.648 148.371C133.648 148.584 133.59 148.758 133.52 148.758C133.449 148.758 133.391 148.932 133.391 149.145C133.391 149.357 133.333 149.531 133.262 149.531C133.191 149.531 133.133 149.705 133.133 149.918C133.133 150.131 133.075 150.305 133.004 150.305C132.933 150.305 132.875 150.479 132.875 150.691C132.875 150.904 132.817 151.078 132.746 151.078C132.675 151.078 132.617 151.252 132.617 151.465C132.617 151.678 132.559 151.852 132.488 151.852C132.417 151.852 132.359 152.026 132.359 152.238C132.359 152.451 132.301 152.625 132.23 152.625C132.16 152.625 132.102 152.741 132.102 152.883C132.102 153.025 132.044 153.141 131.973 153.141C131.902 153.141 131.844 153.315 131.844 153.527C131.844 153.74 131.786 153.914 131.715 153.914C131.644 153.914 131.586 154.088 131.586 154.301C131.586 154.513 131.528 154.688 131.457 154.688C131.386 154.688 131.328 154.862 131.328 155.074C131.328 155.287 131.27 155.461 131.199 155.461C131.128 155.461 131.07 155.635 131.07 155.848C131.07 156.06 131.012 156.234 130.941 156.234C130.871 156.234 130.812 156.408 130.812 156.621C130.812 156.834 130.754 157.008 130.684 157.008C130.613 157.008 130.555 157.182 130.555 157.395C130.555 157.607 130.497 157.781 130.426 157.781C130.355 157.781 130.297 157.955 130.297 158.168C130.297 158.381 130.239 158.555 130.168 158.555C130.097 158.555 130.039 158.671 130.039 158.812C130.039 158.954 129.981 159.07 129.91 159.07C129.839 159.07 129.781 159.244 129.781 159.457C129.781 159.67 129.723 159.844 129.652 159.844C129.581 159.844 129.523 160.018 129.523 160.23C129.523 160.443 129.465 160.617 129.395 160.617C129.324 160.617 129.266 160.791 129.266 161.004C129.266 161.217 129.208 161.391 129.137 161.391C129.066 161.391 129.008 161.565 129.008 161.777C129.008 161.99 128.95 162.164 128.879 162.164C128.808 162.164 128.75 162.28 128.75 162.422C128.75 162.564 128.692 162.68 128.621 162.68C128.55 162.68 128.492 162.854 128.492 163.066C128.492 163.279 128.434 163.453 128.363 163.453C128.292 163.453 128.234 163.569 128.234 163.711C128.234 163.853 128.176 163.969 128.105 163.969C128.035 163.969 127.977 164.072 127.977 164.198C127.977 164.324 127.861 164.511 127.719 164.613C127.577 164.716 127.461 164.902 127.461 165.028C127.461 165.155 127.403 165.258 127.332 165.258C127.261 165.258 127.203 165.361 127.203 165.487C127.203 165.613 127.087 165.8 126.945 165.902C126.804 166.005 126.688 166.168 126.688 166.266C126.688 166.363 126.513 166.606 126.301 166.805C126.088 167.003 125.914 167.232 125.914 167.313C125.914 167.394 125.45 167.919 124.883 168.48C124.316 169.042 123.852 169.59 123.852 169.7C123.852 169.809 123.761 169.898 123.651 169.898C123.541 169.898 123.109 170.246 122.691 170.672C122.274 171.097 121.865 171.445 121.784 171.445C121.702 171.445 121.472 171.619 121.273 171.832C121.075 172.045 120.832 172.219 120.735 172.219C120.637 172.219 120.473 172.335 120.371 172.477C120.269 172.618 120.082 172.734 119.956 172.734C119.83 172.734 119.727 172.792 119.727 172.863C119.727 172.934 119.623 172.992 119.497 172.992C119.371 172.992 119.184 173.108 119.082 173.25C118.98 173.392 118.793 173.508 118.667 173.508C118.541 173.508 118.438 173.566 118.438 173.637C118.438 173.708 118.321 173.766 118.18 173.766C118.038 173.766 117.922 173.824 117.922 173.895C117.922 173.965 117.806 174.023 117.664 174.023C117.522 174.023 117.406 174.081 117.406 174.152C117.406 174.223 117.29 174.281 117.148 174.281C117.007 174.281 116.891 174.339 116.891 174.41C116.891 174.481 116.775 174.539 116.633 174.539C116.491 174.539 116.375 174.597 116.375 174.668C116.375 174.739 116.259 174.797 116.117 174.797C115.975 174.797 115.859 174.855 115.859 174.926C115.859 174.997 115.685 175.055 115.473 175.055C115.26 175.055 115.086 175.113 115.086 175.184C115.086 175.254 114.97 175.312 114.828 175.312C114.686 175.312 114.57 175.371 114.57 175.441C114.57 175.512 114.396 175.57 114.184 175.57C113.971 175.57 113.797 175.628 113.797 175.699C113.797 175.77 113.623 175.828 113.41 175.828C113.197 175.828 113.023 175.886 113.023 175.957C113.023 176.028 112.791 176.086 112.508 176.086C112.224 176.086 111.992 176.144 111.992 176.215C111.992 176.286 111.76 176.344 111.477 176.344C111.193 176.344 110.961 176.402 110.961 176.473C110.961 176.544 110.671 176.602 110.316 176.602C109.962 176.602 109.672 176.66 109.672 176.73C109.672 176.802 109.328 176.859 108.898 176.859C108.469 176.859 108.125 176.917 108.125 176.988C108.125 177.063 107.695 177.117 107.094 177.117C106.492 177.117 106.062 177.171 106.062 177.246C106.062 177.329 104.816 177.375 102.582 177.375C100.348 177.375 99.1016 177.329 99.1016 177.246C99.1016 177.172 98.7148 177.117 98.1992 177.117C97.6836 177.117 97.2969 177.062 97.2969 176.988C97.2969 176.917 97.0068 176.859 96.6523 176.859C96.2979 176.859 96.0078 176.801 96.0078 176.73C96.0078 176.66 95.7758 176.602 95.4922 176.602C95.2086 176.602 94.9766 176.544 94.9766 176.473C94.9766 176.402 94.8025 176.344 94.5898 176.344C94.3771 176.344 94.2031 176.286 94.2031 176.215C94.2031 176.144 94.0291 176.086 93.8164 176.086C93.6037 176.086 93.4297 176.028 93.4297 175.957C93.4297 175.886 93.3137 175.828 93.1719 175.828C93.0301 175.828 92.9141 175.77 92.9141 175.699C92.9141 175.628 92.74 175.57 92.5273 175.57C92.3146 175.57 92.1406 175.512 92.1406 175.441C92.1406 175.371 92.0246 175.312 91.8828 175.312C91.741 175.312 91.625 175.254 91.625 175.184C91.625 175.113 91.509 175.055 91.3672 175.055C91.2254 175.055 91.1094 174.997 91.1094 174.926C91.1094 174.855 90.9934 174.797 90.8516 174.797C90.7098 174.797 90.5938 174.739 90.5938 174.668C90.5938 174.597 90.4777 174.539 90.3359 174.539C90.1941 174.539 90.0781 174.481 90.0781 174.41C90.0781 174.339 89.9749 174.281 89.8488 174.281C89.7226 174.281 89.5358 174.165 89.4336 174.023C89.3314 173.882 89.1573 173.766 89.0469 173.766C88.9364 173.766 88.7624 173.65 88.6602 173.508C88.5579 173.366 88.3944 173.25 88.2966 173.25C88.1991 173.25 87.9565 173.076 87.7578 172.863C87.5592 172.651 87.3323 172.477 87.2538 172.477C87.0674 172.477 83.375 168.784 83.375 168.598C83.375 168.519 83.201 168.292 82.9883 168.094C82.7756 167.895 82.6016 167.653 82.6016 167.555C82.6016 167.457 82.4855 167.294 82.3438 167.191C82.202 167.089 82.0859 166.915 82.0859 166.805C82.0859 166.694 81.9699 166.52 81.8281 166.418C81.6863 166.316 81.5703 166.129 81.5703 166.003C81.5703 165.877 81.5123 165.773 81.4414 165.773C81.3705 165.773 81.3125 165.657 81.3125 165.516C81.3125 165.374 81.2545 165.258 81.1836 165.258C81.1127 165.258 81.0547 165.142 81.0547 165C81.0547 164.858 80.9967 164.742 80.9258 164.742C80.8549 164.742 80.7969 164.626 80.7969 164.484C80.7969 164.343 80.7389 164.227 80.668 164.227C80.5971 164.227 80.5391 164.111 80.5391 163.969C80.5391 163.827 80.4811 163.711 80.4102 163.711C80.3393 163.711 80.2812 163.595 80.2812 163.453C80.2812 163.311 80.2232 163.195 80.1523 163.195C80.0814 163.195 80.0234 163.021 80.0234 162.809C80.0234 162.596 79.9654 162.422 79.8945 162.422C79.8236 162.422 79.7656 162.248 79.7656 162.035C79.7656 161.822 79.7076 161.648 79.6367 161.648C79.5658 161.648 79.5078 161.474 79.5078 161.262C79.5078 161.049 79.4498 160.875 79.3789 160.875C79.308 160.875 79.25 160.701 79.25 160.488C79.25 160.276 79.192 160.102 79.1211 160.102C79.0502 160.102 78.9922 159.928 78.9922 159.715C78.9922 159.502 78.9342 159.328 78.8633 159.328C78.7924 159.328 78.7344 159.096 78.7344 158.812C78.7344 158.529 78.6764 158.297 78.6055 158.297C78.5346 158.297 78.4766 158.065 78.4766 157.781C78.4766 157.498 78.4186 157.266 78.3477 157.266C78.2768 157.266 78.2188 157.034 78.2188 156.75C78.2188 156.466 78.1607 156.234 78.0898 156.234C78.0189 156.234 77.9609 155.944 77.9609 155.59C77.9609 155.235 77.9029 154.945 77.832 154.945C77.7611 154.945 77.7031 154.655 77.7031 154.301C77.7031 153.946 77.6451 153.656 77.5742 153.656C77.5025 153.656 77.4453 153.312 77.4453 152.883C77.4453 152.453 77.3881 152.109 77.3164 152.109C77.2428 152.109 77.1875 151.723 77.1875 151.207C77.1875 150.691 77.1322 150.305 77.0586 150.305C76.9822 150.305 76.9297 149.832 76.9297 149.145C76.9297 148.457 76.8772 147.984 76.8008 147.984C76.7161 147.984 76.6719 145.062 76.6719 139.477C76.6719 133.891 76.7161 130.969 76.8008 130.969C76.8847 130.969 76.9297 129.035 76.9297 125.426C76.9297 121.816 76.9747 119.883 77.0586 119.883C77.1424 119.883 77.1875 118.078 77.1875 114.727C77.1875 111.375 77.2326 109.57 77.3164 109.57C77.3976 109.57 77.4453 108.711 77.4453 107.25C77.4453 105.789 77.493 104.93 77.5742 104.93C77.6451 104.93 77.7031 104.814 77.7031 104.672C77.7031 104.53 77.7611 104.414 77.832 104.414C77.9029 104.414 77.9609 104.311 77.9609 104.185C77.9609 104.059 78.077 103.872 78.2188 103.77C78.3605 103.667 78.4766 103.481 78.4766 103.354C78.4766 103.22 78.572 103.125 78.7059 103.125C78.8321 103.125 79.0189 103.009 79.1211 102.867C79.2233 102.725 79.4101 102.609 79.5363 102.609C79.6624 102.609 79.7656 102.551 79.7656 102.48C79.7656 102.41 79.9396 102.352 80.1523 102.352C80.365 102.352 80.5391 102.294 80.5391 102.223C80.5391 102.146 81.0118 102.094 81.6992 102.094C82.3867 102.094 82.8594 102.146 82.8594 102.223C82.8594 102.294 83.0334 102.352 83.2461 102.352C83.4588 102.352 83.6328 102.41 83.6328 102.48C83.6328 102.551 83.7488 102.609 83.8906 102.609C84.0324 102.609 84.1484 102.667 84.1484 102.738C84.1484 102.809 84.237 102.867 84.3451 102.867C84.585 102.867 85.6953 103.954 85.6953 104.189C85.6953 104.281 85.8113 104.441 85.9531 104.543C86.1327 104.672 86.2109 104.877 86.2109 105.216C86.2109 105.484 86.2689 105.703 86.3398 105.703C86.4248 105.703 86.4688 109.337 86.4688 116.347C86.4688 127.603 86.4564 127.359 87.0288 127.359C87.1344 127.359 87.2546 127.432 87.2959 127.521C87.356 127.649 87.3862 127.649 87.4462 127.521C87.4876 127.432 87.6063 127.359 87.71 127.359C87.8136 127.359 88.0408 127.217 88.2148 127.043L88.5312 126.727V111.703C88.5312 101.773 88.5749 96.6797 88.6602 96.6797C88.7311 96.6797 88.7891 96.5184 88.7891 96.3215C88.7891 96.1111 88.8955 95.8865 89.0469 95.7773C89.1887 95.6751 89.3047 95.5146 89.3047 95.4208C89.3047 95.1995 89.887 94.6172 90.1083 94.6172C90.2021 94.6172 90.3626 94.5012 90.4648 94.3594C90.574 94.208 90.7986 94.1016 91.009 94.1016C91.2059 94.1016 91.3672 94.0436 91.3672 93.9727C91.3672 93.9018 91.5412 93.8438 91.7539 93.8438C91.9666 93.8438 92.1406 93.7857 92.1406 93.7148C92.1406 93.6397 92.5703 93.5859 93.1719 93.5859C93.7735 93.5859 94.2031 93.6397 94.2031 93.7148C94.2031 93.7857 94.3771 93.8438 94.5898 93.8438C94.8025 93.8438 94.9766 93.9018 94.9766 93.9727C94.9766 94.0436 95.0926 94.1016 95.2344 94.1016C95.3762 94.1016 95.4922 94.1596 95.4922 94.2305C95.4922 94.3014 95.5805 94.3594 95.6884 94.3594C95.9436 94.3594 97.2969 95.7126 97.2969 95.9679C97.2969 96.0758 97.3549 96.1641 97.4258 96.1641C97.4967 96.1641 97.5547 96.2801 97.5547 96.4219C97.5547 96.5637 97.6127 96.6797 97.6836 96.6797C97.7688 96.6797 97.8125 101.473 97.8125 110.801V124.922L98.129 125.238C98.5475 125.657 99.14 125.657 99.5585 125.238L99.875 124.922V107.449C99.875 95.8867 99.9186 89.9766 100.004 89.9766C100.075 89.9766 100.133 89.8025 100.133 89.5898C100.133 89.3771 100.191 89.2031 100.262 89.2031C100.333 89.2031 100.391 89.0999 100.391 88.9738C100.391 88.8476 100.507 88.6608 100.648 88.5586C100.79 88.4564 100.906 88.2945 100.906 88.1987C100.906 87.9743 101.224 87.6562 101.449 87.6562C101.544 87.6562 101.706 87.5402 101.809 87.3984C101.911 87.2566 102.098 87.1406 102.224 87.1406C102.35 87.1406 102.453 87.0826 102.453 87.0117C102.453 86.9408 102.627 86.8828 102.84 86.8828C103.053 86.8828 103.227 86.8248 103.227 86.7539C103.227 86.6751 103.828 86.625 104.773 86.625C105.719 86.625 106.32 86.6751 106.32 86.7539Z" fill="black"/>
</svg>
