<svg width="191" height="134" viewBox="0 0 191 134" fill="none" xmlns="http://www.w3.org/2000/svg">
<path fill-rule="evenodd" clip-rule="evenodd" d="M61.283 61.3677C61.283 61.4086 61.3774 61.4421 61.4928 61.4421C61.6082 61.4421 61.7026 61.4756 61.7026 61.5166C61.7026 61.5575 61.797 61.591 61.9125 61.591C62.0279 61.591 62.1223 61.6245 62.1223 61.6655C62.1223 61.7064 62.1852 61.74 62.2622 61.74C62.3391 61.74 62.4021 61.7735 62.4021 61.8144C62.4021 61.8554 62.465 61.8889 62.5419 61.8889C62.6189 61.8889 62.6818 61.9224 62.6818 61.9633C62.6818 62.0043 62.7379 62.0378 62.8063 62.0378C62.8747 62.0378 62.9761 62.1048 63.0316 62.1867C63.087 62.2686 63.1733 62.3356 63.2231 62.3356C63.3414 62.3356 64.2206 63.2715 64.2206 63.3974C64.2206 63.4505 64.2836 63.5423 64.3605 63.6014C64.4374 63.6604 64.5004 63.7683 64.5004 63.8412C64.5004 63.914 64.5319 63.9736 64.5703 63.9736C64.6088 63.9736 64.6403 64.0407 64.6403 64.1226C64.6403 64.2045 64.6717 64.2715 64.7102 64.2715C64.7487 64.2715 64.7802 64.3385 64.7802 64.4204C64.7802 64.5023 64.8116 64.5693 64.8501 64.5693C64.8886 64.5693 64.92 64.6698 64.92 64.7927C64.92 64.9155 64.9515 65.016 64.99 65.016C65.0285 65.016 65.0599 65.1166 65.0599 65.2394C65.0599 65.3623 65.0914 65.4628 65.1299 65.4628C65.1736 65.4628 65.1998 65.9095 65.1998 66.6541C65.1998 67.3986 65.1736 67.8454 65.1299 67.8454C65.0914 67.8454 65.0599 67.9459 65.0599 68.0688C65.0599 68.1916 65.0285 68.2921 64.99 68.2921C64.9515 68.2921 64.92 68.3926 64.92 68.5155C64.92 68.6383 64.8886 68.7389 64.8501 68.7389C64.8116 68.7389 64.7802 68.8059 64.7802 68.8878C64.7802 68.9697 64.7487 69.0367 64.7102 69.0367C64.6717 69.0367 64.6403 69.1037 64.6403 69.1856C64.6403 69.2675 64.6088 69.3345 64.5703 69.3345C64.5319 69.3345 64.5004 69.388 64.5004 69.4536C64.5004 69.519 64.406 69.6665 64.2905 69.7812C64.1751 69.896 64.0807 70.0276 64.0807 70.0737C64.0807 70.1827 63.4786 70.8236 63.3762 70.8236C63.3329 70.8236 63.2093 70.9242 63.1015 71.047C62.9937 71.1699 62.8552 71.2704 62.7937 71.2704C62.7321 71.2704 62.6818 71.3039 62.6818 71.3448C62.6818 71.3858 62.6189 71.4193 62.5419 71.4193C62.465 71.4193 62.4021 71.4528 62.4021 71.4937C62.4021 71.5347 62.3391 71.5682 62.2622 71.5682C62.1852 71.5682 62.1223 71.6017 62.1223 71.6427C62.1223 71.6836 62.0279 71.7171 61.9125 71.7171C61.797 71.7171 61.7026 71.7506 61.7026 71.7916C61.7026 71.8325 61.5767 71.866 61.4228 71.866C61.269 71.866 61.1431 71.8995 61.1431 71.9405C61.1431 71.9866 60.7701 72.0149 60.1639 72.0149C59.5576 72.0149 59.1846 71.9866 59.1846 71.9405C59.1846 71.8995 59.0587 71.866 58.9049 71.866C58.751 71.866 58.6251 71.8325 58.6251 71.7916C58.6251 71.7506 58.5307 71.7171 58.4153 71.7171C58.2998 71.7171 58.2054 71.6836 58.2054 71.6427C58.2054 71.6017 58.1425 71.5682 58.0655 71.5682C57.9886 71.5682 57.9256 71.5347 57.9256 71.4937C57.9256 71.4528 57.8696 71.4193 57.8012 71.4193C57.7327 71.4193 57.6314 71.3523 57.5759 71.2704C57.5205 71.1885 57.4317 71.1215 57.3787 71.1215C57.3257 71.1215 57.1941 71.0209 57.0863 70.8981C56.9785 70.7752 56.8543 70.6747 56.8102 70.6747C56.7065 70.6747 56.3869 70.3345 56.3869 70.224C56.3869 70.1771 56.2925 70.0449 56.177 69.9302C56.0616 69.8154 55.9672 69.6753 55.9672 69.6189C55.9672 69.5625 55.9043 69.468 55.8273 69.409C55.7504 69.3499 55.6874 69.242 55.6874 69.1691C55.6874 69.0963 55.656 69.0367 55.6175 69.0367C55.579 69.0367 55.5476 68.9697 55.5476 68.8878C55.5476 68.8059 55.5161 68.7389 55.4776 68.7389C55.4391 68.7389 55.4077 68.6048 55.4077 68.441C55.4077 68.2772 55.3762 68.1432 55.3377 68.1432C55.2993 68.1432 55.2678 68.0427 55.2678 67.9198C55.2678 67.797 55.2363 67.6965 55.1978 67.6965C55.1545 67.6965 55.1279 67.2994 55.1279 66.6541C55.1279 66.0088 55.1545 65.6117 55.1978 65.6117C55.2363 65.6117 55.2678 65.4777 55.2678 65.3139C55.2678 65.1501 55.2993 65.016 55.3377 65.016C55.3762 65.016 55.4077 64.9155 55.4077 64.7927C55.4077 64.6698 55.4391 64.5693 55.4776 64.5693C55.5161 64.5693 55.5476 64.5023 55.5476 64.4204C55.5476 64.3385 55.579 64.2715 55.6175 64.2715C55.656 64.2715 55.6874 64.2045 55.6874 64.1226C55.6874 64.0407 55.7189 63.9736 55.7574 63.9736C55.7959 63.9736 55.8273 63.9208 55.8273 63.8562C55.8273 63.7915 55.9532 63.6099 56.1071 63.4525C56.261 63.295 56.3869 63.1291 56.3869 63.0835C56.3869 62.975 56.8489 62.4845 56.951 62.4845C56.9946 62.4845 57.1184 62.384 57.2262 62.2611C57.334 62.1383 57.4725 62.0378 57.534 62.0378C57.5956 62.0378 57.6459 62.0043 57.6459 61.9633C57.6459 61.9224 57.7088 61.8889 57.7858 61.8889C57.8627 61.8889 57.9256 61.8554 57.9256 61.8144C57.9256 61.7735 57.9886 61.74 58.0655 61.74C58.1425 61.74 58.2054 61.7064 58.2054 61.6655C58.2054 61.6245 58.2998 61.591 58.4153 61.591C58.5307 61.591 58.6251 61.5575 58.6251 61.5166C58.6251 61.4756 58.7195 61.4421 58.8349 61.4421C58.9503 61.4421 59.0447 61.4086 59.0447 61.3677C59.0447 61.3211 59.4644 61.2932 60.1639 61.2932C60.8633 61.2932 61.283 61.3211 61.283 61.3677ZM64.5004 73.1318C64.5004 73.1727 64.6578 73.2062 64.8501 73.2062C65.0424 73.2062 65.1998 73.2398 65.1998 73.2807C65.1998 73.3217 65.2873 73.3552 65.3942 73.3552C65.5083 73.3552 65.6302 73.4167 65.6894 73.5041C65.7449 73.586 65.832 73.653 65.8829 73.653C65.9339 73.653 66.0528 73.7353 66.1472 73.8358C66.2416 73.9363 66.3189 74.0629 66.3189 74.1171C66.3189 74.1714 66.3819 74.264 66.4588 74.3231C66.5357 74.3821 66.5987 74.49 66.5987 74.5629C66.5987 74.6357 66.6302 74.6954 66.6686 74.6954C66.7071 74.6954 66.7386 74.7624 66.7386 74.8443C66.7386 74.9262 66.7701 74.9932 66.8085 74.9932C66.847 74.9932 66.8785 75.0937 66.8785 75.2166C66.8785 75.3394 66.9099 75.4399 66.9484 75.4399C66.9869 75.4399 67.0184 75.507 67.0184 75.5889C67.0184 75.6708 67.0498 75.7378 67.0883 75.7378C67.1268 75.7378 67.1582 75.8048 67.1582 75.8867C67.1582 75.9686 67.1897 76.0356 67.2282 76.0356C67.2667 76.0356 67.2981 76.1026 67.2981 76.1845C67.2981 76.2664 67.3296 76.3334 67.3681 76.3334C67.4065 76.3334 67.438 76.4004 67.438 76.4823C67.438 76.5642 67.4695 76.6312 67.508 76.6312C67.5464 76.6312 67.5779 76.7318 67.5779 76.8546C67.5779 76.9775 67.6094 77.078 67.6479 77.078C67.6863 77.078 67.7178 77.145 67.7178 77.2269C67.7178 77.3088 67.7493 77.3758 67.7877 77.3758C67.8262 77.3758 67.8577 77.4428 67.8577 77.5247C67.8577 77.6066 67.8892 77.6736 67.9276 77.6736C67.9661 77.6736 67.9976 77.7406 67.9976 77.8225C67.9976 77.9044 68.0291 77.9715 68.0675 77.9715C68.106 77.9715 68.1375 78.0385 68.1375 78.1204C68.1375 78.2023 68.1689 78.2693 68.2074 78.2693C68.2459 78.2693 68.2774 78.3698 68.2774 78.4927C68.2774 78.6155 68.3088 78.716 68.3473 78.716C68.3858 78.716 68.4172 78.783 68.4172 78.8649C68.4172 78.9468 68.4487 79.0139 68.4872 79.0139C68.5257 79.0139 68.5571 79.0809 68.5571 79.1628C68.5571 79.2447 68.5886 79.3117 68.6271 79.3117C68.6655 79.3117 68.697 79.3787 68.697 79.4606C68.697 79.5425 68.7285 79.6095 68.767 79.6095C68.8054 79.6095 68.8369 79.6765 68.8369 79.7584C68.8369 79.8403 68.8684 79.9073 68.9068 79.9073C68.9453 79.9073 68.9768 80.0078 68.9768 80.1307C68.9768 80.2536 69.0083 80.3541 69.0467 80.3541C69.0852 80.3541 69.1167 80.4211 69.1167 80.503C69.1167 80.5849 69.1482 80.6519 69.1866 80.6519C69.2251 80.6519 69.2566 80.7189 69.2566 80.8008C69.2566 80.8827 69.288 80.9497 69.3265 80.9497C69.365 80.9497 69.3965 81.0167 69.3965 81.0986C69.3965 81.1805 69.4279 81.2475 69.4664 81.2475C69.5049 81.2475 69.5363 81.3146 69.5363 81.3965C69.5363 81.4784 69.5678 81.5454 69.6063 81.5454C69.6448 81.5454 69.6762 81.6459 69.6762 81.7687C69.6762 81.8916 69.7077 81.9921 69.7462 81.9921C69.7846 81.9921 69.8161 82.0591 69.8161 82.141C69.8161 82.2229 69.8476 82.2899 69.8861 82.2899C69.9245 82.2899 69.956 82.3569 69.956 82.4388C69.956 82.5208 69.9875 82.5878 70.026 82.5878C70.0644 82.5878 70.0959 82.6548 70.0959 82.7367C70.0959 82.8186 70.1274 82.8856 70.1658 82.8856C70.2043 82.8856 70.2358 82.9526 70.2358 83.0345C70.2358 83.1164 70.2673 83.1834 70.3057 83.1834C70.3442 83.1834 70.3757 83.2504 70.3757 83.3323C70.3757 83.4142 70.4071 83.4812 70.4456 83.4812C70.4841 83.4812 70.5156 83.5818 70.5156 83.7046C70.5156 83.8275 70.547 83.928 70.5855 83.928C70.624 83.928 70.6554 83.995 70.6554 84.0769C70.6554 84.1588 70.6869 84.2258 70.7254 84.2258C70.7639 84.2258 70.7953 84.2928 70.7953 84.3747C70.7953 84.4566 70.8268 84.5236 70.8653 84.5236C70.9037 84.5236 70.9352 84.5906 70.9352 84.6725C70.9352 84.7544 70.9667 84.8215 71.0052 84.8215C71.0436 84.8215 71.0751 84.8885 71.0751 84.9704C71.0751 85.0523 71.1066 85.1193 71.1451 85.1193C71.1835 85.1193 71.215 85.2198 71.215 85.3426C71.215 85.4655 71.2465 85.566 71.2849 85.566C71.3234 85.566 71.3549 85.633 71.3549 85.7149C71.3549 85.7968 71.3864 85.8638 71.4248 85.8638C71.4633 85.8638 71.4948 85.9309 71.4948 86.0128C71.4948 86.0947 71.5262 86.1617 71.5647 86.1617C71.6032 86.1617 71.6347 86.2287 71.6347 86.3106C71.6347 86.3925 71.6661 86.4595 71.7046 86.4595C71.7431 86.4595 71.7745 86.5265 71.7745 86.6084C71.7745 86.6903 71.806 86.7573 71.8445 86.7573C71.883 86.7573 71.9144 86.8578 71.9144 86.9807C71.9144 87.1035 71.9459 87.2041 71.9844 87.2041C72.0229 87.2041 72.0543 87.2711 72.0543 87.353C72.0543 87.4349 72.0858 87.5019 72.1243 87.5019C72.1627 87.5019 72.1942 87.5689 72.1942 87.6508C72.1942 87.7327 72.2257 87.7997 72.2642 87.7997C72.3026 87.7997 72.3341 87.8667 72.3341 87.9486C72.3341 88.0305 72.3656 88.0975 72.404 88.0975C72.4425 88.0975 72.474 88.1645 72.474 88.2465C72.474 88.3284 72.5055 88.3954 72.5439 88.3954C72.5824 88.3954 72.6139 88.4959 72.6139 88.6187C72.6139 88.7416 72.6454 88.8421 72.6838 88.8421C72.7223 88.8421 72.7538 88.9091 72.7538 88.991C72.7538 89.0729 72.7852 89.1399 72.8237 89.1399C72.8622 89.1399 72.8937 89.2069 72.8937 89.2888C72.8937 89.3707 72.9251 89.4378 72.9636 89.4378C73.0021 89.4378 73.0335 89.5048 73.0335 89.5867C73.0335 89.6686 73.065 89.7356 73.1035 89.7356C73.142 89.7356 73.1734 89.8026 73.1734 89.8845C73.1734 89.9664 73.2049 90.0334 73.2434 90.0334C73.2818 90.0334 73.3133 90.1004 73.3133 90.1823C73.3133 90.2642 73.3448 90.3312 73.3833 90.3312C73.4217 90.3312 73.4532 90.4317 73.4532 90.5546C73.4532 90.6775 73.4847 90.778 73.5231 90.778C73.5616 90.778 73.5931 90.845 73.5931 90.9269C73.5931 91.0088 73.6246 91.0758 73.663 91.0758C73.7015 91.0758 73.733 91.1428 73.733 91.2247C73.733 91.3066 73.7645 91.3736 73.8029 91.3736C73.8414 91.3736 73.8729 91.4741 73.8729 91.597C73.8729 91.7198 73.9043 91.8204 73.9428 91.8204C73.9828 91.8204 74.0128 92.0437 74.0128 92.3416C74.0128 92.6394 73.9828 92.8628 73.9428 92.8628C73.9043 92.8628 73.8729 92.9633 73.8729 93.0861C73.8729 93.209 73.8414 93.3095 73.8029 93.3095C73.7645 93.3095 73.733 93.3605 73.733 93.4228C73.733 93.5702 72.9987 94.3519 72.8602 94.3519C72.8017 94.3519 72.7538 94.3854 72.7538 94.4263C72.7538 94.4673 72.6908 94.5008 72.6139 94.5008C72.5369 94.5008 72.474 94.5343 72.474 94.5753C72.474 94.6194 72.2175 94.6497 71.8445 94.6497C71.4715 94.6497 71.215 94.6194 71.215 94.5753C71.215 94.5343 71.152 94.5008 71.0751 94.5008C70.9982 94.5008 70.9352 94.4673 70.9352 94.4263C70.9352 94.3854 70.8723 94.3519 70.7953 94.3519C70.7184 94.3519 70.6554 94.3184 70.6554 94.2774C70.6554 94.2365 70.6068 94.203 70.5474 94.203C70.4074 94.203 70.0959 93.8713 70.0959 93.7224C70.0959 93.6591 70.0644 93.6073 70.026 93.6073C69.9875 93.6073 69.956 93.5403 69.956 93.4584C69.956 93.3765 69.9245 93.3095 69.8861 93.3095C69.8476 93.3095 69.8161 93.2425 69.8161 93.1606C69.8161 93.0787 69.7846 93.0117 69.7462 93.0117C69.7077 93.0117 69.6762 92.9447 69.6762 92.8628C69.6762 92.7809 69.6448 92.7138 69.6063 92.7138C69.5678 92.7138 69.5363 92.6468 69.5363 92.5649C69.5363 92.483 69.5049 92.416 69.4664 92.416C69.4279 92.416 69.3965 92.349 69.3965 92.2671C69.3965 92.1852 69.365 92.1182 69.3265 92.1182C69.288 92.1182 69.2566 92.0512 69.2566 91.9693C69.2566 91.8874 69.2251 91.8204 69.1866 91.8204C69.1482 91.8204 69.1167 91.7198 69.1167 91.597C69.1167 91.4741 69.0852 91.3736 69.0467 91.3736C69.0083 91.3736 68.9768 91.3066 68.9768 91.2247C68.9768 91.1428 68.9453 91.0758 68.9068 91.0758C68.8684 91.0758 68.8369 91.0088 68.8369 90.9269C68.8369 90.845 68.8054 90.778 68.767 90.778C68.7285 90.778 68.697 90.711 68.697 90.6291C68.697 90.5472 68.6655 90.4801 68.6271 90.4801C68.5886 90.4801 68.5571 90.4131 68.5571 90.3312C68.5571 90.2493 68.5257 90.1823 68.4872 90.1823C68.4487 90.1823 68.4172 90.0818 68.4172 89.959C68.4172 89.8361 68.3858 89.7356 68.3473 89.7356C68.3088 89.7356 68.2774 89.6686 68.2774 89.5867C68.2774 89.5048 68.2459 89.4378 68.2074 89.4378C68.1689 89.4378 68.1375 89.3707 68.1375 89.2888C68.1375 89.2069 68.106 89.1399 68.0675 89.1399C68.0291 89.1399 67.9976 89.0729 67.9976 88.991C67.9976 88.9091 67.9661 88.8421 67.9276 88.8421C67.8892 88.8421 67.8577 88.7751 67.8577 88.6932C67.8577 88.6113 67.8262 88.5443 67.7877 88.5443C67.7493 88.5443 67.7178 88.4773 67.7178 88.3954C67.7178 88.3135 67.6863 88.2465 67.6479 88.2465C67.6094 88.2465 67.5779 88.1459 67.5779 88.0231C67.5779 87.9002 67.5464 87.7997 67.508 87.7997C67.4695 87.7997 67.438 87.7327 67.438 87.6508C67.438 87.5689 67.4065 87.5019 67.3681 87.5019C67.3296 87.5019 67.2981 87.4349 67.2981 87.353C67.2981 87.2711 67.2667 87.2041 67.2282 87.2041C67.1897 87.2041 67.1582 87.1371 67.1582 87.0551C67.1582 86.9732 67.1268 86.9062 67.0883 86.9062C67.0498 86.9062 67.0184 86.8392 67.0184 86.7573C67.0184 86.6754 66.9869 86.6084 66.9484 86.6084C66.9099 86.6084 66.8785 86.5079 66.8785 86.385C66.8785 86.2622 66.847 86.1617 66.8085 86.1617C66.7701 86.1617 66.7386 86.0947 66.7386 86.0128C66.7386 85.9309 66.7071 85.8638 66.6686 85.8638C66.6302 85.8638 66.5987 85.7968 66.5987 85.7149C66.5987 85.633 66.5672 85.566 66.5288 85.566C66.4903 85.566 66.4588 85.499 66.4588 85.4171C66.4588 85.3352 66.4273 85.2682 66.3889 85.2682C66.3425 85.2682 66.3189 90.232 66.3189 100.011C66.3189 109.789 66.2953 114.753 66.249 114.753C66.2105 114.753 66.179 114.846 66.179 114.96C66.179 115.081 66.1213 115.211 66.0391 115.274C65.9622 115.333 65.8993 115.425 65.8993 115.478C65.8993 115.614 65.1561 116.391 65.0265 116.391C64.968 116.391 64.92 116.424 64.92 116.465C64.92 116.506 64.8256 116.54 64.7102 116.54C64.5948 116.54 64.5004 116.573 64.5004 116.614C64.5004 116.659 64.1973 116.689 63.731 116.689C63.2647 116.689 62.9616 116.659 62.9616 116.614C62.9616 116.573 62.8741 116.54 62.7672 116.54C62.6531 116.54 62.5312 116.478 62.472 116.391C62.4165 116.309 62.3301 116.242 62.2799 116.242C62.1525 116.242 61.5627 115.601 61.5627 115.462C61.5627 115.4 61.5313 115.349 61.4928 115.349C61.4543 115.349 61.4228 115.282 61.4228 115.2C61.4228 115.118 61.3914 115.051 61.3529 115.051C61.3144 115.051 61.283 114.95 61.283 114.827C61.283 114.705 61.2515 114.604 61.213 114.604C61.1668 114.604 61.1431 111.7 61.1431 106.042V97.4791H60.1639H59.1846V106.116C59.1846 111.824 59.1609 114.753 59.1147 114.753C59.0762 114.753 59.0447 114.853 59.0447 114.976C59.0447 115.099 59.0133 115.2 58.9748 115.2C58.9363 115.2 58.9049 115.251 58.9049 115.313C58.9049 115.46 58.0303 116.391 57.892 116.391C57.8335 116.391 57.7858 116.424 57.7858 116.465C57.7858 116.506 57.6913 116.54 57.5759 116.54C57.4605 116.54 57.3661 116.573 57.3661 116.614C57.3661 116.659 57.063 116.689 56.5967 116.689C56.1304 116.689 55.8273 116.659 55.8273 116.614C55.8273 116.573 55.7644 116.54 55.6874 116.54C55.6105 116.54 55.5476 116.506 55.5476 116.465C55.5476 116.424 55.4846 116.391 55.4077 116.391C55.3307 116.391 55.2678 116.357 55.2678 116.317C55.2678 116.276 55.2197 116.242 55.161 116.242C55.0222 116.242 54.4284 115.61 54.4284 115.462C54.4284 115.4 54.397 115.349 54.3585 115.349C54.32 115.349 54.2886 115.282 54.2886 115.2C54.2886 115.118 54.2571 115.051 54.2186 115.051C54.1801 115.051 54.1487 114.95 54.1487 114.827C54.1487 114.705 54.1172 114.604 54.0787 114.604C54.0324 114.604 54.0088 109.665 54.0088 99.9361C54.0088 90.2071 53.9852 85.2682 53.9388 85.2682C53.9004 85.2682 53.8689 85.3687 53.8689 85.4916C53.8689 85.6144 53.8374 85.7149 53.799 85.7149C53.7605 85.7149 53.729 85.7819 53.729 85.8638C53.729 85.9457 53.6975 86.0128 53.6591 86.0128C53.6206 86.0128 53.5891 86.0798 53.5891 86.1617C53.5891 86.2436 53.5576 86.3106 53.5192 86.3106C53.4807 86.3106 53.4492 86.3776 53.4492 86.4595C53.4492 86.5414 53.4178 86.6084 53.3793 86.6084C53.3408 86.6084 53.3093 86.6754 53.3093 86.7573C53.3093 86.8392 53.2779 86.9062 53.2394 86.9062C53.2009 86.9062 53.1695 86.9732 53.1695 87.0551C53.1695 87.1371 53.138 87.2041 53.0995 87.2041C53.061 87.2041 53.0296 87.3046 53.0296 87.4274C53.0296 87.5503 52.9981 87.6508 52.9596 87.6508C52.9212 87.6508 52.8897 87.7178 52.8897 87.7997C52.8897 87.8816 52.8582 87.9486 52.8197 87.9486C52.7813 87.9486 52.7498 88.0156 52.7498 88.0975C52.7498 88.1794 52.7183 88.2465 52.6798 88.2465C52.6414 88.2465 52.6099 88.3135 52.6099 88.3954C52.6099 88.4773 52.5784 88.5443 52.54 88.5443C52.5015 88.5443 52.47 88.6113 52.47 88.6932C52.47 88.7751 52.4385 88.8421 52.4001 88.8421C52.3616 88.8421 52.3301 88.9426 52.3301 89.0655C52.3301 89.1883 52.2987 89.2888 52.2602 89.2888C52.2217 89.2888 52.1902 89.3559 52.1902 89.4378C52.1902 89.5197 52.1588 89.5867 52.1203 89.5867C52.0818 89.5867 52.0504 89.6537 52.0504 89.7356C52.0504 89.8175 52.0189 89.8845 51.9804 89.8845C51.9419 89.8845 51.9105 89.9515 51.9105 90.0334C51.9105 90.1153 51.879 90.1823 51.8405 90.1823C51.8021 90.1823 51.7706 90.2493 51.7706 90.3312C51.7706 90.4131 51.7391 90.4801 51.7006 90.4801C51.6622 90.4801 51.6307 90.5807 51.6307 90.7035C51.6307 90.8264 51.5992 90.9269 51.5607 90.9269C51.5223 90.9269 51.4908 90.9939 51.4908 91.0758C51.4908 91.1577 51.4593 91.2247 51.4209 91.2247C51.3824 91.2247 51.3509 91.2917 51.3509 91.3736C51.3509 91.4555 51.3194 91.5225 51.281 91.5225C51.2425 91.5225 51.211 91.5895 51.211 91.6714C51.211 91.7534 51.1796 91.8204 51.1411 91.8204C51.1026 91.8204 51.0711 91.8874 51.0711 91.9693C51.0711 92.0512 51.0397 92.1182 51.0012 92.1182C50.9627 92.1182 50.9313 92.2187 50.9313 92.3416C50.9313 92.4644 50.8998 92.5649 50.8613 92.5649C50.8228 92.5649 50.7914 92.6319 50.7914 92.7138C50.7914 92.7957 50.7599 92.8628 50.7214 92.8628C50.683 92.8628 50.6515 92.9298 50.6515 93.0117C50.6515 93.0936 50.62 93.1606 50.5815 93.1606C50.5431 93.1606 50.5116 93.2202 50.5116 93.293C50.5116 93.3659 50.4486 93.4738 50.3717 93.5329C50.2948 93.5919 50.2318 93.6846 50.2318 93.7388C50.2318 93.8666 49.9159 94.203 49.7958 94.203C49.7449 94.203 49.6578 94.27 49.6023 94.3519C49.5431 94.4393 49.4212 94.5008 49.3071 94.5008C49.2002 94.5008 49.1127 94.5343 49.1127 94.5753C49.1127 94.6187 48.8796 94.6497 48.5532 94.6497C48.2267 94.6497 47.9936 94.6187 47.9936 94.5753C47.9936 94.5343 47.8992 94.5008 47.7838 94.5008C47.6684 94.5008 47.5739 94.4673 47.5739 94.4263C47.5739 94.3854 47.526 94.3519 47.4675 94.3519C47.4089 94.3519 47.1886 94.1683 46.9779 93.944C46.7671 93.7197 46.5947 93.4851 46.5947 93.4228C46.5947 93.3605 46.5633 93.3095 46.5248 93.3095C46.4863 93.3095 46.4548 93.1755 46.4548 93.0117C46.4548 92.8479 46.4234 92.7138 46.3849 92.7138C46.3464 92.7138 46.3149 92.5798 46.3149 92.416C46.3149 92.2522 46.3464 92.1182 46.3849 92.1182C46.4234 92.1182 46.4548 91.9842 46.4548 91.8204C46.4548 91.6566 46.4863 91.5225 46.5248 91.5225C46.5633 91.5225 46.5947 91.422 46.5947 91.2992C46.5947 91.1763 46.6262 91.0758 46.6647 91.0758C46.7031 91.0758 46.7346 91.0088 46.7346 90.9269C46.7346 90.845 46.7661 90.778 46.8046 90.778C46.843 90.778 46.8745 90.711 46.8745 90.6291C46.8745 90.5472 46.906 90.4801 46.9444 90.4801C46.9829 90.4801 47.0144 90.4131 47.0144 90.3312C47.0144 90.2493 47.0459 90.1823 47.0843 90.1823C47.1228 90.1823 47.1543 90.1153 47.1543 90.0334C47.1543 89.9515 47.1858 89.8845 47.2242 89.8845C47.2627 89.8845 47.2942 89.784 47.2942 89.6611C47.2942 89.5383 47.3256 89.4378 47.3641 89.4378C47.4026 89.4378 47.4341 89.3707 47.4341 89.2888C47.4341 89.2069 47.4655 89.1399 47.504 89.1399C47.5425 89.1399 47.5739 89.0729 47.5739 88.991C47.5739 88.9091 47.6054 88.8421 47.6439 88.8421C47.6824 88.8421 47.7138 88.7751 47.7138 88.6932C47.7138 88.6113 47.7453 88.5443 47.7838 88.5443C47.8222 88.5443 47.8537 88.4773 47.8537 88.3954C47.8537 88.3135 47.8852 88.2465 47.9237 88.2465C47.9621 88.2465 47.9936 88.1459 47.9936 88.0231C47.9936 87.9002 48.0251 87.7997 48.0635 87.7997C48.102 87.7997 48.1335 87.7327 48.1335 87.6508C48.1335 87.5689 48.165 87.5019 48.2034 87.5019C48.2419 87.5019 48.2734 87.4349 48.2734 87.353C48.2734 87.2711 48.3049 87.2041 48.3433 87.2041C48.3818 87.2041 48.4133 87.1371 48.4133 87.0551C48.4133 86.9732 48.4447 86.9062 48.4832 86.9062C48.5217 86.9062 48.5532 86.8392 48.5532 86.7573C48.5532 86.6754 48.5846 86.6084 48.6231 86.6084C48.6616 86.6084 48.693 86.5414 48.693 86.4595C48.693 86.3776 48.7245 86.3106 48.763 86.3106C48.8015 86.3106 48.8329 86.2101 48.8329 86.0872C48.8329 85.9644 48.8644 85.8638 48.9029 85.8638C48.9413 85.8638 48.9728 85.7968 48.9728 85.7149C48.9728 85.633 49.0043 85.566 49.0428 85.566C49.0812 85.566 49.1127 85.499 49.1127 85.4171C49.1127 85.3352 49.1442 85.2682 49.1827 85.2682C49.2211 85.2682 49.2526 85.2012 49.2526 85.1193C49.2526 85.0374 49.2841 84.9704 49.3225 84.9704C49.361 84.9704 49.3925 84.9034 49.3925 84.8215C49.3925 84.7396 49.424 84.6725 49.4624 84.6725C49.5009 84.6725 49.5324 84.572 49.5324 84.4492C49.5324 84.3263 49.5638 84.2258 49.6023 84.2258C49.6408 84.2258 49.6723 84.1588 49.6723 84.0769C49.6723 83.995 49.7037 83.928 49.7422 83.928C49.7807 83.928 49.8121 83.861 49.8121 83.7791C49.8121 83.6972 49.8436 83.6302 49.8821 83.6302C49.9206 83.6302 49.952 83.5631 49.952 83.4812C49.952 83.3993 49.9835 83.3323 50.022 83.3323C50.0604 83.3323 50.0919 83.2653 50.0919 83.1834C50.0919 83.1015 50.1234 83.0345 50.1619 83.0345C50.2003 83.0345 50.2318 82.934 50.2318 82.8111C50.2318 82.6883 50.2633 82.5878 50.3018 82.5878C50.3402 82.5878 50.3717 82.5208 50.3717 82.4388C50.3717 82.3569 50.4032 82.2899 50.4416 82.2899C50.4801 82.2899 50.5116 82.2229 50.5116 82.141C50.5116 82.0591 50.5431 81.9921 50.5815 81.9921C50.62 81.9921 50.6515 81.9251 50.6515 81.8432C50.6515 81.7613 50.683 81.6943 50.7214 81.6943C50.7599 81.6943 50.7914 81.6273 50.7914 81.5454C50.7914 81.4635 50.8228 81.3965 50.8613 81.3965C50.8998 81.3965 50.9313 81.2959 50.9313 81.1731C50.9313 81.0502 50.9627 80.9497 51.0012 80.9497C51.0397 80.9497 51.0711 80.8827 51.0711 80.8008C51.0711 80.7189 51.1026 80.6519 51.1411 80.6519C51.1796 80.6519 51.211 80.5849 51.211 80.503C51.211 80.4211 51.2425 80.3541 51.281 80.3541C51.3194 80.3541 51.3509 80.2871 51.3509 80.2052C51.3509 80.1233 51.3824 80.0562 51.4209 80.0562C51.4593 80.0562 51.4908 79.9892 51.4908 79.9073C51.4908 79.8254 51.5223 79.7584 51.5607 79.7584C51.5992 79.7584 51.6307 79.6914 51.6307 79.6095C51.6307 79.5276 51.6622 79.4606 51.7006 79.4606C51.7391 79.4606 51.7706 79.3601 51.7706 79.2372C51.7706 79.1144 51.8021 79.0139 51.8405 79.0139C51.879 79.0139 51.9105 78.9468 51.9105 78.8649C51.9105 78.783 51.9419 78.716 51.9804 78.716C52.0189 78.716 52.0504 78.649 52.0504 78.5671C52.0504 78.4852 52.0818 78.4182 52.1203 78.4182C52.1588 78.4182 52.1902 78.3512 52.1902 78.2693C52.1902 78.1874 52.2217 78.1204 52.2602 78.1204C52.2987 78.1204 52.3301 78.0534 52.3301 77.9715C52.3301 77.8896 52.3616 77.8225 52.4001 77.8225C52.4385 77.8225 52.47 77.722 52.47 77.5992C52.47 77.4763 52.5015 77.3758 52.54 77.3758C52.5784 77.3758 52.6099 77.3088 52.6099 77.2269C52.6099 77.145 52.6414 77.078 52.6798 77.078C52.7183 77.078 52.7498 77.011 52.7498 76.9291C52.7498 76.8472 52.7813 76.7802 52.8197 76.7802C52.8582 76.7802 52.8897 76.7131 52.8897 76.6312C52.8897 76.5493 52.9212 76.4823 52.9596 76.4823C52.9981 76.4823 53.0296 76.4153 53.0296 76.3334C53.0296 76.2515 53.061 76.1845 53.0995 76.1845C53.138 76.1845 53.1695 76.084 53.1695 75.9611C53.1695 75.8383 53.2009 75.7378 53.2394 75.7378C53.2779 75.7378 53.3093 75.6708 53.3093 75.5889C53.3093 75.507 53.3408 75.4399 53.3793 75.4399C53.4178 75.4399 53.4492 75.3729 53.4492 75.291C53.4492 75.2091 53.4807 75.1421 53.5192 75.1421C53.5576 75.1421 53.5891 75.0751 53.5891 74.9932C53.5891 74.9113 53.6206 74.8443 53.6591 74.8443C53.6975 74.8443 53.729 74.7773 53.729 74.6954C53.729 74.6135 53.7605 74.5465 53.799 74.5465C53.8374 74.5465 53.8689 74.4868 53.8689 74.414C53.8689 74.3411 53.9318 74.2332 54.0088 74.1742C54.0857 74.1151 54.1487 74.0072 54.1487 73.9344C54.1487 73.8615 54.199 73.8019 54.2605 73.8019C54.322 73.8019 54.4606 73.7014 54.5683 73.5785C54.6888 73.4412 54.8343 73.3552 54.9461 73.3552C55.0461 73.3552 55.1279 73.3217 55.1279 73.2807C55.1279 73.2393 55.3144 73.2062 55.5476 73.2062C55.7807 73.2062 55.9672 73.1732 55.9672 73.1318C55.9672 73.0829 57.436 73.0573 60.2338 73.0573C63.0316 73.0573 64.5004 73.0829 64.5004 73.1318Z" fill="black"/>
<path fill-rule="evenodd" clip-rule="evenodd" d="M108.449 61.3677C108.449 61.4086 108.55 61.4421 108.672 61.4421C108.795 61.4421 108.895 61.4756 108.895 61.5166C108.895 61.5575 108.996 61.591 109.118 61.591C109.241 61.591 109.341 61.6245 109.341 61.6655C109.341 61.7064 109.408 61.74 109.49 61.74C109.571 61.74 109.638 61.7735 109.638 61.8144C109.638 61.8554 109.705 61.8889 109.787 61.8889C109.869 61.8889 109.936 61.9224 109.936 61.9633C109.936 62.0043 109.995 62.0378 110.068 62.0378C110.141 62.0378 110.248 62.1048 110.307 62.1867C110.366 62.2686 110.458 62.3356 110.511 62.3356C110.636 62.3356 111.571 63.2715 111.571 63.3974C111.571 63.4505 111.637 63.5423 111.719 63.6014C111.801 63.6604 111.868 63.7683 111.868 63.8412C111.868 63.914 111.901 63.9736 111.942 63.9736C111.983 63.9736 112.016 64.0407 112.016 64.1226C112.016 64.2045 112.05 64.2715 112.091 64.2715C112.132 64.2715 112.165 64.3385 112.165 64.4204C112.165 64.5023 112.199 64.5693 112.239 64.5693C112.28 64.5693 112.314 64.6698 112.314 64.7927C112.314 64.9155 112.347 65.016 112.388 65.016C112.429 65.016 112.462 65.1166 112.462 65.2394C112.462 65.3623 112.496 65.4628 112.537 65.4628C112.583 65.4628 112.611 65.9095 112.611 66.6541C112.611 67.3986 112.583 67.8454 112.537 67.8454C112.496 67.8454 112.462 67.9459 112.462 68.0688C112.462 68.1916 112.429 68.2921 112.388 68.2921C112.347 68.2921 112.314 68.3926 112.314 68.5155C112.314 68.6383 112.28 68.7389 112.239 68.7389C112.199 68.7389 112.165 68.8059 112.165 68.8878C112.165 68.9697 112.132 69.0367 112.091 69.0367C112.05 69.0367 112.016 69.1037 112.016 69.1856C112.016 69.2675 111.983 69.3345 111.942 69.3345C111.901 69.3345 111.868 69.388 111.868 69.4536C111.868 69.519 111.767 69.6665 111.645 69.7812C111.522 69.896 111.422 70.0276 111.422 70.0737C111.422 70.1827 110.782 70.8236 110.673 70.8236C110.627 70.8236 110.496 70.9242 110.381 71.047C110.267 71.1699 110.12 71.2704 110.054 71.2704C109.989 71.2704 109.936 71.3039 109.936 71.3448C109.936 71.3858 109.869 71.4193 109.787 71.4193C109.705 71.4193 109.638 71.4528 109.638 71.4937C109.638 71.5347 109.571 71.5682 109.49 71.5682C109.408 71.5682 109.341 71.6017 109.341 71.6427C109.341 71.6836 109.241 71.7171 109.118 71.7171C108.996 71.7171 108.895 71.7506 108.895 71.7916C108.895 71.8325 108.761 71.866 108.598 71.866C108.434 71.866 108.301 71.8995 108.301 71.9405C108.301 71.9866 107.904 72.0149 107.26 72.0149C106.616 72.0149 106.22 71.9866 106.22 71.9405C106.22 71.8995 106.086 71.866 105.923 71.866C105.759 71.866 105.625 71.8325 105.625 71.7916C105.625 71.7506 105.525 71.7171 105.402 71.7171C105.28 71.7171 105.179 71.6836 105.179 71.6427C105.179 71.6017 105.113 71.5682 105.031 71.5682C104.949 71.5682 104.882 71.5347 104.882 71.4937C104.882 71.4528 104.823 71.4193 104.75 71.4193C104.677 71.4193 104.57 71.3523 104.511 71.2704C104.452 71.1885 104.357 71.1215 104.301 71.1215C104.245 71.1215 104.105 71.0209 103.99 70.8981C103.876 70.7752 103.744 70.6747 103.697 70.6747C103.587 70.6747 103.247 70.3345 103.247 70.224C103.247 70.1771 103.147 70.0449 103.024 69.9302C102.902 69.8154 102.801 69.6753 102.801 69.6189C102.801 69.5625 102.734 69.468 102.653 69.409C102.571 69.3499 102.504 69.242 102.504 69.1691C102.504 69.0963 102.471 69.0367 102.43 69.0367C102.389 69.0367 102.355 68.9697 102.355 68.8878C102.355 68.8059 102.322 68.7389 102.281 68.7389C102.24 68.7389 102.207 68.6048 102.207 68.441C102.207 68.2772 102.173 68.1432 102.132 68.1432C102.092 68.1432 102.058 68.0427 102.058 67.9198C102.058 67.797 102.025 67.6965 101.984 67.6965C101.938 67.6965 101.91 67.2994 101.91 66.6541C101.91 66.0088 101.938 65.6117 101.984 65.6117C102.025 65.6117 102.058 65.4777 102.058 65.3139C102.058 65.1501 102.092 65.016 102.132 65.016C102.173 65.016 102.207 64.9155 102.207 64.7927C102.207 64.6698 102.24 64.5693 102.281 64.5693C102.322 64.5693 102.355 64.5023 102.355 64.4204C102.355 64.3385 102.389 64.2715 102.43 64.2715C102.471 64.2715 102.504 64.2045 102.504 64.1226C102.504 64.0407 102.537 63.9736 102.578 63.9736C102.619 63.9736 102.653 63.9208 102.653 63.8562C102.653 63.7915 102.786 63.6099 102.95 63.4525C103.113 63.295 103.247 63.1291 103.247 63.0835C103.247 62.975 103.738 62.4845 103.847 62.4845C103.893 62.4845 104.024 62.384 104.139 62.2611C104.254 62.1383 104.401 62.0378 104.466 62.0378C104.531 62.0378 104.585 62.0043 104.585 61.9633C104.585 61.9224 104.652 61.8889 104.734 61.8889C104.815 61.8889 104.882 61.8554 104.882 61.8144C104.882 61.7735 104.949 61.74 105.031 61.74C105.113 61.74 105.179 61.7064 105.179 61.6655C105.179 61.6245 105.28 61.591 105.402 61.591C105.525 61.591 105.625 61.5575 105.625 61.5166C105.625 61.4756 105.726 61.4421 105.848 61.4421C105.971 61.4421 106.071 61.4086 106.071 61.3677C106.071 61.3211 106.517 61.2932 107.26 61.2932C108.003 61.2932 108.449 61.3211 108.449 61.3677ZM111.868 73.1318C111.868 73.1727 112.035 73.2062 112.239 73.2062C112.444 73.2062 112.611 73.2398 112.611 73.2807C112.611 73.3217 112.704 73.3552 112.817 73.3552C112.939 73.3552 113.068 73.4167 113.131 73.5041C113.19 73.586 113.283 73.653 113.337 73.653C113.391 73.653 113.517 73.7353 113.618 73.8358C113.718 73.9363 113.8 74.0629 113.8 74.1171C113.8 74.1714 113.867 74.264 113.949 74.3231C114.03 74.3821 114.097 74.49 114.097 74.5629C114.097 74.6357 114.131 74.6954 114.172 74.6954C114.212 74.6954 114.246 74.7624 114.246 74.8443C114.246 74.9262 114.279 74.9932 114.32 74.9932C114.361 74.9932 114.395 75.0937 114.395 75.2166C114.395 75.3394 114.428 75.4399 114.469 75.4399C114.51 75.4399 114.543 75.507 114.543 75.5889C114.543 75.6708 114.577 75.7378 114.617 75.7378C114.658 75.7378 114.692 75.8048 114.692 75.8867C114.692 75.9686 114.725 76.0356 114.766 76.0356C114.807 76.0356 114.84 76.1026 114.84 76.1845C114.84 76.2664 114.874 76.3334 114.915 76.3334C114.956 76.3334 114.989 76.4004 114.989 76.4823C114.989 76.5642 115.022 76.6312 115.063 76.6312C115.104 76.6312 115.138 76.7318 115.138 76.8546C115.138 76.9775 115.171 77.078 115.212 77.078C115.253 77.078 115.286 77.145 115.286 77.2269C115.286 77.3088 115.32 77.3758 115.361 77.3758C115.401 77.3758 115.435 77.4428 115.435 77.5247C115.435 77.6066 115.468 77.6736 115.509 77.6736C115.55 77.6736 115.584 77.7406 115.584 77.8225C115.584 77.9044 115.617 77.9715 115.658 77.9715C115.699 77.9715 115.732 78.0385 115.732 78.1204C115.732 78.2023 115.766 78.2693 115.807 78.2693C115.847 78.2693 115.881 78.3698 115.881 78.4927C115.881 78.6155 115.914 78.716 115.955 78.716C115.996 78.716 116.029 78.783 116.029 78.8649C116.029 78.9468 116.063 79.0139 116.104 79.0139C116.145 79.0139 116.178 79.0809 116.178 79.1628C116.178 79.2447 116.212 79.3117 116.252 79.3117C116.293 79.3117 116.327 79.3787 116.327 79.4606C116.327 79.5425 116.36 79.6095 116.401 79.6095C116.442 79.6095 116.475 79.6765 116.475 79.7584C116.475 79.8403 116.509 79.9073 116.55 79.9073C116.591 79.9073 116.624 80.0078 116.624 80.1307C116.624 80.2536 116.657 80.3541 116.698 80.3541C116.739 80.3541 116.773 80.4211 116.773 80.503C116.773 80.5849 116.806 80.6519 116.847 80.6519C116.888 80.6519 116.921 80.7189 116.921 80.8008C116.921 80.8827 116.955 80.9497 116.996 80.9497C117.036 80.9497 117.07 81.0167 117.07 81.0986C117.07 81.1805 117.103 81.2475 117.144 81.2475C117.185 81.2475 117.219 81.3146 117.219 81.3965C117.219 81.4784 117.252 81.5454 117.293 81.5454C117.334 81.5454 117.367 81.6459 117.367 81.7687C117.367 81.8916 117.401 81.9921 117.441 81.9921C117.482 81.9921 117.516 82.0591 117.516 82.141C117.516 82.2229 117.549 82.2899 117.59 82.2899C117.631 82.2899 117.664 82.3569 117.664 82.4388C117.664 82.5208 117.698 82.5878 117.739 82.5878C117.78 82.5878 117.813 82.6548 117.813 82.7367C117.813 82.8186 117.846 82.8856 117.887 82.8856C117.928 82.8856 117.962 82.9526 117.962 83.0345C117.962 83.1164 117.995 83.1834 118.036 83.1834C118.077 83.1834 118.11 83.2504 118.11 83.3323C118.11 83.4142 118.144 83.4812 118.185 83.4812C118.225 83.4812 118.259 83.5818 118.259 83.7046C118.259 83.8275 118.292 83.928 118.333 83.928C118.374 83.928 118.408 83.995 118.408 84.0769C118.408 84.1588 118.441 84.2258 118.482 84.2258C118.523 84.2258 118.556 84.2928 118.556 84.3747C118.556 84.4566 118.59 84.5236 118.631 84.5236C118.671 84.5236 118.705 84.5906 118.705 84.6725C118.705 84.7544 118.738 84.8215 118.779 84.8215C118.82 84.8215 118.853 84.8885 118.853 84.9704C118.853 85.0523 118.887 85.1193 118.928 85.1193C118.969 85.1193 119.002 85.2198 119.002 85.3426C119.002 85.4655 119.036 85.566 119.076 85.566C119.117 85.566 119.151 85.633 119.151 85.7149C119.151 85.7968 119.184 85.8638 119.225 85.8638C119.266 85.8638 119.299 85.9309 119.299 86.0128C119.299 86.0947 119.333 86.1617 119.374 86.1617C119.415 86.1617 119.448 86.2287 119.448 86.3106C119.448 86.3925 119.481 86.4595 119.522 86.4595C119.563 86.4595 119.597 86.5265 119.597 86.6084C119.597 86.6903 119.63 86.7573 119.671 86.7573C119.712 86.7573 119.745 86.8578 119.745 86.9807C119.745 87.1035 119.779 87.2041 119.82 87.2041C119.86 87.2041 119.894 87.2711 119.894 87.353C119.894 87.4349 119.927 87.5019 119.968 87.5019C120.009 87.5019 120.042 87.5689 120.042 87.6508C120.042 87.7327 120.076 87.7997 120.117 87.7997C120.158 87.7997 120.191 87.8667 120.191 87.9486C120.191 88.0305 120.225 88.0975 120.265 88.0975C120.306 88.0975 120.34 88.1645 120.34 88.2465C120.34 88.3284 120.373 88.3954 120.414 88.3954C120.455 88.3954 120.488 88.4959 120.488 88.6187C120.488 88.7416 120.522 88.8421 120.563 88.8421C120.604 88.8421 120.637 88.9091 120.637 88.991C120.637 89.0729 120.67 89.1399 120.711 89.1399C120.752 89.1399 120.786 89.2069 120.786 89.2888C120.786 89.3707 120.819 89.4378 120.86 89.4378C120.901 89.4378 120.934 89.5048 120.934 89.5867C120.934 89.6686 120.968 89.7356 121.009 89.7356C121.049 89.7356 121.083 89.8026 121.083 89.8845C121.083 89.9664 121.116 90.0334 121.157 90.0334C121.198 90.0334 121.232 90.1004 121.232 90.1823C121.232 90.2642 121.265 90.3312 121.306 90.3312C121.347 90.3312 121.38 90.4317 121.38 90.5546C121.38 90.6775 121.414 90.778 121.454 90.778C121.495 90.778 121.529 90.845 121.529 90.9269C121.529 91.0088 121.562 91.0758 121.603 91.0758C121.644 91.0758 121.677 91.1428 121.677 91.2247C121.677 91.3066 121.711 91.3736 121.752 91.3736C121.793 91.3736 121.826 91.4741 121.826 91.597C121.826 91.7198 121.86 91.8204 121.9 91.8204C121.943 91.8204 121.975 92.0437 121.975 92.3416C121.975 92.6394 121.943 92.8628 121.9 92.8628C121.86 92.8628 121.826 92.9633 121.826 93.0861C121.826 93.209 121.793 93.3095 121.752 93.3095C121.711 93.3095 121.677 93.3605 121.677 93.4228C121.677 93.5702 120.897 94.3519 120.75 94.3519C120.688 94.3519 120.637 94.3854 120.637 94.4263C120.637 94.4673 120.57 94.5008 120.488 94.5008C120.407 94.5008 120.34 94.5343 120.34 94.5753C120.34 94.6194 120.067 94.6497 119.671 94.6497C119.275 94.6497 119.002 94.6194 119.002 94.5753C119.002 94.5343 118.935 94.5008 118.853 94.5008C118.772 94.5008 118.705 94.4673 118.705 94.4263C118.705 94.3854 118.638 94.3519 118.556 94.3519C118.474 94.3519 118.408 94.3184 118.408 94.2774C118.408 94.2365 118.356 94.203 118.293 94.203C118.144 94.203 117.813 93.8713 117.813 93.7224C117.813 93.6591 117.78 93.6073 117.739 93.6073C117.698 93.6073 117.664 93.5403 117.664 93.4584C117.664 93.3765 117.631 93.3095 117.59 93.3095C117.549 93.3095 117.516 93.2425 117.516 93.1606C117.516 93.0787 117.482 93.0117 117.441 93.0117C117.401 93.0117 117.367 92.9447 117.367 92.8628C117.367 92.7809 117.334 92.7138 117.293 92.7138C117.252 92.7138 117.219 92.6468 117.219 92.5649C117.219 92.483 117.185 92.416 117.144 92.416C117.103 92.416 117.07 92.349 117.07 92.2671C117.07 92.1852 117.036 92.1182 116.996 92.1182C116.955 92.1182 116.921 92.0512 116.921 91.9693C116.921 91.8874 116.888 91.8204 116.847 91.8204C116.806 91.8204 116.773 91.7198 116.773 91.597C116.773 91.4741 116.739 91.3736 116.698 91.3736C116.657 91.3736 116.624 91.3066 116.624 91.2247C116.624 91.1428 116.591 91.0758 116.55 91.0758C116.509 91.0758 116.475 91.0088 116.475 90.9269C116.475 90.845 116.442 90.778 116.401 90.778C116.36 90.778 116.327 90.711 116.327 90.6291C116.327 90.5472 116.293 90.4801 116.252 90.4801C116.212 90.4801 116.178 90.4131 116.178 90.3312C116.178 90.2493 116.145 90.1823 116.104 90.1823C116.063 90.1823 116.029 90.0818 116.029 89.959C116.029 89.8361 115.996 89.7356 115.955 89.7356C115.914 89.7356 115.881 89.6686 115.881 89.5867C115.881 89.5048 115.847 89.4378 115.807 89.4378C115.766 89.4378 115.732 89.3707 115.732 89.2888C115.732 89.2069 115.699 89.1399 115.658 89.1399C115.617 89.1399 115.584 89.0729 115.584 88.991C115.584 88.9091 115.55 88.8421 115.509 88.8421C115.468 88.8421 115.435 88.7751 115.435 88.6932C115.435 88.6113 115.401 88.5443 115.361 88.5443C115.32 88.5443 115.286 88.4773 115.286 88.3954C115.286 88.3135 115.253 88.2465 115.212 88.2465C115.171 88.2465 115.138 88.1459 115.138 88.0231C115.138 87.9002 115.104 87.7997 115.063 87.7997C115.022 87.7997 114.989 87.7327 114.989 87.6508C114.989 87.5689 114.956 87.5019 114.915 87.5019C114.874 87.5019 114.84 87.4349 114.84 87.353C114.84 87.2711 114.807 87.2041 114.766 87.2041C114.725 87.2041 114.692 87.1371 114.692 87.0551C114.692 86.9732 114.658 86.9062 114.617 86.9062C114.577 86.9062 114.543 86.8392 114.543 86.7573C114.543 86.6754 114.51 86.6084 114.469 86.6084C114.428 86.6084 114.395 86.5079 114.395 86.385C114.395 86.2622 114.361 86.1617 114.32 86.1617C114.279 86.1617 114.246 86.0947 114.246 86.0128C114.246 85.9309 114.212 85.8638 114.172 85.8638C114.131 85.8638 114.097 85.7968 114.097 85.7149C114.097 85.633 114.064 85.566 114.023 85.566C113.982 85.566 113.949 85.499 113.949 85.4171C113.949 85.3352 113.915 85.2682 113.874 85.2682C113.825 85.2682 113.8 90.232 113.8 100.011C113.8 109.789 113.775 114.753 113.726 114.753C113.685 114.753 113.651 114.846 113.651 114.96C113.651 115.081 113.59 115.211 113.503 115.274C113.421 115.333 113.354 115.425 113.354 115.478C113.354 115.614 112.565 116.391 112.427 116.391C112.365 116.391 112.314 116.424 112.314 116.465C112.314 116.506 112.213 116.54 112.091 116.54C111.968 116.54 111.868 116.573 111.868 116.614C111.868 116.659 111.546 116.689 111.05 116.689C110.555 116.689 110.233 116.659 110.233 116.614C110.233 116.573 110.14 116.54 110.026 116.54C109.905 116.54 109.776 116.478 109.713 116.391C109.654 116.309 109.562 116.242 109.509 116.242C109.373 116.242 108.747 115.601 108.747 115.462C108.747 115.4 108.713 115.349 108.672 115.349C108.631 115.349 108.598 115.282 108.598 115.2C108.598 115.118 108.564 115.051 108.524 115.051C108.483 115.051 108.449 114.95 108.449 114.827C108.449 114.705 108.416 114.604 108.375 114.604C108.326 114.604 108.301 111.7 108.301 106.042V97.4791H107.26H106.22V106.116C106.22 111.824 106.195 114.753 106.146 114.753C106.105 114.753 106.071 114.853 106.071 114.976C106.071 115.099 106.038 115.2 105.997 115.2C105.956 115.2 105.923 115.251 105.923 115.313C105.923 115.46 104.993 116.391 104.846 116.391C104.784 116.391 104.734 116.424 104.734 116.465C104.734 116.506 104.633 116.54 104.511 116.54C104.388 116.54 104.288 116.573 104.288 116.614C104.288 116.659 103.966 116.689 103.47 116.689C102.975 116.689 102.653 116.659 102.653 116.614C102.653 116.573 102.586 116.54 102.504 116.54C102.422 116.54 102.355 116.506 102.355 116.465C102.355 116.424 102.289 116.391 102.207 116.391C102.125 116.391 102.058 116.357 102.058 116.317C102.058 116.276 102.007 116.242 101.945 116.242C101.797 116.242 101.166 115.61 101.166 115.462C101.166 115.4 101.133 115.349 101.092 115.349C101.051 115.349 101.018 115.282 101.018 115.2C101.018 115.118 100.984 115.051 100.943 115.051C100.903 115.051 100.869 114.95 100.869 114.827C100.869 114.705 100.836 114.604 100.795 114.604C100.746 114.604 100.72 109.665 100.72 99.9361C100.72 90.2071 100.695 85.2682 100.646 85.2682C100.605 85.2682 100.572 85.3687 100.572 85.4916C100.572 85.6144 100.538 85.7149 100.498 85.7149C100.457 85.7149 100.423 85.7819 100.423 85.8638C100.423 85.9457 100.39 86.0128 100.349 86.0128C100.308 86.0128 100.275 86.0798 100.275 86.1617C100.275 86.2436 100.241 86.3106 100.2 86.3106C100.159 86.3106 100.126 86.3776 100.126 86.4595C100.126 86.5414 100.093 86.6084 100.052 86.6084C100.011 86.6084 99.9773 86.6754 99.9773 86.7573C99.9773 86.8392 99.9439 86.9062 99.903 86.9062C99.8621 86.9062 99.8287 86.9732 99.8287 87.0551C99.8287 87.1371 99.7953 87.2041 99.7544 87.2041C99.7135 87.2041 99.6801 87.3046 99.6801 87.4274C99.6801 87.5503 99.6466 87.6508 99.6058 87.6508C99.5649 87.6508 99.5314 87.7178 99.5314 87.7997C99.5314 87.8816 99.498 87.9486 99.4571 87.9486C99.4162 87.9486 99.3828 88.0156 99.3828 88.0975C99.3828 88.1794 99.3494 88.2465 99.3085 88.2465C99.2676 88.2465 99.2342 88.3135 99.2342 88.3954C99.2342 88.4773 99.2007 88.5443 99.1599 88.5443C99.119 88.5443 99.0855 88.6113 99.0855 88.6932C99.0855 88.7751 99.0521 88.8421 99.0112 88.8421C98.9704 88.8421 98.9369 88.9426 98.9369 89.0655C98.9369 89.1883 98.9035 89.2888 98.8626 89.2888C98.8217 89.2888 98.7883 89.3559 98.7883 89.4378C98.7883 89.5197 98.7548 89.5867 98.714 89.5867C98.6731 89.5867 98.6396 89.6537 98.6396 89.7356C98.6396 89.8175 98.6062 89.8845 98.5653 89.8845C98.5245 89.8845 98.491 89.9515 98.491 90.0334C98.491 90.1153 98.4576 90.1823 98.4167 90.1823C98.3758 90.1823 98.3424 90.2493 98.3424 90.3312C98.3424 90.4131 98.3089 90.4801 98.2681 90.4801C98.2272 90.4801 98.1938 90.5807 98.1938 90.7035C98.1938 90.8264 98.1603 90.9269 98.1194 90.9269C98.0786 90.9269 98.0451 90.9939 98.0451 91.0758C98.0451 91.1577 98.0117 91.2247 97.9708 91.2247C97.9299 91.2247 97.8965 91.2917 97.8965 91.3736C97.8965 91.4555 97.8631 91.5225 97.8222 91.5225C97.7813 91.5225 97.7479 91.5895 97.7479 91.6714C97.7479 91.7534 97.7144 91.8204 97.6735 91.8204C97.6327 91.8204 97.5992 91.8874 97.5992 91.9693C97.5992 92.0512 97.5658 92.1182 97.5249 92.1182C97.484 92.1182 97.4506 92.2187 97.4506 92.3416C97.4506 92.4644 97.4172 92.5649 97.3763 92.5649C97.3354 92.5649 97.302 92.6319 97.302 92.7138C97.302 92.7957 97.2685 92.8628 97.2277 92.8628C97.1868 92.8628 97.1533 92.9298 97.1533 93.0117C97.1533 93.0936 97.1199 93.1606 97.079 93.1606C97.0382 93.1606 97.0047 93.2202 97.0047 93.293C97.0047 93.3659 96.9378 93.4738 96.8561 93.5329C96.7743 93.5919 96.7074 93.6846 96.7074 93.7388C96.7074 93.8666 96.3718 94.203 96.2442 94.203C96.1901 94.203 96.0975 94.27 96.0386 94.3519C95.9757 94.4393 95.8462 94.5008 95.7249 94.5008C95.6114 94.5008 95.5184 94.5343 95.5184 94.5753C95.5184 94.6187 95.2707 94.6497 94.9239 94.6497C94.577 94.6497 94.3294 94.6187 94.3294 94.5753C94.3294 94.5343 94.229 94.5008 94.1064 94.5008C93.9838 94.5008 93.8835 94.4673 93.8835 94.4263C93.8835 94.3854 93.8326 94.3519 93.7704 94.3519C93.7082 94.3519 93.4741 94.1683 93.2501 93.944C93.0262 93.7197 92.843 93.4851 92.843 93.4228C92.843 93.3605 92.8096 93.3095 92.7687 93.3095C92.7279 93.3095 92.6944 93.1755 92.6944 93.0117C92.6944 92.8479 92.661 92.7138 92.6201 92.7138C92.5792 92.7138 92.5458 92.5798 92.5458 92.416C92.5458 92.2522 92.5792 92.1182 92.6201 92.1182C92.661 92.1182 92.6944 91.9842 92.6944 91.8204C92.6944 91.6566 92.7279 91.5225 92.7687 91.5225C92.8096 91.5225 92.843 91.422 92.843 91.2992C92.843 91.1763 92.8765 91.0758 92.9174 91.0758C92.9582 91.0758 92.9917 91.0088 92.9917 90.9269C92.9917 90.845 93.0251 90.778 93.066 90.778C93.1069 90.778 93.1403 90.711 93.1403 90.6291C93.1403 90.5472 93.1737 90.4801 93.2146 90.4801C93.2555 90.4801 93.2889 90.4131 93.2889 90.3312C93.2889 90.2493 93.3224 90.1823 93.3633 90.1823C93.4041 90.1823 93.4376 90.1153 93.4376 90.0334C93.4376 89.9515 93.471 89.8845 93.5119 89.8845C93.5528 89.8845 93.5862 89.784 93.5862 89.6611C93.5862 89.5383 93.6196 89.4378 93.6605 89.4378C93.7014 89.4378 93.7348 89.3707 93.7348 89.2888C93.7348 89.2069 93.7683 89.1399 93.8091 89.1399C93.85 89.1399 93.8835 89.0729 93.8835 88.991C93.8835 88.9091 93.9169 88.8421 93.9578 88.8421C93.9986 88.8421 94.0321 88.7751 94.0321 88.6932C94.0321 88.6113 94.0655 88.5443 94.1064 88.5443C94.1473 88.5443 94.1807 88.4773 94.1807 88.3954C94.1807 88.3135 94.2142 88.2465 94.255 88.2465C94.2959 88.2465 94.3294 88.1459 94.3294 88.0231C94.3294 87.9002 94.3628 87.7997 94.4037 87.7997C94.4445 87.7997 94.478 87.7327 94.478 87.6508C94.478 87.5689 94.5114 87.5019 94.5523 87.5019C94.5932 87.5019 94.6266 87.4349 94.6266 87.353C94.6266 87.2711 94.6601 87.2041 94.7009 87.2041C94.7418 87.2041 94.7752 87.1371 94.7752 87.0551C94.7752 86.9732 94.8087 86.9062 94.8496 86.9062C94.8904 86.9062 94.9239 86.8392 94.9239 86.7573C94.9239 86.6754 94.9573 86.6084 94.9982 86.6084C95.0391 86.6084 95.0725 86.5414 95.0725 86.4595C95.0725 86.3776 95.106 86.3106 95.1468 86.3106C95.1877 86.3106 95.2211 86.2101 95.2211 86.0872C95.2211 85.9644 95.2546 85.8638 95.2955 85.8638C95.3363 85.8638 95.3698 85.7968 95.3698 85.7149C95.3698 85.633 95.4032 85.566 95.4441 85.566C95.485 85.566 95.5184 85.499 95.5184 85.4171C95.5184 85.3352 95.5518 85.2682 95.5927 85.2682C95.6336 85.2682 95.667 85.2012 95.667 85.1193C95.667 85.0374 95.7005 84.9704 95.7413 84.9704C95.7822 84.9704 95.8157 84.9034 95.8157 84.8215C95.8157 84.7396 95.8491 84.6725 95.89 84.6725C95.9309 84.6725 95.9643 84.572 95.9643 84.4492C95.9643 84.3263 95.9977 84.2258 96.0386 84.2258C96.0795 84.2258 96.1129 84.1588 96.1129 84.0769C96.1129 83.995 96.1464 83.928 96.1872 83.928C96.2281 83.928 96.2616 83.861 96.2616 83.7791C96.2616 83.6972 96.295 83.6302 96.3359 83.6302C96.3767 83.6302 96.4102 83.5631 96.4102 83.4812C96.4102 83.3993 96.4436 83.3323 96.4845 83.3323C96.5254 83.3323 96.5588 83.2653 96.5588 83.1834C96.5588 83.1015 96.5923 83.0345 96.6331 83.0345C96.674 83.0345 96.7074 82.934 96.7074 82.8111C96.7074 82.6883 96.7409 82.5878 96.7818 82.5878C96.8226 82.5878 96.8561 82.5208 96.8561 82.4388C96.8561 82.3569 96.8895 82.2899 96.9304 82.2899C96.9713 82.2899 97.0047 82.2229 97.0047 82.141C97.0047 82.0591 97.0382 81.9921 97.079 81.9921C97.1199 81.9921 97.1533 81.9251 97.1533 81.8432C97.1533 81.7613 97.1868 81.6943 97.2277 81.6943C97.2685 81.6943 97.302 81.6273 97.302 81.5454C97.302 81.4635 97.3354 81.3965 97.3763 81.3965C97.4172 81.3965 97.4506 81.2959 97.4506 81.1731C97.4506 81.0502 97.484 80.9497 97.5249 80.9497C97.5658 80.9497 97.5992 80.8827 97.5992 80.8008C97.5992 80.7189 97.6327 80.6519 97.6735 80.6519C97.7144 80.6519 97.7479 80.5849 97.7479 80.503C97.7479 80.4211 97.7813 80.3541 97.8222 80.3541C97.8631 80.3541 97.8965 80.2871 97.8965 80.2052C97.8965 80.1233 97.9299 80.0562 97.9708 80.0562C98.0117 80.0562 98.0451 79.9892 98.0451 79.9073C98.0451 79.8254 98.0786 79.7584 98.1194 79.7584C98.1603 79.7584 98.1938 79.6914 98.1938 79.6095C98.1938 79.5276 98.2272 79.4606 98.2681 79.4606C98.3089 79.4606 98.3424 79.3601 98.3424 79.2372C98.3424 79.1144 98.3758 79.0139 98.4167 79.0139C98.4576 79.0139 98.491 78.9468 98.491 78.8649C98.491 78.783 98.5245 78.716 98.5653 78.716C98.6062 78.716 98.6396 78.649 98.6396 78.5671C98.6396 78.4852 98.6731 78.4182 98.714 78.4182C98.7548 78.4182 98.7883 78.3512 98.7883 78.2693C98.7883 78.1874 98.8217 78.1204 98.8626 78.1204C98.9035 78.1204 98.9369 78.0534 98.9369 77.9715C98.9369 77.8896 98.9704 77.8225 99.0112 77.8225C99.0521 77.8225 99.0855 77.722 99.0855 77.5992C99.0855 77.4763 99.119 77.3758 99.1599 77.3758C99.2007 77.3758 99.2342 77.3088 99.2342 77.2269C99.2342 77.145 99.2676 77.078 99.3085 77.078C99.3494 77.078 99.3828 77.011 99.3828 76.9291C99.3828 76.8472 99.4162 76.7802 99.4571 76.7802C99.498 76.7802 99.5314 76.7131 99.5314 76.6312C99.5314 76.5493 99.5649 76.4823 99.6058 76.4823C99.6466 76.4823 99.6801 76.4153 99.6801 76.3334C99.6801 76.2515 99.7135 76.1845 99.7544 76.1845C99.7953 76.1845 99.8287 76.084 99.8287 75.9611C99.8287 75.8383 99.8621 75.7378 99.903 75.7378C99.9439 75.7378 99.9773 75.6708 99.9773 75.5889C99.9773 75.507 100.011 75.4399 100.052 75.4399C100.093 75.4399 100.126 75.3729 100.126 75.291C100.126 75.2091 100.159 75.1421 100.2 75.1421C100.241 75.1421 100.275 75.0751 100.275 74.9932C100.275 74.9113 100.308 74.8443 100.349 74.8443C100.39 74.8443 100.423 74.7773 100.423 74.6954C100.423 74.6135 100.457 74.5465 100.498 74.5465C100.538 74.5465 100.572 74.4868 100.572 74.414C100.572 74.3411 100.639 74.2332 100.72 74.1742C100.802 74.1151 100.869 74.0072 100.869 73.9344C100.869 73.8615 100.923 73.8019 100.988 73.8019C101.053 73.8019 101.2 73.7014 101.315 73.5785C101.443 73.4412 101.598 73.3552 101.716 73.3552C101.823 73.3552 101.91 73.3217 101.91 73.2807C101.91 73.2393 102.108 73.2062 102.355 73.2062C102.603 73.2062 102.801 73.1732 102.801 73.1318C102.801 73.0829 104.362 73.0573 107.335 73.0573C110.307 73.0573 111.868 73.0829 111.868 73.1318Z" fill="black"/>
<path fill-rule="evenodd" clip-rule="evenodd" d="M153.458 61.3677C153.458 61.4086 153.559 61.4421 153.681 61.4421C153.804 61.4421 153.904 61.4756 153.904 61.5166C153.904 61.5575 154.004 61.591 154.127 61.591C154.25 61.591 154.35 61.6245 154.35 61.6655C154.35 61.7064 154.417 61.74 154.499 61.74C154.58 61.74 154.647 61.7735 154.647 61.8144C154.647 61.8554 154.714 61.8889 154.796 61.8889C154.878 61.8889 154.945 61.9224 154.945 61.9633C154.945 62.0043 155.004 62.0378 155.077 62.0378C155.149 62.0378 155.257 62.1048 155.316 62.1867C155.375 62.2686 155.467 62.3356 155.52 62.3356C155.645 62.3356 156.579 63.2715 156.579 63.3974C156.579 63.4505 156.646 63.5423 156.728 63.6014C156.81 63.6604 156.877 63.7683 156.877 63.8412C156.877 63.914 156.91 63.9736 156.951 63.9736C156.992 63.9736 157.025 64.0407 157.025 64.1226C157.025 64.2045 157.059 64.2715 157.1 64.2715C157.141 64.2715 157.174 64.3385 157.174 64.4204C157.174 64.5023 157.207 64.5693 157.248 64.5693C157.289 64.5693 157.323 64.6698 157.323 64.7927C157.323 64.9155 157.356 65.016 157.397 65.016C157.438 65.016 157.471 65.1166 157.471 65.2394C157.471 65.3623 157.505 65.4628 157.546 65.4628C157.592 65.4628 157.62 65.9095 157.62 66.6541C157.62 67.3986 157.592 67.8454 157.546 67.8454C157.505 67.8454 157.471 67.9459 157.471 68.0688C157.471 68.1916 157.438 68.2921 157.397 68.2921C157.356 68.2921 157.323 68.3926 157.323 68.5155C157.323 68.6383 157.289 68.7389 157.248 68.7389C157.207 68.7389 157.174 68.8059 157.174 68.8878C157.174 68.9697 157.141 69.0367 157.1 69.0367C157.059 69.0367 157.025 69.1037 157.025 69.1856C157.025 69.2675 156.992 69.3345 156.951 69.3345C156.91 69.3345 156.877 69.388 156.877 69.4536C156.877 69.519 156.776 69.6665 156.654 69.7812C156.531 69.896 156.431 70.0276 156.431 70.0737C156.431 70.1827 155.791 70.8236 155.682 70.8236C155.636 70.8236 155.505 70.9242 155.39 71.047C155.276 71.1699 155.129 71.2704 155.063 71.2704C154.998 71.2704 154.945 71.3039 154.945 71.3448C154.945 71.3858 154.878 71.4193 154.796 71.4193C154.714 71.4193 154.647 71.4528 154.647 71.4937C154.647 71.5347 154.58 71.5682 154.499 71.5682C154.417 71.5682 154.35 71.6017 154.35 71.6427C154.35 71.6836 154.25 71.7171 154.127 71.7171C154.004 71.7171 153.904 71.7506 153.904 71.7916C153.904 71.8325 153.77 71.866 153.607 71.866C153.443 71.866 153.31 71.8995 153.31 71.9405C153.31 71.9866 152.913 72.0149 152.269 72.0149C151.625 72.0149 151.229 71.9866 151.229 71.9405C151.229 71.8995 151.095 71.866 150.931 71.866C150.768 71.866 150.634 71.8325 150.634 71.7916C150.634 71.7506 150.534 71.7171 150.411 71.7171C150.289 71.7171 150.188 71.6836 150.188 71.6427C150.188 71.6017 150.121 71.5682 150.04 71.5682C149.958 71.5682 149.891 71.5347 149.891 71.4937C149.891 71.4528 149.832 71.4193 149.759 71.4193C149.686 71.4193 149.578 71.3523 149.519 71.2704C149.461 71.1885 149.366 71.1215 149.31 71.1215C149.254 71.1215 149.114 71.0209 148.999 70.8981C148.885 70.7752 148.753 70.6747 148.706 70.6747C148.596 70.6747 148.256 70.3345 148.256 70.224C148.256 70.1771 148.156 70.0449 148.033 69.9302C147.911 69.8154 147.81 69.6753 147.81 69.6189C147.81 69.5625 147.743 69.468 147.662 69.409C147.58 69.3499 147.513 69.242 147.513 69.1691C147.513 69.0963 147.48 69.0367 147.439 69.0367C147.398 69.0367 147.364 68.9697 147.364 68.8878C147.364 68.8059 147.331 68.7389 147.29 68.7389C147.249 68.7389 147.216 68.6048 147.216 68.441C147.216 68.2772 147.182 68.1432 147.141 68.1432C147.101 68.1432 147.067 68.0427 147.067 67.9198C147.067 67.797 147.034 67.6965 146.993 67.6965C146.947 67.6965 146.918 67.2994 146.918 66.6541C146.918 66.0088 146.947 65.6117 146.993 65.6117C147.034 65.6117 147.067 65.4777 147.067 65.3139C147.067 65.1501 147.101 65.016 147.141 65.016C147.182 65.016 147.216 64.9155 147.216 64.7927C147.216 64.6698 147.249 64.5693 147.29 64.5693C147.331 64.5693 147.364 64.5023 147.364 64.4204C147.364 64.3385 147.398 64.2715 147.439 64.2715C147.48 64.2715 147.513 64.2045 147.513 64.1226C147.513 64.0407 147.546 63.9736 147.587 63.9736C147.628 63.9736 147.662 63.9208 147.662 63.8562C147.662 63.7915 147.795 63.6099 147.959 63.4525C148.122 63.295 148.256 63.1291 148.256 63.0835C148.256 62.975 148.747 62.4845 148.855 62.4845C148.902 62.4845 149.033 62.384 149.148 62.2611C149.262 62.1383 149.41 62.0378 149.475 62.0378C149.54 62.0378 149.594 62.0043 149.594 61.9633C149.594 61.9224 149.661 61.8889 149.742 61.8889C149.824 61.8889 149.891 61.8554 149.891 61.8144C149.891 61.7735 149.958 61.74 150.04 61.74C150.121 61.74 150.188 61.7064 150.188 61.6655C150.188 61.6245 150.289 61.591 150.411 61.591C150.534 61.591 150.634 61.5575 150.634 61.5166C150.634 61.4756 150.735 61.4421 150.857 61.4421C150.98 61.4421 151.08 61.4086 151.08 61.3677C151.08 61.3211 151.526 61.2932 152.269 61.2932C153.012 61.2932 153.458 61.3211 153.458 61.3677ZM156.877 73.1318C156.877 73.1727 157.044 73.2062 157.248 73.2062C157.453 73.2062 157.62 73.2398 157.62 73.2807C157.62 73.3217 157.713 73.3552 157.826 73.3552C157.948 73.3552 158.077 73.4167 158.14 73.5041C158.199 73.586 158.292 73.653 158.346 73.653C158.4 73.653 158.526 73.7353 158.626 73.8358C158.727 73.9363 158.809 74.0629 158.809 74.1171C158.809 74.1714 158.876 74.264 158.958 74.3231C159.039 74.3821 159.106 74.49 159.106 74.5629C159.106 74.6357 159.14 74.6954 159.18 74.6954C159.221 74.6954 159.255 74.7624 159.255 74.8443C159.255 74.9262 159.288 74.9932 159.329 74.9932C159.37 74.9932 159.403 75.0937 159.403 75.2166C159.403 75.3394 159.437 75.4399 159.478 75.4399C159.519 75.4399 159.552 75.507 159.552 75.5889C159.552 75.6708 159.586 75.7378 159.626 75.7378C159.667 75.7378 159.701 75.8048 159.701 75.8867C159.701 75.9686 159.734 76.0356 159.775 76.0356C159.816 76.0356 159.849 76.1026 159.849 76.1845C159.849 76.2664 159.883 76.3334 159.924 76.3334C159.965 76.3334 159.998 76.4004 159.998 76.4823C159.998 76.5642 160.031 76.6312 160.072 76.6312C160.113 76.6312 160.147 76.7318 160.147 76.8546C160.147 76.9775 160.18 77.078 160.221 77.078C160.262 77.078 160.295 77.145 160.295 77.2269C160.295 77.3088 160.329 77.3758 160.37 77.3758C160.41 77.3758 160.444 77.4428 160.444 77.5247C160.444 77.6066 160.477 77.6736 160.518 77.6736C160.559 77.6736 160.592 77.7406 160.592 77.8225C160.592 77.9044 160.626 77.9715 160.667 77.9715C160.708 77.9715 160.741 78.0385 160.741 78.1204C160.741 78.2023 160.775 78.2693 160.815 78.2693C160.856 78.2693 160.89 78.3698 160.89 78.4927C160.89 78.6155 160.923 78.716 160.964 78.716C161.005 78.716 161.038 78.783 161.038 78.8649C161.038 78.9468 161.072 79.0139 161.113 79.0139C161.154 79.0139 161.187 79.0809 161.187 79.1628C161.187 79.2447 161.22 79.3117 161.261 79.3117C161.302 79.3117 161.336 79.3787 161.336 79.4606C161.336 79.5425 161.369 79.6095 161.41 79.6095C161.451 79.6095 161.484 79.6765 161.484 79.7584C161.484 79.8403 161.518 79.9073 161.559 79.9073C161.599 79.9073 161.633 80.0078 161.633 80.1307C161.633 80.2536 161.666 80.3541 161.707 80.3541C161.748 80.3541 161.782 80.4211 161.782 80.503C161.782 80.5849 161.815 80.6519 161.856 80.6519C161.897 80.6519 161.93 80.7189 161.93 80.8008C161.93 80.8827 161.964 80.9497 162.004 80.9497C162.045 80.9497 162.079 81.0167 162.079 81.0986C162.079 81.1805 162.112 81.2475 162.153 81.2475C162.194 81.2475 162.227 81.3146 162.227 81.3965C162.227 81.4784 162.261 81.5454 162.302 81.5454C162.343 81.5454 162.376 81.6459 162.376 81.7687C162.376 81.8916 162.409 81.9921 162.45 81.9921C162.491 81.9921 162.525 82.0591 162.525 82.141C162.525 82.2229 162.558 82.2899 162.599 82.2899C162.64 82.2899 162.673 82.3569 162.673 82.4388C162.673 82.5208 162.707 82.5878 162.748 82.5878C162.789 82.5878 162.822 82.6548 162.822 82.7367C162.822 82.8186 162.855 82.8856 162.896 82.8856C162.937 82.8856 162.971 82.9526 162.971 83.0345C162.971 83.1164 163.004 83.1834 163.045 83.1834C163.086 83.1834 163.119 83.2504 163.119 83.3323C163.119 83.4142 163.153 83.4812 163.194 83.4812C163.234 83.4812 163.268 83.5818 163.268 83.7046C163.268 83.8275 163.301 83.928 163.342 83.928C163.383 83.928 163.416 83.995 163.416 84.0769C163.416 84.1588 163.45 84.2258 163.491 84.2258C163.532 84.2258 163.565 84.2928 163.565 84.3747C163.565 84.4566 163.599 84.5236 163.639 84.5236C163.68 84.5236 163.714 84.5906 163.714 84.6725C163.714 84.7544 163.747 84.8215 163.788 84.8215C163.829 84.8215 163.862 84.8885 163.862 84.9704C163.862 85.0523 163.896 85.1193 163.937 85.1193C163.978 85.1193 164.011 85.2198 164.011 85.3426C164.011 85.4655 164.044 85.566 164.085 85.566C164.126 85.566 164.16 85.633 164.16 85.7149C164.16 85.7968 164.193 85.8638 164.234 85.8638C164.275 85.8638 164.308 85.9309 164.308 86.0128C164.308 86.0947 164.342 86.1617 164.383 86.1617C164.423 86.1617 164.457 86.2287 164.457 86.3106C164.457 86.3925 164.49 86.4595 164.531 86.4595C164.572 86.4595 164.606 86.5265 164.606 86.6084C164.606 86.6903 164.639 86.7573 164.68 86.7573C164.721 86.7573 164.754 86.8578 164.754 86.9807C164.754 87.1035 164.788 87.2041 164.828 87.2041C164.869 87.2041 164.903 87.2711 164.903 87.353C164.903 87.4349 164.936 87.5019 164.977 87.5019C165.018 87.5019 165.051 87.5689 165.051 87.6508C165.051 87.7327 165.085 87.7997 165.126 87.7997C165.167 87.7997 165.2 87.8667 165.2 87.9486C165.2 88.0305 165.233 88.0975 165.274 88.0975C165.315 88.0975 165.349 88.1645 165.349 88.2465C165.349 88.3284 165.382 88.3954 165.423 88.3954C165.464 88.3954 165.497 88.4959 165.497 88.6187C165.497 88.7416 165.531 88.8421 165.572 88.8421C165.612 88.8421 165.646 88.9091 165.646 88.991C165.646 89.0729 165.679 89.1399 165.72 89.1399C165.761 89.1399 165.795 89.2069 165.795 89.2888C165.795 89.3707 165.828 89.4378 165.869 89.4378C165.91 89.4378 165.943 89.5048 165.943 89.5867C165.943 89.6686 165.977 89.7356 166.018 89.7356C166.058 89.7356 166.092 89.8026 166.092 89.8845C166.092 89.9664 166.125 90.0334 166.166 90.0334C166.207 90.0334 166.24 90.1004 166.24 90.1823C166.24 90.2642 166.274 90.3312 166.315 90.3312C166.356 90.3312 166.389 90.4317 166.389 90.5546C166.389 90.6775 166.423 90.778 166.463 90.778C166.504 90.778 166.538 90.845 166.538 90.9269C166.538 91.0088 166.571 91.0758 166.612 91.0758C166.653 91.0758 166.686 91.1428 166.686 91.2247C166.686 91.3066 166.72 91.3736 166.761 91.3736C166.802 91.3736 166.835 91.4741 166.835 91.597C166.835 91.7198 166.868 91.8204 166.909 91.8204C166.952 91.8204 166.984 92.0437 166.984 92.3416C166.984 92.6394 166.952 92.8628 166.909 92.8628C166.868 92.8628 166.835 92.9633 166.835 93.0861C166.835 93.209 166.802 93.3095 166.761 93.3095C166.72 93.3095 166.686 93.3605 166.686 93.4228C166.686 93.5702 165.906 94.3519 165.759 94.3519C165.697 94.3519 165.646 94.3854 165.646 94.4263C165.646 94.4673 165.579 94.5008 165.497 94.5008C165.416 94.5008 165.349 94.5343 165.349 94.5753C165.349 94.6194 165.076 94.6497 164.68 94.6497C164.284 94.6497 164.011 94.6194 164.011 94.5753C164.011 94.5343 163.944 94.5008 163.862 94.5008C163.781 94.5008 163.714 94.4673 163.714 94.4263C163.714 94.3854 163.647 94.3519 163.565 94.3519C163.483 94.3519 163.416 94.3184 163.416 94.2774C163.416 94.2365 163.365 94.203 163.302 94.203C163.153 94.203 162.822 93.8713 162.822 93.7224C162.822 93.6591 162.789 93.6073 162.748 93.6073C162.707 93.6073 162.673 93.5403 162.673 93.4584C162.673 93.3765 162.64 93.3095 162.599 93.3095C162.558 93.3095 162.525 93.2425 162.525 93.1606C162.525 93.0787 162.491 93.0117 162.45 93.0117C162.409 93.0117 162.376 92.9447 162.376 92.8628C162.376 92.7809 162.343 92.7138 162.302 92.7138C162.261 92.7138 162.227 92.6468 162.227 92.5649C162.227 92.483 162.194 92.416 162.153 92.416C162.112 92.416 162.079 92.349 162.079 92.2671C162.079 92.1852 162.045 92.1182 162.004 92.1182C161.964 92.1182 161.93 92.0512 161.93 91.9693C161.93 91.8874 161.897 91.8204 161.856 91.8204C161.815 91.8204 161.782 91.7198 161.782 91.597C161.782 91.4741 161.748 91.3736 161.707 91.3736C161.666 91.3736 161.633 91.3066 161.633 91.2247C161.633 91.1428 161.599 91.0758 161.559 91.0758C161.518 91.0758 161.484 91.0088 161.484 90.9269C161.484 90.845 161.451 90.778 161.41 90.778C161.369 90.778 161.336 90.711 161.336 90.6291C161.336 90.5472 161.302 90.4801 161.261 90.4801C161.22 90.4801 161.187 90.4131 161.187 90.3312C161.187 90.2493 161.154 90.1823 161.113 90.1823C161.072 90.1823 161.038 90.0818 161.038 89.959C161.038 89.8361 161.005 89.7356 160.964 89.7356C160.923 89.7356 160.89 89.6686 160.89 89.5867C160.89 89.5048 160.856 89.4378 160.815 89.4378C160.775 89.4378 160.741 89.3707 160.741 89.2888C160.741 89.2069 160.708 89.1399 160.667 89.1399C160.626 89.1399 160.592 89.0729 160.592 88.991C160.592 88.9091 160.559 88.8421 160.518 88.8421C160.477 88.8421 160.444 88.7751 160.444 88.6932C160.444 88.6113 160.41 88.5443 160.37 88.5443C160.329 88.5443 160.295 88.4773 160.295 88.3954C160.295 88.3135 160.262 88.2465 160.221 88.2465C160.18 88.2465 160.147 88.1459 160.147 88.0231C160.147 87.9002 160.113 87.7997 160.072 87.7997C160.031 87.7997 159.998 87.7327 159.998 87.6508C159.998 87.5689 159.965 87.5019 159.924 87.5019C159.883 87.5019 159.849 87.4349 159.849 87.353C159.849 87.2711 159.816 87.2041 159.775 87.2041C159.734 87.2041 159.701 87.1371 159.701 87.0551C159.701 86.9732 159.667 86.9062 159.626 86.9062C159.586 86.9062 159.552 86.8392 159.552 86.7573C159.552 86.6754 159.519 86.6084 159.478 86.6084C159.437 86.6084 159.403 86.5079 159.403 86.385C159.403 86.2622 159.37 86.1617 159.329 86.1617C159.288 86.1617 159.255 86.0947 159.255 86.0128C159.255 85.9309 159.221 85.8638 159.18 85.8638C159.14 85.8638 159.106 85.7968 159.106 85.7149C159.106 85.633 159.073 85.566 159.032 85.566C158.991 85.566 158.958 85.499 158.958 85.4171C158.958 85.3352 158.924 85.2682 158.883 85.2682C158.834 85.2682 158.809 90.232 158.809 100.011C158.809 109.789 158.784 114.753 158.735 114.753C158.694 114.753 158.66 114.846 158.66 114.96C158.66 115.081 158.599 115.211 158.512 115.274C158.43 115.333 158.363 115.425 158.363 115.478C158.363 115.614 157.573 116.391 157.436 116.391C157.374 116.391 157.323 116.424 157.323 116.465C157.323 116.506 157.222 116.54 157.1 116.54C156.977 116.54 156.877 116.573 156.877 116.614C156.877 116.659 156.555 116.689 156.059 116.689C155.564 116.689 155.242 116.659 155.242 116.614C155.242 116.573 155.149 116.54 155.035 116.54C154.914 116.54 154.785 116.478 154.722 116.391C154.663 116.309 154.571 116.242 154.517 116.242C154.382 116.242 153.755 115.601 153.755 115.462C153.755 115.4 153.722 115.349 153.681 115.349C153.64 115.349 153.607 115.282 153.607 115.2C153.607 115.118 153.573 115.051 153.533 115.051C153.492 115.051 153.458 114.95 153.458 114.827C153.458 114.705 153.425 114.604 153.384 114.604C153.335 114.604 153.31 111.7 153.31 106.042V97.4791H152.269H151.229V106.116C151.229 111.824 151.204 114.753 151.154 114.753C151.114 114.753 151.08 114.853 151.08 114.976C151.08 115.099 151.047 115.2 151.006 115.2C150.965 115.2 150.931 115.251 150.931 115.313C150.931 115.46 150.002 116.391 149.855 116.391C149.793 116.391 149.742 116.424 149.742 116.465C149.742 116.506 149.642 116.54 149.519 116.54C149.397 116.54 149.297 116.573 149.297 116.614C149.297 116.659 148.975 116.689 148.479 116.689C147.984 116.689 147.662 116.659 147.662 116.614C147.662 116.573 147.595 116.54 147.513 116.54C147.431 116.54 147.364 116.506 147.364 116.465C147.364 116.424 147.297 116.391 147.216 116.391C147.134 116.391 147.067 116.357 147.067 116.317C147.067 116.276 147.016 116.242 146.954 116.242C146.806 116.242 146.175 115.61 146.175 115.462C146.175 115.4 146.142 115.349 146.101 115.349C146.06 115.349 146.027 115.282 146.027 115.2C146.027 115.118 145.993 115.051 145.952 115.051C145.911 115.051 145.878 114.95 145.878 114.827C145.878 114.705 145.845 114.604 145.804 114.604C145.754 114.604 145.729 109.665 145.729 99.9361C145.729 90.2071 145.704 85.2682 145.655 85.2682C145.614 85.2682 145.581 85.3687 145.581 85.4916C145.581 85.6144 145.547 85.7149 145.506 85.7149C145.466 85.7149 145.432 85.7819 145.432 85.8638C145.432 85.9457 145.399 86.0128 145.358 86.0128C145.317 86.0128 145.284 86.0798 145.284 86.1617C145.284 86.2436 145.25 86.3106 145.209 86.3106C145.168 86.3106 145.135 86.3776 145.135 86.4595C145.135 86.5414 145.101 86.6084 145.061 86.6084C145.02 86.6084 144.986 86.6754 144.986 86.7573C144.986 86.8392 144.953 86.9062 144.912 86.9062C144.871 86.9062 144.838 86.9732 144.838 87.0551C144.838 87.1371 144.804 87.2041 144.763 87.2041C144.722 87.2041 144.689 87.3046 144.689 87.4274C144.689 87.5503 144.656 87.6508 144.615 87.6508C144.574 87.6508 144.54 87.7178 144.54 87.7997C144.54 87.8816 144.507 87.9486 144.466 87.9486C144.425 87.9486 144.392 88.0156 144.392 88.0975C144.392 88.1794 144.358 88.2465 144.317 88.2465C144.277 88.2465 144.243 88.3135 144.243 88.3954C144.243 88.4773 144.21 88.5443 144.169 88.5443C144.128 88.5443 144.094 88.6113 144.094 88.6932C144.094 88.7751 144.061 88.8421 144.02 88.8421C143.979 88.8421 143.946 88.9426 143.946 89.0655C143.946 89.1883 143.912 89.2888 143.872 89.2888C143.831 89.2888 143.797 89.3559 143.797 89.4378C143.797 89.5197 143.764 89.5867 143.723 89.5867C143.682 89.5867 143.649 89.6537 143.649 89.7356C143.649 89.8175 143.615 89.8845 143.574 89.8845C143.533 89.8845 143.5 89.9515 143.5 90.0334C143.5 90.1153 143.466 90.1823 143.426 90.1823C143.385 90.1823 143.351 90.2493 143.351 90.3312C143.351 90.4131 143.318 90.4801 143.277 90.4801C143.236 90.4801 143.203 90.5807 143.203 90.7035C143.203 90.8264 143.169 90.9269 143.128 90.9269C143.087 90.9269 143.054 90.9939 143.054 91.0758C143.054 91.1577 143.021 91.2247 142.98 91.2247C142.939 91.2247 142.905 91.2917 142.905 91.3736C142.905 91.4555 142.872 91.5225 142.831 91.5225C142.79 91.5225 142.757 91.5895 142.757 91.6714C142.757 91.7534 142.723 91.8204 142.682 91.8204C142.642 91.8204 142.608 91.8874 142.608 91.9693C142.608 92.0512 142.575 92.1182 142.534 92.1182C142.493 92.1182 142.46 92.2187 142.46 92.3416C142.46 92.4644 142.426 92.5649 142.385 92.5649C142.344 92.5649 142.311 92.6319 142.311 92.7138C142.311 92.7957 142.277 92.8628 142.237 92.8628C142.196 92.8628 142.162 92.9298 142.162 93.0117C142.162 93.0936 142.129 93.1606 142.088 93.1606C142.047 93.1606 142.014 93.2202 142.014 93.293C142.014 93.3659 141.947 93.4738 141.865 93.5329C141.783 93.5919 141.716 93.6846 141.716 93.7388C141.716 93.8666 141.381 94.203 141.253 94.203C141.199 94.203 141.106 94.27 141.048 94.3519C140.985 94.4393 140.855 94.5008 140.734 94.5008C140.62 94.5008 140.527 94.5343 140.527 94.5753C140.527 94.6187 140.28 94.6497 139.933 94.6497C139.586 94.6497 139.338 94.6187 139.338 94.5753C139.338 94.5343 139.238 94.5008 139.115 94.5008C138.993 94.5008 138.892 94.4673 138.892 94.4263C138.892 94.3854 138.841 94.3519 138.779 94.3519C138.717 94.3519 138.483 94.1683 138.259 93.944C138.035 93.7197 137.852 93.4851 137.852 93.4228C137.852 93.3605 137.819 93.3095 137.778 93.3095C137.737 93.3095 137.703 93.1755 137.703 93.0117C137.703 92.8479 137.67 92.7138 137.629 92.7138C137.588 92.7138 137.555 92.5798 137.555 92.416C137.555 92.2522 137.588 92.1182 137.629 92.1182C137.67 92.1182 137.703 91.9842 137.703 91.8204C137.703 91.6566 137.737 91.5225 137.778 91.5225C137.819 91.5225 137.852 91.422 137.852 91.2992C137.852 91.1763 137.885 91.0758 137.926 91.0758C137.967 91.0758 138.001 91.0088 138.001 90.9269C138.001 90.845 138.034 90.778 138.075 90.778C138.116 90.778 138.149 90.711 138.149 90.6291C138.149 90.5472 138.183 90.4801 138.224 90.4801C138.264 90.4801 138.298 90.4131 138.298 90.3312C138.298 90.2493 138.331 90.1823 138.372 90.1823C138.413 90.1823 138.446 90.1153 138.446 90.0334C138.446 89.9515 138.48 89.8845 138.521 89.8845C138.562 89.8845 138.595 89.784 138.595 89.6611C138.595 89.5383 138.629 89.4378 138.669 89.4378C138.71 89.4378 138.744 89.3707 138.744 89.2888C138.744 89.2069 138.777 89.1399 138.818 89.1399C138.859 89.1399 138.892 89.0729 138.892 88.991C138.892 88.9091 138.926 88.8421 138.967 88.8421C139.008 88.8421 139.041 88.7751 139.041 88.6932C139.041 88.6113 139.074 88.5443 139.115 88.5443C139.156 88.5443 139.19 88.4773 139.19 88.3954C139.19 88.3135 139.223 88.2465 139.264 88.2465C139.305 88.2465 139.338 88.1459 139.338 88.0231C139.338 87.9002 139.372 87.7997 139.413 87.7997C139.453 87.7997 139.487 87.7327 139.487 87.6508C139.487 87.5689 139.52 87.5019 139.561 87.5019C139.602 87.5019 139.636 87.4349 139.636 87.353C139.636 87.2711 139.669 87.2041 139.71 87.2041C139.751 87.2041 139.784 87.1371 139.784 87.0551C139.784 86.9732 139.818 86.9062 139.858 86.9062C139.899 86.9062 139.933 86.8392 139.933 86.7573C139.933 86.6754 139.966 86.6084 140.007 86.6084C140.048 86.6084 140.081 86.5414 140.081 86.4595C140.081 86.3776 140.115 86.3106 140.156 86.3106C140.197 86.3106 140.23 86.2101 140.23 86.0872C140.23 85.9644 140.263 85.8638 140.304 85.8638C140.345 85.8638 140.379 85.7968 140.379 85.7149C140.379 85.633 140.412 85.566 140.453 85.566C140.494 85.566 140.527 85.499 140.527 85.4171C140.527 85.3352 140.561 85.2682 140.602 85.2682C140.643 85.2682 140.676 85.2012 140.676 85.1193C140.676 85.0374 140.709 84.9704 140.75 84.9704C140.791 84.9704 140.825 84.9034 140.825 84.8215C140.825 84.7396 140.858 84.6725 140.899 84.6725C140.94 84.6725 140.973 84.572 140.973 84.4492C140.973 84.3263 141.007 84.2258 141.048 84.2258C141.088 84.2258 141.122 84.1588 141.122 84.0769C141.122 83.995 141.155 83.928 141.196 83.928C141.237 83.928 141.27 83.861 141.27 83.7791C141.27 83.6972 141.304 83.6302 141.345 83.6302C141.386 83.6302 141.419 83.5631 141.419 83.4812C141.419 83.3993 141.453 83.3323 141.493 83.3323C141.534 83.3323 141.568 83.2653 141.568 83.1834C141.568 83.1015 141.601 83.0345 141.642 83.0345C141.683 83.0345 141.716 82.934 141.716 82.8111C141.716 82.6883 141.75 82.5878 141.791 82.5878C141.832 82.5878 141.865 82.5208 141.865 82.4388C141.865 82.3569 141.898 82.2899 141.939 82.2899C141.98 82.2899 142.014 82.2229 142.014 82.141C142.014 82.0591 142.047 81.9921 142.088 81.9921C142.129 81.9921 142.162 81.9251 142.162 81.8432C142.162 81.7613 142.196 81.6943 142.237 81.6943C142.277 81.6943 142.311 81.6273 142.311 81.5454C142.311 81.4635 142.344 81.3965 142.385 81.3965C142.426 81.3965 142.46 81.2959 142.46 81.1731C142.46 81.0502 142.493 80.9497 142.534 80.9497C142.575 80.9497 142.608 80.8827 142.608 80.8008C142.608 80.7189 142.642 80.6519 142.682 80.6519C142.723 80.6519 142.757 80.5849 142.757 80.503C142.757 80.4211 142.79 80.3541 142.831 80.3541C142.872 80.3541 142.905 80.2871 142.905 80.2052C142.905 80.1233 142.939 80.0562 142.98 80.0562C143.021 80.0562 143.054 79.9892 143.054 79.9073C143.054 79.8254 143.087 79.7584 143.128 79.7584C143.169 79.7584 143.203 79.6914 143.203 79.6095C143.203 79.5276 143.236 79.4606 143.277 79.4606C143.318 79.4606 143.351 79.3601 143.351 79.2372C143.351 79.1144 143.385 79.0139 143.426 79.0139C143.466 79.0139 143.5 78.9468 143.5 78.8649C143.5 78.783 143.533 78.716 143.574 78.716C143.615 78.716 143.649 78.649 143.649 78.5671C143.649 78.4852 143.682 78.4182 143.723 78.4182C143.764 78.4182 143.797 78.3512 143.797 78.2693C143.797 78.1874 143.831 78.1204 143.872 78.1204C143.912 78.1204 143.946 78.0534 143.946 77.9715C143.946 77.8896 143.979 77.8225 144.02 77.8225C144.061 77.8225 144.094 77.722 144.094 77.5992C144.094 77.4763 144.128 77.3758 144.169 77.3758C144.21 77.3758 144.243 77.3088 144.243 77.2269C144.243 77.145 144.277 77.078 144.317 77.078C144.358 77.078 144.392 77.011 144.392 76.9291C144.392 76.8472 144.425 76.7802 144.466 76.7802C144.507 76.7802 144.54 76.7131 144.54 76.6312C144.54 76.5493 144.574 76.4823 144.615 76.4823C144.656 76.4823 144.689 76.4153 144.689 76.3334C144.689 76.2515 144.722 76.1845 144.763 76.1845C144.804 76.1845 144.838 76.084 144.838 75.9611C144.838 75.8383 144.871 75.7378 144.912 75.7378C144.953 75.7378 144.986 75.6708 144.986 75.5889C144.986 75.507 145.02 75.4399 145.061 75.4399C145.101 75.4399 145.135 75.3729 145.135 75.291C145.135 75.2091 145.168 75.1421 145.209 75.1421C145.25 75.1421 145.284 75.0751 145.284 74.9932C145.284 74.9113 145.317 74.8443 145.358 74.8443C145.399 74.8443 145.432 74.7773 145.432 74.6954C145.432 74.6135 145.466 74.5465 145.506 74.5465C145.547 74.5465 145.581 74.4868 145.581 74.414C145.581 74.3411 145.648 74.2332 145.729 74.1742C145.811 74.1151 145.878 74.0072 145.878 73.9344C145.878 73.8615 145.931 73.8019 145.997 73.8019C146.062 73.8019 146.209 73.7014 146.324 73.5785C146.452 73.4412 146.607 73.3552 146.725 73.3552C146.832 73.3552 146.918 73.3217 146.918 73.2807C146.918 73.2393 147.117 73.2062 147.364 73.2062C147.612 73.2062 147.81 73.1732 147.81 73.1318C147.81 73.0829 149.371 73.0573 152.343 73.0573C155.316 73.0573 156.877 73.0829 156.877 73.1318Z" fill="black"/>
<path fill-rule="evenodd" clip-rule="evenodd" d="M27.0129 105.622C28.0249 104.393 29.843 104.216 31.0738 105.226L59.9256 128.897C61.1564 129.907 61.3338 131.721 60.3218 132.949C59.3098 134.178 57.4916 134.355 56.2608 133.345L27.4091 109.674C26.1783 108.664 26.0009 106.85 27.0129 105.622Z" fill="black"/>
<path fill-rule="evenodd" clip-rule="evenodd" d="M72.4292 105.622C73.4412 104.393 75.2593 104.216 76.4901 105.226L105.342 128.897C106.573 129.907 106.75 131.721 105.738 132.949C104.726 134.178 102.908 134.355 101.677 133.345L72.8254 109.674C71.5945 108.664 71.4172 106.85 72.4292 105.622Z" fill="black"/>
<path fill-rule="evenodd" clip-rule="evenodd" d="M119.169 105.622C120.181 104.393 121.999 104.216 123.23 105.226L152.082 128.897C153.313 129.907 153.49 131.721 152.478 132.949C151.466 134.178 149.648 134.355 148.417 133.345L119.565 109.674C118.335 108.664 118.157 106.85 119.169 105.622Z" fill="black"/>
<path d="M0 15.7823V0.34497H5.36611C6.09011 0.34497 6.76442 0.467146 7.38905 0.711499C8.02787 0.941479 8.58152 1.27207 9.04999 1.70328C9.51846 2.1345 9.88756 2.65195 10.1573 3.25565C10.427 3.84497 10.5619 4.49897 10.5619 5.21766C10.5619 5.95072 10.427 6.6191 10.1573 7.22279C9.88756 7.81212 9.51846 8.32238 9.04999 8.75359C8.58152 9.1848 8.02787 9.52259 7.38905 9.76694C6.76442 9.99692 6.09011 10.1119 5.36611 10.1119H2.8747V15.7823H0ZM5.4087 7.35215C6.16109 7.35215 6.72893 7.13655 7.11223 6.70534C7.49552 6.27413 7.68717 5.77823 7.68717 5.21766C7.68717 4.94456 7.63748 4.67865 7.53811 4.41992C7.45293 4.16119 7.31097 3.9384 7.11223 3.75154C6.92768 3.55031 6.69344 3.3922 6.40952 3.27721C6.1256 3.16222 5.79199 3.10472 5.4087 3.10472H2.8747V7.35215H5.4087Z" fill="black"/>
<path d="M12.6018 0.34497H15.4765V13.0226H21.9286V15.7823H12.6018V0.34497Z" fill="black"/>
<path d="M26.8513 3.10472V6.68378H32.9628V9.44353H26.8513V13.0226H33.6442V15.7823H23.9766V0.34497H33.6442V3.10472H26.8513Z" fill="black"/>
<path d="M40.7378 0.34497H44.017L49.7452 15.7823H46.5723L45.316 12.0955H39.4388L38.1825 15.7823H35.0096L40.7378 0.34497ZM44.379 9.42197L43.0162 5.56263L42.4626 3.68686H42.2922L41.7386 5.56263L40.3758 9.42197H44.379Z" fill="black"/>
<path d="M56.1934 16.1273C55.5404 16.1273 54.9158 16.0339 54.3196 15.847C53.7233 15.6602 53.1768 15.3799 52.6799 15.0062C52.183 14.6324 51.7501 14.1797 51.381 13.6478C51.0119 13.1016 50.7209 12.4692 50.5079 11.7505L53.2123 10.6725C53.411 11.4487 53.7588 12.0955 54.2557 12.6129C54.7525 13.116 55.4056 13.3676 56.2147 13.3676C56.5128 13.3676 56.7968 13.3316 57.0665 13.2598C57.3504 13.1735 57.5988 13.0585 57.8118 12.9148C58.0389 12.7567 58.2164 12.5626 58.3441 12.3326C58.4719 12.1027 58.5358 11.8368 58.5358 11.5349C58.5358 11.2474 58.4861 10.9887 58.3867 10.7587C58.2874 10.5287 58.117 10.3131 57.8757 10.1119C57.6485 9.91068 57.3433 9.71663 56.96 9.52977C56.5909 9.34292 56.1296 9.14887 55.5759 8.94764L54.639 8.60267C54.2273 8.45893 53.8085 8.26489 53.3826 8.02053C52.9709 7.77618 52.5947 7.48152 52.254 7.13655C51.9133 6.79158 51.6294 6.38912 51.4023 5.92916C51.1893 5.45482 51.0829 4.923 51.0829 4.33368C51.0829 3.72998 51.1964 3.16941 51.4236 2.65195C51.6649 2.12012 51.9985 1.66016 52.4244 1.27207C52.8645 0.86961 53.3826 0.560575 53.9789 0.34497C54.5893 0.11499 55.2636 0 56.0018 0C56.7684 0 57.4285 0.107803 57.9821 0.323409C58.55 0.524641 59.0256 0.790555 59.4088 1.12115C59.8063 1.43737 60.1257 1.78953 60.3671 2.17762C60.6084 2.56571 60.7859 2.93224 60.8994 3.27721L58.3654 4.35524C58.2235 3.92403 57.9608 3.53593 57.5776 3.19096C57.2085 2.846 56.6974 2.67351 56.0444 2.67351C55.4197 2.67351 54.9016 2.82444 54.4899 3.12628C54.0782 3.41376 53.8724 3.79466 53.8724 4.26899C53.8724 4.72895 54.0711 5.12423 54.4686 5.45483C54.8661 5.77105 55.4978 6.08008 56.3638 6.38193L57.322 6.70534C57.9325 6.92094 58.4861 7.17248 58.983 7.45996C59.494 7.73306 59.927 8.06365 60.2819 8.45174C60.651 8.83983 60.9278 9.28542 61.1124 9.7885C61.3111 10.2772 61.4105 10.845 61.4105 11.4918C61.4105 12.2967 61.2472 12.9938 60.9207 13.5832C60.6084 14.1581 60.2038 14.6324 59.707 15.0062C59.2101 15.3799 58.6494 15.6602 58.0247 15.847C57.4001 16.0339 56.7897 16.1273 56.1934 16.1273Z" fill="black"/>
<path d="M66.653 3.10472V6.68378H72.7644V9.44353H66.653V13.0226H73.4458V15.7823H63.7783V0.34497H73.4458V3.10472H66.653Z" fill="black"/>
<path d="M80.7678 0.34497H83.6425V13.0226H90.0946V15.7823H80.7678V0.34497Z" fill="black"/>
<path d="M92.1427 0.34497H95.0174V15.7823H92.1427V0.34497Z" fill="black"/>
<path d="M98.0901 0.34497H101.433L107.566 10.694H107.736L107.566 7.71868V0.34497H110.419V15.7823H107.396L100.922 4.85113H100.752L100.922 7.82649V15.7823H98.0901V0.34497Z" fill="black"/>
<path d="M116.353 3.10472V6.68378H122.464V9.44353H116.353V13.0226H123.146V15.7823H113.478V0.34497H123.146V3.10472H116.353Z" fill="black"/>
<path d="M135.631 16.1273C134.737 16.1273 133.92 15.9836 133.182 15.6961C132.458 15.3942 131.841 14.963 131.33 14.4025C130.819 13.8419 130.421 13.1663 130.137 12.3758C129.853 11.5708 129.711 10.6581 129.711 9.63758V0.34497H132.586V9.81006C132.586 10.3275 132.65 10.8018 132.778 11.2331C132.905 11.6643 133.097 12.038 133.353 12.3542C133.608 12.6704 133.928 12.922 134.311 13.1088C134.694 13.2813 135.134 13.3676 135.631 13.3676C136.142 13.3676 136.589 13.2813 136.973 13.1088C137.356 12.922 137.675 12.6704 137.931 12.3542C138.186 12.038 138.378 11.6643 138.506 11.2331C138.634 10.8018 138.697 10.3275 138.697 9.81006V0.34497H141.572V9.63758C141.572 10.6006 141.43 11.4846 141.146 12.2895C140.876 13.0801 140.479 13.7628 139.954 14.3378C139.443 14.8984 138.818 15.3368 138.08 15.653C137.356 15.9692 136.54 16.1273 135.631 16.1273Z" fill="black"/>
<path d="M144.297 15.7823V0.34497H149.663C150.387 0.34497 151.061 0.467146 151.686 0.711499C152.324 0.941479 152.878 1.27207 153.347 1.70328C153.815 2.1345 154.184 2.65195 154.454 3.25565C154.724 3.84497 154.858 4.49897 154.858 5.21766C154.858 5.95072 154.724 6.6191 154.454 7.22279C154.184 7.81212 153.815 8.32238 153.347 8.75359C152.878 9.1848 152.324 9.52259 151.686 9.76694C151.061 9.99692 150.387 10.1119 149.663 10.1119H147.171V15.7823H144.297ZM149.705 7.35215C150.458 7.35215 151.026 7.13655 151.409 6.70534C151.792 6.27413 151.984 5.77823 151.984 5.21766C151.984 4.94456 151.934 4.67865 151.835 4.41992C151.749 4.16119 151.608 3.9384 151.409 3.75154C151.224 3.55031 150.99 3.3922 150.706 3.27721C150.422 3.16222 150.089 3.10472 149.705 3.10472H147.171V7.35215H149.705Z" fill="black"/>
<path d="M168.38 16.1273C167.244 16.1273 166.187 15.9189 165.207 15.5021C164.242 15.0852 163.404 14.5175 162.694 13.7988C161.985 13.0657 161.424 12.2105 161.012 11.2331C160.615 10.2413 160.416 9.1848 160.416 8.06365C160.416 6.94251 160.615 5.89322 161.012 4.91581C161.424 3.92403 161.985 3.06879 162.694 2.3501C163.404 1.61704 164.242 1.0421 165.207 0.625258C166.187 0.208419 167.244 0 168.38 0C169.516 0 170.566 0.208419 171.532 0.625258C172.511 1.0421 173.356 1.61704 174.066 2.3501C174.775 3.06879 175.329 3.92403 175.726 4.91581C176.138 5.89322 176.344 6.94251 176.344 8.06365C176.344 9.1848 176.138 10.2413 175.726 11.2331C175.329 12.2105 174.775 13.0657 174.066 13.7988C173.356 14.5175 172.511 15.0852 171.532 15.5021C170.566 15.9189 169.516 16.1273 168.38 16.1273ZM168.38 13.3676C169.09 13.3676 169.75 13.2382 170.36 12.9795C170.985 12.7207 171.524 12.3614 171.979 11.9014C172.447 11.4415 172.809 10.8881 173.065 10.2413C173.334 9.58008 173.469 8.85421 173.469 8.06365C173.469 7.2731 173.334 6.55442 173.065 5.9076C172.809 5.24641 172.447 4.68583 171.979 4.22587C171.524 3.76591 170.985 3.40657 170.36 3.14784C169.75 2.88912 169.09 2.75975 168.38 2.75975C167.67 2.75975 167.003 2.88912 166.378 3.14784C165.768 3.40657 165.228 3.76591 164.76 4.22587C164.306 4.68583 163.944 5.24641 163.674 5.9076C163.418 6.55442 163.291 7.2731 163.291 8.06365C163.291 8.85421 163.418 9.58008 163.674 10.2413C163.944 10.8881 164.306 11.4415 164.76 11.9014C165.228 12.3614 165.768 12.7207 166.378 12.9795C167.003 13.2382 167.67 13.3676 168.38 13.3676Z" fill="black"/>
<path d="M178.671 0.34497H182.014L188.147 10.694H188.317L188.147 7.71868V0.34497H191V15.7823H187.976L181.503 4.85113H181.332L181.503 7.82649V15.7823H178.671V0.34497Z" fill="black"/>
<path d="M16.6048 26.2177H19.4369L24.1003 34.3891H24.2707L28.9341 26.2177H31.7875V41.655H28.9341V34.0441L29.1044 31.4569H28.9341L25.0586 38.3778H23.3337L19.4369 31.4569H19.2666L19.4369 34.0441V41.655H16.6048V26.2177Z" fill="black"/>
<path d="M39.3133 26.2177H42.5926L48.3207 41.655H45.1479L43.8915 37.9682H38.0144L36.758 41.655H33.5852L39.3133 26.2177ZM42.9546 35.2947L41.5918 31.4353L41.0381 29.5595H40.8678L40.3141 31.4353L38.9513 35.2947H42.9546Z" fill="black"/>
<path d="M50.1056 26.2177H55.6633C56.4299 26.2177 57.1255 26.3398 57.7502 26.5842C58.3748 26.8285 58.9071 27.1663 59.3472 27.5975C59.8015 28.0287 60.1493 28.5462 60.3906 29.1499C60.632 29.7392 60.7526 30.386 60.7526 31.0903C60.7526 31.6078 60.6674 32.0965 60.4971 32.5565C60.3267 33.0021 60.0925 33.4117 59.7944 33.7854C59.4963 34.1448 59.1485 34.4682 58.751 34.7556C58.3535 35.0287 57.9347 35.2444 57.4946 35.4025L57.4733 35.5534L61.5618 41.4825V41.655H58.2612L54.3218 35.8552H52.9803V41.655H50.1056V26.2177ZM55.642 33.1817C56.2951 33.1817 56.8274 32.9805 57.2391 32.578C57.665 32.1756 57.8779 31.6653 57.8779 31.0472C57.8779 30.7741 57.8282 30.5082 57.7289 30.2495C57.6437 29.9908 57.5088 29.7608 57.3243 29.5595C57.1397 29.3583 56.9055 29.2002 56.6216 29.0852C56.3518 28.9558 56.0395 28.8912 55.6846 28.8912H52.9803V33.1817H55.642Z" fill="black"/>
<path d="M63.3104 26.2177H66.1851V32.8368H66.3555L71.9345 26.2177H75.4054V26.3901L69.8903 32.7721L75.9804 41.4825V41.655H72.4669L67.9312 35.0791L66.1851 37.1273V41.655H63.3104V26.2177Z" fill="black"/>
<path d="M80.4297 28.9774V32.5565H86.5411V35.3162H80.4297V38.8953H87.2225V41.655H77.555V26.2177H87.2225V28.9774H80.4297Z" fill="black"/>
<path d="M89.8656 26.2177H95.0188C96.2255 26.2177 97.3115 26.4045 98.2768 26.7782C99.2421 27.1519 100.066 27.6838 100.747 28.3737C101.428 29.0493 101.946 29.8614 102.301 30.8101C102.67 31.7587 102.855 32.8008 102.855 33.9363C102.855 35.0862 102.67 36.1355 102.301 37.0842C101.946 38.0329 101.428 38.845 100.747 39.5205C100.066 40.1961 99.2421 40.7207 98.2768 41.0945C97.3115 41.4682 96.2255 41.655 95.0188 41.655H89.8656V26.2177ZM94.891 38.8953C95.7286 38.8953 96.4668 38.7803 97.1056 38.5503C97.7444 38.306 98.2768 37.9682 98.7027 37.537C99.1286 37.1057 99.448 36.5883 99.6609 35.9846C99.8739 35.3665 99.9803 34.6838 99.9803 33.9363C99.9803 33.1889 99.8739 32.5133 99.6609 31.9096C99.448 31.2916 99.1286 30.7669 98.7027 30.3357C98.2768 29.9045 97.7444 29.5739 97.1056 29.3439C96.4668 29.0996 95.7286 28.9774 94.891 28.9774H92.7403V38.8953H94.891Z" fill="black"/>
<path d="M113.655 26.2177H116.935L122.663 41.655H119.49L118.234 37.9682H112.357L111.1 41.655H107.927L113.655 26.2177ZM117.297 35.2947L115.934 31.4353L115.38 29.5595H115.21L114.656 31.4353L113.293 35.2947H117.297Z" fill="black"/>
<path d="M124.448 26.2177H130.005C130.772 26.2177 131.468 26.3398 132.092 26.5842C132.717 26.8285 133.249 27.1663 133.689 27.5975C134.144 28.0287 134.491 28.5462 134.733 29.1499C134.974 29.7392 135.095 30.386 135.095 31.0903C135.095 31.6078 135.01 32.0965 134.839 32.5565C134.669 33.0021 134.435 33.4117 134.137 33.7854C133.838 34.1448 133.491 34.4682 133.093 34.7556C132.696 35.0287 132.277 35.2444 131.837 35.4025L131.815 35.5534L135.904 41.4825V41.655H132.603L128.664 35.8552H127.322V41.655H124.448V26.2177ZM129.984 33.1817C130.637 33.1817 131.17 32.9805 131.581 32.578C132.007 32.1756 132.22 31.6653 132.22 31.0472C132.22 30.7741 132.17 30.5082 132.071 30.2495C131.986 29.9908 131.851 29.7608 131.666 29.5595C131.482 29.3583 131.248 29.2002 130.964 29.0852C130.694 28.9558 130.382 28.8912 130.027 28.8912H127.322V33.1817H129.984Z" fill="black"/>
<path d="M140.527 28.9774V32.5565H146.639V35.3162H140.527V38.8953H147.32V41.655H137.653V26.2177H147.32V28.9774H140.527Z" fill="black"/>
<path d="M154.414 26.2177H157.693L163.421 41.655H160.248L158.992 37.9682H153.115L151.858 41.655H148.686L154.414 26.2177ZM158.055 35.2947L156.692 31.4353L156.138 29.5595H155.968L155.414 31.4353L154.052 35.2947H158.055Z" fill="black"/>
<path d="M169.869 42C169.216 42 168.592 41.9066 167.995 41.7197C167.399 41.5328 166.853 41.2526 166.356 40.8788C165.859 40.5051 165.426 40.0524 165.057 39.5205C164.688 38.9743 164.397 38.3419 164.184 37.6232L166.888 36.5452C167.087 37.3214 167.435 37.9682 167.932 38.4856C168.428 38.9887 169.081 39.2402 169.891 39.2402C170.189 39.2402 170.473 39.2043 170.742 39.1324C171.026 39.0462 171.275 38.9312 171.488 38.7875C171.715 38.6294 171.892 38.4353 172.02 38.2053C172.148 37.9754 172.212 37.7094 172.212 37.4076C172.212 37.1201 172.162 36.8614 172.063 36.6314C171.963 36.4014 171.793 36.1858 171.552 35.9846C171.324 35.7834 171.019 35.5893 170.636 35.4025C170.267 35.2156 169.805 35.0216 169.252 34.8203L168.315 34.4754C167.903 34.3316 167.484 34.1376 167.059 33.8932C166.647 33.6489 166.271 33.3542 165.93 33.0092C165.589 32.6643 165.305 32.2618 165.078 31.8018C164.865 31.3275 164.759 30.7957 164.759 30.2064C164.759 29.6027 164.872 29.0421 165.099 28.5246C165.341 27.9928 165.674 27.5329 166.1 27.1448C166.54 26.7423 167.059 26.4333 167.655 26.2177C168.265 25.9877 168.94 25.8727 169.678 25.8727C170.444 25.8727 171.104 25.9805 171.658 26.1961C172.226 26.3973 172.701 26.6632 173.085 26.9938C173.482 27.3101 173.802 27.6622 174.043 28.0503C174.284 28.4384 174.462 28.8049 174.575 29.1499L172.041 30.2279C171.899 29.7967 171.637 29.4086 171.253 29.0637C170.884 28.7187 170.373 28.5462 169.72 28.5462C169.096 28.5462 168.578 28.6971 168.166 28.999C167.754 29.2864 167.548 29.6673 167.548 30.1417C167.548 30.6016 167.747 30.9969 168.145 31.3275C168.542 31.6437 169.174 31.9528 170.04 32.2546L170.998 32.578C171.608 32.7936 172.162 33.0452 172.659 33.3326C173.17 33.6057 173.603 33.9363 173.958 34.3244C174.327 34.7125 174.604 35.1581 174.788 35.6612C174.987 36.1499 175.086 36.7177 175.086 37.3645C175.086 38.1694 174.923 38.8665 174.597 39.4558C174.284 40.0308 173.88 40.5051 173.383 40.8788C172.886 41.2526 172.325 41.5328 171.701 41.7197C171.076 41.9066 170.466 42 169.869 42Z" fill="black"/>
</svg>
