<svg xmlns="http://www.w3.org/2000/svg" width="401.998" height="401.998" fill="#fff"><path d="M401.13 311.48c-1.14-3.43-8.37-8.48-21.7-15.13-3.6-2.1-8.75-4.95-15.4-8.57-6.67-3.62-12.72-6.95-18.14-10-5.44-3.04-10.53-6-15.28-8.84-.76-.57-3.14-2.24-7.14-5-4-2.76-7.38-4.8-10.14-6.14-2.76-1.33-5.47-2-8.14-2-3.8 0-8.56 2.72-14.27 8.14-5.7 5.43-10.94 11.32-15.7 17.7-4.75 6.38-9.8 12.28-15.12 17.7-5.32 5.43-9.7 8.14-13.13 8.14-1.7 0-3.86-.48-6.42-1.42-2.57-.95-4.52-1.77-5.86-2.42-1.34-.68-3.62-2-6.86-4s-5.04-3.1-5.42-3.3c-26.08-14.46-48.44-31.02-67.1-49.67-18.65-18.66-35.2-41.02-49.67-67.1-.2-.38-1.3-2.2-3.3-5.42-2-3.24-3.32-5.52-4-6.85-.65-1.34-1.46-3.3-2.4-5.86s-1.44-4.7-1.44-6.42c0-3.43 2.72-7.8 8.15-13.14 5.42-5.32 11.32-10.37 17.7-15.12 6.38-4.76 12.27-10 17.7-15.7 5.42-5.7 8.14-10.47 8.14-14.28 0-2.66-.68-5.37-2-8.13-1.34-2.77-3.4-6.14-6.15-10.14-2.76-4-4.43-6.36-5-7.13-2.85-4.75-5.8-9.85-8.85-15.27s-6.37-11.47-10-18.13c-3.6-6.66-6.46-11.8-8.56-15.42C99 9.23 93.94 2 90.52.85 89.18.3 87.18 0 84.52 0 79.38 0 72.67.95 64.4 2.86c-8.3 1.9-14.8 3.9-19.57 6-9.5 4-19.6 15.6-30.26 34.82C4.87 61.58 0 79.28 0 96.78c0 5.13.34 10.13 1 15 .67 4.84 1.86 10.32 3.58 16.4 1.7 6.1 3.1 10.62 4.14 13.57 1.04 2.95 3 8.23 5.85 15.84 2.85 7.6 4.57 12.27 5.14 13.98 6.67 18.65 14.57 35.3 23.7 49.96 15.03 24.37 35.54 49.54 61.52 75.53 25.98 25.98 51.16 46.5 75.52 61.52 14.65 9.12 31.3 17.02 49.97 23.7 1.72.56 6.38 2.27 14 5.13 7.6 2.85 12.9 4.8 15.84 5.85 2.94 1.05 7.47 2.43 13.55 4.15 6.1 1.7 11.56 2.9 16.4 3.57 4.87.66 9.87 1 15 1 17.5 0 35.22-4.86 53.1-14.56 19.23-10.66 30.83-20.75 34.83-30.27 2.1-4.76 4.1-11.28 6-19.56 1.9-8.27 2.85-14.97 2.85-20.1 0-2.7-.28-4.68-.85-6.02z"/></svg>