<svg width="182" height="160" viewBox="0 0 182 160" fill="none" xmlns="http://www.w3.org/2000/svg">
<path d="M4.88226 13.7177C4.3215 13.7177 3.78513 13.6382 3.27313 13.4793C2.76113 13.3203 2.2918 13.0819 1.86513 12.764C1.43847 12.4462 1.06666 12.061 0.749711 11.6087C0.43276 11.1441 0.182856 10.6061 0 9.99483L2.32227 9.07787C2.49294 9.73808 2.79161 10.2883 3.21827 10.7284C3.64494 11.1563 4.20569 11.3703 4.90055 11.3703C5.15655 11.3703 5.40036 11.3397 5.63197 11.2786C5.87578 11.2052 6.08911 11.1074 6.27197 10.9851C6.46702 10.8507 6.6194 10.6856 6.72911 10.49C6.83883 10.2944 6.89368 10.0682 6.89368 9.81143C6.89368 9.56691 6.85102 9.34684 6.76568 9.15123C6.68035 8.95561 6.53406 8.77222 6.32683 8.60105C6.13178 8.42989 5.86969 8.26483 5.54055 8.1059C5.22359 7.94696 4.82741 7.7819 4.35198 7.61074L3.54741 7.31731C3.19389 7.19505 2.83427 7.03 2.46856 6.82216C2.11504 6.61431 1.79199 6.36368 1.49942 6.07025C1.20685 5.77683 0.963043 5.4345 0.767996 5.04326C0.58514 4.6398 0.493712 4.18744 0.493712 3.68617C0.493712 3.17267 0.591235 2.69585 0.786282 2.25571C0.993519 1.80335 1.27999 1.41211 1.64571 1.08201C2.02361 0.739679 2.46856 0.476818 2.98056 0.293427C3.50475 0.0978089 4.08379 0 4.71769 0C5.37597 0 5.94283 0.0916958 6.41826 0.275088C6.90587 0.446253 7.31425 0.672436 7.64339 0.953636C7.98472 1.22261 8.25901 1.52215 8.46625 1.85225C8.67348 2.18236 8.82586 2.49412 8.92339 2.78755L6.7474 3.7045C6.62549 3.33772 6.39997 3.00762 6.07083 2.71419C5.75388 2.42077 5.31502 2.27405 4.75426 2.27405C4.21789 2.27405 3.77293 2.40243 3.41941 2.65917C3.06589 2.9037 2.88913 3.22769 2.88913 3.63115C2.88913 4.02238 3.0598 4.3586 3.40113 4.6398C3.74246 4.90877 4.28493 5.17164 5.02855 5.42838L5.8514 5.70347C6.37559 5.88686 6.85102 6.10082 7.27768 6.34534C7.71654 6.57763 8.08834 6.85883 8.3931 7.18894C8.71005 7.51904 8.94777 7.89805 9.10624 8.32597C9.27691 8.74165 9.36224 9.22458 9.36224 9.77476C9.36224 10.4594 9.22205 11.0524 8.94167 11.5537C8.67348 12.0427 8.32606 12.4462 7.89939 12.764C7.47273 13.0819 6.99121 13.3203 6.45483 13.4793C5.91845 13.6382 5.39426 13.7177 4.88226 13.7177Z" fill="black"/>
<path d="M13.9964 13.4242V2.64084H10.3392V0.293427H20.122V2.64084H16.4649V13.4242H13.9964Z" fill="black"/>
<path d="M24.5029 0.293427H27.3189L32.2377 13.4242H29.5131L28.4343 10.2883H23.3875L22.3086 13.4242H19.5841L24.5029 0.293427ZM27.6297 8.0142L26.4594 4.7315L25.984 3.13599H25.8377L25.3623 4.7315L24.192 8.0142H27.6297Z" fill="black"/>
<path d="M35.7051 7.31731L31.2983 0.293427H34.2423L36.8571 4.6398H37.0034L39.5268 0.293427H42.5074L38.1737 7.31731V13.4242H35.7051V7.31731Z" fill="black"/>
<path d="M51.507 13.7177C50.9463 13.7177 50.4099 13.6382 49.8979 13.4793C49.3859 13.3203 48.9166 13.0819 48.4899 12.764C48.0632 12.4462 47.6914 12.061 47.3745 11.6087C47.0575 11.1441 46.8076 10.6061 46.6248 9.99483L48.9471 9.07787C49.1177 9.73808 49.4164 10.2883 49.8431 10.7284C50.2697 11.1563 50.8305 11.3703 51.5253 11.3703C51.7813 11.3703 52.0251 11.3397 52.2568 11.2786C52.5006 11.2052 52.7139 11.1074 52.8967 10.9851C53.0918 10.8507 53.2442 10.6856 53.3539 10.49C53.4636 10.2944 53.5185 10.0682 53.5185 9.81143C53.5185 9.56691 53.4758 9.34684 53.3905 9.15123C53.3051 8.95561 53.1588 8.77222 52.9516 8.60105C52.7566 8.42989 52.4945 8.26483 52.1653 8.1059C51.8484 7.94696 51.4522 7.7819 50.9768 7.61074L50.1722 7.31731C49.8187 7.19505 49.4591 7.03 49.0933 6.82216C48.7398 6.61431 48.4168 6.36368 48.1242 6.07025C47.8316 5.77683 47.5878 5.4345 47.3928 5.04326C47.2099 4.6398 47.1185 4.18744 47.1185 3.68617C47.1185 3.17267 47.216 2.69585 47.4111 2.25571C47.6183 1.80335 47.9048 1.41211 48.2705 1.08201C48.6484 0.739679 49.0933 0.476818 49.6053 0.293427C50.1295 0.0978089 50.7086 0 51.3425 0C52.0008 0 52.5676 0.0916958 53.043 0.275088C53.5307 0.446253 53.939 0.672436 54.2682 0.953636C54.6095 1.22261 54.8838 1.52215 55.091 1.85225C55.2983 2.18236 55.4506 2.49412 55.5482 2.78755L53.3722 3.7045C53.2503 3.33772 53.0247 3.00762 52.6956 2.71419C52.3787 2.42077 51.9398 2.27405 51.379 2.27405C50.8427 2.27405 50.3977 2.40243 50.0442 2.65917C49.6907 2.9037 49.5139 3.22769 49.5139 3.63115C49.5139 4.02238 49.6846 4.3586 50.0259 4.6398C50.3672 4.90877 50.9097 5.17164 51.6533 5.42838L52.4762 5.70347C53.0004 5.88686 53.4758 6.10082 53.9025 6.34534C54.3413 6.57763 54.7131 6.85883 55.0179 7.18894C55.3348 7.51904 55.5725 7.89805 55.731 8.32597C55.9017 8.74165 55.987 9.22458 55.987 9.77476C55.987 10.4594 55.8468 11.0524 55.5665 11.5537C55.2983 12.0427 54.9508 12.4462 54.5242 12.764C54.0975 13.0819 53.616 13.3203 53.0796 13.4793C52.5432 13.6382 52.019 13.7177 51.507 13.7177Z" fill="black"/>
<path d="M61.6634 0.293427H64.4794L69.3982 13.4242H66.6737L65.5948 10.2883H60.548L59.4691 13.4242H56.7446L61.6634 0.293427ZM64.7903 8.0142L63.62 4.7315L63.1446 3.13599H62.9983L62.5228 4.7315L61.3526 8.0142H64.7903Z" fill="black"/>
<path d="M70.9309 0.293427H79.2326V2.64084H73.3995V5.83184H78.6475V8.17925H73.3995V13.4242H70.9309V0.293427Z" fill="black"/>
<path d="M83.5959 2.64084V5.68513H88.8439V8.03254H83.5959V11.0768H89.429V13.4242H81.1273V0.293427H89.429V2.64084H83.5959Z" fill="black"/>
<path d="M93.9604 0.293427H96.5753L98.605 7.95918L98.8975 9.3713H99.0438L99.4278 7.95918L101.311 2.05398H103.615L105.517 7.95918L105.883 9.35296H106.029L106.303 7.95918L108.205 0.293427H110.82L107.345 13.4242H104.968L102.92 7.09724L102.536 5.64845H102.39L102.006 7.09724L99.9581 13.4242H97.581L93.9604 0.293427Z" fill="black"/>
<path d="M112.431 0.293427H114.899V13.4242H112.431V0.293427Z" fill="black"/>
<path d="M120.317 13.4242V2.64084H116.66V0.293427H126.443V2.64084H122.786V13.4242H120.317Z" fill="black"/>
<path d="M128.199 0.293427H130.667V5.53842H136.171V0.293427H138.64V13.4242H136.171V7.88583H130.667V13.4242H128.199V0.293427Z" fill="black"/>
<path d="M0.87771 35.0978V21.9669H5.48569C6.1074 21.9669 6.68644 22.0709 7.22282 22.2787C7.77139 22.4743 8.24682 22.7555 8.6491 23.1223C9.05139 23.4891 9.36834 23.9292 9.59996 24.4427C9.83157 24.944 9.94738 25.5003 9.94738 26.1116C9.94738 26.7351 9.83157 27.3036 9.59996 27.8171C9.36834 28.3184 9.05139 28.7524 8.6491 29.1192C8.24682 29.486 7.77139 29.7733 7.22282 29.9811C6.68644 30.1768 6.1074 30.2746 5.48569 30.2746H3.34627V35.0978H0.87771ZM5.52226 27.9272C6.16835 27.9272 6.65597 27.7438 6.98511 27.377C7.31425 27.0102 7.47882 26.5884 7.47882 26.1116C7.47882 25.8793 7.43616 25.6531 7.35082 25.433C7.27768 25.213 7.15578 25.0235 6.98511 24.8645C6.82663 24.6934 6.62549 24.5589 6.38168 24.4611C6.13788 24.3633 5.8514 24.3143 5.52226 24.3143H3.34627V27.9272H5.52226Z" fill="black"/>
<path d="M11.6991 21.9669H16.4716C17.1299 21.9669 17.7272 22.0709 18.2636 22.2787C18.8 22.4865 19.2571 22.7739 19.635 23.1406C20.0251 23.5074 20.3238 23.9476 20.531 24.4611C20.7383 24.9623 20.8419 25.5125 20.8419 26.1116C20.8419 26.5517 20.7688 26.9674 20.6225 27.3586C20.4762 27.7377 20.275 28.0861 20.019 28.404C19.763 28.7096 19.4644 28.9847 19.1231 29.2292C18.7817 29.4615 18.4221 29.6449 18.0442 29.7794L18.0259 29.9078L21.5368 34.951V35.0978H18.7025L15.3196 30.1645H14.1676V35.0978H11.6991V21.9669ZM16.4534 27.8905C17.0141 27.8905 17.4713 27.7193 17.8248 27.377C18.1905 27.0347 18.3733 26.6006 18.3733 26.0749C18.3733 25.8426 18.3307 25.6164 18.2453 25.3964C18.1722 25.1763 18.0564 24.9807 17.8979 24.8095C17.7394 24.6383 17.5383 24.5039 17.2945 24.406C17.0629 24.296 16.7947 24.241 16.4899 24.241H14.1676V27.8905H16.4534Z" fill="black"/>
<path d="M29.2371 35.3912C28.2619 35.3912 27.3537 35.2139 26.5126 34.8594C25.6836 34.5048 24.9644 34.0219 24.3549 33.4106C23.7454 32.787 23.2638 32.0596 22.9103 31.2282C22.569 30.3846 22.3983 29.486 22.3983 28.5324C22.3983 27.5787 22.569 26.6862 22.9103 25.8548C23.2638 25.0112 23.7454 24.2838 24.3549 23.6725C24.9644 23.0489 25.6836 22.5599 26.5126 22.2054C27.3537 21.8508 28.2619 21.6735 29.2371 21.6735C30.2124 21.6735 31.1145 21.8508 31.9434 22.2054C32.7846 22.5599 33.5099 23.0489 34.1194 23.6725C34.7289 24.2838 35.2044 25.0112 35.5457 25.8548C35.8992 26.6862 36.076 27.5787 36.076 28.5324C36.076 29.486 35.8992 30.3846 35.5457 31.2282C35.2044 32.0596 34.7289 32.787 34.1194 33.4106C33.5099 34.0219 32.7846 34.5048 31.9434 34.8594C31.1145 35.2139 30.2124 35.3912 29.2371 35.3912ZM29.2371 33.0438C29.8467 33.0438 30.4135 32.9337 30.9377 32.7137C31.4741 32.4936 31.9373 32.188 32.3274 31.7967C32.7297 31.4055 33.0406 30.9348 33.26 30.3846C33.4916 29.8222 33.6074 29.2048 33.6074 28.5324C33.6074 27.8599 33.4916 27.2486 33.26 26.6984C33.0406 26.136 32.7297 25.6592 32.3274 25.268C31.9373 24.8768 31.4741 24.5711 30.9377 24.351C30.4135 24.131 29.8467 24.0209 29.2371 24.0209C28.6276 24.0209 28.0547 24.131 27.5183 24.351C26.9941 24.5711 26.5309 24.8768 26.1286 25.268C25.7385 25.6592 25.4276 26.136 25.196 26.6984C24.9766 27.2486 24.8669 27.8599 24.8669 28.5324C24.8669 29.2048 24.9766 29.8222 25.196 30.3846C25.4276 30.9348 25.7385 31.4055 26.1286 31.7967C26.5309 32.188 26.9941 32.4936 27.5183 32.7137C28.0547 32.9337 28.6276 33.0438 29.2371 33.0438Z" fill="black"/>
<path d="M38.074 35.0978V21.9669H42.6819C43.3037 21.9669 43.8827 22.0709 44.4191 22.2787C44.9676 22.4743 45.4431 22.7555 45.8454 23.1223C46.2476 23.4891 46.5646 23.9292 46.7962 24.4427C47.0278 24.944 47.1436 25.5003 47.1436 26.1116C47.1436 26.7351 47.0278 27.3036 46.7962 27.8171C46.5646 28.3184 46.2476 28.7524 45.8454 29.1192C45.4431 29.486 44.9676 29.7733 44.4191 29.9811C43.8827 30.1768 43.3037 30.2746 42.6819 30.2746H40.5425V35.0978H38.074ZM42.7185 27.9272C43.3646 27.9272 43.8522 27.7438 44.1814 27.377C44.5105 27.0102 44.6751 26.5884 44.6751 26.1116C44.6751 25.8793 44.6324 25.6531 44.5471 25.433C44.4739 25.213 44.352 25.0235 44.1814 24.8645C44.0229 24.6934 43.8217 24.5589 43.5779 24.4611C43.3341 24.3633 43.0477 24.3143 42.7185 24.3143H40.5425V27.9272H42.7185Z" fill="black"/>
<path d="M51.3639 24.3143V27.3586H56.6119V29.7061H51.3639V32.7503H57.197V35.0978H48.8953V21.9669H57.197V24.3143H51.3639Z" fill="black"/>
<path d="M59.4667 21.9669H64.2393C64.8975 21.9669 65.4949 22.0709 66.0313 22.2787C66.5676 22.4865 67.0248 22.7739 67.4027 23.1406C67.7928 23.5074 68.0914 23.9476 68.2987 24.4611C68.5059 24.9623 68.6095 25.5125 68.6095 26.1116C68.6095 26.5517 68.5364 26.9674 68.3901 27.3586C68.2438 27.7377 68.0427 28.0861 67.7867 28.404C67.5307 28.7096 67.232 28.9847 66.8907 29.2292C66.5494 29.4615 66.1897 29.6449 65.8118 29.7794L65.7935 29.9078L69.3044 34.951V35.0978H66.4701L63.0873 30.1645H61.9353V35.0978H59.4667V21.9669ZM64.221 27.8905C64.7817 27.8905 65.2389 27.7193 65.5924 27.377C65.9581 27.0347 66.141 26.6006 66.141 26.0749C66.141 25.8426 66.0983 25.6164 66.013 25.3964C65.9398 25.1763 65.824 24.9807 65.6655 24.8095C65.5071 24.6383 65.3059 24.5039 65.0621 24.406C64.8305 24.296 64.5623 24.241 64.2576 24.241H61.9353V27.8905H64.221Z" fill="black"/>
<path d="M74.8238 35.0978V21.9669H79.4318C80.0535 21.9669 80.6325 22.0709 81.1689 22.2787C81.7175 22.4743 82.1929 22.7555 82.5952 23.1223C82.9975 23.4891 83.3144 23.9292 83.546 24.4427C83.7777 24.944 83.8935 25.5003 83.8935 26.1116C83.8935 26.7351 83.7777 27.3036 83.546 27.8171C83.3144 28.3184 82.9975 28.7524 82.5952 29.1192C82.1929 29.486 81.7175 29.7733 81.1689 29.9811C80.6325 30.1768 80.0535 30.2746 79.4318 30.2746H77.2923V35.0978H74.8238ZM79.4683 27.9272C80.1144 27.9272 80.602 27.7438 80.9312 27.377C81.2603 27.0102 81.4249 26.5884 81.4249 26.1116C81.4249 25.8793 81.3822 25.6531 81.2969 25.433C81.2238 25.213 81.1019 25.0235 80.9312 24.8645C80.7727 24.6934 80.5716 24.5589 80.3278 24.4611C80.084 24.3633 79.7975 24.3143 79.4683 24.3143H77.2923V27.9272H79.4683Z" fill="black"/>
<path d="M85.6452 21.9669H90.4177C91.076 21.9669 91.6733 22.0709 92.2097 22.2787C92.7461 22.4865 93.2032 22.7739 93.5811 23.1406C93.9712 23.5074 94.2699 23.9476 94.4771 24.4611C94.6844 24.9623 94.788 25.5125 94.788 26.1116C94.788 26.5517 94.7148 26.9674 94.5686 27.3586C94.4223 27.7377 94.2211 28.0861 93.9651 28.404C93.7091 28.7096 93.4105 28.9847 93.0691 29.2292C92.7278 29.4615 92.3682 29.6449 91.9903 29.7794L91.972 29.9078L95.4828 34.951V35.0978H92.6486L89.2657 30.1645H88.1137V35.0978H85.6452V21.9669ZM90.3994 27.8905C90.9602 27.8905 91.4173 27.7193 91.7709 27.377C92.1366 27.0347 92.3194 26.6006 92.3194 26.0749C92.3194 25.8426 92.2768 25.6164 92.1914 25.3964C92.1183 25.1763 92.0025 24.9807 91.844 24.8095C91.6855 24.6383 91.4844 24.5039 91.2406 24.406C91.009 24.296 90.7408 24.241 90.436 24.241H88.1137V27.8905H90.3994Z" fill="black"/>
<path d="M103.183 35.3912C102.208 35.3912 101.3 35.2139 100.459 34.8594C99.6297 34.5048 98.9105 34.0219 98.301 33.4106C97.6914 32.787 97.2099 32.0596 96.8564 31.2282C96.5151 30.3846 96.3444 29.486 96.3444 28.5324C96.3444 27.5787 96.5151 26.6862 96.8564 25.8548C97.2099 25.0112 97.6914 24.2838 98.301 23.6725C98.9105 23.0489 99.6297 22.5599 100.459 22.2054C101.3 21.8508 102.208 21.6735 103.183 21.6735C104.158 21.6735 105.061 21.8508 105.89 22.2054C106.731 22.5599 107.456 23.0489 108.065 23.6725C108.675 24.2838 109.15 25.0112 109.492 25.8548C109.845 26.6862 110.022 27.5787 110.022 28.5324C110.022 29.486 109.845 30.3846 109.492 31.2282C109.15 32.0596 108.675 32.787 108.065 33.4106C107.456 34.0219 106.731 34.5048 105.89 34.8594C105.061 35.2139 104.158 35.3912 103.183 35.3912ZM103.183 33.0438C103.793 33.0438 104.36 32.9337 104.884 32.7137C105.42 32.4936 105.883 32.188 106.273 31.7967C106.676 31.4055 106.987 30.9348 107.206 30.3846C107.438 29.8222 107.553 29.2048 107.553 28.5324C107.553 27.8599 107.438 27.2486 107.206 26.6984C106.987 26.136 106.676 25.6592 106.273 25.268C105.883 24.8768 105.42 24.5711 104.884 24.351C104.36 24.131 103.793 24.0209 103.183 24.0209C102.574 24.0209 102.001 24.131 101.464 24.351C100.94 24.5711 100.477 24.8768 100.075 25.268C99.6846 25.6592 99.3737 26.136 99.1421 26.6984C98.9227 27.2486 98.813 27.8599 98.813 28.5324C98.813 29.2048 98.9227 29.8222 99.1421 30.3846C99.3737 30.9348 99.6846 31.4055 100.075 31.7967C100.477 32.188 100.94 32.4936 101.464 32.7137C102.001 32.9337 102.574 33.0438 103.183 33.0438Z" fill="black"/>
<path d="M114.246 35.0978V24.3143H110.589V21.9669H120.372V24.3143H116.714V35.0978H114.246Z" fill="black"/>
<path d="M124.596 24.3143V27.3586H129.844V29.7061H124.596V32.7503H130.429V35.0978H122.127V21.9669H130.429V24.3143H124.596Z" fill="black"/>
<path d="M143.788 32.9888C143.142 33.7712 142.38 34.3703 141.502 34.786C140.625 35.1895 139.643 35.3912 138.558 35.3912C137.583 35.3912 136.675 35.2139 135.834 34.8594C135.005 34.5048 134.286 34.0219 133.676 33.4106C133.067 32.7993 132.585 32.0779 132.232 31.2465C131.878 30.4029 131.701 29.4982 131.701 28.5324C131.701 27.5665 131.878 26.6679 132.232 25.8365C132.585 24.9929 133.067 24.2654 133.676 23.6541C134.286 23.0428 135.005 22.5599 135.834 22.2054C136.675 21.8508 137.583 21.6735 138.558 21.6735C139.607 21.6735 140.527 21.8569 141.32 22.2237C142.124 22.5905 142.837 23.1223 143.459 23.8192L141.722 25.5064C141.332 25.054 140.881 24.6934 140.369 24.4244C139.869 24.1554 139.272 24.0209 138.577 24.0209C137.967 24.0209 137.394 24.131 136.858 24.351C136.322 24.5589 135.852 24.8584 135.45 25.2496C135.06 25.6409 134.749 26.1177 134.517 26.6801C134.286 27.2303 134.17 27.8477 134.17 28.5324C134.17 29.217 134.286 29.8405 134.517 30.4029C134.749 30.9531 135.06 31.4238 135.45 31.8151C135.852 32.2063 136.322 32.5119 136.858 32.732C137.394 32.9399 137.967 33.0438 138.577 33.0438C139.308 33.0438 139.954 32.8971 140.515 32.6036C141.088 32.298 141.594 31.8701 142.033 31.3199L143.788 32.9888Z" fill="black"/>
<path d="M148.549 35.0978V24.3143H144.892V21.9669H154.675V24.3143H151.018V35.0978H148.549Z" fill="black"/>
<path d="M156.431 21.9669H158.899V35.0978H156.431V21.9669Z" fill="black"/>
<path d="M160.173 21.9669H162.842L165.549 29.8711L166.024 31.5583H166.17L166.682 29.8711L169.498 21.9669H172.168L167.395 35.0978H164.799L160.173 21.9669Z" fill="black"/>
<path d="M176.167 24.3143V27.3586H181.415V29.7061H176.167V32.7503H182V35.0978H173.698V21.9669H182V24.3143H176.167Z" fill="black"/>
<path d="M3.34627 45.9879V49.0322H8.59425V51.3796H3.34627V54.4239H9.17939V56.7713H0.87771V43.6405H9.17939V45.9879H3.34627Z" fill="black"/>
<path d="M20.125 56.4779C19.6984 56.6612 19.2473 56.8018 18.7719 56.8997C18.2965 57.0097 17.8028 57.0647 17.2908 57.0647C16.3155 57.0647 15.4074 56.8874 14.5662 56.5329C13.7373 56.1783 13.018 55.6954 12.4085 55.0841C11.799 54.4605 11.3175 53.7331 10.9639 52.9017C10.6226 52.0581 10.452 51.1595 10.452 50.2059C10.452 49.2522 10.6226 48.3597 10.9639 47.5284C11.3175 46.6848 11.799 45.9573 12.4085 45.346C13.018 44.7225 13.7373 44.2334 14.5662 43.8789C15.4074 43.5243 16.3155 43.347 17.2908 43.347C18.266 43.347 19.1681 43.5243 19.997 43.8789C20.8382 44.2334 21.5635 44.7225 22.173 45.346C22.7826 45.9573 23.258 46.6848 23.5993 47.5284C23.9528 48.3597 24.1296 49.2522 24.1296 50.2059C24.1296 51.2206 23.9406 52.162 23.5627 53.0301C23.1848 53.8981 22.6546 54.6439 21.9719 55.2675L22.9776 56.7713L21.149 58L20.125 56.4779ZM17.3456 52.2965L19.1742 51.0495L20.6005 53.2135C20.9296 52.8345 21.1856 52.3943 21.3685 51.8931C21.5635 51.3796 21.661 50.8172 21.661 50.2059C21.661 49.5334 21.5452 48.9221 21.3136 48.372C21.0942 47.8096 20.7833 47.3327 20.381 46.9415C19.991 46.5503 19.5277 46.2446 18.9913 46.0245C18.4672 45.8045 17.9003 45.6944 17.2908 45.6944C16.6813 45.6944 16.1083 45.8045 15.5719 46.0245C15.0477 46.2446 14.5845 46.5503 14.1822 46.9415C13.7921 47.3327 13.4813 47.8096 13.2497 48.372C13.0302 48.9221 12.9205 49.5334 12.9205 50.2059C12.9205 50.8783 13.0302 51.4957 13.2497 52.0581C13.4813 52.6083 13.7921 53.079 14.1822 53.4702C14.5845 53.8615 15.0477 54.1671 15.5719 54.3872C16.1083 54.6073 16.6813 54.7173 17.2908 54.7173C17.559 54.7173 17.815 54.6928 18.0588 54.6439C18.3026 54.595 18.5403 54.5278 18.7719 54.4422L17.3456 52.2965Z" fill="black"/>
<path d="M30.9184 57.0647C30.1504 57.0647 29.4495 56.9424 28.8156 56.6979C28.1939 56.4412 27.6636 56.0744 27.2247 55.5976C26.7859 55.1208 26.4445 54.5461 26.2007 53.8737C25.9569 53.189 25.835 52.4127 25.835 51.5446V43.6405H28.3036V51.6913C28.3036 52.1315 28.3584 52.5349 28.4682 52.9017C28.5779 53.2685 28.7424 53.5864 28.9619 53.8554C29.1813 54.1243 29.4556 54.3383 29.7847 54.4972C30.1139 54.6439 30.4918 54.7173 30.9184 54.7173C31.3573 54.7173 31.7413 54.6439 32.0704 54.4972C32.3996 54.3383 32.6738 54.1243 32.8933 53.8554C33.1127 53.5864 33.2773 53.2685 33.387 52.9017C33.4967 52.5349 33.5516 52.1315 33.5516 51.6913V43.6405H36.0201V51.5446C36.0201 52.3638 35.8982 53.1157 35.6544 53.8003C35.4228 54.4728 35.0815 55.0535 34.6304 55.5426C34.1916 56.0194 33.6552 56.3923 33.0213 56.6612C32.3996 56.9302 31.6986 57.0647 30.9184 57.0647Z" fill="black"/>
<path d="M38.3597 43.6405H40.8282V56.7713H38.3597V43.6405Z" fill="black"/>
<path d="M43.4668 56.7713V43.6405H48.0748C48.6965 43.6405 49.2755 43.7444 49.8119 43.9522C50.3605 44.1478 50.8359 44.429 51.2382 44.7958C51.6405 45.1626 51.9574 45.6027 52.189 46.1162C52.4207 46.6175 52.5365 47.1738 52.5365 47.7851C52.5365 48.4086 52.4207 48.9771 52.189 49.4906C51.9574 49.9919 51.6405 50.4259 51.2382 50.7927C50.8359 51.1595 50.3605 51.4468 49.8119 51.6547C49.2755 51.8503 48.6965 51.9481 48.0748 51.9481H45.9354V56.7713H43.4668ZM48.1113 49.6007C48.7574 49.6007 49.2451 49.4173 49.5742 49.0505C49.9033 48.6837 50.0679 48.2619 50.0679 47.7851C50.0679 47.5528 50.0252 47.3266 49.9399 47.1066C49.8668 46.8865 49.7449 46.697 49.5742 46.538C49.4157 46.3669 49.2146 46.2324 48.9708 46.1346C48.727 46.0368 48.4405 45.9879 48.1113 45.9879H45.9354V49.6007H48.1113Z" fill="black"/>
<path d="M54.2882 43.6405H56.7202L60.7247 50.591H60.871L64.8755 43.6405H67.3258V56.7713H64.8755V50.2976L65.0218 48.0969H64.8755L61.5476 53.9837H60.0664L56.7202 48.0969H56.5739L56.7202 50.2976V56.7713H54.2882V43.6405Z" fill="black"/>
<path d="M72.4352 45.9879V49.0322H77.6832V51.3796H72.4352V54.4239H78.2683V56.7713H69.9667V43.6405H78.2683V45.9879H72.4352Z" fill="black"/>
<path d="M80.538 43.6405H83.4089L88.6752 52.4432H88.8214L88.6752 49.9124V43.6405H91.1254V56.7713H88.5289L82.97 47.4733H82.8238L82.97 50.0041V56.7713H80.538V43.6405Z" fill="black"/>
<path d="M96.5317 56.7713V45.9879H92.8746V43.6405H102.657V45.9879H99.0002V56.7713H96.5317Z" fill="black"/>
<path fill-rule="evenodd" clip-rule="evenodd" d="M42.7847 93.0991C42.7847 93.162 42.054 93.1982 40.7834 93.1982C39.5128 93.1982 38.7822 93.2344 38.7822 93.2973C38.7822 93.3592 38.2104 93.3964 37.2574 93.3964C36.3045 93.3964 35.7327 93.4336 35.7327 93.4955C35.7327 93.5564 35.2562 93.5946 34.4938 93.5946C33.7314 93.5946 33.255 93.6327 33.255 93.6937C33.255 93.7537 32.842 93.7928 32.2067 93.7928C31.5713 93.7928 31.1584 93.8318 31.1584 93.8919C31.1584 93.9507 30.809 93.991 30.3007 93.991C29.7925 93.991 29.4431 94.0313 29.4431 94.0901C29.4431 94.1479 29.1254 94.1892 28.6807 94.1892C28.2359 94.1892 27.9183 94.2305 27.9183 94.2883C27.9183 94.3461 27.6007 94.3874 27.1559 94.3874C26.7112 94.3874 26.3936 94.4287 26.3936 94.4865C26.3936 94.5431 26.1077 94.5856 25.7265 94.5856C25.3453 94.5856 25.0594 94.6281 25.0594 94.6847C25.0594 94.7398 24.8052 94.7838 24.4876 94.7838C24.17 94.7838 23.9158 94.8278 23.9158 94.8829C23.9158 94.938 23.6617 94.982 23.3441 94.982C23.0264 94.982 22.7723 95.026 22.7723 95.0811C22.7723 95.1356 22.5579 95.1802 22.2958 95.1802C22.0337 95.1802 21.8193 95.2248 21.8193 95.2793C21.8193 95.3338 21.6478 95.3784 21.4381 95.3784C21.2285 95.3784 21.0569 95.423 21.0569 95.4775C21.0569 95.532 20.8854 95.5766 20.6757 95.5766C20.4661 95.5766 20.2946 95.6212 20.2946 95.6757C20.2946 95.7302 20.2088 95.7748 20.104 95.7748C19.9991 95.7748 19.9134 95.8194 19.9134 95.8739C19.9134 95.9284 19.8276 95.973 19.7228 95.973C19.6179 95.973 19.5322 96.0176 19.5322 96.0721C19.5322 96.1266 19.4464 96.1712 19.3416 96.1712C19.2368 96.1712 19.151 96.2158 19.151 96.2703C19.151 96.3248 19.086 96.3694 19.0065 96.3694C18.8308 96.3694 17.4356 97.8008 17.4356 97.981C17.4356 98.0517 17.3499 98.1737 17.245 98.2523C17.1402 98.3308 17.0545 98.4744 17.0545 98.5715C17.0545 98.6684 17.0116 98.7477 16.9592 98.7477C16.9067 98.7477 16.8639 98.8369 16.8639 98.9459C16.8639 99.055 16.821 99.1441 16.7686 99.1441C16.7162 99.1441 16.6733 99.2779 16.6733 99.4414C16.6733 99.605 16.6304 99.7387 16.578 99.7387C16.5256 99.7387 16.4827 99.9617 16.4827 100.234C16.4827 100.507 16.4398 100.73 16.3874 100.73C16.3309 100.73 16.2921 101.093 16.2921 101.622V102.514H15.9109C15.7012 102.514 15.5297 102.558 15.5297 102.613C15.5297 102.667 15.3582 102.712 15.1485 102.712C14.9389 102.712 14.7673 102.756 14.7673 102.811C14.7673 102.865 14.6387 102.91 14.4814 102.91C14.3242 102.91 14.1955 102.955 14.1955 103.009C14.1955 103.064 14.0669 103.108 13.9097 103.108C13.7524 103.108 13.6238 103.153 13.6238 103.207C13.6238 103.262 13.538 103.306 13.4332 103.306C13.3283 103.306 13.2426 103.351 13.2426 103.405C13.2426 103.46 13.1568 103.505 13.052 103.505C12.9472 103.505 12.8614 103.549 12.8614 103.604C12.8614 103.658 12.7756 103.703 12.6708 103.703C12.566 103.703 12.4802 103.747 12.4802 103.802C12.4802 103.856 12.4039 103.901 12.3107 103.901C12.2174 103.901 12.0793 103.99 12.0037 104.099C11.9281 104.208 11.7995 104.297 11.7178 104.297C11.6362 104.297 11.5075 104.386 11.4319 104.495C11.3564 104.605 11.2364 104.694 11.1652 104.694C11.094 104.694 10.871 104.872 10.6696 105.09C10.4681 105.308 10.2562 105.486 10.1985 105.486C10.0618 105.486 9.0495 106.539 9.0495 106.681C9.0495 106.741 8.87797 106.962 8.66832 107.171C8.45866 107.381 8.28713 107.613 8.28713 107.687C8.28713 107.761 8.20136 107.885 8.09653 107.964C7.99171 108.043 7.90594 108.186 7.90594 108.283C7.90594 108.38 7.86306 108.459 7.81064 108.459C7.75823 108.459 7.71535 108.539 7.71535 108.636C7.71535 108.733 7.62958 108.876 7.52475 108.955C7.41993 109.034 7.33416 109.177 7.33416 109.274C7.33416 109.371 7.29127 109.45 7.23886 109.45C7.18645 109.45 7.14356 109.584 7.14356 109.748C7.14356 109.911 7.10068 110.045 7.04827 110.045C6.99585 110.045 6.95297 110.134 6.95297 110.243C6.95297 110.352 6.91009 110.441 6.85767 110.441C6.80526 110.441 6.76238 110.575 6.76238 110.739C6.76238 110.902 6.71949 111.036 6.66708 111.036C6.61467 111.036 6.57178 111.214 6.57178 111.432C6.57178 111.65 6.5289 111.829 6.47649 111.829C6.42407 111.829 6.38119 112.007 6.38119 112.225C6.38119 112.443 6.3383 112.622 6.28589 112.622C6.23148 112.622 6.19059 112.919 6.19059 113.315C6.19059 113.712 6.14971 114.009 6.0953 114.009C6.03812 114.009 6 114.405 6 115C6 115.595 6.03812 115.991 6.0953 115.991C6.14971 115.991 6.19059 116.288 6.19059 116.685C6.19059 117.081 6.23148 117.378 6.28589 117.378C6.3383 117.378 6.38119 117.601 6.38119 117.874C6.38119 118.146 6.42407 118.369 6.47649 118.369C6.5289 118.369 6.57178 118.503 6.57178 118.667C6.57178 118.83 6.61467 118.964 6.66708 118.964C6.71949 118.964 6.76238 119.098 6.76238 119.261C6.76238 119.425 6.80526 119.559 6.85767 119.559C6.91009 119.559 6.95297 119.648 6.95297 119.757C6.95297 119.866 6.99585 119.955 7.04827 119.955C7.10068 119.955 7.14356 120.044 7.14356 120.153C7.14356 120.262 7.18645 120.351 7.23886 120.351C7.29127 120.351 7.33416 120.475 7.33416 120.627C7.33416 120.788 7.41287 120.961 7.52475 121.045C7.62958 121.124 7.71535 121.267 7.71535 121.364C7.71535 121.461 7.75823 121.541 7.81064 121.541C7.86306 121.541 7.90594 121.62 7.90594 121.717C7.90594 121.814 7.99171 121.957 8.09653 122.036C8.20136 122.115 8.28713 122.239 8.28713 122.313C8.28713 122.387 8.45866 122.619 8.66832 122.829C8.87797 123.038 9.0495 123.259 9.0495 123.319C9.0495 123.461 10.0618 124.514 10.1985 124.514C10.2562 124.514 10.4681 124.692 10.6696 124.91C10.871 125.128 11.0863 125.306 11.1479 125.306C11.2097 125.306 11.3804 125.44 11.5272 125.604C11.6741 125.767 11.8629 125.901 11.9466 125.901C12.0305 125.901 12.099 125.945 12.099 126C12.099 126.055 12.1848 126.099 12.2896 126.099C12.3944 126.099 12.4802 126.144 12.4802 126.198C12.4802 126.253 12.566 126.297 12.6708 126.297C12.7756 126.297 12.8614 126.342 12.8614 126.396C12.8614 126.451 12.9472 126.495 13.052 126.495C13.1568 126.495 13.2426 126.54 13.2426 126.595C13.2426 126.649 13.3283 126.694 13.4332 126.694C13.538 126.694 13.6238 126.738 13.6238 126.793C13.6238 126.847 13.7524 126.892 13.9097 126.892C14.0669 126.892 14.1955 126.936 14.1955 126.991C14.1955 127.045 14.3242 127.09 14.4814 127.09C14.6387 127.09 14.7673 127.135 14.7673 127.189C14.7673 127.244 14.896 127.288 15.0532 127.288C15.2105 127.288 15.3391 127.333 15.3391 127.387C15.3391 127.442 15.5535 127.486 15.8156 127.486H16.2921V128.378C16.2921 128.907 16.3309 129.27 16.3874 129.27C16.4398 129.27 16.4827 129.493 16.4827 129.766C16.4827 130.038 16.5256 130.261 16.578 130.261C16.6304 130.261 16.6733 130.395 16.6733 130.559C16.6733 130.722 16.7162 130.856 16.7686 130.856C16.821 130.856 16.8639 130.945 16.8639 131.054C16.8639 131.163 16.9067 131.252 16.9592 131.252C17.0116 131.252 17.0545 131.341 17.0545 131.45C17.0545 131.559 17.0973 131.649 17.1498 131.649C17.2022 131.649 17.245 131.716 17.245 131.799C17.245 131.994 18.8186 133.631 19.0067 133.631C19.0861 133.631 19.151 133.675 19.151 133.73C19.151 133.784 19.2273 133.829 19.3205 133.829C19.4138 133.829 19.5519 133.918 19.6275 134.027C19.7082 134.143 19.8742 134.225 20.0297 134.225C20.1753 134.225 20.2946 134.27 20.2946 134.324C20.2946 134.379 20.4661 134.423 20.6757 134.423C20.8854 134.423 21.0569 134.468 21.0569 134.523C21.0569 134.577 21.2285 134.622 21.4381 134.622C21.6478 134.622 21.8193 134.666 21.8193 134.721C21.8193 134.775 22.0337 134.82 22.2958 134.82C22.5579 134.82 22.7723 134.864 22.7723 134.919C22.7723 134.974 23.0264 135.018 23.3441 135.018C23.6617 135.018 23.9158 135.062 23.9158 135.117C23.9158 135.172 24.17 135.216 24.4876 135.216C24.8052 135.216 25.0594 135.26 25.0594 135.315C25.0594 135.372 25.3453 135.414 25.7265 135.414C26.1077 135.414 26.3936 135.457 26.3936 135.514C26.3936 135.57 26.6795 135.613 27.0606 135.613C27.4418 135.613 27.7277 135.655 27.7277 135.712C27.7277 135.77 28.0772 135.811 28.5854 135.811C29.0936 135.811 29.4431 135.851 29.4431 135.91C29.4431 135.969 29.7925 136.009 30.3007 136.009C30.809 136.009 31.1584 136.049 31.1584 136.108C31.1584 136.168 31.5713 136.207 32.2067 136.207C32.842 136.207 33.255 136.246 33.255 136.306C33.255 136.367 33.7314 136.405 34.4938 136.405C35.2562 136.405 35.7327 136.444 35.7327 136.505C35.7327 136.566 36.2727 136.604 37.1621 136.604C38.0515 136.604 38.5916 136.641 38.5916 136.703C38.5916 136.766 39.3222 136.802 40.5928 136.802C41.8634 136.802 42.5941 136.838 42.5941 136.901C42.5941 136.964 43.2929 137 44.5 137C45.7071 137 46.4059 136.964 46.4059 136.901C46.4059 136.838 47.1366 136.802 48.4072 136.802C49.6778 136.802 50.4084 136.766 50.4084 136.703C50.4084 136.641 50.9485 136.604 51.8379 136.604C52.7273 136.604 53.2673 136.566 53.2673 136.505C53.2673 136.444 53.7438 136.405 54.5062 136.405C55.2686 136.405 55.7451 136.367 55.7451 136.306C55.7451 136.246 56.158 136.207 56.7933 136.207C57.4287 136.207 57.8416 136.168 57.8416 136.108C57.8416 136.049 58.2228 136.009 58.7946 136.009C59.3663 136.009 59.7475 135.969 59.7475 135.91C59.7475 135.852 60.0652 135.811 60.5099 135.811C60.9547 135.811 61.2723 135.769 61.2723 135.712C61.2723 135.655 61.5582 135.613 61.9394 135.613C62.3205 135.613 62.6064 135.57 62.6064 135.514C62.6064 135.457 62.8923 135.414 63.2735 135.414C63.6547 135.414 63.9406 135.372 63.9406 135.315C63.9406 135.26 64.1948 135.216 64.5124 135.216C64.83 135.216 65.0842 135.172 65.0842 135.117C65.0842 135.062 65.3383 135.018 65.6559 135.018C65.9736 135.018 66.2277 134.974 66.2277 134.919C66.2277 134.864 66.4421 134.82 66.7042 134.82C66.9663 134.82 67.1807 134.775 67.1807 134.721C67.1807 134.666 67.3522 134.622 67.5619 134.622C67.7715 134.622 67.9431 134.577 67.9431 134.523C67.9431 134.468 68.1146 134.423 68.3243 134.423C68.5339 134.423 68.7054 134.379 68.7054 134.324C68.7054 134.27 68.7912 134.225 68.896 134.225C69.0009 134.225 69.0866 134.181 69.0866 134.126C69.0866 134.072 69.1724 134.027 69.2772 134.027C69.3821 134.027 69.4678 133.982 69.4678 133.928C69.4678 133.873 69.5536 133.829 69.6584 133.829C69.7632 133.829 69.849 133.784 69.849 133.73C69.849 133.675 69.9139 133.631 69.9933 133.631C70.1814 133.631 71.755 131.994 71.755 131.799C71.755 131.716 71.7978 131.649 71.8502 131.649C71.9027 131.649 71.9455 131.559 71.9455 131.45C71.9455 131.341 71.9884 131.252 72.0408 131.252C72.0933 131.252 72.1361 131.163 72.1361 131.054C72.1361 130.945 72.179 130.856 72.2314 130.856C72.2838 130.856 72.3267 130.722 72.3267 130.559C72.3267 130.395 72.3696 130.261 72.422 130.261C72.4744 130.261 72.5173 130.083 72.5173 129.865C72.5173 129.647 72.5602 129.468 72.6126 129.468C72.6698 129.468 72.7079 129.072 72.7079 128.477V127.486H73.1844C73.4465 127.486 73.6609 127.442 73.6609 127.387C73.6609 127.333 73.7895 127.288 73.9468 127.288C74.104 127.288 74.2327 127.244 74.2327 127.189C74.2327 127.135 74.3613 127.09 74.5186 127.09C74.6758 127.09 74.8045 127.045 74.8045 126.991C74.8045 126.936 74.9331 126.892 75.0903 126.892C75.2476 126.892 75.3762 126.847 75.3762 126.793C75.3762 126.738 75.462 126.694 75.5668 126.694C75.6717 126.694 75.7574 126.649 75.7574 126.595C75.7574 126.54 75.8432 126.495 75.948 126.495C76.0528 126.495 76.1386 126.451 76.1386 126.396C76.1386 126.342 76.2244 126.297 76.3292 126.297C76.434 126.297 76.5198 126.253 76.5198 126.198C76.5198 126.144 76.6056 126.099 76.7104 126.099C76.8152 126.099 76.901 126.055 76.901 126C76.901 125.945 76.9773 125.901 77.0705 125.901C77.1638 125.901 77.3019 125.812 77.3775 125.703C77.453 125.594 77.574 125.505 77.6462 125.505C77.7184 125.505 77.8977 125.371 78.0446 125.207C78.1914 125.044 78.3594 124.91 78.4178 124.91C78.5553 124.91 79.9505 123.461 79.9505 123.318C79.9505 123.259 80.122 123.038 80.3317 122.829C80.5413 122.619 80.7129 122.387 80.7129 122.313C80.7129 122.239 80.7986 122.115 80.9035 122.036C81.0083 121.957 81.0941 121.814 81.0941 121.717C81.0941 121.62 81.1369 121.541 81.1894 121.541C81.2418 121.541 81.2847 121.461 81.2847 121.364C81.2847 121.267 81.3704 121.124 81.4752 121.045C81.5801 120.966 81.6658 120.823 81.6658 120.726C81.6658 120.629 81.7087 120.55 81.7611 120.55C81.8136 120.55 81.8564 120.46 81.8564 120.351C81.8564 120.242 81.8993 120.153 81.9517 120.153C82.0041 120.153 82.047 120.019 82.047 119.856C82.047 119.692 82.0899 119.559 82.1423 119.559C82.1947 119.559 82.2376 119.425 82.2376 119.261C82.2376 119.098 82.2805 118.964 82.3329 118.964C82.3853 118.964 82.4282 118.83 82.4282 118.667C82.4282 118.503 82.4711 118.369 82.5235 118.369C82.5759 118.369 82.6188 118.146 82.6188 117.874C82.6188 117.601 82.6617 117.378 82.7141 117.378C82.7671 117.378 82.8094 117.114 82.8094 116.784C82.8094 116.453 82.8517 116.189 82.9047 116.189C82.9629 116.189 83 115.727 83 115C83 114.273 82.9629 113.811 82.9047 113.811C82.8517 113.811 82.8094 113.547 82.8094 113.216C82.8094 112.886 82.7671 112.622 82.7141 112.622C82.6617 112.622 82.6188 112.399 82.6188 112.126C82.6188 111.854 82.5759 111.631 82.5235 111.631C82.4711 111.631 82.4282 111.497 82.4282 111.333C82.4282 111.17 82.3853 111.036 82.3329 111.036C82.2805 111.036 82.2376 110.902 82.2376 110.739C82.2376 110.575 82.1947 110.441 82.1423 110.441C82.0899 110.441 82.047 110.317 82.047 110.166C82.047 110.004 81.9683 109.832 81.8564 109.748C81.7446 109.664 81.6658 109.491 81.6658 109.329C81.6658 109.178 81.623 109.054 81.5705 109.054C81.5181 109.054 81.4752 108.975 81.4752 108.878C81.4752 108.781 81.3895 108.637 81.2847 108.559C81.1798 108.48 81.0941 108.346 81.0941 108.261C81.0941 108.176 81.0083 108.043 80.9035 107.964C80.7986 107.885 80.7129 107.76 80.7129 107.685C80.7129 107.609 80.5842 107.423 80.427 107.27C80.2697 107.118 80.1411 106.943 80.1411 106.882C80.1411 106.738 78.7471 105.288 78.6084 105.288C78.55 105.288 78.382 105.155 78.2351 104.991C78.0883 104.827 77.9089 104.694 77.8368 104.694C77.7646 104.694 77.6436 104.605 77.5681 104.495C77.4925 104.386 77.3638 104.297 77.2822 104.297C77.2005 104.297 77.0719 104.208 76.9963 104.099C76.9207 103.99 76.7826 103.901 76.6893 103.901C76.5961 103.901 76.5198 103.856 76.5198 103.802C76.5198 103.747 76.434 103.703 76.3292 103.703C76.2244 103.703 76.1386 103.658 76.1386 103.604C76.1386 103.549 76.0528 103.505 75.948 103.505C75.8432 103.505 75.7574 103.46 75.7574 103.405C75.7574 103.351 75.6717 103.306 75.5668 103.306C75.462 103.306 75.3762 103.262 75.3762 103.207C75.3762 103.153 75.2476 103.108 75.0903 103.108C74.9331 103.108 74.8045 103.064 74.8045 103.009C74.8045 102.955 74.6758 102.91 74.5186 102.91C74.3613 102.91 74.2327 102.865 74.2327 102.811C74.2327 102.756 74.0611 102.712 73.8515 102.712C73.6418 102.712 73.4703 102.667 73.4703 102.613C73.4703 102.558 73.2988 102.514 73.0891 102.514H72.7079V101.622C72.7079 101.093 72.6691 100.73 72.6126 100.73C72.5602 100.73 72.5173 100.507 72.5173 100.234C72.5173 99.9617 72.4744 99.7387 72.422 99.7387C72.3696 99.7387 72.3267 99.605 72.3267 99.4414C72.3267 99.2779 72.2838 99.1441 72.2314 99.1441C72.179 99.1441 72.1361 99.055 72.1361 98.9459C72.1361 98.8369 72.0933 98.7477 72.0408 98.7477C71.9884 98.7477 71.9455 98.6684 71.9455 98.5715C71.9455 98.4744 71.8598 98.3308 71.755 98.2523C71.6501 98.1737 71.5644 98.0517 71.5644 97.981C71.5644 97.8008 70.1692 96.3694 69.9935 96.3694C69.914 96.3694 69.849 96.3248 69.849 96.2703C69.849 96.2158 69.7632 96.1712 69.6584 96.1712C69.5536 96.1712 69.4678 96.1266 69.4678 96.0721C69.4678 96.0176 69.3821 95.973 69.2772 95.973C69.1724 95.973 69.0866 95.9284 69.0866 95.8739C69.0866 95.8194 69.0009 95.7748 68.896 95.7748C68.7912 95.7748 68.7054 95.7302 68.7054 95.6757C68.7054 95.6212 68.5339 95.5766 68.3243 95.5766C68.1146 95.5766 67.9431 95.532 67.9431 95.4775C67.9431 95.423 67.7287 95.3784 67.4666 95.3784C67.2045 95.3784 66.9901 95.3338 66.9901 95.2793C66.9901 95.2248 66.7757 95.1802 66.5136 95.1802C66.2515 95.1802 66.0371 95.1356 66.0371 95.0811C66.0371 95.0266 65.8227 94.982 65.5606 94.982C65.2986 94.982 65.0842 94.9374 65.0842 94.8829C65.0842 94.8278 64.83 94.7838 64.5124 94.7838C64.1948 94.7838 63.9406 94.7398 63.9406 94.6847C63.9406 94.6281 63.6547 94.5856 63.2735 94.5856C62.8923 94.5856 62.6064 94.5431 62.6064 94.4865C62.6064 94.4299 62.3205 94.3874 61.9394 94.3874C61.5582 94.3874 61.2723 94.3449 61.2723 94.2883C61.2723 94.2295 60.9228 94.1892 60.4146 94.1892C59.9064 94.1892 59.5569 94.1489 59.5569 94.0901C59.5569 94.0313 59.2075 93.991 58.6993 93.991C58.191 93.991 57.8416 93.9507 57.8416 93.8919C57.8416 93.8318 57.4287 93.7928 56.7933 93.7928C56.158 93.7928 55.7451 93.7537 55.7451 93.6937C55.7451 93.6327 55.2686 93.5946 54.5062 93.5946C53.7438 93.5946 53.2673 93.5564 53.2673 93.4955C53.2673 93.4339 52.7273 93.3964 51.8379 93.3964C50.9485 93.3964 50.4084 93.3589 50.4084 93.2973C50.4084 93.234 49.5825 93.1982 48.1213 93.1982C46.6601 93.1982 45.8342 93.1624 45.8342 93.0991C45.8342 93.0372 45.2624 93 44.3094 93C43.3564 93 42.7847 93.0372 42.7847 93.0991ZM45.8342 97.2613C45.8342 97.3245 46.6283 97.3604 48.026 97.3604C49.4237 97.3604 50.2178 97.3962 50.2178 97.4595C50.2178 97.5211 50.7579 97.5586 51.6473 97.5586C52.5367 97.5586 53.0767 97.596 53.0767 97.6577C53.0767 97.7186 53.5532 97.7568 54.3156 97.7568C55.078 97.7568 55.5545 97.7949 55.5545 97.8559C55.5545 97.9159 55.9674 97.955 56.6027 97.955C57.2381 97.955 57.651 97.994 57.651 98.0541C57.651 98.1128 58.0004 98.1532 58.5087 98.1532C59.0169 98.1532 59.3663 98.1935 59.3663 98.2523C59.3663 98.31 59.684 98.3514 60.1287 98.3514C60.5735 98.3514 60.8911 98.3927 60.8911 98.4505C60.8911 98.5082 61.2087 98.5495 61.6535 98.5495C62.0982 98.5495 62.4158 98.5909 62.4158 98.6486C62.4158 98.7037 62.67 98.7477 62.9876 98.7477C63.3052 98.7477 63.5594 98.7917 63.5594 98.8468C63.5594 98.9019 63.8136 98.9459 64.1312 98.9459C64.4488 98.9459 64.703 98.9899 64.703 99.045C64.703 99.1001 64.9571 99.1441 65.2748 99.1441C65.5924 99.1441 65.8465 99.1881 65.8465 99.2432C65.8465 99.2977 66.0181 99.3423 66.2277 99.3423C66.4374 99.3423 66.6089 99.3869 66.6089 99.4414C66.6089 99.4959 66.7804 99.5405 66.9901 99.5405C67.1998 99.5405 67.3713 99.5851 67.3713 99.6396C67.3713 99.6941 67.4571 99.7387 67.5619 99.7387C67.6667 99.7387 67.7525 99.7833 67.7525 99.8378C67.7525 99.8923 67.8198 99.9369 67.9022 99.9369C68.0948 99.9369 68.3243 100.176 68.3243 100.376C68.3243 100.461 68.3671 100.532 68.4196 100.532C68.472 100.532 68.5149 100.665 68.5149 100.829C68.5149 100.992 68.5577 101.126 68.6101 101.126C68.6732 101.126 68.7054 105.817 68.7054 115C68.7054 124.183 68.6732 128.874 68.6101 128.874C68.5577 128.874 68.5149 128.998 68.5149 129.149C68.5149 129.311 68.4361 129.484 68.3243 129.568C68.2194 129.646 68.1337 129.79 68.1337 129.887C68.1337 129.997 68.0623 130.063 67.9431 130.063C67.8382 130.063 67.7525 130.108 67.7525 130.162C67.7525 130.217 67.6667 130.261 67.5619 130.261C67.4571 130.261 67.3713 130.306 67.3713 130.36C67.3713 130.415 67.1998 130.459 66.9901 130.459C66.7804 130.459 66.6089 130.504 66.6089 130.559C66.6089 130.613 66.4374 130.658 66.2277 130.658C66.0181 130.658 65.8465 130.702 65.8465 130.757C65.8465 130.812 65.5924 130.856 65.2748 130.856C64.9571 130.856 64.703 130.9 64.703 130.955C64.703 131.01 64.4488 131.054 64.1312 131.054C63.8136 131.054 63.5594 131.098 63.5594 131.153C63.5594 131.208 63.3052 131.252 62.9876 131.252C62.67 131.252 62.4158 131.296 62.4158 131.351C62.4158 131.408 62.13 131.45 61.7488 131.45C61.3676 131.45 61.0817 131.493 61.0817 131.55C61.0817 131.608 60.7322 131.649 60.224 131.649C59.7158 131.649 59.3663 131.689 59.3663 131.748C59.3663 131.807 59.0169 131.847 58.5087 131.847C58.0004 131.847 57.651 131.887 57.651 131.946C57.651 132.006 57.2381 132.045 56.6027 132.045C55.9674 132.045 55.5545 132.084 55.5545 132.144C55.5545 132.205 55.1097 132.243 54.4109 132.243C53.7121 132.243 53.2673 132.282 53.2673 132.342C53.2673 132.404 52.6955 132.441 51.7426 132.441C50.7896 132.441 50.2178 132.479 50.2178 132.541C50.2178 132.604 49.4554 132.64 48.1213 132.64C46.7871 132.64 46.0248 132.676 46.0248 132.739C46.0248 132.801 45.3894 132.838 44.3094 132.838C43.2294 132.838 42.5941 132.801 42.5941 132.739C42.5941 132.676 41.8952 132.64 40.6881 132.64C39.481 132.64 38.7822 132.603 38.7822 132.541C38.7822 132.479 38.2104 132.441 37.2574 132.441C36.3045 132.441 35.7327 132.404 35.7327 132.342C35.7327 132.282 35.2879 132.243 34.5891 132.243C33.8903 132.243 33.4455 132.205 33.4455 132.144C33.4455 132.084 33.0326 132.045 32.3973 132.045C31.7619 132.045 31.349 132.006 31.349 131.946C31.349 131.887 30.9996 131.847 30.4913 131.847C29.9831 131.847 29.6337 131.807 29.6337 131.748C29.6337 131.69 29.316 131.649 28.8713 131.649C28.4265 131.649 28.1089 131.607 28.1089 131.55C28.1089 131.492 27.7913 131.45 27.3465 131.45C26.9018 131.45 26.5842 131.409 26.5842 131.351C26.5842 131.296 26.33 131.252 26.0124 131.252C25.6948 131.252 25.4406 131.208 25.4406 131.153C25.4406 131.098 25.1864 131.054 24.8688 131.054C24.5512 131.054 24.297 131.01 24.297 130.955C24.297 130.9 24.0429 130.856 23.7252 130.856C23.4076 130.856 23.1535 130.812 23.1535 130.757C23.1535 130.702 22.9819 130.658 22.7723 130.658C22.5626 130.658 22.3911 130.613 22.3911 130.559C22.3911 130.504 22.2196 130.459 22.0099 130.459C21.8002 130.459 21.6287 130.415 21.6287 130.36C21.6287 130.306 21.5524 130.261 21.4592 130.261C21.3659 130.261 21.2278 130.172 21.1522 130.063C21.0767 129.954 20.9386 129.865 20.8453 129.865C20.7393 129.865 20.6757 129.791 20.6757 129.667C20.6757 129.558 20.6329 129.468 20.5804 129.468C20.528 129.468 20.4851 129.335 20.4851 129.171C20.4851 129.008 20.4423 128.874 20.3899 128.874C20.3268 128.874 20.2946 124.183 20.2946 115C20.2946 105.817 20.3268 101.126 20.3899 101.126C20.4423 101.126 20.4851 101.013 20.4851 100.876C20.4851 100.596 21.2375 99.7387 21.4833 99.7387C21.5632 99.7387 21.6287 99.6941 21.6287 99.6396C21.6287 99.5851 21.8002 99.5405 22.0099 99.5405C22.2196 99.5405 22.3911 99.4959 22.3911 99.4414C22.3911 99.3869 22.6055 99.3423 22.8676 99.3423C23.1296 99.3423 23.3441 99.2977 23.3441 99.2432C23.3441 99.1887 23.5585 99.1441 23.8205 99.1441C24.0826 99.1441 24.297 99.0995 24.297 99.045C24.297 98.9899 24.5512 98.9459 24.8688 98.9459C25.1864 98.9459 25.4406 98.9019 25.4406 98.8468C25.4406 98.7903 25.7265 98.7477 26.1077 98.7477C26.4889 98.7477 26.7748 98.7052 26.7748 98.6486C26.7748 98.5921 27.0606 98.5495 27.4418 98.5495C27.823 98.5495 28.1089 98.507 28.1089 98.4505C28.1089 98.3927 28.4265 98.3514 28.8713 98.3514C29.316 98.3514 29.6337 98.31 29.6337 98.2523C29.6337 98.1935 29.9831 98.1532 30.4913 98.1532C30.9996 98.1532 31.349 98.1128 31.349 98.0541C31.349 97.994 31.7619 97.955 32.3973 97.955C33.0326 97.955 33.4455 97.9159 33.4455 97.8559C33.4455 97.7949 33.922 97.7568 34.6844 97.7568C35.4468 97.7568 35.9233 97.7186 35.9233 97.6577C35.9233 97.5957 36.495 97.5586 37.448 97.5586C38.401 97.5586 38.9728 97.5214 38.9728 97.4595C38.9728 97.3964 39.7351 97.3604 41.0693 97.3604C42.4035 97.3604 43.1658 97.3243 43.1658 97.2613C43.1658 97.1999 43.6741 97.1622 44.5 97.1622C45.3259 97.1622 45.8342 97.1999 45.8342 97.2613ZM16.2921 115C16.2921 123.258 16.2906 123.324 16.1015 123.324C15.9967 123.324 15.9109 123.28 15.9109 123.225C15.9109 123.171 15.8251 123.126 15.7203 123.126C15.6155 123.126 15.5297 123.082 15.5297 123.027C15.5297 122.973 15.4011 122.928 15.2438 122.928C15.0866 122.928 14.9579 122.883 14.9579 122.829C14.9579 122.774 14.8722 122.73 14.7673 122.73C14.6625 122.73 14.5767 122.685 14.5767 122.631C14.5767 122.576 14.491 122.532 14.3861 122.532C14.2813 122.532 14.1955 122.487 14.1955 122.432C14.1955 122.378 14.127 122.333 14.0432 122.333C13.9594 122.333 13.7706 122.2 13.6238 122.036C13.4769 121.873 13.3089 121.739 13.2505 121.739C13.0892 121.739 11.7178 120.277 11.7178 120.105C11.7178 120.023 11.6749 119.955 11.6225 119.955C11.5701 119.955 11.5272 119.876 11.5272 119.779C11.5272 119.682 11.4415 119.538 11.3366 119.459C11.2318 119.381 11.146 119.237 11.146 119.14C11.146 119.043 11.1032 118.964 11.0507 118.964C10.9983 118.964 10.9554 118.875 10.9554 118.766C10.9554 118.657 10.9126 118.568 10.8601 118.568C10.8077 118.568 10.7649 118.478 10.7649 118.369C10.7649 118.26 10.722 118.171 10.6696 118.171C10.6171 118.171 10.5743 118.082 10.5743 117.973C10.5743 117.864 10.5314 117.775 10.479 117.775C10.4265 117.775 10.3837 117.596 10.3837 117.378C10.3837 117.16 10.3408 116.982 10.2884 116.982C10.234 116.982 10.1931 116.685 10.1931 116.288C10.1931 115.892 10.1522 115.595 10.0978 115.595C10.0434 115.595 10.0025 115.297 10.0025 114.901C10.0025 114.505 10.0434 114.207 10.0978 114.207C10.1508 114.207 10.1931 113.943 10.1931 113.613C10.1931 113.282 10.2354 113.018 10.2884 113.018C10.3408 113.018 10.3837 112.884 10.3837 112.721C10.3837 112.557 10.4265 112.423 10.479 112.423C10.5314 112.423 10.5743 112.29 10.5743 112.126C10.5743 111.963 10.6171 111.829 10.6696 111.829C10.722 111.829 10.7649 111.74 10.7649 111.631C10.7649 111.522 10.8077 111.432 10.8601 111.432C10.9126 111.432 10.9554 111.343 10.9554 111.234C10.9554 111.125 10.9983 111.036 11.0507 111.036C11.1032 111.036 11.146 110.947 11.146 110.838C11.146 110.729 11.1889 110.64 11.2413 110.64C11.2938 110.64 11.3366 110.568 11.3366 110.481C11.3366 110.394 11.4653 110.198 11.6225 110.045C11.7798 109.892 11.9084 109.718 11.9084 109.657C11.9084 109.502 13.1165 108.261 13.2674 108.261C13.3354 108.261 13.4529 108.172 13.5285 108.063C13.604 107.954 13.7327 107.865 13.8144 107.865C13.896 107.865 14.0247 107.776 14.1002 107.667C14.1758 107.558 14.3139 107.468 14.4072 107.468C14.5004 107.468 14.5767 107.424 14.5767 107.369C14.5767 107.315 14.6625 107.27 14.7673 107.27C14.8722 107.27 14.9579 107.226 14.9579 107.171C14.9579 107.117 15.0866 107.072 15.2438 107.072C15.4011 107.072 15.5297 107.027 15.5297 106.973C15.5297 106.918 15.6584 106.874 15.8156 106.874C15.9728 106.874 16.1015 106.829 16.1015 106.775C16.1015 106.72 16.1444 106.676 16.1968 106.676C16.2596 106.676 16.2921 109.517 16.2921 115ZM73.0891 106.775C73.0891 106.829 73.1749 106.874 73.2797 106.874C73.3845 106.874 73.4703 106.918 73.4703 106.973C73.4703 107.027 73.5989 107.072 73.7562 107.072C73.9134 107.072 74.0421 107.117 74.0421 107.171C74.0421 107.226 74.1278 107.27 74.2327 107.27C74.3375 107.27 74.4233 107.315 74.4233 107.369C74.4233 107.424 74.4996 107.468 74.5928 107.468C74.6861 107.468 74.8242 107.558 74.8998 107.667C74.9753 107.776 75.104 107.865 75.1856 107.865C75.2673 107.865 75.396 107.954 75.4715 108.063C75.5471 108.172 75.6644 108.261 75.7324 108.261C75.8002 108.261 76.1767 108.595 76.569 109.003C76.9612 109.411 77.2822 109.802 77.2822 109.873C77.2822 109.944 77.3679 110.066 77.4728 110.144C77.5776 110.223 77.6634 110.366 77.6634 110.463C77.6634 110.56 77.7063 110.64 77.7587 110.64C77.8111 110.64 77.854 110.729 77.854 110.838C77.854 110.947 77.8968 111.036 77.9493 111.036C78.0017 111.036 78.0446 111.125 78.0446 111.234C78.0446 111.343 78.0874 111.432 78.1399 111.432C78.1923 111.432 78.2351 111.522 78.2351 111.631C78.2351 111.74 78.278 111.829 78.3304 111.829C78.3829 111.829 78.4257 111.918 78.4257 112.027C78.4257 112.136 78.4686 112.225 78.521 112.225C78.5735 112.225 78.6163 112.404 78.6163 112.622C78.6163 112.84 78.6592 113.018 78.7116 113.018C78.7646 113.018 78.8069 113.282 78.8069 113.613C78.8069 113.943 78.8492 114.207 78.9022 114.207C78.9578 114.207 78.9975 114.538 78.9975 115C78.9975 115.462 78.9578 115.793 78.9022 115.793C78.8492 115.793 78.8069 116.057 78.8069 116.387C78.8069 116.718 78.7646 116.982 78.7116 116.982C78.6592 116.982 78.6163 117.16 78.6163 117.378C78.6163 117.596 78.5735 117.775 78.521 117.775C78.4686 117.775 78.4257 117.864 78.4257 117.973C78.4257 118.082 78.3829 118.171 78.3304 118.171C78.278 118.171 78.2351 118.295 78.2351 118.447C78.2351 118.608 78.1564 118.781 78.0446 118.865C77.9397 118.943 77.854 119.087 77.854 119.184C77.854 119.281 77.8111 119.36 77.7587 119.36C77.7063 119.36 77.6634 119.44 77.6634 119.537C77.6634 119.634 77.5776 119.777 77.4728 119.856C77.3679 119.934 77.2822 120.056 77.2822 120.127C77.2822 120.294 75.8933 121.739 75.7324 121.739C75.6644 121.739 75.5471 121.828 75.4715 121.937C75.396 122.046 75.2673 122.135 75.1856 122.135C75.104 122.135 74.9753 122.224 74.8998 122.333C74.8242 122.442 74.6861 122.532 74.5928 122.532C74.4996 122.532 74.4233 122.576 74.4233 122.631C74.4233 122.685 74.3375 122.73 74.2327 122.73C74.1278 122.73 74.0421 122.774 74.0421 122.829C74.0421 122.883 73.9563 122.928 73.8515 122.928C73.7467 122.928 73.6609 122.973 73.6609 123.027C73.6609 123.082 73.5322 123.126 73.375 123.126C73.2178 123.126 73.0891 123.171 73.0891 123.225C73.0891 123.28 73.0033 123.324 72.8985 123.324C72.7094 123.324 72.7079 123.258 72.7079 115C72.7079 106.742 72.7094 106.676 72.8985 106.676C73.0033 106.676 73.0891 106.72 73.0891 106.775ZM26.5842 107.369C26.5842 107.424 26.475 107.468 26.3416 107.468C26.0741 107.468 25.6312 107.867 25.6312 108.108C25.6312 108.192 25.5883 108.261 25.5359 108.261C25.4835 108.261 25.4406 108.395 25.4406 108.559C25.4406 108.722 25.3977 108.856 25.3453 108.856C25.2929 108.856 25.25 108.945 25.25 109.054C25.25 109.163 25.2929 109.252 25.3453 109.252C25.3977 109.252 25.4406 109.376 25.4406 109.528C25.4406 109.689 25.5193 109.862 25.6312 109.946C25.736 110.025 25.8218 110.168 25.8218 110.265C25.8218 110.375 25.8932 110.441 26.0124 110.441C26.1172 110.441 26.203 110.486 26.203 110.541C26.203 110.595 26.3316 110.64 26.4889 110.64C26.6461 110.64 26.7748 110.684 26.7748 110.739C26.7748 110.804 32.7785 110.838 44.5953 110.838C56.4121 110.838 62.4158 110.804 62.4158 110.739C62.4158 110.684 62.4813 110.64 62.5613 110.64C62.807 110.64 63.5594 109.783 63.5594 109.503C63.5594 109.365 63.6023 109.252 63.6547 109.252C63.7071 109.252 63.75 109.163 63.75 109.054C63.75 108.945 63.7071 108.856 63.6547 108.856C63.6023 108.856 63.5594 108.722 63.5594 108.559C63.5594 108.395 63.5165 108.261 63.4641 108.261C63.4117 108.261 63.3688 108.192 63.3688 108.108C63.3688 107.91 62.9444 107.468 62.7537 107.468C62.6727 107.468 62.6064 107.424 62.6064 107.369C62.6064 107.304 56.5392 107.27 44.5953 107.27C32.6514 107.27 26.5842 107.304 26.5842 107.369ZM25.8456 119.613C25.5289 119.954 25.4406 120.124 25.4406 120.39C25.4406 120.578 25.387 120.757 25.3215 120.789C25.2262 120.835 25.2262 120.858 25.3215 120.905C25.387 120.936 25.4406 121.116 25.4406 121.304C25.4406 121.562 25.5217 121.731 25.771 121.99C25.9526 122.179 26.167 122.333 26.2475 122.333C26.3278 122.333 26.3936 122.378 26.3936 122.432C26.3936 122.498 32.4926 122.532 44.5 122.532C56.5074 122.532 62.6064 122.498 62.6064 122.432C62.6064 122.378 62.6722 122.333 62.7525 122.333C62.9927 122.333 63.5594 121.674 63.5594 121.395C63.5594 121.257 63.6023 121.144 63.6547 121.144C63.7071 121.144 63.75 121.01 63.75 120.847C63.75 120.683 63.7071 120.55 63.6547 120.55C63.6023 120.55 63.5594 120.437 63.5594 120.299C63.5594 120.135 63.4129 119.897 63.133 119.606L62.7068 119.162L44.4787 119.169L26.2506 119.177L25.8456 119.613Z" fill="black"/>
<path fill-rule="evenodd" clip-rule="evenodd" d="M121.971 70.1178C121.971 70.1826 121.891 70.2356 121.793 70.2356C121.562 70.2356 120.81 70.9985 120.81 71.233C120.81 71.3323 120.758 71.4136 120.694 71.4136C120.631 71.4136 120.578 71.5196 120.578 71.6492C120.578 71.7788 120.526 71.8848 120.462 71.8848C120.399 71.8848 120.346 72.0438 120.346 72.2382C120.346 72.4326 120.294 72.5916 120.23 72.5916C120.167 72.5916 120.114 72.8037 120.114 73.0628C120.114 73.322 120.062 73.534 119.998 73.534C119.934 73.534 119.882 73.8482 119.882 74.2408C119.882 74.6335 119.831 74.9476 119.766 74.9476C119.692 74.9476 119.65 76.2042 119.65 78.4817C119.65 80.7591 119.692 82.0157 119.766 82.0157C119.837 82.0157 119.882 82.5655 119.882 83.4293C119.882 84.2932 119.927 84.8429 119.998 84.8429C120.067 84.8429 120.114 85.2749 120.114 85.9031C120.114 86.5314 120.162 86.9634 120.23 86.9634C120.297 86.9634 120.346 87.3168 120.346 87.788C120.346 88.2592 120.396 88.6126 120.462 88.6126C120.532 88.6126 120.578 89.0838 120.578 89.7906C120.578 90.89 120.563 90.9686 120.346 90.9686C120.192 90.9686 120.114 90.89 120.114 90.733C120.114 90.6034 120.062 90.4974 119.998 90.4974C119.935 90.4974 119.882 90.3384 119.882 90.144C119.882 89.9496 119.83 89.7906 119.766 89.7906C119.703 89.7906 119.65 89.5785 119.65 89.3194C119.65 89.0602 119.598 88.8482 119.534 88.8482C119.471 88.8482 119.418 88.6361 119.418 88.377C119.418 88.1178 119.366 87.9058 119.302 87.9058C119.238 87.9058 119.186 87.6937 119.186 87.4346C119.186 87.1754 119.134 86.9634 119.07 86.9634C119.006 86.9634 118.954 86.6983 118.954 86.3743C118.954 86.0504 118.902 85.7853 118.838 85.7853C118.774 85.7853 118.722 85.5733 118.722 85.3141C118.722 85.055 118.67 84.8429 118.606 84.8429C118.542 84.8429 118.49 84.5779 118.49 84.2539C118.49 83.93 118.438 83.6649 118.374 83.6649C118.31 83.6649 118.258 83.4529 118.258 83.1937C118.258 82.9346 118.206 82.7225 118.142 82.7225C118.078 82.7225 118.026 82.4575 118.026 82.1335C118.026 81.8096 117.974 81.5445 117.91 81.5445C117.846 81.5445 117.794 81.3325 117.794 81.0733C117.794 80.8141 117.742 80.6021 117.678 80.6021C117.614 80.6021 117.562 80.3901 117.562 80.1309C117.562 79.8717 117.51 79.6597 117.446 79.6597C117.382 79.6597 117.33 79.4476 117.33 79.1885C117.33 78.9293 117.278 78.7173 117.214 78.7173C117.15 78.7173 117.098 78.5582 117.098 78.3639C117.098 78.1695 117.046 78.0105 116.982 78.0105C116.918 78.0105 116.866 77.8514 116.866 77.6571C116.866 77.4627 116.814 77.3037 116.75 77.3037C116.686 77.3037 116.634 77.1446 116.634 76.9503C116.634 76.7559 116.582 76.5969 116.518 76.5969C116.454 76.5969 116.402 76.4908 116.402 76.3613C116.402 76.2317 116.35 76.1257 116.286 76.1257C116.222 76.1257 116.17 76.0196 116.17 75.8901C116.17 75.7605 116.118 75.6545 116.054 75.6545C115.99 75.6545 115.938 75.5484 115.938 75.4188C115.938 75.2893 115.886 75.1832 115.822 75.1832C115.758 75.1832 115.706 75.1014 115.706 75.0012C115.706 74.9011 115.578 74.6891 115.421 74.53C115.264 74.371 115.056 74.2408 114.957 74.2408C114.858 74.2408 114.778 74.1878 114.778 74.123C114.778 74.0558 114.43 74.0052 113.966 74.0052C113.502 74.0052 113.154 74.0558 113.154 74.123C113.154 74.1878 113.073 74.2408 112.974 74.2408C112.742 74.2408 112.225 74.7655 112.225 75.0012C112.225 75.1014 112.173 75.1832 112.109 75.1832C112.046 75.1832 111.993 75.2893 111.993 75.4188C111.993 75.5484 111.941 75.6545 111.877 75.6545C111.814 75.6545 111.761 75.8135 111.761 76.0079C111.761 76.2022 111.709 76.3613 111.645 76.3613C111.575 76.3613 111.529 76.8717 111.529 77.6571C111.529 78.4424 111.484 78.9529 111.413 78.9529C111.35 78.9529 111.297 79.1119 111.297 79.3063C111.297 79.5007 111.35 79.6597 111.413 79.6597C111.486 79.6597 111.529 80.3665 111.529 81.5445C111.529 82.7225 111.573 83.4293 111.645 83.4293C111.713 83.4293 111.761 83.822 111.761 84.3717C111.761 84.9215 111.81 85.3141 111.877 85.3141C111.945 85.3141 111.993 85.7068 111.993 86.2565C111.993 86.8063 112.042 87.199 112.109 87.199C112.177 87.199 112.225 87.5916 112.225 88.1414C112.225 88.6911 112.274 89.0838 112.342 89.0838C112.408 89.0838 112.458 89.4372 112.458 89.9084C112.458 90.3796 112.507 90.733 112.574 90.733C112.643 90.733 112.69 91.2042 112.69 91.911C112.69 92.6178 112.736 93.089 112.806 93.089C112.878 93.089 112.922 93.7566 112.922 94.856C112.922 95.9555 112.878 96.623 112.806 96.623C112.741 96.623 112.69 96.9372 112.69 97.3298C112.69 97.7225 112.638 98.0366 112.574 98.0366C112.51 98.0366 112.458 98.1957 112.458 98.3901C112.458 98.5844 112.405 98.7435 112.342 98.7435C112.278 98.7435 112.225 98.8253 112.225 98.9255C112.225 99.1612 111.709 99.6859 111.477 99.6859C111.378 99.6859 111.297 99.7389 111.297 99.8037C111.297 99.8685 111.193 99.9215 111.065 99.9215C110.938 99.9215 110.833 99.8685 110.833 99.8037C110.833 99.7389 110.753 99.6859 110.654 99.6859C110.435 99.6859 109.905 99.1665 109.905 98.9515C109.905 98.8657 109.801 98.7191 109.673 98.6257C109.546 98.5322 109.441 98.3615 109.441 98.2462C109.441 98.131 109.389 98.0366 109.325 98.0366C109.261 98.0366 109.209 97.9423 109.209 97.8271C109.209 97.7118 109.105 97.5411 108.977 97.4476C108.85 97.3542 108.745 97.1835 108.745 97.0682C108.745 96.953 108.693 96.8586 108.629 96.8586C108.565 96.8586 108.513 96.6996 108.513 96.5052C108.513 96.3109 108.461 96.1518 108.397 96.1518C108.333 96.1518 108.281 96.0458 108.281 95.9162C108.281 95.7866 108.229 95.6806 108.165 95.6806C108.101 95.6806 108.049 95.5746 108.049 95.445C108.049 95.3154 107.997 95.2094 107.933 95.2094C107.869 95.2094 107.817 95.1034 107.817 94.9738C107.817 94.8442 107.765 94.7382 107.701 94.7382C107.637 94.7382 107.585 94.6322 107.585 94.5026C107.585 94.373 107.533 94.267 107.469 94.267C107.405 94.267 107.353 94.161 107.353 94.0314C107.353 93.9018 107.301 93.7958 107.237 93.7958C107.173 93.7958 107.121 93.6898 107.121 93.5602C107.121 93.4306 107.069 93.3246 107.005 93.3246C106.941 93.3246 106.889 93.2302 106.889 93.115C106.889 92.9997 106.784 92.829 106.657 92.7356C106.529 92.6422 106.425 92.4968 106.425 92.4126C106.425 92.2129 105.199 90.9686 105.003 90.9686C104.92 90.9686 104.777 90.8626 104.685 90.733C104.593 90.6034 104.425 90.4974 104.311 90.4974C104.198 90.4974 104.105 90.4444 104.105 90.3796C104.105 90.3148 103.948 90.2618 103.757 90.2618C103.565 90.2618 103.408 90.2088 103.408 90.144C103.408 90.0792 103.2 90.0262 102.944 90.0262C102.689 90.0262 102.48 89.9732 102.48 89.9084C102.48 89.8436 102.219 89.7906 101.9 89.7906C101.581 89.7906 101.32 89.8436 101.32 89.9084C101.32 89.9732 101.111 90.0262 100.856 90.0262C100.601 90.0262 100.392 90.0792 100.392 90.144C100.392 90.2088 100.312 90.2618 100.214 90.2618C99.922 90.2618 99.232 91.0452 99.232 91.377C99.232 91.5411 99.1798 91.6754 99.116 91.6754C99.0522 91.6754 99 91.7814 99 91.911C99 92.0406 99.0522 92.1466 99.116 92.1466C99.1798 92.1466 99.232 92.294 99.232 92.474C99.232 92.6662 99.3279 92.8714 99.4641 92.9712C99.5917 93.0646 99.6961 93.2237 99.6961 93.3246C99.6961 93.4256 99.8005 93.5846 99.9281 93.678C100.056 93.7714 100.16 93.9305 100.16 94.0314C100.16 94.1324 100.265 94.2914 100.392 94.3848C100.52 94.4782 100.624 94.6489 100.624 94.7643C100.624 94.8795 100.676 94.9738 100.74 94.9738C100.804 94.9738 100.856 95.0682 100.856 95.1834C100.856 95.2987 100.961 95.4694 101.088 95.5628C101.224 95.6626 101.32 95.8678 101.32 96.0601C101.32 96.2401 101.372 96.3874 101.436 96.3874C101.5 96.3874 101.552 96.4935 101.552 96.623C101.552 96.7526 101.604 96.8586 101.668 96.8586C101.732 96.8586 101.784 96.9647 101.784 97.0942C101.784 97.2238 101.837 97.3298 101.9 97.3298C101.964 97.3298 102.016 97.4359 102.016 97.5654C102.016 97.695 102.069 97.801 102.132 97.801C102.196 97.801 102.248 97.9601 102.248 98.1545C102.248 98.3488 102.301 98.5079 102.364 98.5079C102.428 98.5079 102.48 98.6669 102.48 98.8613C102.48 99.0556 102.533 99.2147 102.596 99.2147C102.66 99.2147 102.712 99.3737 102.712 99.5681C102.712 99.7624 102.765 99.9215 102.828 99.9215C102.892 99.9215 102.944 100.134 102.944 100.393C102.944 100.652 102.997 100.864 103.06 100.864C103.124 100.864 103.176 101.076 103.176 101.335C103.176 101.594 103.229 101.806 103.292 101.806C103.356 101.806 103.408 102.071 103.408 102.395C103.408 102.719 103.461 102.984 103.525 102.984C103.588 102.984 103.641 103.196 103.641 103.455C103.641 103.715 103.693 103.927 103.757 103.927C103.82 103.927 103.873 104.139 103.873 104.398C103.873 104.657 103.925 104.869 103.989 104.869C104.052 104.869 104.105 105.028 104.105 105.223C104.105 105.417 104.157 105.576 104.221 105.576C104.284 105.576 104.337 105.682 104.337 105.812C104.337 105.941 104.389 106.047 104.453 106.047C104.516 106.047 104.569 106.153 104.569 106.283C104.569 106.412 104.621 106.518 104.685 106.518C104.748 106.518 104.801 106.677 104.801 106.872C104.801 107.066 104.853 107.225 104.917 107.225C104.98 107.225 105.033 107.331 105.033 107.461C105.033 107.59 105.085 107.696 105.149 107.696C105.213 107.696 105.265 107.802 105.265 107.932C105.265 108.062 105.317 108.168 105.381 108.168C105.445 108.168 105.497 108.274 105.497 108.403C105.497 108.533 105.549 108.639 105.613 108.639C105.677 108.639 105.729 108.745 105.729 108.874C105.729 109.004 105.781 109.11 105.845 109.11C105.909 109.11 105.961 109.216 105.961 109.346C105.961 109.475 106.013 109.581 106.077 109.581C106.141 109.581 106.193 109.676 106.193 109.791C106.193 109.906 106.297 110.077 106.425 110.17C106.552 110.264 106.657 110.423 106.657 110.524C106.657 110.625 106.761 110.784 106.889 110.877C107.017 110.97 107.121 111.12 107.121 111.209C107.121 111.298 107.278 111.52 107.469 111.702C107.66 111.883 107.817 112.094 107.817 112.17C107.817 112.247 108.026 112.513 108.281 112.762C108.536 113.011 108.745 113.286 108.745 113.374C108.745 113.462 108.85 113.611 108.977 113.704C109.105 113.798 109.209 113.957 109.209 114.058C109.209 114.159 109.314 114.318 109.441 114.411C109.569 114.504 109.673 114.675 109.673 114.79C109.673 114.906 109.725 115 109.789 115C109.853 115 109.905 115.094 109.905 115.21C109.905 115.325 110.01 115.496 110.137 115.589C110.265 115.682 110.369 115.853 110.369 115.968C110.369 116.084 110.421 116.178 110.485 116.178C110.549 116.178 110.601 116.284 110.601 116.414C110.601 116.543 110.654 116.649 110.717 116.649C110.781 116.649 110.833 116.744 110.833 116.859C110.833 116.974 110.938 117.145 111.065 117.238C111.193 117.332 111.297 117.502 111.297 117.618C111.297 117.733 111.35 117.827 111.413 117.827C111.477 117.827 111.529 117.933 111.529 118.063C111.529 118.192 111.582 118.298 111.645 118.298C111.709 118.298 111.761 118.457 111.761 118.652C111.761 118.846 111.814 119.005 111.877 119.005C111.941 119.005 111.993 119.111 111.993 119.241C111.993 119.37 112.046 119.476 112.109 119.476C112.173 119.476 112.225 119.635 112.225 119.83C112.225 120.024 112.278 120.183 112.342 120.183C112.405 120.183 112.458 120.395 112.458 120.654C112.458 120.914 112.51 121.126 112.574 121.126C112.638 121.126 112.69 121.44 112.69 121.832C112.69 122.225 112.741 122.539 112.806 122.539C112.873 122.539 112.922 122.932 112.922 123.482C112.922 124.031 112.97 124.424 113.038 124.424C113.113 124.424 113.154 126.113 113.154 129.254C113.154 131.91 113.184 134.084 113.221 134.084C113.258 134.084 113.488 133.872 113.734 133.613C113.979 133.353 114.262 133.141 114.363 133.141C114.463 133.141 114.546 133.059 114.546 132.959C114.546 132.859 114.911 132.411 115.358 131.963C115.804 131.516 116.17 131.089 116.17 131.015C116.17 130.941 116.327 130.731 116.518 130.55C116.709 130.368 116.866 130.147 116.866 130.057C116.866 129.968 116.97 129.819 117.098 129.725C117.226 129.632 117.33 129.473 117.33 129.372C117.33 129.271 117.434 129.112 117.562 129.018C117.69 128.925 117.794 128.754 117.794 128.639C117.794 128.524 117.846 128.429 117.91 128.429C117.974 128.429 118.026 128.323 118.026 128.194C118.026 128.064 118.078 127.958 118.142 127.958C118.206 127.958 118.258 127.852 118.258 127.723C118.258 127.593 118.31 127.487 118.374 127.487C118.438 127.487 118.49 127.381 118.49 127.251C118.49 127.122 118.542 127.016 118.606 127.016C118.67 127.016 118.722 126.857 118.722 126.662C118.722 126.468 118.774 126.309 118.838 126.309C118.902 126.309 118.954 126.203 118.954 126.073C118.954 125.944 119.006 125.838 119.07 125.838C119.134 125.838 119.186 125.626 119.186 125.366C119.186 125.107 119.238 124.895 119.302 124.895C119.366 124.895 119.418 124.683 119.418 124.424C119.418 124.165 119.471 123.953 119.534 123.953C119.598 123.953 119.65 123.688 119.65 123.364C119.65 123.04 119.703 122.775 119.766 122.775C119.831 122.775 119.882 122.461 119.882 122.068C119.882 121.675 119.934 121.361 119.998 121.361C120.063 121.361 120.114 121.047 120.114 120.654C120.114 120.262 120.166 119.948 120.23 119.948C120.295 119.948 120.346 119.633 120.346 119.241C120.346 118.848 120.398 118.534 120.462 118.534C120.526 118.534 120.578 118.269 120.578 117.945C120.578 117.621 120.631 117.356 120.694 117.356C120.758 117.356 120.81 117.144 120.81 116.885C120.81 116.626 120.863 116.414 120.926 116.414C120.99 116.414 121.042 116.202 121.042 115.942C121.042 115.683 121.095 115.471 121.158 115.471C121.222 115.471 121.275 115.259 121.275 115C121.275 114.741 121.327 114.529 121.391 114.529C121.454 114.529 121.507 114.37 121.507 114.175C121.507 113.981 121.559 113.822 121.623 113.822C121.686 113.822 121.739 113.716 121.739 113.586C121.739 113.457 121.791 113.351 121.855 113.351C121.918 113.351 121.971 113.245 121.971 113.115C121.971 112.986 122.023 112.88 122.087 112.88C122.15 112.88 122.203 112.774 122.203 112.644C122.203 112.514 122.255 112.408 122.319 112.408C122.382 112.408 122.435 112.261 122.435 112.081C122.435 111.889 122.53 111.684 122.667 111.584C122.794 111.49 122.899 111.32 122.899 111.204C122.899 111.089 122.951 110.995 123.015 110.995C123.079 110.995 123.131 110.889 123.131 110.759C123.131 110.63 123.183 110.524 123.247 110.524C123.311 110.524 123.363 110.429 123.363 110.314C123.363 110.199 123.467 110.028 123.595 109.935C123.722 109.841 123.827 109.682 123.827 109.581C123.827 109.48 123.931 109.321 124.059 109.228C124.186 109.134 124.291 108.964 124.291 108.848C124.291 108.733 124.343 108.639 124.407 108.639C124.471 108.639 124.523 108.544 124.523 108.429C124.523 108.314 124.627 108.143 124.755 108.05C124.883 107.956 124.987 107.786 124.987 107.67C124.987 107.555 125.039 107.461 125.103 107.461C125.167 107.461 125.219 107.366 125.219 107.251C125.219 107.136 125.323 106.965 125.451 106.872C125.579 106.778 125.683 106.608 125.683 106.492C125.683 106.377 125.735 106.283 125.799 106.283C125.863 106.283 125.915 106.177 125.915 106.047C125.915 105.918 125.967 105.812 126.031 105.812C126.095 105.812 126.147 105.652 126.147 105.458C126.147 105.264 126.199 105.105 126.263 105.105C126.327 105.105 126.379 104.946 126.379 104.751C126.379 104.557 126.431 104.398 126.495 104.398C126.559 104.398 126.611 104.186 126.611 103.927C126.611 103.668 126.663 103.455 126.727 103.455C126.791 103.455 126.843 103.19 126.843 102.866C126.843 102.543 126.895 102.277 126.959 102.277C127.023 102.277 127.075 102.012 127.075 101.688C127.075 101.365 127.127 101.099 127.191 101.099C127.255 101.099 127.307 100.94 127.307 100.746C127.307 100.552 127.359 100.393 127.423 100.393C127.487 100.393 127.539 100.234 127.539 100.039C127.539 99.8449 127.591 99.6859 127.655 99.6859C127.719 99.6859 127.771 99.5268 127.771 99.3325C127.771 99.1381 127.823 98.9791 127.887 98.9791C127.951 98.9791 128.003 98.8847 128.003 98.7695C128.003 98.6542 128.108 98.4835 128.235 98.3901C128.363 98.2966 128.467 98.151 128.467 98.0665C128.467 97.8519 129.467 96.8586 129.682 96.8586C129.78 96.8586 129.859 96.8056 129.859 96.7408C129.859 96.676 129.964 96.623 130.092 96.623C130.219 96.623 130.324 96.57 130.324 96.5052C130.324 96.4404 130.428 96.3874 130.556 96.3874C130.683 96.3874 130.788 96.3344 130.788 96.2696C130.788 96.199 131.252 96.1518 131.948 96.1518C132.644 96.1518 133.108 96.199 133.108 96.2696C133.108 96.3344 133.264 96.3874 133.456 96.3874C133.647 96.3874 133.804 96.4404 133.804 96.5052C133.804 96.57 133.908 96.623 134.036 96.623C134.164 96.623 134.268 96.676 134.268 96.7408C134.268 96.8056 134.361 96.8586 134.474 96.8586C134.588 96.8586 134.756 96.9647 134.848 97.0942C134.94 97.2238 135.083 97.3298 135.167 97.3298C135.364 97.3298 136.356 98.3375 136.356 98.5377C136.356 98.6222 136.461 98.7678 136.588 98.8613C136.716 98.9547 136.82 99.1137 136.82 99.2147C136.82 99.3156 136.925 99.4746 137.052 99.5681C137.188 99.6678 137.284 99.8731 137.284 100.065C137.284 100.245 137.337 100.393 137.4 100.393C137.464 100.393 137.516 100.499 137.516 100.628C137.516 100.758 137.569 100.864 137.632 100.864C137.696 100.864 137.748 101.129 137.748 101.453C137.748 101.777 137.801 102.042 137.864 102.042C137.936 102.042 137.98 102.631 137.98 103.573C137.98 104.516 137.936 105.105 137.864 105.105C137.801 105.105 137.748 105.37 137.748 105.694C137.748 106.018 137.696 106.283 137.632 106.283C137.569 106.283 137.516 106.442 137.516 106.636C137.516 106.83 137.464 106.99 137.4 106.99C137.337 106.99 137.284 107.202 137.284 107.461C137.284 107.72 137.232 107.932 137.168 107.932C137.104 107.932 137.052 108.091 137.052 108.285C137.052 108.48 137 108.639 136.936 108.639C136.872 108.639 136.82 108.798 136.82 108.992C136.82 109.187 136.768 109.346 136.704 109.346C136.64 109.346 136.588 109.505 136.588 109.699C136.588 109.893 136.615 110.052 136.648 110.052C136.766 110.052 138.676 108.05 138.676 107.926C138.676 107.856 138.938 107.541 139.257 107.225C139.576 106.91 139.837 106.591 139.837 106.517C139.837 106.443 140.045 106.178 140.301 105.929C140.556 105.68 140.765 105.393 140.765 105.291C140.765 105.188 140.817 105.105 140.881 105.105C140.945 105.105 140.997 104.84 140.997 104.516C140.997 104.192 141.049 103.927 141.113 103.927C141.182 103.927 141.229 103.495 141.229 102.866C141.229 102.238 141.276 101.806 141.345 101.806C141.414 101.806 141.461 101.335 141.461 100.628C141.461 99.9215 141.507 99.4503 141.577 99.4503C141.648 99.4503 141.693 98.9005 141.693 98.0366C141.693 97.1728 141.738 96.623 141.809 96.623C141.879 96.623 141.925 96.1126 141.925 95.3272C141.925 94.5418 141.971 94.0314 142.041 94.0314C142.111 94.0314 142.157 93.521 142.157 92.7356C142.157 91.9502 142.203 91.4398 142.273 91.4398C142.345 91.4398 142.389 90.8116 142.389 89.7906C142.389 88.7696 142.433 88.1414 142.505 88.1414C142.579 88.1414 142.621 86.9634 142.621 84.8429C142.621 82.7225 142.579 81.5445 142.505 81.5445C142.441 81.5445 142.389 81.2795 142.389 80.9555C142.389 80.6315 142.337 80.3665 142.273 80.3665C142.209 80.3665 142.157 80.2075 142.157 80.0131C142.157 79.8187 142.105 79.6597 142.041 79.6597C141.977 79.6597 141.925 79.5537 141.925 79.4241C141.925 79.2945 141.873 79.1885 141.809 79.1885C141.745 79.1885 141.693 79.1052 141.693 79.0034C141.693 78.7653 141.413 78.4817 141.179 78.4817C141.079 78.4817 140.997 78.4287 140.997 78.3639C140.997 78.299 140.696 78.2461 140.326 78.2461C139.789 78.2461 139.623 78.2928 139.489 78.4817C139.397 78.6113 139.228 78.7173 139.115 78.7173C138.994 78.7173 138.908 78.8044 138.908 78.9268C138.908 79.0422 138.804 79.2129 138.676 79.3063C138.549 79.3997 138.444 79.5704 138.444 79.6857C138.444 79.8009 138.392 79.8953 138.328 79.8953C138.265 79.8953 138.212 80.0013 138.212 80.1309C138.212 80.2605 138.16 80.3665 138.096 80.3665C138.033 80.3665 137.98 80.4725 137.98 80.6021C137.98 80.7317 137.928 80.8377 137.864 80.8377C137.801 80.8377 137.748 80.9967 137.748 81.1911C137.748 81.3855 137.696 81.5445 137.632 81.5445C137.569 81.5445 137.516 81.7035 137.516 81.8979C137.516 82.0923 137.464 82.2513 137.4 82.2513C137.337 82.2513 137.284 82.4103 137.284 82.6047C137.284 82.7991 137.232 82.9581 137.168 82.9581C137.104 82.9581 137.052 83.1702 137.052 83.4293C137.052 83.6885 137 83.9005 136.936 83.9005C136.872 83.9005 136.82 84.1126 136.82 84.3717C136.82 84.6309 136.768 84.8429 136.704 84.8429C136.64 84.8429 136.588 85.108 136.588 85.4319C136.588 85.7559 136.536 86.0209 136.472 86.0209C136.408 86.0209 136.356 86.286 136.356 86.6099C136.356 86.9339 136.304 87.199 136.24 87.199C136.176 87.199 136.124 87.5131 136.124 87.9058C136.124 88.2984 136.073 88.6126 136.008 88.6126C135.944 88.6126 135.892 88.9267 135.892 89.3194C135.892 89.712 135.841 90.0262 135.776 90.0262C135.712 90.0262 135.66 90.3404 135.66 90.733C135.66 91.1256 135.609 91.4398 135.544 91.4398C135.48 91.4398 135.428 91.5988 135.428 91.7932C135.428 92.068 135.377 92.1466 135.196 92.1466C135.041 92.1466 134.964 92.068 134.964 91.911C134.964 91.7814 134.912 91.6754 134.848 91.6754C134.775 91.6754 134.732 90.8508 134.732 89.4372C134.732 88.0236 134.775 87.199 134.848 87.199C134.919 87.199 134.964 86.6492 134.964 85.7853C134.964 84.9215 135.009 84.3717 135.08 84.3717C135.153 84.3717 135.196 83.6649 135.196 82.4869C135.196 81.3089 135.24 80.6021 135.312 80.6021C135.382 80.6021 135.428 80.0917 135.428 79.3063C135.428 78.5209 135.382 78.0105 135.312 78.0105C135.242 78.0105 135.196 77.5393 135.196 76.8325C135.196 76.1257 135.15 75.6545 135.08 75.6545C135.016 75.6545 134.964 75.4424 134.964 75.1832C134.964 74.9241 134.912 74.712 134.848 74.712C134.784 74.712 134.732 74.553 134.732 74.3586C134.732 74.1643 134.68 74.0052 134.616 74.0052C134.552 74.0052 134.5 73.8992 134.5 73.7696C134.5 73.6401 134.448 73.534 134.384 73.534C134.32 73.534 134.268 73.4507 134.268 73.349C134.268 73.1218 133.992 72.8272 133.78 72.8272C133.694 72.8272 133.548 72.7212 133.456 72.5916C133.364 72.462 133.196 72.356 133.082 72.356C132.969 72.356 132.876 72.303 132.876 72.2382C132.876 72.1734 132.615 72.1204 132.296 72.1204C131.977 72.1204 131.716 72.1734 131.716 72.2382C131.716 72.303 131.636 72.356 131.538 72.356C131.307 72.356 130.556 73.1189 130.556 73.3534C130.556 73.4527 130.503 73.534 130.44 73.534C130.376 73.534 130.324 73.6401 130.324 73.7696C130.324 73.8992 130.271 74.0052 130.208 74.0052C130.144 74.0052 130.092 74.1113 130.092 74.2408C130.092 74.3704 130.039 74.4764 129.975 74.4764C129.912 74.4764 129.859 74.6355 129.859 74.8298C129.859 75.0242 129.807 75.1832 129.743 75.1832C129.68 75.1832 129.627 75.3953 129.627 75.6545C129.627 75.9136 129.575 76.1257 129.511 76.1257C129.448 76.1257 129.395 76.3907 129.395 76.7147C129.395 77.0386 129.343 77.3037 129.279 77.3037C129.215 77.3037 129.163 77.6178 129.163 78.0105C129.163 78.4031 129.112 78.7173 129.047 78.7173C128.98 78.7173 128.931 79.1099 128.931 79.6597C128.931 80.2095 128.883 80.6021 128.815 80.6021C128.744 80.6021 128.699 81.1911 128.699 82.1335C128.699 83.0759 128.655 83.6649 128.583 83.6649C128.509 83.6649 128.467 84.6859 128.467 86.4921C128.467 88.2984 128.425 89.3194 128.351 89.3194C128.288 89.3194 128.235 89.4784 128.235 89.6728C128.235 89.9476 128.184 90.0262 128.003 90.0262C127.823 90.0262 127.771 89.9476 127.771 89.6728C127.771 89.4784 127.719 89.3194 127.655 89.3194C127.589 89.3194 127.539 88.966 127.539 88.4948C127.539 88.0236 127.489 87.6702 127.423 87.6702C127.35 87.6702 127.307 86.8455 127.307 85.4319C127.307 84.0183 127.264 83.1937 127.191 83.1937C127.118 83.1937 127.075 82.4477 127.075 81.1911C127.075 79.9345 127.032 79.1885 126.959 79.1885C126.89 79.1885 126.843 78.7565 126.843 78.1283C126.843 77.5 126.796 77.0681 126.727 77.0681C126.661 77.0681 126.611 76.7147 126.611 76.2435C126.611 75.7723 126.561 75.4188 126.495 75.4188C126.431 75.4188 126.379 75.1538 126.379 74.8298C126.379 74.5059 126.327 74.2408 126.263 74.2408C126.199 74.2408 126.147 74.0818 126.147 73.8874C126.147 73.6931 126.095 73.534 126.031 73.534C125.967 73.534 125.915 73.375 125.915 73.1806C125.915 72.9863 125.863 72.8272 125.799 72.8272C125.735 72.8272 125.683 72.6682 125.683 72.4738C125.683 72.2795 125.631 72.1204 125.567 72.1204C125.503 72.1204 125.451 72.0144 125.451 71.8848C125.451 71.7552 125.399 71.6492 125.335 71.6492C125.271 71.6492 125.219 71.5679 125.219 71.4686C125.219 71.2481 124.474 70.4712 124.262 70.4712C124.179 70.4712 124.035 70.3652 123.943 70.2356C123.8 70.0348 123.642 70 122.873 70C122.349 70 121.971 70.0494 121.971 70.1178ZM151.206 96.9764C151.206 97.0412 151.113 97.0942 150.999 97.0942C150.886 97.0942 150.718 97.2003 150.626 97.3298C150.534 97.4594 150.387 97.5654 150.299 97.5654C150.211 97.5654 149.993 97.7245 149.814 97.9188C149.635 98.1132 149.431 98.2723 149.36 98.2723C149.195 98.2723 146.797 100.702 146.797 100.869C146.797 100.938 146.484 101.307 146.101 101.688C145.718 102.07 145.405 102.442 145.405 102.516C145.405 102.589 145.196 102.853 144.941 103.102C144.686 103.351 144.477 103.617 144.477 103.693C144.477 103.77 144.321 103.981 144.129 104.162C143.938 104.344 143.781 104.556 143.781 104.634C143.781 104.711 143.624 104.923 143.433 105.105C143.242 105.286 143.085 105.498 143.085 105.576C143.085 105.654 142.928 105.866 142.737 106.047C142.546 106.229 142.389 106.44 142.389 106.516C142.389 106.592 142.18 106.858 141.925 107.107C141.67 107.356 141.461 107.622 141.461 107.699C141.461 107.775 141.304 107.986 141.113 108.168C140.921 108.349 140.765 108.559 140.765 108.635C140.765 108.71 140.504 109.03 140.185 109.346C139.866 109.661 139.605 109.976 139.605 110.046C139.605 110.227 136.969 112.88 136.789 112.88C136.707 112.88 136.564 112.986 136.472 113.115C136.38 113.245 136.212 113.351 136.099 113.351C135.985 113.351 135.892 113.404 135.892 113.469C135.892 113.533 135.788 113.586 135.66 113.586C135.533 113.586 135.428 113.639 135.428 113.704C135.428 113.771 135.098 113.822 134.669 113.822C134.017 113.822 133.869 113.781 133.625 113.533C133.391 113.295 133.34 113.127 133.34 112.59C133.34 112.231 133.392 111.937 133.456 111.937C133.52 111.937 133.572 111.672 133.572 111.348C133.572 111.024 133.624 110.759 133.688 110.759C133.752 110.759 133.804 110.6 133.804 110.406C133.804 110.211 133.856 110.052 133.92 110.052C133.984 110.052 134.036 109.893 134.036 109.699C134.036 109.505 134.088 109.346 134.152 109.346C134.216 109.346 134.268 109.24 134.268 109.11C134.268 108.98 134.32 108.874 134.384 108.874C134.448 108.874 134.5 108.715 134.5 108.521C134.5 108.327 134.552 108.168 134.616 108.168C134.68 108.168 134.732 108.009 134.732 107.814C134.732 107.62 134.784 107.461 134.848 107.461C134.912 107.461 134.964 107.355 134.964 107.225C134.964 107.096 135.016 106.99 135.08 106.99C135.144 106.99 135.196 106.83 135.196 106.636C135.196 106.442 135.248 106.283 135.312 106.283C135.376 106.283 135.428 106.018 135.428 105.694C135.428 105.37 135.48 105.105 135.544 105.105C135.613 105.105 135.66 104.673 135.66 104.045C135.66 103.416 135.613 102.984 135.544 102.984C135.48 102.984 135.428 102.772 135.428 102.513C135.428 102.254 135.376 102.042 135.312 102.042C135.248 102.042 135.196 101.895 135.196 101.715C135.196 101.522 135.1 101.317 134.964 101.217C134.836 101.124 134.732 100.979 134.732 100.895C134.732 100.811 134.394 100.398 133.98 99.9781C133.453 99.443 133.141 99.2147 132.936 99.2147C132.775 99.2147 132.644 99.1616 132.644 99.0969C132.644 99.0314 132.334 98.9791 131.948 98.9791C131.561 98.9791 131.252 99.0314 131.252 99.0969C131.252 99.1616 131.171 99.2147 131.072 99.2147C130.79 99.2147 130.324 99.7622 130.324 100.093C130.324 100.258 130.271 100.393 130.208 100.393C130.143 100.393 130.092 100.707 130.092 101.099C130.092 101.492 130.04 101.806 129.975 101.806C129.912 101.806 129.859 102.018 129.859 102.277C129.859 102.537 129.807 102.749 129.743 102.749C129.68 102.749 129.627 102.961 129.627 103.22C129.627 103.479 129.575 103.691 129.511 103.691C129.448 103.691 129.395 103.85 129.395 104.045C129.395 104.239 129.343 104.398 129.279 104.398C129.216 104.398 129.163 104.557 129.163 104.751C129.163 104.946 129.111 105.105 129.047 105.105C128.984 105.105 128.931 105.211 128.931 105.34C128.931 105.47 128.879 105.576 128.815 105.576C128.752 105.576 128.699 105.682 128.699 105.812C128.699 105.941 128.647 106.047 128.583 106.047C128.52 106.047 128.467 106.153 128.467 106.283C128.467 106.412 128.415 106.518 128.351 106.518C128.288 106.518 128.235 106.624 128.235 106.754C128.235 106.884 128.183 106.99 128.119 106.99C128.055 106.99 128.003 107.096 128.003 107.225C128.003 107.355 127.951 107.461 127.887 107.461C127.823 107.461 127.771 107.567 127.771 107.696C127.771 107.826 127.719 107.932 127.655 107.932C127.591 107.932 127.539 108.026 127.539 108.142C127.539 108.257 127.435 108.428 127.307 108.521C127.18 108.614 127.075 108.773 127.075 108.874C127.075 108.975 126.971 109.134 126.843 109.228C126.716 109.321 126.611 109.492 126.611 109.607C126.611 109.722 126.559 109.817 126.495 109.817C126.431 109.817 126.379 109.911 126.379 110.026C126.379 110.142 126.275 110.312 126.147 110.406C126.019 110.499 125.915 110.67 125.915 110.785C125.915 110.9 125.863 110.995 125.799 110.995C125.735 110.995 125.683 111.089 125.683 111.204C125.683 111.32 125.579 111.49 125.451 111.584C125.323 111.677 125.219 111.848 125.219 111.963C125.219 112.078 125.167 112.173 125.103 112.173C125.039 112.173 124.987 112.279 124.987 112.408C124.987 112.538 124.935 112.644 124.871 112.644C124.807 112.644 124.755 112.803 124.755 112.997C124.755 113.192 124.703 113.351 124.639 113.351C124.575 113.351 124.523 113.457 124.523 113.586C124.523 113.716 124.471 113.822 124.407 113.822C124.343 113.822 124.291 113.981 124.291 114.175C124.291 114.37 124.239 114.529 124.175 114.529C124.111 114.529 124.059 114.635 124.059 114.764C124.059 114.894 124.007 115 123.943 115C123.879 115 123.827 115.212 123.827 115.471C123.827 115.73 123.775 115.942 123.711 115.942C123.647 115.942 123.595 116.101 123.595 116.296C123.595 116.49 123.543 116.649 123.479 116.649C123.415 116.649 123.363 116.808 123.363 117.003C123.363 117.197 123.311 117.356 123.247 117.356C123.183 117.356 123.131 117.568 123.131 117.827C123.131 118.086 123.079 118.298 123.015 118.298C122.95 118.298 122.899 118.613 122.899 119.005C122.899 119.398 122.847 119.712 122.783 119.712C122.715 119.712 122.667 120.105 122.667 120.654C122.667 121.204 122.618 121.597 122.551 121.597C122.487 121.597 122.435 121.862 122.435 122.186C122.435 122.51 122.382 122.775 122.319 122.775C122.255 122.775 122.203 123.04 122.203 123.364C122.203 123.688 122.15 123.953 122.087 123.953C122.023 123.953 121.971 124.112 121.971 124.306C121.971 124.501 121.918 124.66 121.855 124.66C121.791 124.66 121.739 124.872 121.739 125.131C121.739 125.39 121.686 125.602 121.623 125.602C121.559 125.602 121.507 125.761 121.507 125.955C121.507 126.15 121.454 126.309 121.391 126.309C121.327 126.309 121.275 126.468 121.275 126.662C121.275 126.857 121.222 127.016 121.158 127.016C121.095 127.016 121.042 127.175 121.042 127.369C121.042 127.563 120.99 127.723 120.926 127.723C120.863 127.723 120.81 127.829 120.81 127.958C120.81 128.088 120.758 128.194 120.694 128.194C120.631 128.194 120.578 128.3 120.578 128.429C120.578 128.559 120.526 128.665 120.462 128.665C120.399 128.665 120.346 128.771 120.346 128.901C120.346 129.03 120.294 129.136 120.23 129.136C120.167 129.136 120.114 129.23 120.114 129.346C120.114 129.461 120.01 129.632 119.882 129.725C119.755 129.819 119.65 129.978 119.65 130.079C119.65 130.179 119.546 130.339 119.418 130.432C119.291 130.525 119.186 130.675 119.186 130.764C119.186 130.853 119.03 131.075 118.838 131.257C118.647 131.438 118.49 131.647 118.49 131.721C118.49 131.795 118.073 132.275 117.562 132.788C117.052 133.301 116.634 133.802 116.634 133.902C116.634 134.005 116.534 134.084 116.402 134.084C116.247 134.084 116.17 134.162 116.17 134.319C116.17 134.455 116.093 134.555 115.988 134.555C115.775 134.555 115.474 134.831 115.474 135.026C115.474 135.221 115.173 135.497 114.96 135.497C114.855 135.497 114.778 135.597 114.778 135.733C114.778 135.89 114.7 135.969 114.546 135.969C114.412 135.969 114.314 136.047 114.314 136.154C114.314 136.392 114.034 136.675 113.8 136.675C113.7 136.675 113.618 136.759 113.618 136.86C113.618 137.099 113.338 137.382 113.104 137.382C112.999 137.382 112.922 137.482 112.922 137.618C112.922 137.775 112.844 137.853 112.69 137.853C112.535 137.853 112.458 137.932 112.458 138.089C112.458 138.223 112.38 138.325 112.278 138.325C112.046 138.325 111.529 138.849 111.529 139.085C111.529 139.188 111.429 139.267 111.297 139.267C111.143 139.267 111.065 139.346 111.065 139.503C111.065 139.66 110.988 139.738 110.833 139.738C110.679 139.738 110.601 139.817 110.601 139.974C110.601 140.11 110.524 140.209 110.419 140.209C110.185 140.209 109.905 140.493 109.905 140.731C109.905 140.833 109.823 140.916 109.723 140.916C109.499 140.916 109.209 141.196 109.209 141.412C109.209 141.499 109.105 141.647 108.977 141.741C108.85 141.834 108.745 142.005 108.745 142.12C108.745 142.235 108.693 142.33 108.629 142.33C108.565 142.33 108.513 142.436 108.513 142.565C108.513 142.695 108.461 142.801 108.397 142.801C108.327 142.801 108.281 143.311 108.281 144.097C108.281 144.882 108.235 145.393 108.165 145.393C108.096 145.393 108.049 145.846 108.049 146.517C108.049 147.554 108.071 147.664 108.334 147.931C108.49 148.09 108.695 148.22 108.788 148.22C108.881 148.22 108.988 148.286 109.026 148.367C109.08 148.485 109.107 148.485 109.161 148.367C109.211 148.257 109.771 148.22 111.373 148.22C113.604 148.22 113.85 148.272 113.85 148.742C113.85 148.843 113.902 148.927 113.966 148.927C114.032 148.927 114.082 149.28 114.082 149.751C114.082 150.223 114.032 150.576 113.966 150.576C113.894 150.576 113.85 151.147 113.85 152.054C113.85 153.466 113.862 153.545 114.134 153.821C114.414 154.105 114.455 154.11 116.339 154.11C117.541 154.11 118.258 154.066 118.258 153.992C118.258 153.927 118.363 153.874 118.49 153.874C118.618 153.874 118.722 153.927 118.722 153.992C118.722 154.057 118.856 154.11 119.02 154.11C119.401 154.11 119.65 154.363 119.65 154.749C119.65 154.916 119.703 155.052 119.766 155.052C119.83 155.052 119.882 155.158 119.882 155.288C119.882 155.418 119.83 155.524 119.766 155.524C119.694 155.524 119.65 156.252 119.65 157.473C119.65 159.385 119.656 159.427 119.935 159.711C120.209 159.989 120.277 160 121.791 160C122.762 160 123.363 159.955 123.363 159.882C123.363 159.814 123.749 159.764 124.291 159.764C124.832 159.764 125.219 159.715 125.219 159.647C125.219 159.582 125.323 159.529 125.451 159.529C125.579 159.529 125.683 159.476 125.683 159.411C125.683 159.346 125.762 159.293 125.858 159.293C125.954 159.293 128.434 156.855 131.368 153.874C134.302 150.894 136.759 148.455 136.828 148.455C136.898 148.455 137.155 148.243 137.4 147.984C137.646 147.725 137.917 147.513 138.004 147.513C138.09 147.513 138.236 147.407 138.328 147.277C138.42 147.148 138.577 147.042 138.676 147.042C138.776 147.042 138.933 146.936 139.025 146.806C139.117 146.677 139.273 146.571 139.373 146.571C139.472 146.571 139.629 146.465 139.721 146.335C139.813 146.205 139.981 146.099 140.094 146.099C140.208 146.099 140.301 146.046 140.301 145.982C140.301 145.917 140.405 145.864 140.533 145.864C140.66 145.864 140.765 145.811 140.765 145.746C140.765 145.681 140.858 145.628 140.971 145.628C141.085 145.628 141.253 145.522 141.345 145.393C141.437 145.263 141.605 145.157 141.718 145.157C141.832 145.157 141.925 145.104 141.925 145.039C141.925 144.974 142.029 144.921 142.157 144.921C142.284 144.921 142.389 144.868 142.389 144.804C142.389 144.739 142.493 144.686 142.621 144.686C142.749 144.686 142.853 144.633 142.853 144.568C142.853 144.503 142.946 144.45 143.059 144.45C143.173 144.45 143.341 144.344 143.433 144.215C143.525 144.085 143.693 143.979 143.807 143.979C143.92 143.979 144.013 143.926 144.013 143.861C144.013 143.796 144.106 143.743 144.219 143.743C144.333 143.743 144.501 143.637 144.593 143.508C144.685 143.378 144.842 143.272 144.941 143.272C145.041 143.272 145.197 143.166 145.289 143.037C145.381 142.907 145.538 142.801 145.637 142.801C145.737 142.801 145.893 142.695 145.985 142.565C146.077 142.436 146.234 142.33 146.333 142.33C146.433 142.33 146.589 142.224 146.681 142.094C146.773 141.965 146.93 141.859 147.029 141.859C147.129 141.859 147.285 141.753 147.377 141.623C147.469 141.493 147.617 141.387 147.705 141.387C147.792 141.387 148.011 141.228 148.19 141.034C148.368 140.84 148.587 140.681 148.674 140.681C148.762 140.681 148.91 140.575 149.002 140.445C149.094 140.315 149.241 140.209 149.329 140.209C149.417 140.209 149.635 140.05 149.814 139.856C149.993 139.662 150.2 139.503 150.275 139.503C150.351 139.503 150.613 139.291 150.858 139.031C151.103 138.772 151.364 138.56 151.438 138.56C151.512 138.56 151.773 138.348 152.018 138.089C152.263 137.83 152.524 137.618 152.598 137.618C152.672 137.618 152.933 137.406 153.178 137.147C153.423 136.887 153.684 136.675 153.757 136.675C153.83 136.675 154.143 136.41 154.454 136.086C154.765 135.762 155.078 135.497 155.15 135.497C155.222 135.497 155.536 135.232 155.846 134.908C156.157 134.584 156.47 134.319 156.542 134.319C156.615 134.319 156.928 134.054 157.239 133.73C157.549 133.406 157.863 133.141 157.936 133.141C158.009 133.141 158.269 132.929 158.515 132.67C158.76 132.411 159.02 132.199 159.093 132.199C159.166 132.199 159.48 131.934 159.791 131.61C160.102 131.286 160.414 131.021 160.486 131.021C160.557 131.021 160.923 130.703 161.299 130.314C161.675 129.925 162.04 129.607 162.11 129.607C162.181 129.607 162.599 129.236 163.039 128.783C163.48 128.329 163.895 127.958 163.962 127.958C164.139 127.958 168.608 123.395 168.608 123.214C168.608 123.131 168.712 122.986 168.84 122.893C168.967 122.799 169.072 122.64 169.072 122.539C169.072 122.438 169.176 122.279 169.304 122.186C169.432 122.092 169.536 121.922 169.536 121.806C169.536 121.691 169.588 121.597 169.652 121.597C169.716 121.597 169.768 121.438 169.768 121.243C169.768 121.049 169.82 120.89 169.884 120.89C169.948 120.89 170 120.731 170 120.537C170 120.342 169.948 120.183 169.884 120.183C169.82 120.183 169.768 120.089 169.768 119.974C169.768 119.858 169.664 119.688 169.536 119.594C169.408 119.501 169.304 119.33 169.304 119.215C169.304 119.06 169.212 119.005 168.956 119.005C168.764 119.005 168.608 118.952 168.608 118.887C168.608 118.823 168.347 118.77 168.028 118.77C167.709 118.77 167.448 118.823 167.448 118.887C167.448 118.952 167.239 119.005 166.984 119.005C166.728 119.005 166.52 119.058 166.52 119.123C166.52 119.188 166.415 119.241 166.288 119.241C166.16 119.241 166.056 119.294 166.056 119.359C166.056 119.423 165.899 119.476 165.708 119.476C165.516 119.476 165.359 119.529 165.359 119.594C165.359 119.659 165.255 119.712 165.127 119.712C165 119.712 164.895 119.765 164.895 119.83C164.895 119.895 164.802 119.948 164.689 119.948C164.575 119.948 164.407 120.054 164.315 120.183C164.223 120.313 164.055 120.419 163.942 120.419C163.828 120.419 163.735 120.472 163.735 120.537C163.735 120.601 163.631 120.654 163.503 120.654C163.376 120.654 163.271 120.707 163.271 120.772C163.271 120.837 163.178 120.89 163.065 120.89C162.951 120.89 162.783 120.996 162.691 121.126C162.599 121.255 162.443 121.361 162.343 121.361C162.244 121.361 162.087 121.467 161.995 121.597C161.903 121.726 161.746 121.832 161.647 121.832C161.548 121.832 161.391 121.938 161.299 122.068C161.207 122.198 161.05 122.304 160.951 122.304C160.852 122.304 160.695 122.41 160.603 122.539C160.511 122.669 160.354 122.775 160.255 122.775C160.155 122.775 159.999 122.881 159.907 123.01C159.815 123.14 159.668 123.246 159.58 123.246C159.492 123.246 159.274 123.405 159.095 123.599C158.916 123.794 158.698 123.953 158.61 123.953C158.522 123.953 158.375 124.059 158.283 124.188C158.191 124.318 158.043 124.424 157.956 124.424C157.868 124.424 157.649 124.583 157.471 124.777C157.292 124.972 157.062 125.131 156.96 125.131C156.858 125.131 156.775 125.184 156.775 125.249C156.775 125.313 156.67 125.366 156.542 125.366C156.415 125.366 156.31 125.42 156.31 125.484C156.31 125.549 156.258 125.602 156.194 125.602C155.936 125.602 156.09 124.979 156.426 124.66C156.618 124.478 156.775 124.27 156.775 124.198C156.775 124.03 158.237 122.539 158.402 122.539C158.47 122.539 158.886 122.168 159.327 121.715C159.767 121.261 160.185 120.89 160.256 120.89C160.326 120.89 160.691 120.572 161.067 120.183C161.443 119.795 161.808 119.476 161.878 119.476C161.948 119.476 162.418 119.052 162.923 118.534C163.428 118.016 163.896 117.592 163.964 117.592C164.125 117.592 166.288 115.394 166.288 115.229C166.288 115.16 166.549 114.844 166.868 114.529C167.187 114.213 167.448 113.884 167.448 113.797C167.448 113.71 167.552 113.562 167.68 113.469C167.807 113.375 167.912 113.204 167.912 113.089C167.912 112.974 167.964 112.88 168.028 112.88C168.092 112.88 168.144 112.721 168.144 112.526C168.144 112.332 168.196 112.173 168.26 112.173C168.324 112.173 168.376 112.014 168.376 111.819C168.376 111.625 168.428 111.466 168.492 111.466C168.556 111.466 168.608 111.201 168.608 110.877C168.608 110.553 168.556 110.288 168.492 110.288C168.428 110.288 168.376 110.182 168.376 110.052C168.376 109.923 168.324 109.817 168.26 109.817C168.196 109.817 168.144 109.735 168.144 109.635C168.144 109.294 167.603 108.874 167.163 108.874C166.937 108.874 166.752 108.821 166.752 108.757C166.752 108.692 166.647 108.639 166.52 108.639C166.392 108.639 166.288 108.692 166.288 108.757C166.288 108.821 166.079 108.874 165.824 108.874C165.568 108.874 165.359 108.927 165.359 108.992C165.359 109.057 165.255 109.11 165.127 109.11C165 109.11 164.895 109.163 164.895 109.228C164.895 109.293 164.739 109.346 164.547 109.346C164.356 109.346 164.199 109.399 164.199 109.463C164.199 109.528 164.106 109.581 163.993 109.581C163.879 109.581 163.711 109.687 163.619 109.817C163.527 109.946 163.371 110.052 163.271 110.052C163.172 110.052 163.015 110.158 162.923 110.288C162.831 110.418 162.663 110.524 162.55 110.524C162.436 110.524 162.343 110.577 162.343 110.641C162.343 110.706 162.26 110.759 162.158 110.759C162.056 110.759 161.826 110.918 161.647 111.113C161.468 111.307 161.261 111.466 161.185 111.466C161.11 111.466 160.848 111.678 160.603 111.937C160.358 112.196 160.097 112.408 160.024 112.408C159.952 112.408 159.638 112.673 159.327 112.997C159.016 113.321 158.704 113.586 158.633 113.586C158.562 113.586 158.143 113.957 157.703 114.411C157.262 114.865 156.846 115.236 156.777 115.236C156.709 115.236 155.924 115.978 155.034 116.885C154.144 117.792 153.336 118.534 153.239 118.534C153.142 118.534 153.062 118.587 153.062 118.652C153.062 118.717 152.905 118.77 152.714 118.77C152.523 118.77 152.366 118.717 152.366 118.652C152.366 118.587 152.418 118.534 152.482 118.534C152.546 118.534 152.598 118.428 152.598 118.298C152.598 118.169 152.65 118.063 152.714 118.063C152.778 118.063 152.83 117.98 152.83 117.878C152.83 117.777 153.091 117.436 153.41 117.12C153.729 116.805 153.99 116.488 153.99 116.416C153.99 116.343 154.356 115.918 154.802 115.471C155.249 115.024 155.614 114.601 155.614 114.531C155.614 114.461 156.189 113.824 156.891 113.115C157.592 112.407 158.167 111.769 158.167 111.699C158.167 111.628 158.48 111.259 158.863 110.877C159.246 110.495 159.559 110.122 159.559 110.047C159.559 109.972 159.715 109.763 159.907 109.581C160.098 109.4 160.255 109.189 160.255 109.112C160.255 109.036 160.464 108.77 160.719 108.521C160.974 108.272 161.183 108.006 161.183 107.93C161.183 107.853 161.34 107.642 161.531 107.461C161.722 107.279 161.879 107.046 161.879 106.942C161.879 106.839 161.931 106.754 161.995 106.754C162.059 106.754 162.111 106.66 162.111 106.544C162.111 106.429 162.216 106.258 162.343 106.165C162.471 106.072 162.575 105.901 162.575 105.785C162.575 105.67 162.627 105.576 162.691 105.576C162.755 105.576 162.807 105.47 162.807 105.34C162.807 105.211 162.859 105.105 162.923 105.105C162.987 105.105 163.039 104.946 163.039 104.751C163.039 104.557 163.091 104.398 163.155 104.398C163.219 104.398 163.271 104.239 163.271 104.045C163.271 103.85 163.323 103.691 163.387 103.691C163.453 103.691 163.503 103.338 163.503 102.866C163.503 102.395 163.453 102.042 163.387 102.042C163.323 102.042 163.271 101.908 163.271 101.743C163.271 101.412 162.581 100.628 162.289 100.628C162.191 100.628 162.111 100.575 162.111 100.51C162.111 100.446 161.954 100.393 161.763 100.393C161.572 100.393 161.415 100.34 161.415 100.275C161.415 100.21 161.311 100.157 161.183 100.157C161.055 100.157 160.951 100.21 160.951 100.275C160.951 100.34 160.742 100.393 160.487 100.393C160.232 100.393 160.023 100.446 160.023 100.51C160.023 100.575 159.866 100.628 159.675 100.628C159.483 100.628 159.327 100.681 159.327 100.746C159.327 100.811 159.234 100.864 159.12 100.864C159.007 100.864 158.839 100.97 158.747 101.099C158.655 101.229 158.498 101.335 158.399 101.335C158.299 101.335 158.143 101.441 158.051 101.571C157.959 101.7 157.813 101.806 157.726 101.806C157.639 101.806 157.368 102.018 157.123 102.277C156.877 102.537 156.62 102.749 156.551 102.749C156.387 102.749 152.83 106.359 152.83 106.525C152.83 106.595 152.569 106.91 152.25 107.225C151.931 107.541 151.67 107.858 151.67 107.931C151.67 108.003 151.357 108.375 150.974 108.757C150.591 109.138 150.278 109.51 150.278 109.584C150.278 109.657 150.069 109.921 149.814 110.17C149.558 110.419 149.35 110.685 149.35 110.762C149.35 110.838 149.193 111.049 149.002 111.23C148.81 111.412 148.654 111.623 148.654 111.699C148.654 111.775 148.445 112.042 148.19 112.291C147.934 112.54 147.725 112.802 147.725 112.873C147.725 113.071 146.713 114.058 146.51 114.058C146.411 114.058 146.333 113.955 146.333 113.822C146.333 113.692 146.386 113.586 146.449 113.586C146.513 113.586 146.565 113.48 146.565 113.351C146.565 113.221 146.618 113.115 146.681 113.115C146.745 113.115 146.797 113.009 146.797 112.88C146.797 112.75 146.85 112.644 146.913 112.644C146.977 112.644 147.029 112.538 147.029 112.408C147.029 112.279 147.082 112.173 147.145 112.173C147.209 112.173 147.261 112.078 147.261 111.963C147.261 111.848 147.366 111.677 147.493 111.584C147.621 111.49 147.725 111.32 147.725 111.204C147.725 111.089 147.778 110.995 147.842 110.995C147.905 110.995 147.958 110.9 147.958 110.785C147.958 110.67 148.062 110.499 148.19 110.406C148.317 110.312 148.422 110.142 148.422 110.026C148.422 109.911 148.474 109.817 148.538 109.817C148.601 109.817 148.654 109.732 148.654 109.628C148.654 109.525 148.81 109.291 149.002 109.11C149.193 108.928 149.35 108.695 149.35 108.592C149.35 108.488 149.402 108.403 149.466 108.403C149.529 108.403 149.582 108.309 149.582 108.194C149.582 108.078 149.686 107.908 149.814 107.814C149.941 107.721 150.046 107.562 150.046 107.461C150.046 107.36 150.15 107.201 150.278 107.107C150.405 107.014 150.51 106.843 150.51 106.728C150.51 106.613 150.562 106.518 150.626 106.518C150.69 106.518 150.742 106.424 150.742 106.309C150.742 106.193 150.846 106.023 150.974 105.929C151.101 105.836 151.206 105.677 151.206 105.576C151.206 105.475 151.31 105.316 151.438 105.223C151.566 105.129 151.67 104.958 151.67 104.843C151.67 104.728 151.722 104.634 151.786 104.634C151.85 104.634 151.902 104.539 151.902 104.424C151.902 104.309 152.006 104.138 152.134 104.045C152.262 103.951 152.366 103.78 152.366 103.665C152.366 103.55 152.418 103.455 152.482 103.455C152.546 103.455 152.598 103.349 152.598 103.22C152.598 103.09 152.65 102.984 152.714 102.984C152.778 102.984 152.83 102.878 152.83 102.749C152.83 102.619 152.882 102.513 152.946 102.513C153.01 102.513 153.062 102.407 153.062 102.277C153.062 102.148 153.114 102.042 153.178 102.042C153.242 102.042 153.294 101.936 153.294 101.806C153.294 101.677 153.346 101.571 153.41 101.571C153.474 101.571 153.526 101.465 153.526 101.335C153.526 101.205 153.578 101.099 153.642 101.099C153.706 101.099 153.758 100.993 153.758 100.864C153.758 100.734 153.81 100.628 153.874 100.628C153.938 100.628 153.99 100.469 153.99 100.275C153.99 100.08 154.042 99.9215 154.106 99.9215C154.175 99.9215 154.222 99.5079 154.222 98.9163C154.222 97.9263 154.216 97.9048 153.82 97.5027C153.599 97.278 153.338 97.0942 153.24 97.0942C153.142 97.0942 153.062 97.0412 153.062 96.9764C153.062 96.9078 152.675 96.8586 152.134 96.8586C151.593 96.8586 151.206 96.9078 151.206 96.9764Z" fill="black"/>
</svg>
